<svg width="54" height="54" viewBox="0 0 54 54" fill="none" xmlns="http://www.w3.org/2000/svg">
<path d="M23.7906 3.44914C26.2018 5.48358 27.8069 8.03518 28.1771 11.2063C28.1859 11.2814 28.1947 11.3565 28.2037 11.4339C28.2602 12.0204 28.3171 12.6754 27.9442 13.1602C27.608 13.4074 27.3354 13.4386 26.9305 13.4405C26.8327 13.4412 26.7349 13.4418 26.6342 13.4425C26.5287 13.4426 26.4233 13.4427 26.3146 13.4428C26.1517 13.4434 26.1517 13.4434 25.9855 13.4439C25.7556 13.4444 25.5257 13.4447 25.2958 13.4446C24.9443 13.4449 24.5929 13.4467 24.2415 13.4487C24.0181 13.449 23.7948 13.4492 23.5715 13.4493C23.4664 13.4501 23.3614 13.4508 23.2532 13.4516C23.1547 13.4512 23.0563 13.4509 22.9549 13.4506C22.8256 13.4508 22.8256 13.4508 22.6937 13.451C22.4049 13.4213 22.1878 13.3455 21.9273 13.2184C21.6232 12.8352 21.571 12.5012 21.5262 12.0215C21.3743 10.832 20.9368 9.75254 20.0147 8.96134C18.815 8.04211 17.63 7.70319 16.1305 7.83561C14.7732 8.08539 13.734 8.80022 12.9215 9.90592C12.2649 10.9668 12.166 12.0093 12.154 13.2318C12.152 13.3591 12.15 13.4865 12.1479 13.6177C12.1418 14.0216 12.137 14.4255 12.1322 14.8294C12.1283 15.1044 12.1242 15.3794 12.12 15.6545C12.1101 16.3262 12.1013 16.9979 12.0934 17.6696C12.2336 17.6689 12.2336 17.6689 12.3766 17.6681C14.6532 17.6567 16.9299 17.6481 19.2065 17.6428C20.3075 17.6401 21.4084 17.6365 22.5094 17.6306C23.4693 17.6254 24.4291 17.622 25.3889 17.6209C25.897 17.6202 26.405 17.6186 26.913 17.6149C27.3917 17.6113 27.8703 17.6103 28.349 17.6111C28.5242 17.6109 28.6994 17.6099 28.8745 17.6079C29.9153 17.5966 30.8436 17.6174 31.6465 18.3708C32.3209 19.0961 32.4909 19.8365 32.5187 20.803C32.5208 20.8735 32.523 20.944 32.5252 21.0166C32.5319 21.2401 32.5381 21.4637 32.5442 21.6873C32.5486 21.8395 32.5532 21.9918 32.5577 22.144C32.5688 22.5158 32.5792 22.8876 32.5895 23.2594C32.7678 23.207 32.7678 23.207 32.9497 23.1535C33.1121 23.1068 33.2746 23.0602 33.437 23.0136C33.5146 22.9906 33.5922 22.9677 33.6721 22.944C34.949 22.5807 36.2125 22.4958 37.5323 22.5025C37.61 22.5027 37.6878 22.5029 37.7678 22.5031C38.9007 22.5077 39.9773 22.5532 41.0777 22.8454C41.1472 22.8626 41.2167 22.8798 41.2883 22.8975C45.0634 23.8391 48.4547 26.2798 50.4847 29.6091C51.9556 32.103 52.6951 34.6849 52.6974 37.5834C52.6974 37.6627 52.6975 37.742 52.6976 37.8236C52.696 38.9695 52.656 40.0543 52.3609 41.1676C52.3443 41.236 52.3276 41.3044 52.3104 41.3749C51.3417 45.3318 48.7756 48.5896 45.3522 50.7267C42.9807 52.1559 40.3739 52.7851 37.6229 52.7873C37.504 52.7874 37.504 52.7874 37.3827 52.7875C36.237 52.7859 35.1518 52.7464 34.0387 52.4508C33.9692 52.4336 33.8997 52.4164 33.8281 52.3987C30.0493 51.4562 26.6994 49.0247 24.6478 45.7127C24.3996 45.2969 24.1832 44.868 23.9698 44.4336C23.9323 44.358 23.8948 44.2824 23.8562 44.2044C23.765 44.0204 23.6743 43.8362 23.5836 43.652C23.4298 43.6518 23.4298 43.6518 23.2729 43.6516C20.7759 43.6478 18.279 43.6416 15.7821 43.633C14.5746 43.6289 13.3671 43.6255 12.1596 43.624C11.107 43.6226 10.0543 43.6198 9.00169 43.6153C8.44449 43.613 7.88732 43.6113 7.33012 43.6115C6.80519 43.6115 6.28031 43.6097 5.7554 43.6063C5.56321 43.6055 5.37101 43.6053 5.17881 43.6059C2.97777 43.6116 2.97777 43.6116 2.06528 42.798C1.54612 42.271 1.28269 41.6383 1.27187 40.9053C1.27272 40.823 1.27358 40.7407 1.27446 40.656C1.27374 40.5664 1.27302 40.4768 1.27228 40.3845C1.27039 40.0862 1.27145 39.7879 1.27251 39.4896C1.27178 39.275 1.27088 39.0603 1.26981 38.8457C1.26748 38.2639 1.26778 37.6822 1.2687 37.1004C1.26923 36.6142 1.26848 36.1281 1.26772 35.6419C1.26596 34.4946 1.26633 33.3473 1.26806 32.2C1.26982 31.0177 1.26818 29.8353 1.26483 28.653C1.26207 27.6367 1.26132 26.6204 1.26219 25.6041C1.2627 24.9976 1.26248 24.3912 1.26035 23.7847C1.25845 23.2142 1.25907 22.6438 1.26161 22.0733C1.26213 21.8645 1.26178 21.6556 1.26046 21.4467C1.24774 19.2497 1.24774 19.2497 2.07782 18.3489C2.1901 18.2689 2.1901 18.2689 2.30466 18.1872C2.41655 18.1039 2.41655 18.1039 2.5307 18.019C3.1854 17.6405 3.7884 17.6437 4.52378 17.6567C4.62466 17.6576 4.72554 17.6585 4.82947 17.6595C5.07697 17.6619 5.32441 17.6653 5.57187 17.6696C5.57095 17.591 5.57003 17.5123 5.56909 17.4313C5.5607 16.6809 5.55444 15.9306 5.55042 15.1801C5.54828 14.7946 5.5454 14.409 5.54064 14.0235C5.51587 11.9605 5.50538 9.96156 6.38059 8.04264C6.43423 7.92066 6.43423 7.92066 6.48896 7.79621C6.78127 7.14782 7.117 6.5464 7.53867 5.97233C7.59992 5.88826 7.66117 5.8042 7.72427 5.71758C8.54291 4.64745 9.49408 3.67927 10.6441 2.97038C10.7513 2.90246 10.8584 2.83454 10.9688 2.76456C11.8819 2.20313 12.8275 1.82595 13.8531 1.52116C13.9691 1.4858 14.085 1.45044 14.2045 1.414C17.4897 0.59176 21.117 1.40793 23.7906 3.44914ZM9.7408 6.05644C8.06231 7.96878 7.29141 10.2278 7.31142 12.7566C7.31181 12.8991 7.3121 13.0415 7.31231 13.1839C7.31309 13.5552 7.31512 13.9265 7.31742 14.2978C7.31956 14.6781 7.3205 15.0584 7.32153 15.4388C7.32363 16.1824 7.32768 16.926 7.33164 17.6696C8.32228 17.6696 9.31293 17.6696 10.3336 17.6696C10.3363 17.2467 10.3389 16.8239 10.3417 16.3882C10.345 16.0465 10.3487 15.7049 10.3526 15.3632C10.3567 15.005 10.36 14.6469 10.3616 14.2887C10.3738 11.7764 10.4998 9.68726 12.3348 7.77738C13.5898 6.6308 15.1494 6.03206 16.8357 6.0435C16.9264 6.04408 17.0171 6.04466 17.1106 6.04527C18.8847 6.07835 20.3546 6.7951 21.6132 8.03617C22.5952 9.10206 22.9852 10.296 23.3766 11.6657C24.3672 11.6657 25.3579 11.6657 26.3785 11.6657C26.1359 8.99688 24.9541 6.79729 22.9273 5.04675C18.8311 1.87682 13.3093 2.37551 9.7408 6.05644ZM3.19101 19.8434C3.02841 20.1686 3.07179 20.5165 3.07157 20.8736C3.07111 20.9596 3.07066 21.0456 3.07019 21.1343C3.0688 21.4243 3.06817 21.7143 3.06753 22.0042C3.06672 22.2115 3.06586 22.4187 3.06497 22.626C3.06225 23.3079 3.06067 23.9899 3.05919 24.6719C3.05864 24.9063 3.05808 25.1408 3.05752 25.3753C3.05528 26.3504 3.05334 27.3255 3.05218 28.3007C3.0505 29.6996 3.04706 31.0986 3.04117 32.4976C3.03716 33.4804 3.03514 34.4633 3.03459 35.4461C3.03421 36.0336 3.03296 36.621 3.02961 37.2084C3.0265 37.761 3.02584 38.3134 3.02706 38.866C3.02709 39.0689 3.02622 39.2719 3.02441 39.4748C3.02207 39.7516 3.02291 40.0283 3.02456 40.3051C3.02312 40.3856 3.02169 40.4661 3.02021 40.5491C3.02633 40.966 3.07015 41.1464 3.33728 41.4739C3.75748 41.8055 4.04623 41.8033 4.56403 41.8012C4.64241 41.8013 4.72078 41.8014 4.80154 41.8015C5.06555 41.8016 5.32955 41.8011 5.59356 41.8005C5.78226 41.8005 5.97096 41.8005 6.15966 41.8005C6.67315 41.8006 7.18663 41.8 7.70012 41.7992C8.2363 41.7986 8.77248 41.7985 9.30866 41.7984C10.3245 41.7981 11.3404 41.7972 12.3563 41.7962C13.5126 41.795 14.6689 41.7945 15.8252 41.7939C18.2043 41.7929 20.5834 41.791 22.9625 41.7887C22.9502 41.7215 22.938 41.6543 22.9253 41.5851C22.8692 41.2759 22.8139 40.9665 22.7587 40.6571C22.7394 40.5514 22.72 40.4457 22.7001 40.3369C22.5377 39.4211 22.4865 38.5371 22.5031 37.6093C22.5039 37.5341 22.5046 37.4588 22.5054 37.3813C22.5167 36.2698 22.5691 35.2071 22.859 34.1286C22.8795 34.0485 22.9001 33.9684 22.9213 33.8859C23.5144 31.6051 24.5326 29.6074 26.068 27.8141C26.1414 27.7281 26.2148 27.642 26.2904 27.5533C27.1004 26.6282 27.9768 25.8623 28.9911 25.1676C29.0749 25.1089 29.0749 25.1089 29.1603 25.049C29.3805 24.9157 29.3805 24.9157 29.7201 24.7688C30.3849 24.4688 30.3849 24.4688 30.798 23.8953C30.902 23.334 30.8582 22.7711 30.8232 22.2049C30.8182 22.0335 30.8138 21.8621 30.8101 21.6907C30.8184 20.5761 30.8184 20.5761 30.3182 19.6252C29.862 19.343 29.4713 19.3719 28.9446 19.3768C28.8372 19.3761 28.7297 19.3755 28.619 19.3748C28.2585 19.3732 27.898 19.3745 27.5374 19.3758C27.2791 19.3752 27.0208 19.3745 26.7626 19.3736C26.1336 19.3719 25.5046 19.3721 24.8756 19.3733C24.3644 19.3743 23.8532 19.3744 23.342 19.374C23.2329 19.3739 23.2329 19.3739 23.1215 19.3738C22.9737 19.3736 22.8259 19.3735 22.6781 19.3734C21.2922 19.3722 19.9063 19.3735 18.5204 19.3758C17.3312 19.3776 16.142 19.3773 14.9528 19.3754C13.5718 19.3732 12.1909 19.3723 10.8099 19.3736C10.6627 19.3737 10.5154 19.3738 10.3682 19.374C10.2957 19.374 10.2233 19.3741 10.1486 19.3741C9.63802 19.3745 9.12744 19.3739 8.61685 19.3729C7.92965 19.3716 7.24247 19.3726 6.55528 19.375C6.30277 19.3755 6.05026 19.3753 5.79775 19.3744C5.45364 19.3733 5.10964 19.3747 4.76553 19.3768C4.66509 19.3759 4.56464 19.3749 4.46116 19.374C3.90788 19.3805 3.58593 19.4138 3.19101 19.8434ZM33.9352 24.7087C33.8597 24.7303 33.7842 24.7519 33.7064 24.7742C30.1726 25.8268 27.3824 28.2799 25.6216 31.4825C24.0215 34.5377 23.6858 38.2278 24.6961 41.5236C25.3887 43.6792 26.4805 45.4183 28.0348 47.068C28.0968 47.1368 28.1589 47.2055 28.2228 47.2763C29.8701 49.0303 32.0703 50.045 34.3492 50.6911C34.4803 50.7286 34.6113 50.7661 34.7463 50.8047C38.0333 51.5712 41.6523 50.8603 44.5258 49.1445C45.4202 48.5841 46.2119 47.8934 46.9781 47.1715C47.0468 47.1095 47.1156 47.0475 47.1864 46.9835C48.9404 45.3363 49.9551 43.136 50.6012 40.8571C50.6387 40.7261 50.6762 40.595 50.7148 40.46C51.4813 37.173 50.7704 33.554 49.0546 30.6805C48.4942 29.7861 47.8035 28.9944 47.0816 28.2282C47.0196 28.1595 46.9575 28.0907 46.8936 28.0199C44.7491 25.7364 41.4825 24.3771 38.3835 24.2622C36.8574 24.2274 35.4063 24.2845 33.9352 24.7087Z" fill="#876FFD"/>
<path d="M40.4244 28.8631C41.6263 29.6787 42.4077 30.8512 42.7341 32.2661C42.9125 34.0835 42.5589 35.5072 41.4106 36.9494C41.2687 37.1166 41.1221 37.2798 40.9743 37.4419C41.1601 37.49 41.1601 37.49 41.3496 37.539C43.3848 38.2216 45.0608 40.0542 46.0466 41.8931C46.5942 43.0219 47.0975 44.3513 46.9782 45.6197C46.8148 45.8964 46.8148 45.8964 46.5642 46.1372C46.2331 46.2024 46.2331 46.2024 45.8334 46.203C45.7598 46.2038 45.6862 46.2046 45.6103 46.2054C45.3636 46.2075 45.117 46.2058 44.8703 46.2042C44.6935 46.2049 44.5166 46.2058 44.3398 46.207C43.8594 46.2093 43.3791 46.2084 42.8987 46.2068C42.3963 46.2054 41.8939 46.2067 41.3915 46.2075C40.5478 46.2084 39.704 46.2072 38.8603 46.2047C37.8844 46.2019 36.9086 46.2028 35.9327 46.2057C35.0952 46.208 34.2578 46.2083 33.4203 46.207C32.92 46.2062 32.4196 46.2061 31.9193 46.2078C31.4489 46.2093 30.9786 46.2082 30.5082 46.2052C30.3354 46.2046 30.1627 46.2048 29.9899 46.2059C29.7543 46.2073 29.5189 46.2055 29.2833 46.203C29.1514 46.2028 29.0195 46.2026 28.8836 46.2024C28.5525 46.1372 28.5525 46.1372 28.3018 45.8927C27.9479 45.3012 28.1826 44.5654 28.3135 43.9222C28.9646 41.3703 30.5949 39.3238 32.8247 37.9605C33.7124 37.4419 33.7124 37.4419 34.1423 37.4419C34.0823 37.3741 34.0222 37.3063 33.9604 37.2365C32.7176 35.7846 32.2768 34.4037 32.3628 32.5115C32.4604 31.2994 33.1454 30.2136 34.0064 29.3871C35.8459 27.8225 38.3639 27.6625 40.4244 28.8631ZM34.7375 31.2633C34.1648 32.1428 34.0238 32.9832 34.1423 34.0259C34.2374 34.3998 34.3718 34.723 34.5564 35.0611C34.5927 35.1279 34.629 35.1948 34.6664 35.2636C35.091 35.9404 35.8383 36.4178 36.5899 36.6684C37.5537 36.8618 38.4561 36.7737 39.3181 36.3032C39.3849 36.267 39.4518 36.2307 39.5207 36.1933C40.1975 35.7686 40.6749 35.0213 40.9254 34.2697C41.1149 33.3256 41.0563 32.377 40.5603 31.5415C39.9628 30.7261 39.273 30.143 38.2829 29.8853C36.7281 29.7072 35.7941 30.1774 34.7375 31.2633ZM31.9276 40.9198C31.1785 41.8032 30.1052 43.1585 30.1052 44.3775C35.0243 44.3775 39.9433 44.3775 45.0115 44.3775C44.4488 42.3145 43.2885 40.5869 41.4034 39.5056C40.9612 39.2694 40.5094 39.0741 40.0427 38.8911C39.9006 38.8351 39.9006 38.8351 39.7556 38.7779C37.0732 37.9284 33.8147 38.8727 31.9276 40.9198Z" fill="#876FFD"/>
<path d="M19.7539 23.3643C20.684 24.0941 21.2681 25.194 21.4587 26.3501C21.616 27.737 21.2818 28.9076 20.4332 30.0075C20.2715 30.1963 20.2715 30.1963 20.0577 30.3824C19.8164 30.6571 19.8054 30.7749 19.8042 31.1351C19.8028 31.2395 19.8015 31.3439 19.8 31.4514C19.8006 31.5638 19.8011 31.6762 19.8016 31.7919C19.8004 31.9084 19.7992 32.0248 19.7979 32.1448C19.7943 32.5175 19.7933 32.8902 19.7927 33.263C19.791 33.6335 19.7887 34.004 19.7853 34.3745C19.7833 34.605 19.7823 34.8354 19.7825 35.0658C19.7751 36.1583 19.6828 37.1232 18.9258 37.96C18.0381 38.6811 17.2467 38.7648 16.1309 38.6846C15.4477 38.5231 14.8796 38.1184 14.4746 37.5459C14.031 36.793 14.0078 36.1166 14.0229 35.2581C14.023 34.9955 14.0229 34.733 14.0227 34.4704C14.0249 34.0597 14.0282 33.649 14.0332 33.2383C14.0372 32.8397 14.0368 32.4413 14.0359 32.0426C14.0387 31.9202 14.0414 31.7978 14.0443 31.6717C14.0408 31.0844 14.0304 30.7124 13.602 30.2851C13.4795 30.1856 13.3564 30.0869 13.2324 29.9893C12.9896 29.6612 12.7978 29.3169 12.6113 28.9541C12.5758 28.8856 12.5403 28.817 12.5038 28.7463C12.0648 27.7002 12.163 26.2353 12.5713 25.2009C13.2191 23.9199 14.1013 23.166 15.4172 22.634C16.9177 22.144 18.4655 22.4999 19.7539 23.3643ZM14.4746 25.4346C14.0338 26.1299 13.9372 26.905 14.0605 27.7119C14.2757 28.3458 14.5906 28.8227 15.0957 29.2647C15.7102 29.8652 15.7102 29.8652 15.7304 30.2458C15.7307 30.3538 15.7311 30.4618 15.7315 30.5731C15.7322 30.6954 15.7329 30.8177 15.7337 30.9438C15.7341 31.0766 15.7345 31.2095 15.735 31.3463C15.7368 31.5543 15.7386 31.7622 15.7405 31.9701C15.7452 32.4838 15.7491 32.9975 15.7505 33.5111C15.7514 33.799 15.7533 34.0868 15.7564 34.3746C15.7593 34.6458 15.7607 34.917 15.7603 35.1882C15.7664 36.0896 15.7664 36.0896 16.2344 36.8213C16.5658 36.987 16.9099 36.9765 17.2695 36.9248C17.5604 36.7392 17.7363 36.6123 17.8906 36.3037C17.902 36.112 17.9068 35.9199 17.9086 35.7278C17.91 35.6072 17.9114 35.4866 17.9128 35.3624C17.9139 35.2315 17.915 35.1006 17.9161 34.9657C17.9186 34.7609 17.9212 34.5561 17.9238 34.3513C17.9301 33.8454 17.9353 33.3394 17.94 32.8334C17.9426 32.5498 17.9458 32.2662 17.9496 31.9827C17.9531 31.7154 17.9558 31.4481 17.9576 31.1808C17.9593 31.0593 17.961 30.9377 17.9628 30.8124C17.9638 30.7057 17.9649 30.599 17.966 30.489C18.0065 30.0678 18.0979 29.7767 18.407 29.4834C18.4864 29.4219 18.5658 29.3604 18.6476 29.297C19.2544 28.7714 19.5875 28.2677 19.6993 27.4637C19.7399 26.5042 19.5584 25.8212 18.9274 25.0945C18.3107 24.4921 17.7 24.2592 16.8555 24.1536C15.8327 24.2814 15.1514 24.6393 14.4746 25.4346Z" fill="#876FFD"/>
</svg>
