<svg width="40" height="40" viewBox="0 0 40 40" fill="none" xmlns="http://www.w3.org/2000/svg">
<path d="M20.0005 12.4961C19.8756 12.4961 19.7509 12.4991 19.6261 12.5052C19.5014 12.5114 19.3769 12.5207 19.2526 12.5329C19.1283 12.5451 19.0044 12.5604 18.8809 12.5787C18.7574 12.597 18.6345 12.6184 18.512 12.6428C18.3896 12.667 18.2677 12.6945 18.1466 12.7248C18.0256 12.7551 17.9052 12.7885 17.7857 12.8247C17.6663 12.8609 17.5477 12.8999 17.4301 12.9421C17.3127 12.9842 17.1961 13.0291 17.0808 13.0769C16.9654 13.1246 16.8513 13.1752 16.7386 13.2285C16.6257 13.282 16.5142 13.3382 16.4041 13.397C16.2938 13.4558 16.1852 13.5174 16.0782 13.5815C15.9712 13.6458 15.8656 13.7125 15.7618 13.7819C15.658 13.8513 15.5559 13.9231 15.4556 13.9976C15.3553 14.0718 15.257 14.1487 15.1604 14.2279C15.064 14.307 14.9694 14.3886 14.877 14.4724C14.7844 14.5562 14.6939 14.6425 14.6056 14.7306C14.5175 14.8189 14.4312 14.9094 14.3474 15.0018C14.2636 15.0944 14.182 15.189 14.1029 15.2854C14.0237 15.382 13.9468 15.4803 13.8726 15.5806C13.7981 15.6809 13.7263 15.783 13.6569 15.8868C13.5875 15.9906 13.5208 16.0962 13.4565 16.2032C13.3924 16.3102 13.3308 16.4188 13.272 16.5291C13.2132 16.6392 13.157 16.7507 13.1035 16.8636C13.0502 16.9763 12.9996 17.0904 12.9519 17.2058C12.9041 17.3211 12.8592 17.4377 12.8171 17.5551C12.7749 17.6727 12.7359 17.7913 12.6997 17.9107C12.6635 18.0302 12.6301 18.1506 12.5998 18.2716C12.5695 18.3927 12.542 18.5146 12.5178 18.637C12.4934 18.7595 12.472 18.8824 12.4537 19.0059C12.4354 19.1294 12.4201 19.2533 12.4079 19.3776C12.3957 19.5019 12.3864 19.6264 12.3802 19.7511C12.3741 19.8759 12.3711 20.0006 12.3711 20.1255C12.3711 20.2502 12.3741 20.3751 12.3802 20.4998C12.3864 20.6246 12.3957 20.7491 12.4079 20.8732C12.4201 20.9975 12.4354 21.1214 12.4537 21.2449C12.472 21.3684 12.4934 21.4915 12.5178 21.6137C12.542 21.7362 12.5695 21.8581 12.5998 21.9791C12.6301 22.1004 12.6635 22.2206 12.6997 22.34C12.7359 22.4597 12.7749 22.5781 12.8171 22.6957C12.8592 22.8133 12.9041 22.9296 12.9519 23.045C12.9996 23.1604 13.0502 23.2745 13.1035 23.3874C13.157 23.5003 13.2132 23.6118 13.272 23.7219C13.3308 23.832 13.3924 23.9406 13.4565 24.0476C13.5208 24.1548 13.5875 24.2602 13.6569 24.364C13.7263 24.4679 13.7981 24.5699 13.8726 24.6702C13.9468 24.7705 14.0237 24.8689 14.1029 24.9654C14.182 25.062 14.2636 25.1564 14.3474 25.249C14.4312 25.3416 14.5175 25.4319 14.6056 25.5202C14.6939 25.6085 14.7844 25.6945 14.877 25.7784C14.9694 25.8622 15.064 25.9438 15.1604 26.0229C15.257 26.1023 15.3553 26.179 15.4556 26.2534C15.5559 26.3277 15.658 26.3995 15.7618 26.4689C15.8656 26.5382 15.9712 26.6052 16.0782 26.6693C16.1852 26.7336 16.2938 26.795 16.4041 26.8538C16.5142 26.9128 16.6257 26.969 16.7386 27.0223C16.8513 27.0756 16.9654 27.1262 17.0808 27.174C17.1961 27.2218 17.3127 27.2666 17.4301 27.3087C17.5477 27.3508 17.6663 27.3899 17.7857 27.4263C17.9052 27.4625 18.0256 27.4957 18.1466 27.526C18.2677 27.5565 18.3896 27.5838 18.512 27.6082C18.6345 27.6324 18.7574 27.6538 18.8809 27.6721C19.0044 27.6904 19.1283 27.7059 19.2526 27.7181C19.3769 27.7303 19.5014 27.7394 19.6261 27.7455C19.7509 27.7516 19.8756 27.7547 20.0005 27.7547C20.1252 27.7547 20.2501 27.7516 20.3748 27.7455C20.4996 27.7394 20.6241 27.7303 20.7482 27.7181C20.8725 27.7059 20.9964 27.6904 21.1199 27.6721C21.2434 27.6538 21.3665 27.6324 21.4889 27.6082C21.6112 27.5838 21.7331 27.5565 21.8541 27.526C21.9754 27.4957 22.0956 27.4625 22.215 27.4263C22.3347 27.3899 22.4531 27.3508 22.5707 27.3087C22.6883 27.2666 22.8046 27.2218 22.92 27.174C23.0354 27.1262 23.1495 27.0756 23.2624 27.0223C23.3753 26.969 23.4868 26.9128 23.5969 26.8538C23.707 26.795 23.8156 26.7336 23.9226 26.6693C24.0298 26.6052 24.1352 26.5382 24.239 26.4689C24.3429 26.3995 24.4449 26.3277 24.5452 26.2534C24.6455 26.179 24.7439 26.1023 24.8404 26.0229C24.937 25.9438 25.0314 25.8622 25.124 25.7784C25.2166 25.6945 25.3069 25.6085 25.3952 25.5202C25.4835 25.4319 25.5695 25.3416 25.6534 25.249C25.7372 25.1564 25.8188 25.062 25.8979 24.9654C25.9773 24.8689 26.054 24.7705 26.1284 24.6702C26.2027 24.5699 26.2747 24.4679 26.3439 24.364C26.4132 24.2602 26.4802 24.1548 26.5443 24.0476C26.6086 23.9406 26.67 23.832 26.7288 23.7219C26.7878 23.6118 26.844 23.5003 26.8973 23.3874C26.9506 23.2745 27.0012 23.1604 27.049 23.045C27.0968 22.9296 27.1416 22.8133 27.1837 22.6957C27.2258 22.5781 27.2649 22.4597 27.3013 22.34C27.3375 22.2206 27.3707 22.1004 27.401 21.9791C27.4315 21.8581 27.4588 21.7362 27.4832 21.6137C27.5074 21.4915 27.5288 21.3684 27.5471 21.2449C27.5654 21.1214 27.5809 20.9975 27.5931 20.8732C27.6053 20.7491 27.6144 20.6246 27.6205 20.4998C27.6266 20.3751 27.6297 20.2502 27.6297 20.1255C27.6297 20.0006 27.6264 19.8759 27.6201 19.7511C27.6138 19.6264 27.6047 19.5021 27.5922 19.3778C27.5798 19.2537 27.5646 19.1298 27.5461 19.0063C27.5278 18.883 27.5062 18.7599 27.4818 18.6377C27.4574 18.5152 27.4299 18.3935 27.3994 18.2725C27.3691 18.1514 27.3357 18.0312 27.2993 17.9117C27.2631 17.7923 27.2238 17.6737 27.1817 17.5563C27.1396 17.4387 27.0946 17.3223 27.0468 17.2072C26.999 17.0918 26.9483 16.9777 26.8948 16.865C26.8415 16.7521 26.7854 16.6406 26.7264 16.5307C26.6676 16.4207 26.6059 16.312 26.5418 16.205C26.4775 16.098 26.4108 15.9926 26.3414 15.8888C26.2721 15.7851 26.2002 15.6829 26.1258 15.5826C26.0515 15.4825 25.9746 15.3841 25.8955 15.2876C25.8163 15.1912 25.7347 15.0966 25.6509 15.0042C25.5671 14.9117 25.481 14.8213 25.3927 14.733C25.3044 14.6449 25.2141 14.5589 25.1215 14.4751C25.0292 14.391 24.9346 14.3097 24.8381 14.2305C24.7417 14.1512 24.6434 14.0745 24.5431 14C24.4428 13.9257 24.3409 13.8537 24.2371 13.7843C24.1334 13.715 24.028 13.6482 23.9208 13.5839C23.8138 13.5199 23.7053 13.4582 23.5953 13.3994C23.4852 13.3406 23.3737 13.2843 23.261 13.231C23.1481 13.1774 23.0341 13.127 22.9188 13.079C22.8034 13.0312 22.6871 12.9862 22.5697 12.9441C22.4521 12.902 22.3337 12.8627 22.2142 12.8265C22.0948 12.7901 21.9746 12.7567 21.8535 12.7264C21.7325 12.6959 21.6106 12.6686 21.4883 12.644C21.3658 12.6196 21.243 12.5982 21.1195 12.5797C20.996 12.5614 20.8723 12.5459 20.748 12.5335C20.6239 12.5213 20.4993 12.512 20.3746 12.5057C20.2499 12.4993 20.1252 12.4963 20.0005 12.4961ZM23.1226 19.4897C23.1015 18.7622 23.0378 18.0385 22.932 17.3185C23.1212 17.265 23.3049 17.1968 23.4834 17.114C23.6618 17.0312 23.8323 16.9346 23.995 16.8243C24.158 16.714 24.311 16.5916 24.4542 16.4569C24.5975 16.322 24.7289 16.1767 24.8489 16.0209C25.056 16.2642 25.2436 16.522 25.4119 16.7938C25.5799 17.0656 25.7266 17.3486 25.8517 17.6426C25.9771 17.9368 26.0794 18.2385 26.1587 18.5481C26.2383 18.8578 26.2938 19.1715 26.3258 19.4897H23.1226ZM20.0005 26.4831C19.6005 26.4831 18.9617 25.5816 18.5458 23.8765C19.0274 23.7968 19.5122 23.7571 20.0005 23.7571C20.4886 23.7571 20.9734 23.7968 21.4552 23.8765C21.0393 25.5816 20.4003 26.4831 20.0005 26.4831ZM22.6866 24.1976C23.4266 24.4767 23.8601 24.8333 23.8601 25.1208H23.9206C23.3367 25.5808 22.6917 25.9277 21.986 26.1615C22.297 25.5344 22.5306 24.8799 22.6866 24.1976ZM18.0148 26.1615C17.3092 25.9277 16.6643 25.5808 16.0802 25.1208H16.1406C16.1406 24.836 16.5742 24.4767 17.3143 24.1976C17.4702 24.8799 17.7037 25.5344 18.0148 26.1615ZM20.0005 22.4867C19.4329 22.4859 18.8691 22.5321 18.3092 22.6253C18.2219 22.0068 18.169 21.3855 18.1503 20.7613H21.8505C21.832 21.3855 21.7788 22.0068 21.6916 22.6253C21.1317 22.5321 20.5679 22.4859 20.0005 22.4867ZM18.1503 19.4897C18.169 18.8653 18.2219 18.244 18.3092 17.6255C18.8691 17.7181 19.4329 17.7642 20.0005 17.7642C20.5679 17.7642 21.1317 17.7181 21.6916 17.6255C21.7788 18.244 21.832 18.8653 21.8505 19.4897H18.1503ZM20.0005 13.7677C20.4003 13.7677 21.0393 14.6691 21.4552 16.3743C20.9734 16.454 20.4886 16.4939 20.0005 16.4939C19.5122 16.4939 19.0274 16.454 18.5458 16.3743C18.9617 14.6691 19.6005 13.7677 20.0005 13.7677ZM17.3143 16.0565C16.5742 15.7773 16.1406 15.4207 16.1406 15.1332H16.0802C16.6643 14.6732 17.3092 14.3263 18.0148 14.0926C17.7037 14.7196 17.4702 15.3741 17.3143 16.0565ZM21.986 14.0926C22.6917 14.3263 23.3367 14.6732 23.9206 15.1332H23.8601C23.8601 15.4181 23.4266 15.7773 22.6866 16.0565C22.5308 15.3731 22.2972 14.7174 21.986 14.0893V14.0926ZM15.1533 16.0209C15.2731 16.1767 15.4047 16.322 15.548 16.4569C15.6912 16.5916 15.8442 16.714 16.007 16.8243C16.1699 16.9346 16.3404 17.0312 16.5188 17.114C16.6971 17.1968 16.881 17.265 17.0702 17.3185C16.9644 18.0385 16.9007 18.7622 16.8794 19.4897H13.675C13.7072 19.1715 13.7629 18.8578 13.8424 18.5481C13.922 18.2385 14.0243 17.9366 14.1497 17.6426C14.275 17.3484 14.4217 17.0654 14.5899 16.7936C14.7582 16.5218 14.946 16.2642 15.1533 16.0209ZM13.675 20.7613H16.8781C16.8995 21.4886 16.963 22.2123 17.0688 22.9323C16.8796 22.9858 16.6958 23.054 16.5174 23.1368C16.3392 23.2198 16.1685 23.3162 16.0057 23.4265C15.843 23.5367 15.6898 23.6592 15.5468 23.7941C15.4035 23.9288 15.2719 24.0741 15.1521 24.2299C14.9447 23.9866 14.7572 23.729 14.5891 23.4572C14.4209 23.1852 14.2744 22.9024 14.149 22.6082C14.0239 22.3142 13.9216 22.0123 13.842 21.7026C13.7627 21.393 13.7069 21.0793 13.675 20.7613ZM24.8475 24.2299C24.7277 24.0741 24.596 23.9288 24.453 23.7941C24.3098 23.6592 24.1568 23.5367 23.9938 23.4265C23.8311 23.3162 23.6604 23.2198 23.4821 23.1368C23.3037 23.054 23.12 22.9858 22.9308 22.9323C23.0366 22.2123 23.1001 21.4886 23.1214 20.7613H26.3245C26.2926 21.0793 26.2371 21.393 26.1575 21.7026C26.078 22.0123 25.9756 22.3142 25.8505 22.6082C25.7254 22.9024 25.5787 23.1852 25.4104 23.4572C25.2424 23.729 25.0548 23.9866 24.8475 24.2299Z" fill="#876FFD"/>
<mask id="mask0_5487_2620" style="mask-type:luminance" maskUnits="userSpaceOnUse" x="0" y="1" width="40" height="39">
<path d="M0.884766 1.04297H39.1139V39.1993H0.884766V1.04297Z" fill="white"/>
</mask>
<g mask="url(#mask0_5487_2620)">
<path d="M36.6696 10.4598C36.7125 10.4238 36.7544 10.3866 36.7951 10.3483C36.836 10.3101 36.8759 10.2706 36.9146 10.2303C36.9534 10.1898 36.9911 10.1485 37.0277 10.106C37.0643 10.0637 37.0997 10.0203 37.1339 9.97599C37.1683 9.93184 37.2012 9.88668 37.2332 9.8407C37.2651 9.79452 37.2956 9.74772 37.3251 9.70011C37.3544 9.65251 37.3827 9.60409 37.4095 9.55485C37.4362 9.50582 37.4618 9.45597 37.486 9.40552C37.5103 9.35486 37.533 9.30379 37.5544 9.25212C37.576 9.20044 37.5961 9.14815 37.6148 9.09546C37.6335 9.04256 37.6508 8.98946 37.6667 8.93575C37.6826 8.88204 37.697 8.82792 37.71 8.7736C37.7231 8.71908 37.7347 8.66435 37.7448 8.60921C37.7548 8.55408 37.7635 8.49894 37.7707 8.4434C37.778 8.38786 37.7837 8.33211 37.7878 8.27637C37.792 8.22042 37.7949 8.16447 37.7961 8.10852C37.7973 8.05257 37.7971 7.99662 37.7955 7.94067C37.7939 7.88473 37.7906 7.82878 37.7859 7.77303C37.7812 7.71729 37.7751 7.66154 37.7676 7.606C37.7599 7.55066 37.7509 7.49532 37.7404 7.44039C37.7298 7.38546 37.7178 7.33073 37.7043 7.27641C37.6909 7.22209 37.6761 7.16797 37.6598 7.11446C37.6435 7.06095 37.6258 7.00785 37.6067 6.95516C37.5876 6.90267 37.567 6.85059 37.545 6.79891C37.5233 6.74744 37.5001 6.69657 37.4755 6.64612C37.4508 6.59587 37.425 6.54622 37.3977 6.4974C37.3705 6.44836 37.342 6.40015 37.3123 6.35274C37.2826 6.30534 37.2517 6.25875 37.2193 6.21297C37.1872 6.1672 37.1536 6.12223 37.119 6.07829C37.0844 6.03414 37.0486 5.99121 37.0118 5.9491C36.975 5.90698 36.9369 5.86589 36.8979 5.82581C36.8588 5.78552 36.8187 5.74666 36.7774 5.70862C36.7363 5.67057 36.6942 5.63375 36.6511 5.59794C36.608 5.56234 36.564 5.52775 36.519 5.49438C36.4741 5.46082 36.4283 5.42867 36.3817 5.39775C36.3351 5.36682 36.2877 5.33712 36.2395 5.30863C36.1913 5.28015 36.1423 5.25289 36.0926 5.22705C36.043 5.20121 35.9927 5.1766 35.9417 5.1534C35.8908 5.13021 35.8391 5.10844 35.787 5.08789C35.7349 5.06755 35.6825 5.04842 35.6292 5.03072C35.576 5.01302 35.5225 4.99674 35.4686 4.98189C35.4145 4.96704 35.3602 4.95361 35.3055 4.94181C35.2507 4.92981 35.1958 4.91923 35.1407 4.91028C35.0853 4.90112 35.0298 4.8936 34.9742 4.88749C34.9185 4.88139 34.8628 4.87671 34.8068 4.87366C34.7511 4.8704 34.6951 4.86877 34.639 4.86857C34.583 4.86837 34.5271 4.86979 34.4711 4.87264C34.4152 4.87528 34.3594 4.87956 34.3037 4.88525C34.2481 4.89115 34.1926 4.89827 34.1372 4.90702C34.0819 4.91577 34.0268 4.92574 33.972 4.93754C33.9173 4.94914 33.8628 4.96216 33.8089 4.9766C33.7548 4.99105 33.701 5.00692 33.6477 5.02441C33.5946 5.04171 33.5417 5.06042 33.4897 5.08057C33.4374 5.10071 33.3857 5.12227 33.3346 5.14506C33.2834 5.16785 33.2329 5.19206 33.1831 5.21769C33.1334 5.24333 33.0842 5.27018 33.0358 5.29826C32.9873 5.32633 32.9397 5.35583 32.8929 5.38656C32.8462 5.41728 32.8002 5.44902 32.755 5.48218C32.7098 5.51534 32.6657 5.54972 32.6224 5.58512C32.579 5.62052 32.5365 5.65715 32.4952 5.69478C32.4539 5.73263 32.4134 5.77128 32.3741 5.81116C32.3349 5.85103 32.2966 5.89193 32.2594 5.93384C32.2222 5.97575 32.1862 6.01847 32.1514 6.06222C32.1164 6.10616 32.0826 6.15072 32.0501 6.19629C31.7013 5.89172 31.3412 5.60099 30.9701 5.32389C30.599 5.04679 30.218 4.78414 29.8269 4.53613C29.4359 4.28813 29.0359 4.05538 28.627 3.83789C28.2181 3.6204 27.8016 3.41858 27.3774 3.23303C26.953 3.04728 26.5223 2.87781 26.0853 2.72502C25.6481 2.57202 25.2058 2.43612 24.7582 2.31689C24.3106 2.19788 23.8593 2.09595 23.404 2.01111C22.9487 1.92647 22.4907 1.85933 22.0303 1.80949C21.9603 1.74927 21.8879 1.6921 21.813 1.63839C21.738 1.58447 21.6608 1.53422 21.5813 1.48722C21.502 1.44023 21.4206 1.39689 21.3372 1.35722C21.2539 1.31755 21.1691 1.28174 21.0824 1.24959C20.996 1.21745 20.9083 1.18917 20.8192 1.16475C20.7303 1.14054 20.6403 1.1202 20.5494 1.10372C20.4587 1.08744 20.3673 1.07524 20.2754 1.0671C20.1834 1.05876 20.0912 1.05469 19.9991 1.05469C19.9067 1.05469 19.8145 1.05876 19.7228 1.0671C19.6308 1.07524 19.5395 1.08744 19.4485 1.10372C19.3578 1.1202 19.2679 1.14054 19.1788 1.16475C19.0898 1.18917 19.002 1.21745 18.9155 1.24959C18.829 1.28174 18.7442 1.31755 18.6608 1.35722C18.5776 1.39689 18.4962 1.44023 18.4166 1.48722C18.3373 1.53422 18.26 1.58447 18.1851 1.63839C18.11 1.6921 18.0376 1.74927 17.9676 1.80949C17.5072 1.85933 17.0494 1.92647 16.5941 2.01111C16.1388 2.09595 15.6873 2.19788 15.2397 2.31689C14.7924 2.43612 14.3499 2.57202 13.9128 2.72502C13.4756 2.87781 13.0449 3.04728 12.6207 3.23303C12.1965 3.41858 11.7799 3.6204 11.3709 3.83789C10.9622 4.05538 10.5622 4.28813 10.1712 4.53613C9.77995 4.78414 9.39889 5.04679 9.02779 5.32389C8.6567 5.60099 8.29679 5.89172 7.94788 6.19629C7.91532 6.15072 7.88175 6.10596 7.84676 6.06201C7.81197 6.01807 7.77596 5.97514 7.73873 5.93323C7.7017 5.89111 7.66345 5.85022 7.62419 5.81034C7.58472 5.77026 7.54443 5.7314 7.50313 5.69356C7.46163 5.65572 7.41931 5.6191 7.37598 5.5835C7.33264 5.5481 7.28849 5.51371 7.24333 5.48035C7.19816 5.44718 7.15218 5.41524 7.10518 5.38452C7.05839 5.3536 7.01078 5.3241 6.96236 5.29582C6.91394 5.26774 6.86471 5.24068 6.81486 5.21505C6.76502 5.18941 6.71456 5.1652 6.66349 5.14221C6.61222 5.11922 6.56055 5.09766 6.50826 5.07751C6.45597 5.05717 6.40328 5.03845 6.34998 5.02096C6.29667 5.00366 6.24296 4.98759 6.18884 4.97294C6.13473 4.9585 6.0802 4.94527 6.02547 4.93368C5.97054 4.92208 5.91541 4.91191 5.86007 4.90316C5.80473 4.89441 5.74919 4.88709 5.69344 4.88119C5.6377 4.87549 5.58175 4.87122 5.5258 4.86837C5.46985 4.86552 5.4139 4.8641 5.35775 4.8643C5.3016 4.8645 5.24565 4.86613 5.1897 4.86918C5.13375 4.87223 5.0778 4.87691 5.02226 4.88302C4.96651 4.88912 4.91097 4.89665 4.85563 4.9056C4.80029 4.91455 4.74516 4.92513 4.69043 4.93713C4.6357 4.94893 4.58138 4.96236 4.52726 4.97721C4.47314 4.99207 4.41964 5.00834 4.36633 5.02604C4.31323 5.04374 4.26054 5.06266 4.20825 5.08321C4.15617 5.10376 4.10449 5.12553 4.05343 5.14872C4.00236 5.17192 3.95211 5.19653 3.90226 5.22237C3.85262 5.24821 3.80359 5.27547 3.75537 5.30396C3.70715 5.33244 3.65955 5.36214 3.61296 5.39327C3.56616 5.42419 3.52039 5.45654 3.47542 5.48991C3.43046 5.52327 3.38631 5.55786 3.34318 5.59367C3.30005 5.62948 3.25793 5.6665 3.21663 5.70435C3.17554 5.74239 3.13525 5.78145 3.09619 5.82174C3.05713 5.86182 3.01908 5.90291 2.98206 5.94523C2.94523 5.98735 2.90942 6.03048 2.87463 6.07442C2.84005 6.11857 2.80668 6.16353 2.77433 6.20931C2.74219 6.25529 2.71106 6.30188 2.68136 6.34928C2.65145 6.39689 2.62297 6.44511 2.5957 6.49414C2.56864 6.54317 2.5426 6.59281 2.51799 6.64307C2.49357 6.69352 2.47017 6.74459 2.44841 6.79606C2.42643 6.84774 2.40609 6.89982 2.38696 6.95252C2.36784 7.00521 2.35014 7.05851 2.33386 7.11202C2.31759 7.16573 2.30273 7.21985 2.28931 7.27417C2.27588 7.32869 2.26388 7.38342 2.2533 7.43835C2.24272 7.49349 2.23376 7.54883 2.22624 7.60437C2.21851 7.65991 2.2124 7.71545 2.20793 7.7714C2.20325 7.82735 2.19999 7.8833 2.19836 7.93925C2.19674 7.9952 2.19653 8.05135 2.19796 8.1073C2.19918 8.16345 2.20203 8.2194 2.2063 8.27535C2.21057 8.3311 2.21627 8.38684 2.22359 8.44238C2.23092 8.49813 2.23946 8.55347 2.24984 8.6086C2.26001 8.66374 2.27161 8.71847 2.28463 8.77299C2.29765 8.82752 2.3123 8.88163 2.32817 8.93534C2.34424 8.98905 2.36153 9.04236 2.38045 9.09526C2.39917 9.14795 2.41931 9.20024 2.44088 9.25191C2.46244 9.30379 2.48543 9.35486 2.50964 9.40531C2.53385 9.45597 2.55949 9.50582 2.58655 9.55485C2.6134 9.60409 2.64168 9.65251 2.67118 9.70011C2.70048 9.74792 2.7314 9.79472 2.76335 9.8407C2.79529 9.88688 2.82845 9.93184 2.86283 9.9762C2.89722 10.0205 2.93282 10.0639 2.96944 10.1062C3.00606 10.1485 3.0439 10.19 3.08276 10.2303C3.12162 10.2708 3.1615 10.3101 3.20239 10.3483C3.24349 10.3866 3.2854 10.4238 3.32833 10.4598C3.2384 10.5064 3.15031 10.556 3.06364 10.6087C2.97717 10.6612 2.89254 10.7168 2.80994 10.7751C2.72713 10.8335 2.64657 10.8946 2.56803 10.9587C2.4893 11.0225 2.413 11.0889 2.33915 11.158C2.2651 11.2272 2.19348 11.2986 2.12431 11.3727C2.05534 11.4467 1.98881 11.5228 1.92472 11.6014C1.86084 11.6799 1.7996 11.7607 1.74121 11.8433C1.68282 11.9259 1.62728 12.0105 1.57459 12.097C1.52209 12.1836 1.47245 12.2717 1.42566 12.3617C1.37907 12.4516 1.33553 12.5429 1.29525 12.6357C1.25476 12.7285 1.21753 12.8227 1.18376 12.9181C1.14978 13.0135 1.11906 13.1099 1.09159 13.2074C1.06433 13.3049 1.04012 13.4031 1.01957 13.5022C0.99882 13.6013 0.981527 13.701 0.967692 13.8013C0.953857 13.9016 0.943278 14.0023 0.936361 14.1034C0.929443 14.2043 0.925781 14.3054 0.925781 14.4067V16.9499C0.925781 16.9916 0.92985 17.0329 0.937988 17.074C0.946126 17.1149 0.95813 17.1545 0.974202 17.1932C0.990072 17.2316 1.0096 17.2683 1.0328 17.3031C1.05599 17.3379 1.08244 17.3698 1.11194 17.3995C1.14144 17.429 1.17358 17.4552 1.20837 17.4784C1.24296 17.5016 1.27958 17.5212 1.31824 17.5372C1.35669 17.5531 1.39657 17.5653 1.43746 17.5734C1.47835 17.5816 1.51965 17.5857 1.56156 17.5857H1.73755C1.64111 18.2756 1.58435 18.9685 1.56706 19.6649C1.54976 20.3613 1.57235 21.0563 1.63481 21.7503C1.69706 22.4441 1.79879 23.1319 1.93978 23.8141C2.08097 24.4963 2.26042 25.1681 2.47831 25.8297C2.44312 25.9072 2.41097 25.9859 2.38208 26.0661C2.35339 26.1462 2.32776 26.2272 2.30558 26.3094C2.28341 26.3916 2.26449 26.4746 2.24923 26.5582C2.23376 26.642 2.22176 26.7263 2.21322 26.8109C2.20467 26.8955 2.19938 26.9804 2.19775 27.0656C2.19613 27.1507 2.19796 27.2357 2.20345 27.3208C2.20874 27.4056 2.21749 27.4902 2.2297 27.5745C2.2419 27.6587 2.25757 27.7423 2.27649 27.8253C2.29561 27.9083 2.31799 27.9903 2.34363 28.0715C2.36947 28.1525 2.39856 28.2324 2.4307 28.3114C2.46305 28.3901 2.49845 28.4674 2.53711 28.5433C2.57556 28.6192 2.61727 28.6932 2.66182 28.7659C2.70638 28.8383 2.75399 28.9089 2.80444 28.9775C2.8547 29.046 2.9078 29.1123 2.96375 29.1766C3.01949 29.2409 3.07788 29.3028 3.13871 29.3624C3.19954 29.4218 3.26282 29.4788 3.32833 29.5331C3.2384 29.5797 3.15031 29.6293 3.06364 29.682C2.97717 29.7345 2.89254 29.79 2.80994 29.8484C2.72713 29.9068 2.64657 29.9679 2.56803 30.0319C2.4893 30.0958 2.413 30.1622 2.33915 30.2313C2.2651 30.3005 2.19348 30.3719 2.12431 30.446C2.05534 30.52 1.98881 30.5961 1.92472 30.6746C1.86084 30.7532 1.7996 30.8339 1.74121 30.9165C1.68282 30.9993 1.62728 31.0838 1.57459 31.1702C1.52209 31.2569 1.47245 31.345 1.42566 31.4349C1.37907 31.5249 1.33553 31.6162 1.29525 31.709C1.25476 31.8018 1.21753 31.896 1.18376 31.9914C1.14978 32.0868 1.11906 32.1832 1.09159 32.2807C1.06433 32.3781 1.04012 32.4764 1.01957 32.5755C0.99882 32.6746 0.981527 32.7743 0.967692 32.8746C0.953857 32.9749 0.943278 33.0756 0.936361 33.1767C0.929443 33.2776 0.925781 33.3787 0.925781 33.48V36.0232C0.925781 36.0649 0.92985 36.1062 0.937988 36.1471C0.946126 36.1882 0.95813 36.2278 0.974202 36.2665C0.990072 36.3049 1.0096 36.3416 1.0328 36.3763C1.05599 36.4111 1.08244 36.4431 1.11194 36.4728C1.14144 36.5023 1.17358 36.5285 1.20837 36.5517C1.24296 36.5749 1.27958 36.5944 1.31824 36.6105C1.35669 36.6264 1.39657 36.6386 1.43746 36.6467C1.47835 36.6549 1.51965 36.6589 1.56156 36.6589H9.19076C9.23246 36.6589 9.27397 36.6549 9.31486 36.6467C9.35575 36.6386 9.39563 36.6264 9.43408 36.6105C9.47274 36.5944 9.50936 36.5749 9.54395 36.5517C9.57874 36.5285 9.61088 36.5023 9.64038 36.4728C9.66988 36.4431 9.69633 36.4111 9.71952 36.3763C9.74272 36.3416 9.76225 36.3049 9.77812 36.2665C9.79419 36.2278 9.80619 36.1882 9.81433 36.1471C9.82247 36.1062 9.82654 36.0649 9.82654 36.0232V35.498C10.7067 36.0811 11.6301 36.5849 12.5971 37.0093C13.5639 37.4335 14.5598 37.7722 15.5848 38.0251C15.5618 38.2048 15.5496 38.3852 15.5486 38.5663C15.5486 38.608 15.5527 38.6493 15.5608 38.6902C15.5689 38.7313 15.5809 38.771 15.597 38.8096C15.6129 38.8481 15.6326 38.8847 15.6558 38.9195C15.679 38.9541 15.7052 38.9862 15.7347 39.0157C15.7642 39.0452 15.7964 39.0717 15.8312 39.0948C15.8658 39.118 15.9024 39.1376 15.941 39.1536C15.9797 39.1695 16.0194 39.1817 16.0603 39.1899C16.1012 39.198 16.1427 39.2021 16.1844 39.2021H23.8138C23.8555 39.2021 23.8968 39.198 23.9377 39.1899C23.9786 39.1817 24.0184 39.1695 24.0569 39.1536C24.0955 39.1376 24.1322 39.118 24.167 39.0948C24.2015 39.0717 24.2337 39.0452 24.2632 39.0157C24.2927 38.9862 24.3191 38.9541 24.3423 38.9195C24.3655 38.8847 24.3851 38.8481 24.4011 38.8096C24.417 38.771 24.429 38.7313 24.4371 38.6902C24.4453 38.6493 24.4493 38.608 24.4493 38.5663C24.4483 38.3852 24.4363 38.2048 24.4131 38.0251C25.4383 37.7722 26.4342 37.4335 27.401 37.0093C28.3678 36.5849 29.2913 36.0811 30.1714 35.498V36.0232C30.1714 36.0649 30.1755 36.1062 30.1836 36.1471C30.1917 36.1882 30.2039 36.2278 30.2198 36.2665C30.2359 36.3049 30.2554 36.3416 30.2786 36.3763C30.3018 36.4111 30.328 36.4431 30.3575 36.4728C30.3872 36.5023 30.4192 36.5285 30.454 36.5517C30.4888 36.5749 30.5254 36.5944 30.5638 36.6105C30.6025 36.6264 30.6422 36.6386 30.6831 36.6467C30.7242 36.6549 30.7655 36.6589 30.8072 36.6589H38.4366C38.4783 36.6589 38.5196 36.6549 38.5605 36.6467C38.6016 36.6386 38.6412 36.6264 38.6799 36.6105C38.7183 36.5944 38.755 36.5749 38.7898 36.5517C38.8243 36.5285 38.8565 36.5023 38.886 36.4728C38.9157 36.4431 38.9419 36.4111 38.9651 36.3763C38.9883 36.3416 39.0079 36.3049 39.0239 36.2665C39.0398 36.2278 39.052 36.1882 39.0601 36.1471C39.0683 36.1062 39.0723 36.0649 39.0723 36.0232V33.48C39.0721 33.3787 39.0687 33.2776 39.0616 33.1767C39.0546 33.0756 39.0443 32.9749 39.0302 32.8746C39.0164 32.7743 38.9991 32.6746 38.9786 32.5755C38.9578 32.4764 38.9338 32.3781 38.9063 32.2807C38.8791 32.1832 38.8484 32.0868 38.8144 31.9914C38.7804 31.896 38.7432 31.8018 38.7029 31.709C38.6624 31.6162 38.6189 31.5249 38.5723 31.4349C38.5257 31.345 38.476 31.2569 38.4233 31.1702C38.3706 31.0838 38.3151 30.9991 38.2567 30.9165C38.1983 30.8339 38.1371 30.7532 38.0732 30.6746C38.0093 30.5961 37.9428 30.52 37.8736 30.446C37.8044 30.3719 37.733 30.3005 37.659 30.2313C37.5849 30.1622 37.5086 30.0958 37.4301 30.0319C37.3516 29.9679 37.2708 29.9068 37.1882 29.8484C37.1054 29.79 37.0208 29.7345 36.9343 29.682C36.8478 29.6293 36.7595 29.5797 36.6696 29.5331C36.7353 29.4788 36.7984 29.4218 36.8592 29.3624C36.9202 29.3028 36.9784 29.2409 37.0344 29.1766C37.0901 29.1123 37.1432 29.046 37.1937 28.9775C37.2439 28.9089 37.2915 28.8383 37.3361 28.7659C37.3809 28.6932 37.4224 28.6192 37.461 28.5433C37.4997 28.4674 37.5351 28.3901 37.5672 28.3114C37.5996 28.2324 37.6285 28.1525 37.6543 28.0715C37.6799 27.9903 37.7025 27.9083 37.7214 27.8253C37.7406 27.7423 37.7562 27.6587 37.7684 27.5745C37.7806 27.4902 37.7894 27.4056 37.7947 27.3208C37.8 27.2357 37.8018 27.1507 37.8002 27.0656C37.7985 26.9804 37.7935 26.8955 37.7849 26.8109C37.7764 26.7263 37.7644 26.642 37.7489 26.5582C37.7334 26.4746 37.7147 26.3916 37.6923 26.3094C37.6702 26.2272 37.6447 26.1462 37.6158 26.0661C37.587 25.9859 37.555 25.9072 37.5198 25.8297C37.7377 25.1681 37.9172 24.4963 38.0581 23.8141C38.1991 23.1319 38.3009 22.4441 38.3633 21.7501C38.4256 21.0563 38.4482 20.3613 38.4309 19.6649C38.4138 18.9685 38.3568 18.2756 38.2604 17.5857H38.4366C38.4783 17.5857 38.5196 17.5816 38.5605 17.5734C38.6016 17.5653 38.6412 17.5531 38.6799 17.5372C38.7183 17.5212 38.755 17.5016 38.7898 17.4784C38.8243 17.4552 38.8565 17.429 38.886 17.3995C38.9157 17.3698 38.9419 17.3379 38.9651 17.3031C38.9883 17.2683 39.0079 17.2316 39.0239 17.1932C39.0398 17.1545 39.052 17.1149 39.0601 17.0738C39.0683 17.0329 39.0723 16.9916 39.0723 16.9499V14.4067C39.0721 14.3054 39.0687 14.2043 39.0616 14.1034C39.0546 14.0023 39.0443 13.9016 39.0302 13.8013C39.0164 13.701 38.9991 13.6013 38.9786 13.5022C38.9578 13.4031 38.9338 13.3049 38.9063 13.2074C38.8791 13.1099 38.8484 13.0135 38.8144 12.9181C38.7804 12.8227 38.7432 12.7285 38.7029 12.6357C38.6624 12.5429 38.6189 12.4516 38.5723 12.3617C38.5257 12.2717 38.476 12.1836 38.4233 12.097C38.3706 12.0105 38.3151 11.9259 38.2567 11.8433C38.1983 11.7607 38.1371 11.6799 38.0732 11.6014C38.0093 11.5228 37.9428 11.4467 37.8736 11.3727C37.8044 11.2986 37.733 11.2272 37.659 11.158C37.5849 11.0889 37.5086 11.0225 37.4301 10.9587C37.3516 10.8946 37.2708 10.8335 37.1882 10.7751C37.1054 10.7168 37.0208 10.6612 36.9343 10.6087C36.8478 10.556 36.7595 10.5064 36.6696 10.4598ZM34.6219 6.14156C34.6843 6.14156 34.7466 6.14461 34.8088 6.15092C34.8709 6.15702 34.9327 6.16618 34.994 6.17839C35.0552 6.19039 35.1158 6.20565 35.1755 6.22376C35.2353 6.24186 35.2941 6.26302 35.3518 6.28682C35.4094 6.31083 35.4658 6.33748 35.5209 6.36678C35.576 6.39628 35.6296 6.42843 35.6814 6.46301C35.7335 6.4978 35.7836 6.53503 35.8318 6.5745C35.8802 6.61418 35.9264 6.65609 35.9705 6.70024C36.0147 6.74439 36.0566 6.79077 36.0963 6.83899C36.1359 6.88721 36.173 6.93746 36.2078 6.98934C36.2424 7.04122 36.2745 7.09473 36.304 7.14986C36.3335 7.205 36.3601 7.26135 36.384 7.31913C36.408 7.37671 36.4289 7.43551 36.447 7.49532C36.4651 7.55514 36.4804 7.61556 36.4926 7.6768C36.5048 7.73824 36.514 7.79989 36.5201 7.86194C36.5262 7.92419 36.5292 7.98645 36.5292 8.04891C36.5292 8.11137 36.5262 8.17383 36.5201 8.23588C36.514 8.29814 36.5048 8.35978 36.4926 8.42102C36.4804 8.48226 36.4651 8.54289 36.447 8.6027C36.4289 8.66252 36.408 8.72111 36.384 8.77889C36.3601 8.83667 36.3335 8.89303 36.304 8.94816C36.2745 9.00309 36.2424 9.0566 36.2078 9.10868C36.173 9.16056 36.1359 9.21061 36.0963 9.25903C36.0566 9.30725 36.0147 9.35343 35.9705 9.39758C35.9264 9.44173 35.8802 9.48364 35.8318 9.52332C35.7836 9.56299 35.7335 9.60022 35.6814 9.63481C35.6296 9.6696 35.576 9.70174 35.5209 9.73104C35.4658 9.76054 35.4094 9.78719 35.3518 9.8112C35.2941 9.835 35.2353 9.85596 35.1755 9.87427C35.1158 9.89237 35.0552 9.90743 34.994 9.91964C34.9327 9.93184 34.8709 9.941 34.8088 9.9471C34.7466 9.95321 34.6843 9.95626 34.6219 9.95626C34.5594 9.95626 34.4972 9.95321 34.4349 9.9471C34.3726 9.941 34.311 9.93184 34.2498 9.91964C34.1885 9.90743 34.1279 9.89237 34.0683 9.87427C34.0085 9.85596 33.9497 9.835 33.8919 9.8112C33.8343 9.78719 33.7778 9.76054 33.7228 9.73104C33.6677 9.70174 33.6142 9.6696 33.5621 9.63481C33.5102 9.60022 33.4602 9.56299 33.4119 9.52332C33.3635 9.48364 33.3173 9.44173 33.2732 9.39758C33.229 9.35343 33.1871 9.30725 33.1475 9.25903C33.1078 9.21061 33.0708 9.16056 33.036 9.10868C33.0012 9.0566 32.9692 9.00309 32.9397 8.94816C32.9102 8.89303 32.8836 8.83667 32.8598 8.77889C32.8358 8.72111 32.8148 8.66252 32.7967 8.6027C32.7786 8.54289 32.7633 8.48226 32.7511 8.42102C32.7389 8.35978 32.7298 8.29814 32.7237 8.23588C32.7176 8.17383 32.7145 8.11137 32.7145 8.04891C32.7145 7.98645 32.7176 7.92419 32.7237 7.86194C32.7298 7.79989 32.7389 7.73824 32.7511 7.6768C32.7633 7.61556 32.7786 7.55514 32.7967 7.49532C32.8148 7.43551 32.8358 7.37671 32.8598 7.31913C32.8836 7.26135 32.9102 7.205 32.9397 7.14986C32.9692 7.09473 33.0012 7.04122 33.036 6.98934C33.0708 6.93746 33.1078 6.88721 33.1475 6.83899C33.1871 6.79077 33.229 6.74439 33.2732 6.70024C33.3173 6.65609 33.3635 6.61418 33.4119 6.5745C33.4602 6.53503 33.5102 6.4978 33.5623 6.46301C33.6142 6.42843 33.6677 6.39628 33.7228 6.36678C33.7778 6.33748 33.8343 6.31083 33.8919 6.28682C33.9497 6.26302 34.0085 6.24186 34.0683 6.22376C34.1279 6.20565 34.1885 6.19039 34.2498 6.17839C34.311 6.16618 34.3726 6.15702 34.4349 6.15092C34.4972 6.14461 34.5594 6.14156 34.6219 6.14156ZM19.9991 2.32707C20.0615 2.32707 20.1238 2.33012 20.186 2.33622C20.2481 2.34233 20.3099 2.35148 20.3712 2.36369C20.4324 2.3759 20.4928 2.39095 20.5527 2.40906C20.6125 2.42716 20.6713 2.44832 20.7288 2.47213C20.7866 2.49613 20.843 2.52279 20.8981 2.55229C20.9532 2.58158 21.0068 2.61373 21.0586 2.64852C21.1105 2.68311 21.1608 2.72034 21.209 2.76001C21.2572 2.79948 21.3036 2.84139 21.3477 2.88554C21.3919 2.92989 21.4338 2.97607 21.4735 3.02429C21.5129 3.07251 21.5502 3.12276 21.585 3.17464C21.6195 3.22652 21.6517 3.28003 21.6812 3.33516C21.7105 3.3903 21.7371 3.44666 21.7612 3.50444C21.785 3.56222 21.8061 3.62081 21.8242 3.68062C21.8423 3.74044 21.8576 3.80086 21.8696 3.8623C21.8818 3.92354 21.891 3.98519 21.8971 4.04744C21.9034 4.1095 21.9064 4.17175 21.9064 4.23442C21.9064 4.29688 21.9034 4.35913 21.8971 4.42118C21.891 4.48344 21.8818 4.54508 21.8696 4.60632C21.8576 4.66777 21.8423 4.72819 21.8242 4.788C21.8061 4.84782 21.785 4.90641 21.7612 4.96419C21.7371 5.02197 21.7105 5.07833 21.6812 5.13346C21.6517 5.1886 21.6195 5.24211 21.585 5.29399C21.5502 5.34587 21.5129 5.39612 21.4735 5.44434C21.4338 5.49255 21.3919 5.53874 21.3477 5.58309C21.3036 5.62724 21.2572 5.66915 21.209 5.70862C21.1608 5.74829 21.1105 5.78552 21.0586 5.82011C21.0068 5.8549 20.9532 5.88704 20.8981 5.91634C20.843 5.94584 20.7866 5.97249 20.7288 5.9965C20.6713 6.0203 20.6125 6.04146 20.5527 6.05957C20.4928 6.07768 20.4324 6.09273 20.3712 6.10494C20.3099 6.11715 20.2481 6.1263 20.186 6.13241C20.1238 6.13851 20.0615 6.14156 19.9991 6.14156C19.9366 6.14156 19.8741 6.13851 19.8121 6.13241C19.7498 6.1263 19.6882 6.11715 19.627 6.10494C19.5657 6.09273 19.5051 6.07768 19.4453 6.05957C19.3855 6.04146 19.3269 6.0203 19.2691 5.9965C19.2113 5.97249 19.1549 5.94584 19.0998 5.91634C19.0449 5.88704 18.9914 5.8549 18.9393 5.82011C18.8874 5.78552 18.8374 5.74829 18.7889 5.70862C18.7407 5.66915 18.6945 5.62724 18.6504 5.58309C18.6062 5.53874 18.5643 5.49255 18.5247 5.44434C18.485 5.39612 18.4478 5.34587 18.4132 5.29399C18.3784 5.24211 18.3464 5.1886 18.3169 5.13346C18.2874 5.07833 18.2608 5.02197 18.2368 4.96419C18.213 4.90641 18.192 4.84782 18.1737 4.788C18.1556 4.72819 18.1405 4.66777 18.1283 4.60632C18.1161 4.54508 18.107 4.48344 18.1009 4.42118C18.0948 4.35913 18.0917 4.29688 18.0917 4.23442C18.0917 4.17175 18.0948 4.1095 18.1009 4.04744C18.107 3.98519 18.1161 3.92354 18.1283 3.8623C18.1405 3.80086 18.1556 3.74044 18.1737 3.68062C18.192 3.62081 18.213 3.56222 18.2368 3.50444C18.2608 3.44666 18.2874 3.3903 18.3169 3.33516C18.3464 3.28003 18.3784 3.22652 18.4132 3.17464C18.4478 3.12276 18.485 3.07251 18.5247 3.02429C18.5643 2.97607 18.6062 2.92989 18.6504 2.88554C18.6945 2.84139 18.7407 2.79948 18.7889 2.76001C18.8374 2.72034 18.8874 2.68311 18.9393 2.64852C18.9914 2.61373 19.0449 2.58158 19.0998 2.55229C19.1549 2.52279 19.2113 2.49613 19.2691 2.47213C19.3269 2.44832 19.3857 2.42716 19.4453 2.40906C19.5051 2.39095 19.5657 2.3759 19.627 2.36369C19.6882 2.35148 19.7498 2.34233 19.8121 2.33622C19.8741 2.33012 19.9366 2.32707 19.9991 2.32707ZM3.46891 8.04891C3.46891 7.98645 3.47196 7.92419 3.47807 7.86194C3.48417 7.79989 3.49333 7.73824 3.50553 7.6768C3.51774 7.61556 3.5328 7.55514 3.5509 7.49532C3.56901 7.43551 3.59017 7.37671 3.61397 7.31913C3.63798 7.26135 3.66463 7.205 3.69413 7.14986C3.72343 7.09473 3.75557 7.04122 3.79036 6.98934C3.82495 6.93746 3.86218 6.88721 3.90186 6.83899C3.94132 6.79077 3.98324 6.74439 4.02738 6.70024C4.07174 6.65609 4.11792 6.61418 4.16614 6.5745C4.21436 6.53503 4.26461 6.4978 4.31649 6.46301C4.36837 6.42843 4.42188 6.39628 4.47701 6.36678C4.53215 6.33748 4.5885 6.31083 4.64628 6.28682C4.70406 6.26302 4.76265 6.24186 4.82247 6.22376C4.88228 6.20565 4.94271 6.19039 5.00415 6.17839C5.06539 6.16618 5.12703 6.15702 5.18929 6.15092C5.25134 6.14461 5.3136 6.14156 5.37606 6.14156C5.43872 6.14156 5.50098 6.14461 5.56303 6.15092C5.62529 6.15702 5.68693 6.16618 5.74817 6.17839C5.80961 6.19039 5.87004 6.20565 5.92985 6.22376C5.98967 6.24186 6.04826 6.26302 6.10604 6.28682C6.16382 6.31083 6.22017 6.33748 6.27531 6.36678C6.33044 6.39628 6.38395 6.42843 6.43583 6.46301C6.48771 6.4978 6.53796 6.53503 6.58618 6.5745C6.6344 6.61418 6.68058 6.65609 6.72494 6.70024C6.76908 6.74439 6.81099 6.79077 6.85046 6.83899C6.89014 6.88721 6.92737 6.93746 6.96196 6.98934C6.99675 7.04122 7.02889 7.09473 7.05819 7.14986C7.08769 7.205 7.11434 7.26135 7.13835 7.31913C7.16215 7.37671 7.18331 7.43551 7.20142 7.49532C7.21952 7.55514 7.23458 7.61556 7.24679 7.6768C7.25899 7.73824 7.26815 7.79989 7.27425 7.86194C7.28035 7.92419 7.28341 7.98645 7.28341 8.04891C7.28341 8.11137 7.28035 8.17383 7.27425 8.23588C7.26815 8.29814 7.25899 8.35978 7.24679 8.42102C7.23458 8.48226 7.21952 8.54289 7.20142 8.6027C7.18331 8.66252 7.16215 8.72111 7.13835 8.77889C7.11434 8.83667 7.08769 8.89303 7.05819 8.94816C7.02889 9.00309 6.99675 9.0566 6.96196 9.10868C6.92737 9.16056 6.89014 9.21061 6.85046 9.25903C6.81099 9.30725 6.76908 9.35343 6.72494 9.39758C6.68058 9.44173 6.6344 9.48364 6.58618 9.52332C6.53796 9.56299 6.48771 9.60022 6.43583 9.63481C6.38395 9.6696 6.33044 9.70174 6.27531 9.73104C6.22017 9.76054 6.16382 9.78719 6.10604 9.8112C6.04826 9.835 5.98967 9.85596 5.92985 9.87427C5.87004 9.89237 5.80961 9.90743 5.74817 9.91964C5.68693 9.93184 5.62529 9.941 5.56303 9.9471C5.50098 9.95321 5.43872 9.95626 5.37606 9.95626C5.3136 9.95626 5.25134 9.95321 5.18929 9.9471C5.12703 9.941 5.06539 9.93184 5.00415 9.91964C4.94271 9.90743 4.88228 9.89237 4.82247 9.87427C4.76265 9.85596 4.70406 9.835 4.64628 9.8112C4.5885 9.78719 4.53215 9.76054 4.47701 9.73104C4.42188 9.70174 4.36837 9.6696 4.31649 9.63481C4.26461 9.60022 4.21436 9.56299 4.16614 9.52332C4.11792 9.48364 4.07174 9.44173 4.02738 9.39758C3.98324 9.35343 3.94132 9.30725 3.90186 9.25903C3.86218 9.21061 3.82495 9.16056 3.79036 9.10868C3.75557 9.0566 3.72343 9.00309 3.69413 8.94816C3.66463 8.89303 3.63798 8.83667 3.61397 8.77889C3.59017 8.72111 3.56901 8.66252 3.5509 8.6027C3.5328 8.54289 3.51774 8.48226 3.50553 8.42102C3.49333 8.35978 3.48417 8.29814 3.47807 8.23588C3.47196 8.17383 3.46891 8.11137 3.46891 8.04891ZM2.19735 14.4067C2.19735 14.3026 2.20243 14.1988 2.21261 14.0951C2.22278 13.9915 2.23804 13.8888 2.25838 13.7866C2.27873 13.6845 2.30396 13.5836 2.33407 13.4839C2.36438 13.3844 2.39937 13.2863 2.43925 13.1903C2.47913 13.0941 2.52348 13.0001 2.57271 12.9081C2.62174 12.8164 2.67525 12.7273 2.73303 12.6406C2.79081 12.5541 2.85286 12.4705 2.91878 12.3901C2.9849 12.3096 3.05469 12.2325 3.12834 12.159C3.20199 12.0854 3.27909 12.0154 3.35946 11.9495C3.44002 11.8833 3.52344 11.8215 3.61011 11.7635C3.69657 11.7057 3.78589 11.6522 3.87765 11.6032C3.9694 11.5542 4.0634 11.5096 4.15963 11.4699C4.25586 11.4301 4.35372 11.3951 4.45341 11.3647C4.5531 11.3344 4.65381 11.3092 4.75594 11.2889C4.85807 11.2687 4.96102 11.2535 5.06458 11.2431C5.16813 11.2329 5.2721 11.2278 5.37606 11.2278C5.48022 11.2278 5.58419 11.2329 5.68774 11.2431C5.7913 11.2535 5.89425 11.2687 5.99638 11.2889C6.09851 11.3092 6.19922 11.3344 6.29891 11.3647C6.3986 11.3951 6.49646 11.4301 6.59269 11.4699C6.68892 11.5096 6.78292 11.5542 6.87467 11.6032C6.96643 11.6522 7.05575 11.7057 7.14221 11.7635C7.22888 11.8215 7.3123 11.8833 7.39286 11.9495C7.47323 12.0154 7.55033 12.0854 7.62398 12.159C7.69763 12.2325 7.76742 12.3096 7.83354 12.3901C7.89946 12.4705 7.96151 12.5541 8.01929 12.6406C8.07707 12.7273 8.13057 12.8164 8.17961 12.9081C8.22884 13.0001 8.27319 13.0941 8.31307 13.1903C8.35295 13.2863 8.38794 13.3844 8.41825 13.4839C8.44836 13.5836 8.47359 13.6845 8.49394 13.7866C8.51428 13.8888 8.52954 13.9915 8.53971 14.0951C8.54989 14.1988 8.55497 14.3026 8.55497 14.4067V16.3141H2.19735V14.4067ZM3.46891 27.1222C3.46891 27.0597 3.47196 26.9975 3.47807 26.9352C3.48417 26.8732 3.49333 26.8115 3.50553 26.7501C3.51774 26.6888 3.5328 26.6284 3.5509 26.5686C3.56901 26.5088 3.59017 26.45 3.61397 26.3924C3.63798 26.3346 3.66463 26.2783 3.69413 26.2231C3.72343 26.168 3.75557 26.1145 3.79036 26.0626C3.82495 26.0107 3.86218 25.9605 3.90186 25.9123C3.94132 25.8641 3.98324 25.8177 4.02738 25.7735C4.07174 25.7294 4.11792 25.6875 4.16614 25.6478C4.21436 25.6083 4.26461 25.5711 4.31649 25.5363C4.36837 25.5017 4.42188 25.4696 4.47701 25.4401C4.53215 25.4108 4.5885 25.3841 4.64628 25.3601C4.70406 25.3363 4.76265 25.3151 4.82247 25.297C4.88228 25.2789 4.94271 25.2637 5.00415 25.2517C5.06539 25.2395 5.12703 25.2303 5.18929 25.2242C5.25134 25.2179 5.3136 25.2148 5.37606 25.2148C5.43872 25.2148 5.50098 25.2179 5.56303 25.2242C5.62529 25.2303 5.68693 25.2395 5.74817 25.2517C5.80961 25.2637 5.87004 25.2789 5.92985 25.297C5.98967 25.3151 6.04826 25.3363 6.10604 25.3601C6.16382 25.3841 6.22017 25.4108 6.27531 25.4401C6.33044 25.4696 6.38395 25.5017 6.43583 25.5363C6.48771 25.5711 6.53796 25.6083 6.58618 25.6478C6.6344 25.6875 6.68058 25.7294 6.72494 25.7735C6.76908 25.8177 6.81099 25.8641 6.85046 25.9123C6.89014 25.9605 6.92737 26.0107 6.96196 26.0626C6.99675 26.1145 7.02889 26.168 7.05819 26.2231C7.08769 26.2783 7.11434 26.3346 7.13835 26.3924C7.16215 26.45 7.18331 26.5088 7.20142 26.5686C7.21952 26.6284 7.23458 26.6888 7.24679 26.7501C7.25899 26.8115 7.26815 26.8732 7.27425 26.9352C7.28035 26.9975 7.28341 27.0597 7.28341 27.1222C7.28341 27.1847 7.28035 27.2471 7.27425 27.3092C7.26815 27.3714 7.25899 27.4331 7.24679 27.4943C7.23458 27.5555 7.21952 27.6162 7.20142 27.676C7.18331 27.7358 7.16215 27.7944 7.13835 27.8522C7.11434 27.91 7.08769 27.9663 7.05819 28.0214C7.02889 28.0764 6.99675 28.1299 6.96196 28.182C6.92737 28.2338 6.89014 28.2839 6.85046 28.3323C6.81099 28.3805 6.76908 28.4267 6.72494 28.4709C6.68058 28.515 6.6344 28.5569 6.58618 28.5966C6.53796 28.6363 6.48771 28.6735 6.43583 28.7081C6.38395 28.7429 6.33044 28.775 6.27531 28.8043C6.22017 28.8338 6.16382 28.8605 6.10604 28.8845C6.04826 28.9083 5.98967 28.9292 5.92985 28.9476C5.87004 28.9657 5.80961 28.9807 5.74817 28.9929C5.68693 29.0051 5.62529 29.0143 5.56303 29.0204C5.50098 29.0265 5.43872 29.0295 5.37606 29.0295C5.3136 29.0295 5.25134 29.0265 5.18929 29.0204C5.12703 29.0143 5.06539 29.0051 5.00415 28.9929C4.94271 28.9807 4.88228 28.9657 4.82247 28.9476C4.76265 28.9292 4.70406 28.9083 4.64628 28.8845C4.5885 28.8605 4.53215 28.8338 4.47701 28.8043C4.42188 28.775 4.36837 28.7429 4.31649 28.7081C4.26461 28.6735 4.21436 28.6363 4.16614 28.5966C4.11792 28.5569 4.07174 28.515 4.02738 28.4709C3.98324 28.4267 3.94132 28.3805 3.90186 28.3323C3.86218 28.2839 3.82495 28.2338 3.79036 28.182C3.75557 28.1299 3.72343 28.0764 3.69413 28.0214C3.66463 27.9663 3.63798 27.91 3.61397 27.8522C3.59017 27.7944 3.56901 27.7358 3.5509 27.676C3.5328 27.6162 3.51774 27.5555 3.50553 27.4943C3.49333 27.4331 3.48417 27.3714 3.47807 27.3092C3.47196 27.2471 3.46891 27.1847 3.46891 27.1222ZM8.55497 35.3874H2.19735V33.48C2.19735 33.3759 2.20243 33.2721 2.21261 33.1683C2.22278 33.0648 2.23804 32.962 2.25838 32.8599C2.27873 32.7578 2.30396 32.6569 2.33407 32.5572C2.36438 32.4577 2.39937 32.3596 2.43925 32.2636C2.47913 32.1674 2.52348 32.0734 2.57271 31.9814C2.62174 31.8897 2.67525 31.8005 2.73303 31.7139C2.79081 31.6274 2.85286 31.5438 2.91878 31.4634C2.9849 31.3829 3.05469 31.3057 3.12834 31.2323C3.20199 31.1587 3.27909 31.0887 3.35946 31.0227C3.44002 30.9566 3.52344 30.8948 3.61011 30.8368C3.69657 30.779 3.78589 30.7255 3.87765 30.6765C3.9694 30.6274 4.0634 30.5829 4.15963 30.5432C4.25586 30.5033 4.35372 30.4683 4.45341 30.438C4.5531 30.4077 4.65381 30.3825 4.75594 30.3621C4.85807 30.342 4.96102 30.3267 5.06458 30.3164C5.16813 30.3062 5.2721 30.3011 5.37606 30.3011C5.48022 30.3011 5.58419 30.3062 5.68774 30.3164C5.7913 30.3267 5.89425 30.342 5.99638 30.3621C6.09851 30.3825 6.19922 30.4077 6.29891 30.438C6.3986 30.4683 6.49646 30.5033 6.59269 30.5432C6.68892 30.5829 6.78292 30.6274 6.87467 30.6765C6.96643 30.7255 7.05575 30.779 7.14221 30.8368C7.22888 30.8948 7.3123 30.9566 7.39286 31.0227C7.47323 31.0887 7.55033 31.1587 7.62398 31.2323C7.69763 31.3057 7.76742 31.3829 7.83354 31.4634C7.89946 31.5438 7.96151 31.6274 8.01929 31.7139C8.07707 31.8005 8.13057 31.8897 8.17961 31.9814C8.22884 32.0734 8.27319 32.1674 8.31307 32.2636C8.35295 32.3596 8.38794 32.4577 8.41825 32.5572C8.44836 32.6569 8.47359 32.7578 8.49394 32.8599C8.51428 32.962 8.52954 33.0648 8.53971 33.1683C8.54989 33.2721 8.55497 33.3759 8.55497 33.48V35.3874ZM16.8836 37.9305C16.9017 37.8414 16.9237 37.7533 16.9493 37.6662C16.9748 37.5791 17.0041 37.4933 17.0372 37.4087C17.0702 37.324 17.1066 37.241 17.1467 37.1594C17.1868 37.078 17.2303 36.9983 17.2773 36.9206C17.3243 36.8429 17.3743 36.7672 17.4279 36.6937C17.4812 36.6203 17.5375 36.5493 17.5971 36.4807C17.6565 36.4122 17.719 36.346 17.7841 36.2828C17.8492 36.2195 17.917 36.1593 17.9873 36.1017C18.0575 36.0443 18.1302 35.9898 18.2052 35.9387C18.2801 35.8875 18.3572 35.8394 18.4364 35.7949C18.5153 35.7501 18.5963 35.709 18.6789 35.6712C18.7615 35.6335 18.8455 35.5994 18.9312 35.5688C19.0166 35.5383 19.1033 35.5117 19.1912 35.4885C19.2789 35.4655 19.3676 35.4462 19.4571 35.4307C19.5466 35.4152 19.6365 35.4036 19.7271 35.3959C19.8176 35.388 19.9081 35.3841 19.9991 35.3841C20.0898 35.3841 20.1805 35.388 20.2709 35.3957C20.3614 35.4036 20.4513 35.4152 20.5409 35.4307C20.6304 35.4462 20.7191 35.4655 20.807 35.4885C20.8947 35.5117 20.9813 35.5383 21.067 35.5688C21.1524 35.5994 21.2367 35.6335 21.3193 35.6712C21.4019 35.709 21.4826 35.7501 21.5618 35.7949C21.6409 35.8394 21.7178 35.8875 21.7929 35.9387C21.8678 35.9898 21.9404 36.0443 22.0108 36.1017C22.0812 36.1593 22.1487 36.2195 22.214 36.2828C22.2791 36.346 22.3414 36.4122 22.401 36.4807C22.4604 36.5493 22.5168 36.6203 22.5703 36.6937C22.6236 36.7672 22.6738 36.8429 22.7208 36.9206C22.7676 36.9983 22.8112 37.078 22.8512 37.1594C22.8913 37.241 22.9279 37.324 22.9609 37.4087C22.9939 37.4933 23.0232 37.5791 23.0488 37.6662C23.0744 37.7533 23.0962 37.8414 23.1143 37.9305H16.8836ZM18.0917 32.2085C18.0917 32.146 18.0948 32.0837 18.1009 32.0215C18.107 31.9594 18.1161 31.8976 18.1283 31.8363C18.1405 31.7751 18.1556 31.7145 18.1737 31.6549C18.192 31.5951 18.213 31.5363 18.2368 31.4785C18.2608 31.4209 18.2874 31.3645 18.3169 31.3094C18.3464 31.2543 18.3784 31.2008 18.4132 31.1489C18.4478 31.0968 18.485 31.0468 18.5247 30.9985C18.5643 30.9501 18.6062 30.9039 18.6504 30.8598C18.6945 30.8156 18.7407 30.7737 18.7889 30.7341C18.8374 30.6944 18.8874 30.6574 18.9393 30.6226C18.9914 30.588 19.0449 30.5558 19.0998 30.5263C19.1549 30.4968 19.2113 30.4702 19.2691 30.4464C19.3269 30.4224 19.3855 30.4014 19.4453 30.3833C19.5051 30.3652 19.5657 30.3499 19.627 30.3377C19.6882 30.3255 19.7498 30.3164 19.8121 30.3103C19.8741 30.3042 19.9366 30.3011 19.9991 30.3011C20.0615 30.3011 20.1238 30.3042 20.186 30.3103C20.2481 30.3164 20.3099 30.3255 20.3712 30.3377C20.4324 30.3499 20.4928 30.3652 20.5527 30.3833C20.6125 30.4014 20.6713 30.4224 20.7288 30.4464C20.7866 30.4702 20.843 30.4968 20.8981 30.5263C20.9532 30.5558 21.0068 30.588 21.0586 30.6226C21.1105 30.6574 21.1608 30.6944 21.209 30.7341C21.2572 30.7737 21.3036 30.8156 21.3477 30.8598C21.3919 30.9039 21.4338 30.9501 21.4735 30.9985C21.5129 31.0468 21.5502 31.0968 21.585 31.1489C21.6195 31.2008 21.6517 31.2543 21.6812 31.3094C21.7105 31.3645 21.7371 31.4209 21.7612 31.4785C21.785 31.5363 21.8061 31.5951 21.8242 31.6549C21.8423 31.7145 21.8576 31.7751 21.8696 31.8363C21.8818 31.8976 21.891 31.9594 21.8971 32.0215C21.9034 32.0837 21.9064 32.146 21.9064 32.2085C21.9064 32.2709 21.9034 32.3332 21.8971 32.3954C21.891 32.4577 21.8818 32.5193 21.8696 32.5806C21.8576 32.6418 21.8423 32.7024 21.8242 32.762C21.8061 32.8219 21.785 32.8807 21.7612 32.9384C21.7371 32.996 21.7105 33.0526 21.6812 33.1075C21.6517 33.1626 21.6195 33.2161 21.585 33.268C21.5502 33.3201 21.5129 33.3702 21.4735 33.4184C21.4338 33.4668 21.3919 33.513 21.3477 33.5571C21.3036 33.6013 21.2572 33.6432 21.209 33.6829C21.1608 33.7225 21.1105 33.7596 21.0586 33.7944C21.0068 33.8291 20.9532 33.8611 20.8981 33.8906C20.843 33.9201 20.7866 33.9467 20.7288 33.9705C20.6713 33.9945 20.6125 34.0155 20.5527 34.0336C20.4928 34.0517 20.4324 34.067 20.3712 34.0792C20.3099 34.0914 20.2481 34.1005 20.186 34.1067C20.1238 34.1128 20.0615 34.1158 19.9991 34.1158C19.9366 34.1158 19.8741 34.1128 19.8121 34.1067C19.7498 34.1005 19.6882 34.0914 19.627 34.0792C19.5657 34.067 19.5051 34.0517 19.4453 34.0336C19.3855 34.0155 19.3269 33.9945 19.2691 33.9705C19.2113 33.9467 19.1549 33.9201 19.0998 33.8906C19.0449 33.8611 18.9914 33.8291 18.9393 33.7944C18.8874 33.7596 18.8374 33.7225 18.7889 33.6829C18.7407 33.6432 18.6945 33.6013 18.6504 33.5571C18.6062 33.513 18.5643 33.4668 18.5247 33.4184C18.485 33.3702 18.4478 33.3201 18.4132 33.268C18.3784 33.2161 18.3464 33.1626 18.3169 33.1075C18.2874 33.0526 18.2608 32.996 18.2368 32.9384C18.213 32.8807 18.192 32.8219 18.1737 32.762C18.1556 32.7024 18.1405 32.6418 18.1283 32.5806C18.1161 32.5193 18.107 32.4577 18.1009 32.3954C18.0948 32.3332 18.0917 32.2709 18.0917 32.2085ZM37.8008 33.48V35.3874H31.443V33.48C31.443 33.3759 31.448 33.2721 31.4582 33.1683C31.4686 33.0648 31.4836 32.962 31.504 32.8599C31.5243 32.7578 31.5496 32.6569 31.5799 32.5572C31.61 32.4577 31.6452 32.3596 31.6849 32.2636C31.7247 32.1674 31.7693 32.0734 31.8183 31.9814C31.8674 31.8897 31.9209 31.8005 31.9786 31.7139C32.0366 31.6274 32.0985 31.5438 32.1646 31.4634C32.2305 31.3829 32.3005 31.3057 32.3741 31.2323C32.4476 31.1587 32.5247 31.0887 32.6053 31.0227C32.6856 30.9566 32.7692 30.8948 32.8557 30.8368C32.9424 30.779 33.0315 30.7255 33.1233 30.6765C33.2152 30.6274 33.3092 30.5829 33.4054 30.5432C33.5015 30.5033 33.5995 30.4683 33.699 30.438C33.7987 30.4077 33.8996 30.3825 34.0018 30.3621C34.1039 30.342 34.2066 30.3267 34.3102 30.3164C34.4139 30.3062 34.5177 30.3011 34.6219 30.3011C34.726 30.3011 34.8298 30.3062 34.9333 30.3164C35.0371 30.3267 35.1399 30.342 35.242 30.3621C35.3441 30.3825 35.445 30.4077 35.5447 30.438C35.6442 30.4683 35.7423 30.5033 35.8383 30.5432C35.9345 30.5829 36.0285 30.6274 36.1203 30.6765C36.2122 30.7255 36.3014 30.779 36.388 30.8368C36.4745 30.8948 36.5581 30.9566 36.6385 31.0227C36.719 31.0887 36.7961 31.1587 36.8696 31.2323C36.9432 31.3057 37.013 31.3829 37.0791 31.4634C37.1453 31.5438 37.2071 31.6274 37.2649 31.7139C37.3229 31.8005 37.3764 31.8897 37.4254 31.9814C37.4744 32.0734 37.519 32.1674 37.5587 32.2636C37.5986 32.3596 37.6335 32.4577 37.6639 32.5572C37.6942 32.6569 37.7194 32.7578 37.7397 32.8599C37.7599 32.962 37.7751 33.0648 37.7855 33.1683C37.7957 33.2721 37.8008 33.3759 37.8008 33.48ZM32.7145 27.1222C32.7145 27.0597 32.7176 26.9975 32.7237 26.9352C32.7298 26.8732 32.7389 26.8115 32.7511 26.7501C32.7633 26.6888 32.7786 26.6284 32.7967 26.5686C32.8148 26.5088 32.8358 26.45 32.8598 26.3924C32.8836 26.3346 32.9102 26.2783 32.9397 26.2231C32.9692 26.168 33.0012 26.1145 33.036 26.0626C33.0708 26.0107 33.1078 25.9605 33.1475 25.9123C33.1871 25.8641 33.229 25.8177 33.2732 25.7735C33.3173 25.7294 33.3635 25.6875 33.4119 25.6478C33.4602 25.6083 33.5102 25.5711 33.5621 25.5363C33.6142 25.5017 33.6677 25.4696 33.7228 25.4401C33.7778 25.4108 33.8343 25.3841 33.8919 25.3601C33.9497 25.3363 34.0085 25.3151 34.0683 25.297C34.1279 25.2789 34.1885 25.2637 34.2498 25.2517C34.311 25.2395 34.3726 25.2303 34.4349 25.2242C34.4972 25.2179 34.5594 25.2148 34.6219 25.2148C34.6843 25.2148 34.7466 25.2179 34.8088 25.2242C34.8709 25.2303 34.9327 25.2395 34.994 25.2517C35.0552 25.2637 35.1158 25.2789 35.1755 25.297C35.2353 25.3151 35.2941 25.3363 35.3518 25.3601C35.4094 25.3841 35.4658 25.4108 35.5209 25.4401C35.576 25.4696 35.6296 25.5017 35.6814 25.5363C35.7335 25.5711 35.7836 25.6083 35.8318 25.6478C35.8802 25.6875 35.9264 25.7294 35.9705 25.7735C36.0147 25.8177 36.0566 25.8641 36.0963 25.9123C36.1359 25.9605 36.173 26.0107 36.2078 26.0626C36.2424 26.1145 36.2745 26.168 36.304 26.2231C36.3335 26.2783 36.3601 26.3346 36.384 26.3924C36.408 26.45 36.4289 26.5088 36.447 26.5686C36.4651 26.6284 36.4804 26.6888 36.4926 26.7501C36.5048 26.8115 36.514 26.8732 36.5201 26.9352C36.5262 26.9975 36.5292 27.0597 36.5292 27.1222C36.5292 27.1847 36.5262 27.2471 36.5201 27.3092C36.514 27.3714 36.5048 27.4331 36.4926 27.4943C36.4804 27.5555 36.4651 27.6162 36.447 27.676C36.4289 27.7358 36.408 27.7944 36.384 27.8522C36.3601 27.91 36.3335 27.9663 36.304 28.0214C36.2745 28.0764 36.2424 28.1299 36.2078 28.182C36.173 28.2338 36.1359 28.2839 36.0963 28.3323C36.0566 28.3805 36.0147 28.4267 35.9705 28.4709C35.9264 28.515 35.8802 28.5569 35.8318 28.5966C35.7836 28.6363 35.7335 28.6735 35.6814 28.7081C35.6296 28.7429 35.576 28.775 35.5209 28.8043C35.4658 28.8338 35.4094 28.8605 35.3518 28.8845C35.2941 28.9083 35.2353 28.9292 35.1755 28.9476C35.1158 28.9657 35.0552 28.9807 34.994 28.9929C34.9327 29.0051 34.8709 29.0143 34.8088 29.0204C34.7466 29.0265 34.6843 29.0295 34.6219 29.0295C34.5594 29.0295 34.4972 29.0265 34.4349 29.0204C34.3726 29.0143 34.311 29.0051 34.2498 28.9929C34.1885 28.9807 34.1279 28.9657 34.0683 28.9476C34.0085 28.9292 33.9497 28.9083 33.8919 28.8845C33.8343 28.8605 33.7778 28.8338 33.7228 28.8043C33.6677 28.775 33.6142 28.7429 33.5621 28.7081C33.5102 28.6735 33.4602 28.6363 33.4119 28.5966C33.3635 28.5569 33.3173 28.515 33.2732 28.4709C33.229 28.4267 33.1871 28.3805 33.1475 28.3323C33.1078 28.2839 33.0708 28.2338 33.036 28.182C33.0012 28.1299 32.9692 28.0764 32.9397 28.0214C32.9102 27.9663 32.8836 27.91 32.8598 27.8522C32.8358 27.7944 32.8148 27.7358 32.7967 27.676C32.7786 27.6162 32.7633 27.5555 32.7511 27.4943C32.7389 27.4331 32.7298 27.3714 32.7237 27.3092C32.7176 27.2471 32.7145 27.1847 32.7145 27.1222ZM37.165 20.1288C37.1632 21.6522 36.9601 23.1484 36.5559 24.6173C36.4189 24.5095 36.2741 24.4139 36.1213 24.3302C35.9685 24.2464 35.8098 24.176 35.6452 24.1187C35.4806 24.0613 35.3126 24.0179 35.1409 23.9884C34.9692 23.9591 34.796 23.9441 34.6219 23.9433C34.5411 23.9431 34.4605 23.9457 34.38 23.9516C34.2994 23.9573 34.2192 23.9663 34.1393 23.9783C34.0595 23.9901 33.9802 24.0051 33.9015 24.0232C33.8227 24.0411 33.7448 24.0623 33.6677 24.0861C33.5906 24.1101 33.5147 24.1372 33.4396 24.1669C33.3645 24.1968 33.2907 24.2293 33.2181 24.2647C33.1456 24.3003 33.0744 24.3384 33.0048 24.3793C32.9353 24.4202 32.8673 24.4637 32.801 24.5099C32.7347 24.5559 32.6704 24.6045 32.6077 24.6556C32.545 24.7066 32.4846 24.7599 32.426 24.8155C32.3676 24.8712 32.3113 24.929 32.2572 24.989C32.2032 25.049 32.1516 25.1109 32.1021 25.1748C32.0529 25.2389 32.0061 25.3046 31.9618 25.3719C31.9174 25.4395 31.8757 25.5086 31.8368 25.5792C31.7978 25.65 31.7616 25.722 31.728 25.7955C31.6946 25.8691 31.6639 25.9438 31.636 26.0195C31.6084 26.0954 31.5835 26.1721 31.5616 26.2498C31.5398 26.3275 31.5209 26.406 31.5048 26.4852C31.4889 26.5643 31.4761 26.6441 31.4664 26.724C31.4566 26.8042 31.4499 26.8848 31.4462 26.9653C31.4425 27.0461 31.4419 27.1267 31.4446 27.2074C31.447 27.2882 31.4527 27.3686 31.4613 27.4489C31.47 27.5291 31.4818 27.6091 31.4967 27.6884C31.5113 27.7677 31.5292 27.8465 31.55 27.9244C31.5709 28.0025 31.5947 28.0796 31.6214 28.1557C31.648 28.232 31.6777 28.3071 31.7101 28.3809C31.7426 28.455 31.7778 28.5274 31.8159 28.5986C31.8539 28.67 31.8946 28.7396 31.9379 28.8078C31.9813 28.8759 32.0273 28.9423 32.0757 29.0068C32.1241 29.0715 32.175 29.1341 32.2283 29.1947C32.2814 29.2556 32.3369 29.3142 32.3947 29.3705C32.4523 29.4271 32.5121 29.4812 32.5739 29.5331C32.4842 29.5797 32.3959 29.6293 32.3095 29.682C32.223 29.7345 32.1383 29.79 32.0555 29.8484C31.9727 29.9068 31.8922 29.9679 31.8136 30.0319C31.7351 30.0958 31.6588 30.1622 31.5848 30.2313C31.5107 30.3005 31.4393 30.3719 31.3701 30.446C31.3009 30.52 31.2344 30.5961 31.1705 30.6746C31.1066 30.7532 31.0454 30.8339 30.987 30.9165C30.9286 30.9991 30.8731 31.0838 30.8204 31.1702C30.7677 31.2569 30.7181 31.345 30.6715 31.4349C30.6249 31.5249 30.5813 31.6162 30.5409 31.709C30.5006 31.8018 30.4633 31.896 30.4294 31.9914C30.3954 32.0868 30.3647 32.1832 30.3374 32.2807C30.3099 32.3781 30.2859 32.4764 30.2652 32.5755C30.2446 32.6746 30.2273 32.7745 30.2133 32.8748C30.1995 32.9749 30.1891 33.0756 30.1822 33.1767C30.1751 33.2776 30.1716 33.3787 30.1714 33.48V33.9441C29.7173 34.2796 29.2475 34.5919 28.7625 34.8808C28.2773 35.1699 27.7792 35.4342 27.2677 35.6736C26.7565 35.9133 26.2346 36.1269 25.7022 36.3149C25.1696 36.5027 24.6292 36.6638 24.0807 36.7981C23.9792 36.5653 23.8587 36.343 23.7194 36.1308C23.58 35.9186 23.4235 35.7198 23.2504 35.5343C23.0771 35.3487 22.8895 35.179 22.6873 35.0254C22.485 34.8718 22.2714 34.7365 22.0462 34.6193C22.0875 34.5846 22.1278 34.5487 22.1672 34.5121C22.2065 34.4753 22.245 34.4375 22.2826 34.3988C22.32 34.3599 22.3564 34.3205 22.392 34.2798C22.4275 34.2391 22.4618 34.1978 22.4952 34.1553C22.5286 34.113 22.5609 34.0698 22.592 34.0259C22.6232 33.9819 22.6533 33.9372 22.6822 33.8916C22.7111 33.846 22.7387 33.7998 22.7654 33.7531C22.7918 33.7061 22.8173 33.6584 22.8413 33.6102C22.8655 33.562 22.8883 33.5132 22.91 33.464C22.9316 33.4145 22.9519 33.3647 22.9711 33.3142C22.9902 33.2638 23.0079 33.2129 23.0246 33.1616C23.0411 33.1104 23.0561 33.0585 23.0702 33.0064C23.084 32.9543 23.0966 32.902 23.1078 32.8491C23.119 32.7964 23.1287 32.7435 23.1373 32.6902C23.1458 32.6369 23.153 32.5836 23.1589 32.5299C23.1646 32.4764 23.169 32.4227 23.1721 32.3688C23.1751 32.3151 23.177 32.2612 23.1772 32.2072C23.1776 32.1533 23.1766 32.0994 23.1741 32.0457C23.1717 31.9918 23.1678 31.9381 23.1627 31.8844C23.1576 31.8306 23.1511 31.7771 23.1432 31.7238C23.1353 31.6705 23.1261 31.6174 23.1155 31.5645C23.1049 31.5116 23.0931 31.4591 23.0797 31.4069C23.0665 31.3546 23.052 31.3027 23.0362 31.2512C23.0203 31.1997 23.003 31.1487 22.9845 31.098C22.966 31.0474 22.9462 30.9971 22.9253 30.9475C22.9041 30.8978 22.882 30.8488 22.8584 30.8004C22.835 30.7518 22.8101 30.7039 22.7841 30.6567C22.7583 30.6095 22.731 30.5629 22.7027 30.517C22.6744 30.4712 22.6449 30.426 22.6142 30.3817C22.5835 30.3373 22.5518 30.2938 22.519 30.2511C22.4862 30.2083 22.4523 30.1664 22.4173 30.1253C22.3823 30.0844 22.3463 30.0441 22.3092 30.0051C22.2722 29.9658 22.2342 29.9276 22.1953 29.8903C22.1563 29.8531 22.1164 29.8169 22.0757 29.7817C22.0348 29.7465 21.9931 29.7123 21.9506 29.6792C21.908 29.646 21.8647 29.6141 21.8206 29.5831C21.7764 29.5522 21.7314 29.5225 21.6857 29.4938C21.6401 29.4651 21.5937 29.4379 21.5465 29.4116C21.4995 29.3852 21.4517 29.3601 21.4033 29.3363C21.3551 29.3125 21.306 29.29 21.2566 29.2686C21.207 29.2472 21.1571 29.2273 21.1064 29.2084C21.056 29.1897 21.0049 29.1722 20.9537 29.1559C20.9022 29.1398 20.8503 29.125 20.7982 29.1113C20.7459 29.0977 20.6934 29.0855 20.6407 29.0747C20.5879 29.0637 20.535 29.0542 20.4816 29.046C20.4283 29.0379 20.3748 29.031 20.3211 29.0255C20.2676 29.02 20.2139 29.0159 20.16 29.0133C20.1061 29.0104 20.0524 29.009 19.9985 29.009C19.9445 29.009 19.8906 29.0104 19.8367 29.0133C19.7828 29.0159 19.7291 29.02 19.6756 29.0255C19.6219 29.031 19.5684 29.0379 19.5151 29.046C19.462 29.0542 19.4089 29.0637 19.356 29.0747C19.3033 29.0855 19.2508 29.0977 19.1985 29.1113C19.1464 29.125 19.0945 29.1398 19.0433 29.1559C18.9918 29.1722 18.9407 29.1897 18.8903 29.2084C18.8398 29.2273 18.7898 29.2472 18.7401 29.2686C18.6907 29.29 18.6416 29.3125 18.5934 29.3363C18.545 29.3601 18.4972 29.3854 18.4502 29.4116C18.4032 29.4379 18.3568 29.4651 18.311 29.4938C18.2653 29.5225 18.2205 29.5522 18.1761 29.5831C18.132 29.6141 18.0887 29.646 18.0461 29.6792C18.0036 29.7123 17.9619 29.7465 17.921 29.7817C17.8803 29.8169 17.8405 29.8531 17.8014 29.8903C17.7625 29.9276 17.7245 29.9658 17.6875 30.0051C17.6504 30.0441 17.6144 30.0844 17.5794 30.1253C17.5444 30.1664 17.5107 30.2083 17.4777 30.2511C17.4449 30.2938 17.4132 30.3373 17.3825 30.3817C17.352 30.426 17.3225 30.4712 17.294 30.517C17.2657 30.5629 17.2386 30.6095 17.2126 30.6567C17.1866 30.7039 17.1619 30.7518 17.1383 30.8004C17.1147 30.8488 17.0926 30.8978 17.0714 30.9475C17.0505 30.9971 17.0307 31.0474 17.0122 31.098C16.9937 31.1487 16.9766 31.1997 16.9607 31.2512C16.9447 31.3027 16.9302 31.3546 16.917 31.4069C16.9038 31.4591 16.8918 31.5116 16.8812 31.5645C16.8706 31.6174 16.8615 31.6705 16.8535 31.7238C16.8456 31.7771 16.8391 31.8306 16.834 31.8844C16.8289 31.9381 16.825 31.9918 16.8226 32.0457C16.8204 32.0994 16.8191 32.1533 16.8195 32.2072C16.8199 32.2612 16.8216 32.3151 16.8246 32.3688C16.8277 32.4227 16.8322 32.4764 16.8379 32.5301C16.8438 32.5836 16.8509 32.6371 16.8594 32.6902C16.868 32.7435 16.8777 32.7964 16.8891 32.8491C16.9003 32.902 16.9127 32.9543 16.9268 33.0064C16.9406 33.0585 16.9556 33.1104 16.9723 33.1616C16.9888 33.2129 17.0065 33.2638 17.0256 33.3142C17.0448 33.3647 17.0651 33.4145 17.0869 33.464C17.1084 33.5132 17.1312 33.562 17.1554 33.6102C17.1796 33.6584 17.2049 33.7061 17.2313 33.7531C17.258 33.7998 17.2856 33.846 17.3145 33.8916C17.3434 33.9372 17.3735 33.9819 17.4047 34.0259C17.4358 34.0698 17.4681 34.113 17.5015 34.1553C17.5349 34.1978 17.5693 34.2391 17.6047 34.2798C17.6403 34.3205 17.6767 34.3599 17.7141 34.3988C17.7518 34.4375 17.7902 34.4753 17.8295 34.5121C17.8689 34.5487 17.9092 34.5846 17.9505 34.6193C17.7253 34.7365 17.5117 34.8718 17.3094 35.0254C17.1074 35.179 16.9196 35.3487 16.7463 35.5343C16.5732 35.7198 16.4167 35.9186 16.2773 36.1308C16.138 36.343 16.0175 36.5653 15.916 36.7981C15.3677 36.6638 14.8274 36.5027 14.2949 36.3147C13.7625 36.1269 13.2408 35.9131 12.7296 35.6736C12.2183 35.434 11.7203 35.1697 11.2352 34.8808C10.7502 34.5919 10.2806 34.2796 9.82654 33.9441V33.48C9.82654 33.3787 9.82288 33.2776 9.81596 33.1767C9.80884 33.0756 9.79846 32.9749 9.78463 32.8748C9.77079 32.7745 9.7535 32.6746 9.73275 32.5755C9.7122 32.4764 9.68799 32.3781 9.66073 32.2807C9.63326 32.1832 9.60254 32.0868 9.56856 31.9914C9.53459 31.896 9.49756 31.8018 9.45707 31.709C9.41679 31.6162 9.37325 31.5249 9.32666 31.4349C9.27987 31.345 9.23022 31.2569 9.17773 31.1702C9.12504 31.0838 9.0695 30.9991 9.01111 30.9165C8.95272 30.8339 8.89148 30.7532 8.8276 30.6746C8.76351 30.5961 8.69698 30.52 8.62801 30.446C8.55884 30.3719 8.48722 30.3005 8.41317 30.2313C8.33911 30.1622 8.26302 30.0958 8.18429 30.0319C8.10575 29.9679 8.02519 29.9068 7.94238 29.8484C7.85978 29.79 7.77515 29.7345 7.68868 29.682C7.60201 29.6293 7.51392 29.5797 7.42399 29.5331C7.50232 29.4672 7.57739 29.3976 7.64901 29.3245C7.72062 29.2513 7.78857 29.1748 7.85266 29.0951C7.91695 29.0153 7.97717 28.9325 8.03333 28.847C8.08948 28.7614 8.14136 28.6731 8.18897 28.5826C8.23657 28.4918 8.2797 28.399 8.31816 28.3042C8.35681 28.2094 8.39079 28.113 8.41988 28.0147C8.44918 27.9167 8.47359 27.8174 8.49312 27.7169C8.51286 27.6164 8.52751 27.5151 8.53727 27.4131C8.54704 27.3112 8.55172 27.2091 8.55151 27.1065C8.55131 27.0042 8.54622 26.9021 8.53626 26.8001C8.52608 26.6982 8.51103 26.5971 8.49129 26.4966C8.47135 26.3963 8.44653 26.297 8.41703 26.1989C8.38753 26.1009 8.35315 26.0044 8.31429 25.9098C8.27543 25.815 8.2321 25.7225 8.18408 25.6319C8.13627 25.5414 8.08398 25.4535 8.02763 25.368C7.97127 25.2826 7.91065 25.2 7.84635 25.1204C7.78186 25.0409 7.7137 24.9646 7.64189 24.8918C7.56987 24.8187 7.49479 24.7493 7.41606 24.6838C7.33752 24.6181 7.25594 24.5565 7.17131 24.4987C7.08687 24.4409 6.99959 24.3876 6.90987 24.3382C6.82015 24.2889 6.72819 24.2442 6.63399 24.2039C6.5398 24.1636 6.44397 24.1278 6.34652 24.0969C6.24886 24.0658 6.14998 24.0395 6.04989 24.0181C5.94979 23.9968 5.84888 23.9801 5.74715 23.9685C5.64522 23.9569 5.54329 23.9502 5.44096 23.9486C5.33842 23.9469 5.23629 23.9502 5.13416 23.9583C5.03202 23.9665 4.93071 23.9797 4.82979 23.9978C4.72909 24.0157 4.62939 24.0387 4.53092 24.0664C4.43225 24.0942 4.33521 24.1266 4.23979 24.1638C4.14437 24.2011 4.05098 24.2428 3.95964 24.2889C3.86829 24.3351 3.77938 24.3856 3.69291 24.4405C3.60645 24.4954 3.52283 24.5542 3.44206 24.6173C3.28276 24.047 3.15438 23.4701 3.05713 22.8859C2.95988 22.302 2.89417 21.7145 2.86019 21.1233C2.82621 20.5322 2.82397 19.941 2.85368 19.3498C2.88338 18.7583 2.94482 18.1704 3.0378 17.5857H9.19076C9.23246 17.5857 9.27397 17.5816 9.31486 17.5734C9.35575 17.5653 9.39563 17.5531 9.43408 17.5372C9.47274 17.5212 9.50936 17.5016 9.54395 17.4784C9.57874 17.4552 9.61088 17.429 9.64038 17.3995C9.66988 17.3698 9.69633 17.3379 9.71952 17.3031C9.74272 17.2683 9.76225 17.2316 9.77812 17.1932C9.79419 17.1545 9.80619 17.1149 9.81433 17.0738C9.82247 17.0329 9.82654 16.9916 9.82654 16.9499V14.4067C9.82654 14.3054 9.82288 14.2043 9.81596 14.1034C9.80884 14.0023 9.79846 13.9016 9.78463 13.8013C9.77079 13.701 9.7535 13.6013 9.73275 13.5022C9.7122 13.4031 9.68799 13.3049 9.66073 13.2074C9.63326 13.1099 9.60254 13.0135 9.56856 12.9181C9.53459 12.8227 9.49756 12.7285 9.45707 12.6357C9.41679 12.5429 9.37325 12.4516 9.32666 12.3617C9.27987 12.2717 9.23022 12.1836 9.17773 12.097C9.12504 12.0105 9.0695 11.9259 9.01111 11.8433C8.95272 11.7607 8.89148 11.6799 8.8276 11.6014C8.76351 11.5228 8.69698 11.4467 8.62801 11.3727C8.55884 11.2986 8.48722 11.2272 8.41317 11.158C8.33911 11.0889 8.26302 11.0225 8.18429 10.9587C8.10575 10.8946 8.02519 10.8335 7.94238 10.7751C7.85978 10.7168 7.77515 10.6612 7.68868 10.6087C7.60201 10.556 7.51392 10.5064 7.42399 10.4598C7.53284 10.3691 7.63497 10.2714 7.73059 10.167C7.82621 10.0625 7.91451 9.95199 7.99508 9.83541C8.07585 9.71904 8.14827 9.59758 8.21257 9.47144C8.27686 9.34509 8.3324 9.21509 8.37919 9.08142C8.42598 8.94775 8.46342 8.81144 8.4917 8.67249C8.51998 8.53373 8.5389 8.39376 8.54826 8.25236C8.55762 8.11096 8.55741 7.96956 8.54765 7.82817C8.53809 7.68697 8.51876 7.54679 8.49028 7.40804C8.78589 7.13806 9.09086 6.87866 9.40519 6.63005C9.71932 6.38163 10.0418 6.14441 10.3728 5.91878C10.7038 5.69316 11.0422 5.47933 11.3884 5.27771C11.7345 5.07589 12.0873 4.88668 12.4468 4.71008C12.8061 4.53328 13.1715 4.36951 13.5426 4.21855C13.9137 4.06779 14.2896 3.93026 14.6703 3.80595C15.0511 3.68164 15.4359 3.57117 15.8247 3.47412C16.2133 3.37708 16.6049 3.29407 16.9994 3.22469C16.884 3.55143 16.8242 3.88794 16.8202 4.23442C16.8206 4.34896 16.8273 4.4633 16.8401 4.57723C16.8529 4.69116 16.8718 4.80408 16.8971 4.91577C16.9221 5.02767 16.9534 5.13794 16.9904 5.24638C17.0277 5.35482 17.0706 5.46102 17.1192 5.56478C17.1678 5.66854 17.2222 5.76945 17.2818 5.86731C17.3414 5.96517 17.4063 6.05957 17.4763 6.15031C17.5461 6.24125 17.6207 6.32792 17.7003 6.41073C17.7796 6.49333 17.8632 6.57166 17.9511 6.6451C17.8612 6.69169 17.7731 6.74133 17.6866 6.79403C17.6 6.84652 17.5153 6.90206 17.4327 6.96045C17.3499 7.01884 17.2694 7.08008 17.1908 7.14396C17.1123 7.20785 17.036 7.27437 16.962 7.34334C16.8879 7.41252 16.8163 7.48393 16.7473 7.55798C16.6781 7.63204 16.6116 7.70833 16.5477 7.78687C16.4836 7.8654 16.4226 7.94596 16.3642 8.02856C16.3056 8.11137 16.2501 8.1958 16.1976 8.28247C16.1449 8.36894 16.0953 8.45703 16.0487 8.54696C16.0019 8.63688 15.9585 8.72823 15.9181 8.821C15.8776 8.91398 15.8405 9.00798 15.8066 9.10339C15.7726 9.19881 15.7419 9.29525 15.7144 9.3927C15.6871 9.49015 15.6631 9.58842 15.6424 9.6875C15.6216 9.78678 15.6043 9.88647 15.5905 9.98678C15.5767 10.0871 15.5663 10.1876 15.5592 10.2887C15.5522 10.3896 15.5486 10.4909 15.5486 10.592C15.5486 10.6337 15.5527 10.6753 15.5608 10.7161C15.5689 10.757 15.5809 10.7967 15.597 10.8354C15.6129 10.874 15.6326 10.9106 15.6558 10.9452C15.679 10.98 15.7052 11.0122 15.7347 11.0417C15.7642 11.0712 15.7964 11.0976 15.8312 11.1208C15.8658 11.1438 15.9024 11.1635 15.941 11.1794C15.9797 11.1955 16.0194 11.2075 16.0603 11.2156C16.1012 11.2238 16.1427 11.2278 16.1844 11.2278H23.8138C23.8555 11.2278 23.8968 11.2238 23.9377 11.2156C23.9786 11.2075 24.0184 11.1955 24.0569 11.1794C24.0955 11.1635 24.1322 11.1438 24.167 11.1206C24.2015 11.0976 24.2337 11.0712 24.2632 11.0417C24.2927 11.0122 24.3191 10.98 24.3423 10.9452C24.3655 10.9106 24.3851 10.874 24.4011 10.8354C24.417 10.7967 24.429 10.757 24.4371 10.7161C24.4453 10.6753 24.4493 10.6337 24.4493 10.592C24.4493 10.4909 24.4459 10.3896 24.4388 10.2887C24.4318 10.1876 24.4213 10.0871 24.4074 9.98678C24.3936 9.88647 24.3763 9.78678 24.3556 9.6875C24.335 9.58842 24.311 9.49015 24.2835 9.3927C24.2561 9.29525 24.2255 9.19881 24.1916 9.10339C24.1576 9.00798 24.1204 8.91398 24.0799 8.821C24.0396 8.72823 23.9961 8.63688 23.9495 8.54696C23.9029 8.45703 23.8532 8.36894 23.8005 8.28247C23.7478 8.1958 23.6923 8.11137 23.6339 8.02856C23.5755 7.94596 23.5143 7.8654 23.4504 7.78687C23.3865 7.70833 23.32 7.63204 23.2508 7.55798C23.1816 7.48393 23.11 7.41252 23.0362 7.34334C22.9621 7.27437 22.8858 7.20785 22.8073 7.14396C22.7288 7.08008 22.648 7.01884 22.5654 6.96045C22.4826 6.90206 22.398 6.84652 22.3115 6.79403C22.225 6.74133 22.1367 6.69169 22.0468 6.6451C22.1347 6.57166 22.2183 6.49333 22.2979 6.41073C22.3772 6.32792 22.4519 6.24125 22.5219 6.15031C22.5918 6.05957 22.6565 5.96517 22.7161 5.86731C22.776 5.76945 22.8301 5.66854 22.8787 5.56478C22.9275 5.46102 22.9705 5.35482 23.0075 5.24638C23.0447 5.13794 23.0758 5.02767 23.1011 4.91577C23.1261 4.80408 23.1452 4.69116 23.158 4.57723C23.1709 4.4633 23.1776 4.34896 23.178 4.23442C23.1739 3.88936 23.1143 3.55428 22.9991 3.22917C23.3936 3.29834 23.7851 3.38135 24.1737 3.47819C24.5623 3.57503 24.9468 3.68551 25.3276 3.80961C25.7083 3.93372 26.0843 4.07104 26.4552 4.2218C26.8263 4.37236 27.1914 4.53613 27.5507 4.71273C27.9102 4.88912 28.2628 5.07833 28.6089 5.27974C28.955 5.48136 29.2933 5.69499 29.6243 5.92041C29.9551 6.14604 30.2776 6.38285 30.5917 6.63127C30.9058 6.87968 31.2108 7.13888 31.5066 7.40865C31.4779 7.5474 31.4588 7.68758 31.4491 7.82898C31.4393 7.97017 31.4391 8.11157 31.4484 8.25297C31.4578 8.39437 31.4767 8.53434 31.505 8.6733C31.5333 8.81205 31.5709 8.94836 31.6175 9.08203C31.6643 9.2159 31.7199 9.34591 31.7841 9.47205C31.8484 9.59839 31.9209 9.71965 32.0016 9.83602C32.0824 9.9526 32.1705 10.0631 32.2661 10.1676C32.3617 10.2722 32.4639 10.3697 32.5727 10.4604C32.4828 10.507 32.3947 10.5566 32.3082 10.6093C32.2218 10.662 32.1371 10.7174 32.0545 10.7758C31.9719 10.8341 31.8912 10.8954 31.8128 10.9593C31.7343 11.0232 31.658 11.0897 31.5839 11.1589C31.5101 11.2278 31.4385 11.2994 31.3693 11.3733C31.3003 11.4473 31.2338 11.5236 31.1699 11.6022C31.106 11.6807 31.0448 11.7613 30.9864 11.8439C30.928 11.9267 30.8727 12.0111 30.82 12.0976C30.7673 12.184 30.7177 12.2723 30.6711 12.3621C30.6245 12.452 30.5811 12.5433 30.5407 12.6361C30.5004 12.7291 30.4631 12.8231 30.4292 12.9185C30.3952 13.0137 30.3647 13.1101 30.3372 13.2076C30.3099 13.3051 30.2857 13.4033 30.2652 13.5024C30.2444 13.6017 30.2271 13.7012 30.2133 13.8015C30.1995 13.9018 30.1891 14.0025 30.1822 14.1034C30.1751 14.2045 30.1716 14.3054 30.1714 14.4067V16.9499C30.1714 16.9916 30.1755 17.0329 30.1836 17.074C30.1917 17.1149 30.2039 17.1545 30.2198 17.1932C30.2359 17.2316 30.2554 17.2683 30.2786 17.3031C30.3018 17.3379 30.328 17.3698 30.3575 17.3995C30.3872 17.429 30.4192 17.4552 30.454 17.4784C30.4888 17.5016 30.5254 17.5212 30.5638 17.5372C30.6025 17.5531 30.6422 17.5653 30.6831 17.5734C30.7242 17.5816 30.7655 17.5857 30.8072 17.5857H36.9603C37.0926 18.4281 37.1609 19.2759 37.165 20.1288ZM19.9991 7.41313C20.0898 7.41333 20.1803 7.4172 20.2707 7.42513C20.361 7.43286 20.4509 7.44466 20.5404 7.46012C20.6298 7.47579 20.7183 7.49491 20.8062 7.51811C20.8938 7.5413 20.9805 7.56795 21.066 7.59847C21.1514 7.62899 21.2354 7.66317 21.3178 7.70081C21.4004 7.73844 21.4812 7.77954 21.5601 7.8243C21.6393 7.86886 21.7162 7.91667 21.7911 7.96794C21.8661 8.019 21.9388 8.07332 22.009 8.1307C22.0793 8.18807 22.1469 8.24829 22.2122 8.31156C22.2773 8.37463 22.3396 8.44055 22.399 8.50891C22.4586 8.57747 22.5151 8.64848 22.5684 8.72172C22.622 8.79496 22.6722 8.87044 22.7192 8.94816C22.7662 9.02568 22.8097 9.10522 22.85 9.18661C22.8901 9.26799 22.9267 9.35079 22.9599 9.43522C22.993 9.51986 23.0225 9.60551 23.0482 9.69259C23.074 9.77946 23.096 9.86735 23.1143 9.95626H16.8836C16.9019 9.86735 16.9239 9.77946 16.9497 9.69259C16.9756 9.60551 17.0051 9.51986 17.038 9.43522C17.0712 9.35079 17.1078 9.26799 17.1481 9.18661C17.1882 9.10522 17.2319 9.02568 17.2789 8.94816C17.3259 8.87044 17.376 8.79496 17.4295 8.72172C17.483 8.64848 17.5393 8.57747 17.599 8.50891C17.6584 8.44055 17.7208 8.37463 17.7859 8.31156C17.851 8.24829 17.9188 8.18807 17.989 8.1307C18.0594 8.07332 18.132 8.019 18.2069 7.96794C18.2817 7.91667 18.3588 7.86886 18.4378 7.8243C18.5167 7.77954 18.5975 7.73844 18.6801 7.70081C18.7627 7.66317 18.8467 7.62899 18.9322 7.59847C19.0176 7.56795 19.1041 7.5413 19.192 7.51811C19.2797 7.49491 19.3682 7.47579 19.4577 7.46012C19.547 7.44466 19.6369 7.43286 19.7273 7.42513C19.8178 7.4172 19.9083 7.41333 19.9991 7.41313ZM37.8008 16.3141H31.443V14.4067C31.443 14.3026 31.448 14.1988 31.4582 14.0951C31.4686 13.9915 31.4836 13.8888 31.504 13.7866C31.5243 13.6845 31.5496 13.5836 31.5799 13.4839C31.61 13.3844 31.6452 13.2863 31.6849 13.1903C31.7247 13.0941 31.7693 13.0001 31.8183 12.9081C31.8674 12.8164 31.9209 12.7273 31.9786 12.6406C32.0366 12.5541 32.0985 12.4705 32.1646 12.3901C32.2305 12.3096 32.3005 12.2325 32.3741 12.159C32.4476 12.0854 32.5247 12.0154 32.6053 11.9495C32.6856 11.8833 32.7692 11.8215 32.8557 11.7635C32.9424 11.7057 33.0315 11.6522 33.1233 11.6032C33.2152 11.5542 33.3092 11.5096 33.4054 11.4699C33.5015 11.4301 33.5995 11.3951 33.699 11.3647C33.7987 11.3344 33.8996 11.3092 34.0018 11.2889C34.1039 11.2687 34.2066 11.2535 34.3102 11.2431C34.4139 11.2329 34.5177 11.2278 34.6219 11.2278C34.726 11.2278 34.8298 11.2329 34.9333 11.2431C35.0371 11.2535 35.1399 11.2687 35.242 11.2889C35.3441 11.3092 35.445 11.3344 35.5447 11.3647C35.6442 11.3951 35.7423 11.4301 35.8383 11.4699C35.9345 11.5096 36.0285 11.5542 36.1203 11.6032C36.2122 11.6522 36.3014 11.7057 36.388 11.7635C36.4745 11.8215 36.5581 11.8833 36.6385 11.9495C36.719 12.0154 36.7961 12.0854 36.8696 12.159C36.9432 12.2325 37.013 12.3096 37.0791 12.3901C37.1453 12.4705 37.2071 12.5541 37.2649 12.6406C37.3229 12.7273 37.3764 12.8164 37.4254 12.9081C37.4744 13.0001 37.519 13.0941 37.5587 13.1903C37.5986 13.2863 37.6335 13.3844 37.6639 13.4839C37.6942 13.5836 37.7194 13.6845 37.7397 13.7866C37.7599 13.8888 37.7751 13.9915 37.7855 14.0951C37.7957 14.1988 37.8008 14.3026 37.8008 14.4067V16.3141Z" fill="#876FFD"/>
</g>
</svg>
