<svg width="54" height="55" viewBox="0 0 54 55" fill="none" xmlns="http://www.w3.org/2000/svg">
<path d="M4.85909 0.00463419C5.01343 0.00414406 5.16777 0.00346897 5.3221 0.00262626C5.74384 0.000860876 6.16554 0.00172594 6.58728 0.00304517C7.04303 0.00400898 7.49877 0.00252144 7.95452 0.00135466C8.84638 -0.000531501 9.73824 -0.00012726 10.6301 0.00110518C11.3551 0.00206546 12.0801 0.0021941 12.8051 0.0017322C12.9084 0.00166711 13.0117 0.00160202 13.1181 0.00153497C13.328 0.00139916 13.5378 0.00126144 13.7477 0.00112185C15.7142 -8.86122e-05 17.6807 0.00130209 19.6472 0.0035856C21.3337 0.00548324 23.0201 0.0051536 24.7065 0.00319535C26.6661 0.000920923 28.6257 2.80443e-05 30.5853 0.00133162C30.7944 0.00146693 31.0035 0.00160046 31.2125 0.0017322C31.3668 0.00183049 31.3668 0.00183049 31.5242 0.00193077C32.2481 0.00229712 32.972 0.00167934 33.696 0.00067899C34.5785 -0.000513764 35.461 -0.00018688 36.3435 0.00207251C36.7936 0.00318684 37.2436 0.00362933 37.6937 0.00222153C38.1061 0.000951034 38.5184 0.00165924 38.9309 0.00391103C39.0796 0.00438347 39.2284 0.00414871 39.3771 0.00311428C40.5392 -0.00434294 41.6359 0.176572 42.5034 1.01428C43.4145 2.13598 43.5776 3.27725 43.5871 4.68175C43.5881 4.77923 43.5892 4.87672 43.5903 4.97715C43.5936 5.2966 43.5962 5.61604 43.5989 5.93549C43.6011 6.15807 43.6033 6.38065 43.6056 6.60323C43.6114 7.18699 43.6167 7.77076 43.6218 8.35453C43.6271 8.95105 43.633 9.54756 43.6389 10.1441C43.6503 11.313 43.6611 12.4819 43.6715 13.6508C43.719 13.5669 43.7666 13.4829 43.8156 13.3964C43.9957 13.079 44.176 12.7618 44.3565 12.4446C44.434 12.3085 44.5113 12.1723 44.5885 12.036C46.5249 8.61896 46.5249 8.61896 48.2243 8.03605C49.4369 7.71676 50.5601 7.92133 51.6489 8.50727C52.4825 9.0394 53.075 9.82162 53.3745 10.7642C53.4562 11.1804 53.4861 11.5813 53.494 12.0049C53.496 12.0766 53.498 12.1484 53.5 12.2223C53.4861 13.3452 52.9192 14.3019 52.3524 15.237C52.219 15.4613 52.0857 15.6858 51.9526 15.9102C51.8832 16.0267 51.8139 16.1432 51.7425 16.2632C51.4181 16.8129 51.1024 17.3675 50.787 17.9224C50.167 19.0131 49.5394 20.0993 48.9054 21.182C48.4296 21.9958 47.961 22.8136 47.4943 23.6326C47.0292 24.4488 46.5633 25.2644 46.0882 26.0748C45.9666 26.2836 45.8461 26.4929 45.727 26.7031C45.4236 27.235 45.1114 27.7408 44.7429 28.2302C43.2641 30.2945 43.355 32.3283 43.4108 34.7837C43.4217 35.3437 43.4231 35.9038 43.4255 36.4639C43.4315 37.5214 43.4455 38.5787 43.4626 39.6362C43.4873 41.1885 43.4992 42.7409 43.5119 44.2934C43.5138 44.5235 43.5157 44.7536 43.5177 44.9837C43.5186 45.0961 43.5195 45.2085 43.5205 45.3244C43.5262 45.9881 43.534 46.6518 43.5438 47.3156C43.5498 47.7284 43.555 48.1413 43.5602 48.5541C43.5627 48.7444 43.5657 48.9346 43.5692 49.1248C43.6233 52.1455 43.6233 52.1455 42.5565 53.3457C42.4689 53.4224 42.3813 53.4991 42.291 53.578C42.2143 53.6503 42.1377 53.7226 42.0587 53.797C41.141 54.4292 40.2472 54.4891 39.1586 54.4815C39.0042 54.482 38.8499 54.4826 38.6956 54.4835C38.2738 54.4853 37.8521 54.4844 37.4304 54.4831C36.9746 54.4821 36.5189 54.4836 36.0631 54.4848C35.1713 54.4866 34.2794 54.4862 33.3876 54.485C32.6625 54.484 31.9375 54.4839 31.2125 54.4844C31.0576 54.4845 31.0576 54.4845 30.8995 54.4846C30.6897 54.4847 30.4798 54.4849 30.27 54.485C28.3035 54.4862 26.3369 54.4848 24.3704 54.4825C22.684 54.4806 20.9976 54.481 19.3112 54.4829C17.3515 54.4852 15.3919 54.4861 13.4323 54.4848C13.2232 54.4847 13.0142 54.4845 12.8051 54.4844C12.6508 54.4843 12.6508 54.4843 12.4934 54.4842C11.7695 54.4838 11.0456 54.4844 10.3217 54.4854C9.43916 54.4866 8.55665 54.4863 7.67412 54.484C7.22407 54.4829 6.77403 54.4825 6.32398 54.4839C5.91157 54.4852 5.49921 54.4845 5.0868 54.4822C4.93804 54.4817 4.78927 54.482 4.64051 54.483C3.41177 54.4909 2.49084 54.3019 1.58645 53.4411C0.507629 52.3423 0.496918 51.1512 0.504634 49.6916C0.504145 49.49 0.50347 49.2884 0.502626 49.0867C0.500856 48.5342 0.501728 47.9818 0.503045 47.4293C0.504007 46.8328 0.502523 46.2363 0.501355 45.6399C0.499467 44.472 0.499874 43.3042 0.501105 42.1364C0.502065 41.1872 0.502195 40.238 0.501732 39.2889C0.501635 39.0862 0.501635 39.0862 0.501535 38.8794C0.501399 38.6049 0.501261 38.3304 0.501122 38.0559C0.499945 35.5557 0.501165 33.0554 0.503391 30.5552C0.505407 28.2738 0.505227 25.9924 0.503195 23.711C0.50092 21.1466 0.500028 18.5821 0.501332 16.0177C0.501467 15.7442 0.501601 15.4707 0.501732 15.1973C0.501798 15.0627 0.501863 14.9282 0.501931 14.7895C0.502297 13.8415 0.501679 12.8936 0.500679 11.9456C0.499488 10.7903 0.499811 9.63492 0.502073 8.47958C0.503189 7.89016 0.503627 7.30077 0.502222 6.71135C0.500955 6.17162 0.501654 5.63192 0.503911 5.09219C0.504385 4.89712 0.504146 4.70205 0.503114 4.50698C0.496553 3.16257 0.580208 2.10006 1.54497 1.08645C2.52191 0.127355 3.52986 -0.00460871 4.85909 0.00463419ZM3.06572 2.66001C2.56326 3.31342 2.70139 4.26937 2.70764 5.05269C2.70691 5.25166 2.7059 5.45063 2.70463 5.64959C2.70197 6.19617 2.70329 6.74268 2.70526 7.28926C2.7067 7.87878 2.70448 8.46828 2.70272 9.0578C2.69989 10.2126 2.7005 11.3674 2.70235 12.5221C2.70379 13.4605 2.70398 14.3989 2.70329 15.3373C2.70319 15.4708 2.70309 15.6043 2.70299 15.7418C2.70279 16.013 2.70258 16.2842 2.70237 16.5553C2.70061 19.0263 2.70244 21.4973 2.70578 23.9683C2.7088 26.224 2.70853 28.4796 2.70548 30.7353C2.70207 33.2696 2.70073 35.8039 2.70269 38.3383C2.70289 38.6084 2.70309 38.8786 2.70329 39.1488C2.70339 39.2817 2.70349 39.4146 2.70359 39.5516C2.70414 40.489 2.70321 41.4265 2.70171 42.3639C2.69992 43.5061 2.7004 44.6482 2.7038 45.7904C2.70548 46.3734 2.70613 46.9562 2.70402 47.5392C2.70213 48.0726 2.70316 48.606 2.70656 49.1395C2.70727 49.3326 2.70691 49.5258 2.70536 49.7189C2.65467 50.8325 2.65467 50.8325 3.06572 51.8261C3.78852 52.4505 4.70826 52.3339 5.60793 52.3307C5.75522 52.331 5.9025 52.3313 6.04978 52.3317C6.45348 52.3326 6.85716 52.3322 7.26085 52.3315C7.69662 52.331 8.13238 52.3318 8.56815 52.3324C9.42141 52.3333 10.2747 52.3331 11.1279 52.3325C11.8214 52.332 12.5149 52.3319 13.2084 52.3322C13.3071 52.3322 13.4058 52.3322 13.5075 52.3323C13.708 52.3323 13.9085 52.3324 14.109 52.3325C15.9893 52.3331 17.8695 52.3324 19.7497 52.3312C21.363 52.3303 22.9762 52.3305 24.5894 52.3314C26.4629 52.3326 28.3364 52.333 30.2099 52.3324C30.4097 52.3323 30.6095 52.3322 30.8093 52.3322C30.9076 52.3321 31.0059 52.3321 31.1072 52.3321C31.7998 52.3319 32.4924 52.3322 33.1851 52.3327C34.0292 52.3333 34.8733 52.3331 35.7174 52.332C36.148 52.3314 36.5787 52.3312 37.0093 52.3319C37.4036 52.3326 37.7979 52.3322 38.1922 52.3311C38.4023 52.3307 38.6123 52.3314 38.8223 52.3322C39.8722 52.3528 39.8722 52.3528 40.8002 51.9267C40.8498 51.865 40.8993 51.8032 40.9504 51.7396C41.0016 51.6787 41.0527 51.6178 41.1055 51.555C41.3687 51.1143 41.3485 50.6252 41.3481 50.1244C41.3482 49.9842 41.3484 49.8441 41.3485 49.6998C41.3481 49.5452 41.3477 49.3907 41.3474 49.2362C41.3473 49.0729 41.3473 48.9096 41.3474 48.7463C41.3474 48.3036 41.3468 47.8609 41.3461 47.4182C41.3454 46.9553 41.3453 46.4925 41.3452 46.0296C41.3449 45.1534 41.344 44.2771 41.3429 43.4009C41.3418 42.4032 41.3412 41.4055 41.3406 40.4078C41.3395 38.3557 41.3377 36.3036 41.3353 34.2516C41.0535 34.5984 40.8112 34.9335 40.5961 35.3255C40.538 35.4305 40.4799 35.5355 40.4201 35.6437C40.3278 35.8121 40.3278 35.8121 40.2336 35.9838C39.5378 37.2391 38.824 38.4824 38.0934 39.7177C37.9592 39.9481 37.8301 40.18 37.7037 40.4147C37.2356 41.2528 36.6629 41.7634 35.8884 42.3005C35.5905 42.5104 35.3045 42.7353 35.017 42.9591C34.9014 43.0482 34.7856 43.1373 34.6698 43.2262C34.5843 43.292 34.5843 43.292 34.497 43.3592C34.3315 43.4864 34.1659 43.6135 34.0003 43.7406C33.4809 44.1395 32.9622 44.5392 32.4457 44.9418C32.3594 45.0091 32.2731 45.0763 32.1842 45.1456C32.0135 45.2787 31.8429 45.4119 31.6724 45.5453C31.5552 45.6367 31.5552 45.6367 31.4356 45.73C31.366 45.7844 31.2964 45.8388 31.2246 45.8949C30.8498 46.1788 30.6523 46.2785 30.1854 46.2709C30.0934 46.2702 30.0014 46.2695 29.9067 46.2688C29.6545 46.251 29.6545 46.251 29.3359 46.1448C28.9938 45.1185 29.2764 43.8564 29.4126 42.8069C29.4223 42.7315 29.4319 42.6561 29.4418 42.5785C29.4926 42.18 29.5445 41.7817 29.5972 41.3835C29.6508 40.9775 29.7011 40.5711 29.7505 40.1646C29.7898 39.847 29.8315 39.5297 29.8739 39.2125C29.8934 39.063 29.9121 38.9134 29.9298 38.7637C30.047 37.7827 30.2862 37.0204 30.7553 36.1633C30.9074 35.8836 31.0261 35.6096 31.1411 35.3135C31.0649 35.3134 30.9887 35.3133 30.9101 35.3133C29.0561 35.3117 27.2021 35.3072 25.3481 35.2994C24.4515 35.2957 23.5549 35.2931 22.6583 35.2927C21.8769 35.2924 21.0955 35.2902 20.3141 35.2858C19.9003 35.2835 19.4866 35.2822 19.0727 35.2831C18.6833 35.2839 18.2939 35.2822 17.9045 35.2786C17.6933 35.2773 17.4821 35.2787 17.2709 35.2801C17.1452 35.2784 17.0196 35.2768 16.8901 35.2751C16.7808 35.2748 16.6716 35.2746 16.559 35.2743C16.1719 35.1831 16.0612 35.0038 15.8498 34.6763C15.7934 34.4573 15.7934 34.4573 15.7967 34.2516C15.7951 34.1497 15.7951 34.1497 15.7934 34.0458C15.8788 33.7145 16.0365 33.5392 16.2746 33.2959C16.5806 33.2289 16.5806 33.2289 16.9425 33.228C17.0798 33.2263 17.2171 33.2247 17.3585 33.2231C17.5104 33.2239 17.6623 33.2249 17.8142 33.2258C17.9744 33.2249 18.1345 33.2238 18.2946 33.2225C18.7292 33.2195 19.1638 33.2197 19.5984 33.2206C20.0526 33.2209 20.5068 33.2183 20.9611 33.2159C21.8212 33.2119 22.6812 33.2106 23.5413 33.2103C24.5205 33.2098 25.4997 33.2063 26.4789 33.2026C28.4931 33.1949 30.5073 33.1911 32.5216 33.1897C32.5628 33.1158 32.604 33.042 32.6465 32.9659C32.8373 32.6241 33.0283 32.2824 33.2193 31.9407C33.2841 31.8246 33.3489 31.7085 33.4156 31.5889C33.8486 30.8147 34.2896 30.0457 34.7383 29.2806C34.8066 29.164 34.8749 29.0474 34.9452 28.9272C34.9993 28.8351 35.0534 28.7429 35.1091 28.648C35.5262 27.9349 35.9355 27.2175 36.3444 26.4997C36.9322 25.4681 37.5258 24.44 38.1255 23.4152C38.6508 22.5172 39.171 21.6163 39.6894 20.7142C39.7502 20.6086 39.8109 20.503 39.8735 20.3943C39.932 20.289 39.9904 20.1837 40.0507 20.0753C40.1978 19.8191 40.3586 19.5883 40.5408 19.356C41.5602 17.9811 41.4794 16.5088 41.45 14.8665C41.444 14.4749 41.4441 14.0832 41.4434 13.6916C41.4415 13.0355 41.4357 12.3796 41.4271 11.7236C41.415 10.7999 41.4102 9.87628 41.4068 8.95252C41.4042 8.30952 41.3998 7.66653 41.3951 7.02354C41.3939 6.86845 41.3928 6.71335 41.3918 6.55826C41.3883 6.04913 41.3828 5.54006 41.3763 5.03096C41.3749 4.83964 41.3749 4.83964 41.3735 4.64446C41.379 3.62106 41.379 3.62106 40.9582 2.71745C40.8965 2.6679 40.8348 2.61835 40.7712 2.5673C40.7103 2.5161 40.6493 2.46491 40.5866 2.41216C40.1671 2.16167 39.7058 2.16903 39.2282 2.1687C39.1033 2.16836 38.9784 2.16802 38.8497 2.16766C38.6446 2.16791 38.6446 2.16791 38.4353 2.16816C38.2882 2.16796 38.1411 2.16772 37.994 2.16743C37.5898 2.16678 37.1856 2.1668 36.7815 2.16692C36.3455 2.16694 35.9096 2.16636 35.4737 2.16585C34.6197 2.16497 33.7657 2.16468 32.9117 2.16462C32.2176 2.16457 31.5235 2.16435 30.8295 2.16401C28.8619 2.16308 26.8944 2.16259 24.9269 2.16267C24.8208 2.16267 24.7147 2.16268 24.6054 2.16268C24.4461 2.16269 24.4461 2.16269 24.2836 2.1627C22.5619 2.16274 20.8403 2.16172 19.1186 2.16023C17.3512 2.1587 15.5838 2.15797 13.8164 2.15806C12.8239 2.15809 11.8315 2.1578 10.8391 2.15666C9.99421 2.15569 9.14933 2.15546 8.30444 2.15618C7.87336 2.15653 7.44228 2.15653 7.0112 2.15561C6.61648 2.15478 6.22178 2.15493 5.82707 2.15586C5.61682 2.1561 5.40658 2.15529 5.19633 2.15445C4.04974 2.13672 4.04974 2.13672 3.06572 2.66001ZM47.8129 10.9961C47.5017 11.4393 47.5017 11.4393 47.3881 11.9518C47.8076 12.1919 48.2272 12.4319 48.6468 12.6719C48.7895 12.7535 48.9323 12.8352 49.075 12.9169C49.2801 13.0342 49.4852 13.1515 49.6902 13.2688C49.7542 13.3054 49.8181 13.342 49.884 13.3797C50.112 13.51 50.3389 13.6396 50.5738 13.757C51.0726 12.9895 51.3829 12.3476 51.2109 11.4208C50.9608 10.9014 50.6038 10.5914 50.149 10.2528C49.18 9.92976 48.4624 10.2439 47.8129 10.9961ZM46.22 13.8632C45.694 14.557 45.2849 15.3325 44.8661 16.0932C44.4422 16.8566 44.0176 17.6187 43.5719 18.3696C43.1327 19.1098 42.7008 19.8539 42.2711 20.5996C42.2033 20.7172 42.1356 20.8347 42.0658 20.9559C41.9269 21.197 41.788 21.4381 41.6491 21.6793C41.3148 22.2598 40.9799 22.84 40.6451 23.4202C40.5123 23.6503 40.3796 23.8804 40.2469 24.1105C39.4504 25.4909 38.654 26.8714 37.8576 28.2519C37.7919 28.3658 37.7262 28.4797 37.6585 28.597C37.5258 28.8269 37.3932 29.0568 37.2605 29.2867C36.9272 29.8645 36.594 30.4423 36.261 31.0202C35.4863 32.3648 34.7081 33.7073 33.9253 35.0471C33.8702 35.1417 33.8152 35.2363 33.7585 35.3337C33.6321 35.5491 33.5042 35.7637 33.3752 35.9777C33.3071 36.0916 33.2389 36.2056 33.1687 36.3231C33.1059 36.427 33.0431 36.5309 32.9785 36.638C32.8158 36.9032 32.8158 36.9032 32.8401 37.2249C33.2252 37.4504 33.6106 37.6753 33.9964 37.8996C34.1275 37.9759 34.2585 38.0524 34.3894 38.1292C34.5779 38.2396 34.7667 38.3493 34.9556 38.4589C35.0691 38.5251 35.1825 38.5912 35.2994 38.6594C35.5502 38.791 35.7496 38.8746 36.0258 38.9239C36.991 37.2735 37.9502 35.6197 38.9045 33.963C39.2367 33.3865 39.5692 32.8102 39.9017 32.234C40.0345 32.0039 40.1672 31.7738 40.2999 31.5437C42.1583 28.3226 44.0166 25.1016 45.8749 21.8805C45.9407 21.7665 46.0064 21.6525 46.0742 21.535C46.2062 21.3061 46.3383 21.0773 46.4703 20.8484C46.7769 20.317 47.0835 19.7856 47.3899 19.2541C47.4971 19.0682 47.6042 18.8824 47.7114 18.6965C47.8449 18.465 47.9783 18.2336 48.1117 18.0021C48.5407 17.2582 48.9724 16.516 49.4057 15.7746C49.0894 15.4297 48.7709 15.2096 48.3625 14.9832C48.1856 14.8846 48.1856 14.8846 48.0051 14.7841C47.8212 14.683 47.8212 14.683 47.6337 14.58C47.5086 14.5103 47.3835 14.4407 47.2585 14.3709C46.7642 14.039 46.7642 14.039 46.22 13.8632ZM32.0968 39.3486C32.0255 39.8176 31.9549 40.2866 31.8844 40.7557C31.8642 40.8888 31.8439 41.022 31.8231 41.1593C31.8039 41.2873 31.7847 41.4152 31.765 41.5471C31.7472 41.665 31.7294 41.7829 31.7111 41.9044C31.6633 42.2337 31.6633 42.2337 31.6721 42.6405C32.08 42.4623 32.4132 42.1969 32.7605 41.9237C32.8831 41.8283 33.0058 41.7329 33.1284 41.6375C33.1878 41.5912 33.2472 41.5449 33.3084 41.4972C33.6444 41.2366 33.9858 40.9832 34.3268 40.7291C34.0997 40.485 33.8734 40.3151 33.586 40.1471C33.506 40.1003 33.4261 40.0534 33.3437 40.0051C33.2608 39.9571 33.1778 39.9091 33.0923 39.8597C33.0086 39.8105 32.9248 39.7613 32.8385 39.7106C32.4882 39.4672 32.4882 39.4672 32.0968 39.3486Z" fill="#876FFD"/>
<path d="M8.3913 39.9485C8.49373 39.9471 8.59617 39.9458 8.70171 39.9444C8.81222 39.9442 8.92272 39.9439 9.03658 39.9437C9.20725 39.9426 9.20725 39.9426 9.38137 39.9415C9.6222 39.9405 9.86303 39.94 10.1039 39.94C10.4721 39.9395 10.8402 39.9357 11.2085 39.9317C11.4424 39.931 11.6764 39.9306 11.9103 39.9304C12.0204 39.9289 12.1305 39.9274 12.2439 39.9258C12.7175 39.9288 13.0074 39.9312 13.4217 40.1749C13.7089 40.5066 13.7398 40.7757 13.7434 41.1988C13.7445 41.2949 13.7455 41.3909 13.7465 41.4899C13.747 41.5934 13.7474 41.697 13.7479 41.8037C13.7485 41.9104 13.7491 42.0171 13.7497 42.127C13.7507 42.3529 13.7514 42.5787 13.7518 42.8045C13.7529 43.1497 13.7562 43.4948 13.7595 43.8399C13.7602 44.0593 13.7608 44.2788 13.7612 44.4982C13.7625 44.6013 13.7638 44.7044 13.7651 44.8107C13.7622 45.7191 13.7622 45.7191 13.4078 46.1383C13.0675 46.3652 12.9754 46.378 12.5838 46.3816C12.4814 46.3829 12.3789 46.3843 12.2734 46.3857C12.1629 46.3859 12.0524 46.3861 11.9385 46.3864C11.8247 46.3871 11.711 46.3878 11.5937 46.3885C11.3529 46.3896 11.1121 46.3901 10.8712 46.3901C10.503 46.3905 10.1349 46.3944 9.76663 46.3984C9.53268 46.399 9.29873 46.3995 9.06478 46.3997C8.95471 46.4012 8.84463 46.4027 8.73122 46.4043C8.25757 46.4013 7.96775 46.3988 7.5534 46.1552C7.26621 45.8234 7.2353 45.5543 7.23167 45.1312C7.23065 45.0352 7.22963 44.9391 7.22858 44.8402C7.22812 44.7366 7.22767 44.6331 7.22721 44.5264C7.2266 44.4197 7.226 44.313 7.22537 44.203C7.22437 43.9772 7.22368 43.7514 7.22327 43.5255C7.22224 43.1804 7.21894 42.8353 7.21559 42.4902C7.2149 42.2707 7.21434 42.0513 7.21393 41.8319C7.21262 41.7288 7.21131 41.6256 7.20996 41.5194C7.21295 40.611 7.21295 40.611 7.56735 40.1917C7.9076 39.9649 7.99966 39.952 8.3913 39.9485ZM9.47875 42.1031C9.47875 42.804 9.47875 43.5048 9.47875 44.2269C10.1446 44.2269 10.8104 44.2269 11.4964 44.2269C11.4964 43.5261 11.4964 42.8252 11.4964 42.1031C10.8305 42.1031 10.1647 42.1031 9.47875 42.1031Z" fill="#876FFD"/>
<path d="M8.3913 28.9075C8.49373 28.9061 8.59617 28.9048 8.70171 28.9034C8.81222 28.9031 8.92272 28.9029 9.03658 28.9027C9.20725 28.9016 9.20725 28.9016 9.38137 28.9005C9.6222 28.8994 9.86303 28.8989 10.1039 28.899C10.4721 28.8985 10.8402 28.8947 11.2085 28.8906C11.4424 28.89 11.6764 28.8896 11.9103 28.8894C12.0204 28.8879 12.1305 28.8863 12.2439 28.8848C12.7175 28.8878 13.0074 28.8902 13.4217 29.1339C13.7089 29.4656 13.7398 29.7347 13.7434 30.1578C13.7445 30.2539 13.7455 30.3499 13.7465 30.4489C13.747 30.5524 13.7474 30.656 13.7479 30.7626C13.7485 30.8693 13.7491 30.9761 13.7497 31.086C13.7507 31.3118 13.7514 31.5377 13.7518 31.7635C13.7529 32.1087 13.7562 32.4538 13.7595 32.7989C13.7602 33.0183 13.7608 33.2378 13.7612 33.4572C13.7625 33.5603 13.7638 33.6634 13.7651 33.7696C13.7622 34.6781 13.7622 34.6781 13.4078 35.0973C13.0675 35.3242 12.9754 35.337 12.5838 35.3406C12.4814 35.3419 12.3789 35.3433 12.2734 35.3447C12.1629 35.3449 12.0524 35.3451 11.9385 35.3454C11.8247 35.3461 11.711 35.3468 11.5937 35.3475C11.3529 35.3486 11.1121 35.3491 10.8712 35.3491C10.503 35.3495 10.1349 35.3534 9.76663 35.3574C9.53268 35.358 9.29873 35.3584 9.06478 35.3586C8.95471 35.3602 8.84463 35.3617 8.73122 35.3633C8.25757 35.3603 7.96775 35.3578 7.5534 35.1142C7.26621 34.7824 7.2353 34.5133 7.23167 34.0902C7.23065 33.9942 7.22963 33.8981 7.22858 33.7991C7.22812 33.6956 7.22767 33.5921 7.22721 33.4854C7.2266 33.3787 7.226 33.272 7.22537 33.162C7.22437 32.9362 7.22368 32.7104 7.22327 32.4845C7.22224 32.1394 7.21894 31.7943 7.21559 31.4491C7.2149 31.2297 7.21434 31.0103 7.21393 30.7908C7.21262 30.6877 7.21131 30.5846 7.20996 30.4784C7.21295 29.57 7.21295 29.57 7.56735 29.1507C7.9076 28.9239 7.99966 28.911 8.3913 28.9075ZM9.47875 31.0621C9.47875 31.763 9.47875 32.4638 9.47875 33.1859C10.1446 33.1859 10.8104 33.1859 11.4964 33.1859C11.4964 32.4851 11.4964 31.7842 11.4964 31.0621C10.8305 31.0621 10.1647 31.0621 9.47875 31.0621Z" fill="#876FFD"/>
<path d="M8.3913 17.8626C8.49373 17.8612 8.59617 17.8599 8.70171 17.8585C8.81222 17.8582 8.92272 17.858 9.03658 17.8577C9.20725 17.8567 9.20725 17.8567 9.38137 17.8556C9.6222 17.8545 9.86303 17.854 10.1039 17.8541C10.4721 17.8536 10.8402 17.8497 11.2085 17.8457C11.4424 17.8451 11.6764 17.8447 11.9103 17.8445C12.0204 17.8429 12.1305 17.8414 12.2439 17.8398C12.7175 17.8428 13.0074 17.8453 13.4217 18.0889C13.7089 18.4207 13.7398 18.6898 13.7434 19.1129C13.7445 19.2089 13.7455 19.305 13.7465 19.404C13.747 19.5075 13.7474 19.611 13.7479 19.7177C13.7485 19.8244 13.7491 19.9311 13.7497 20.0411C13.7507 20.2669 13.7514 20.4927 13.7518 20.7186C13.7529 21.0637 13.7562 21.4088 13.7595 21.754C13.7602 21.9734 13.7608 22.1928 13.7612 22.4123C13.7625 22.5154 13.7638 22.6185 13.7651 22.7247C13.7622 23.6331 13.7622 23.6331 13.4078 24.0524C13.0675 24.2792 12.9754 24.2921 12.5838 24.2956C12.4814 24.297 12.3789 24.2983 12.2734 24.2997C12.1629 24.3 12.0524 24.3002 11.9385 24.3005C11.8247 24.3012 11.711 24.3019 11.5937 24.3026C11.3529 24.3037 11.1121 24.3042 10.8712 24.3041C10.503 24.3046 10.1349 24.3085 9.76663 24.3125C9.53268 24.3131 9.29873 24.3135 9.06478 24.3137C8.95471 24.3153 8.84463 24.3168 8.73122 24.3183C8.25757 24.3153 7.96775 24.3129 7.5534 24.0693C7.26621 23.7375 7.2353 23.4684 7.23167 23.0453C7.23065 22.9493 7.22963 22.8532 7.22858 22.7542C7.22812 22.6507 7.22767 22.5472 7.22721 22.4405C7.2266 22.3338 7.226 22.2271 7.22537 22.1171C7.22437 21.8913 7.22368 21.6654 7.22327 21.4396C7.22224 21.0945 7.21894 20.7494 7.21559 20.4042C7.2149 20.1848 7.21434 19.9654 7.21393 19.7459C7.21262 19.6428 7.21131 19.5397 7.20996 19.4335C7.21295 18.5251 7.21295 18.5251 7.56735 18.1058C7.9076 17.879 7.99966 17.8661 8.3913 17.8626ZM9.47875 20.0172C9.47875 20.7181 9.47875 21.4189 9.47875 22.141C10.1446 22.141 10.8104 22.141 11.4964 22.141C11.4964 21.4401 11.4964 20.7393 11.4964 20.0172C10.8305 20.0172 10.1647 20.0172 9.47875 20.0172Z" fill="#876FFD"/>
<path d="M25.5814 4.6783C25.69 4.67618 25.7987 4.67406 25.9107 4.67188C26.7026 4.67239 26.7026 4.67239 27.1236 4.92677C27.4323 5.27647 27.4618 5.52729 27.4575 5.99489C27.4091 6.33155 27.2402 6.51079 27.0016 6.74236C26.6184 6.93399 26.1459 6.88793 25.7211 6.90351C25.322 6.92299 25.0057 6.9471 24.6655 7.16712C24.6655 7.37737 24.6655 7.58763 24.6655 7.80426C25.0112 8.00511 25.3057 8.05328 25.7008 8.09628C26.5235 8.22454 26.9393 8.59138 27.5127 9.16481C27.951 9.80349 28.1872 10.5287 28.0635 11.3085C27.819 12.3143 27.402 12.8874 26.5466 13.4489C25.9447 13.7395 25.3064 13.7121 24.6499 13.7059C24.4324 13.7044 24.2153 13.708 23.9978 13.7121C23.8597 13.7119 23.7215 13.7117 23.5791 13.7115C23.4538 13.7115 23.3286 13.7116 23.1995 13.7117C22.7634 13.6255 22.6052 13.4546 22.3293 13.1137C22.2588 12.8483 22.2588 12.8483 22.2629 12.5828C22.2616 12.4952 22.2602 12.4076 22.2588 12.3173C22.3675 11.908 22.5138 11.7661 22.8603 11.5209C23.2518 11.447 23.6373 11.4466 24.035 11.4479C24.2442 11.4461 24.4534 11.4435 24.6626 11.44C24.7548 11.44 24.8471 11.4401 24.9422 11.4401C25.2179 11.4125 25.3881 11.3504 25.6212 11.2023C25.7269 11.0008 25.7269 11.0008 25.7274 10.7776C25.5466 10.4297 25.5466 10.4297 25.1989 10.3769C25.0711 10.3558 24.9432 10.3347 24.8115 10.313C23.8394 10.121 23.2174 9.78597 22.6479 8.97234C22.2281 8.27761 22.2365 7.53657 22.3293 6.74236C22.5968 5.85438 23.1229 5.30495 23.9221 4.86994C24.4579 4.64925 25.0104 4.67432 25.5814 4.6783Z" fill="#876FFD"/>
<path d="M17.7221 22.0424C17.8709 22.0418 18.0197 22.041 18.1685 22.04C18.572 22.038 18.9754 22.04 19.3789 22.0428C19.8014 22.0452 20.2239 22.0444 20.6465 22.0439C21.356 22.0438 22.0654 22.0461 22.7749 22.05C23.5949 22.0545 24.4147 22.0553 25.2347 22.0539C26.0239 22.0527 26.8131 22.0539 27.6022 22.0563C27.9379 22.0573 28.2736 22.0575 28.6092 22.057C29.0046 22.0566 29.3999 22.0584 29.7953 22.0617C30.0094 22.0631 30.2234 22.0623 30.4375 22.0615C30.5653 22.063 30.693 22.0645 30.8246 22.0661C30.9354 22.0665 31.0462 22.0669 31.1603 22.0674C31.5384 22.1353 31.7174 22.2833 31.9923 22.5462C32.1623 22.8862 32.1515 23.2391 32.0985 23.6081C31.908 23.9065 31.7779 24.0869 31.4614 24.2452C31.2621 24.2565 31.0625 24.261 30.8629 24.2623C30.672 24.2639 30.672 24.2639 30.4772 24.2655C30.3353 24.2661 30.1935 24.2668 30.0517 24.2674C29.9029 24.2684 29.7542 24.2694 29.6054 24.2705C29.1161 24.2739 28.6268 24.276 28.1375 24.278C28.0543 24.2783 27.9711 24.2787 27.8854 24.279C27.1008 24.2823 26.3163 24.2851 25.5317 24.2869C24.5278 24.2893 23.5239 24.2937 22.5199 24.3011C21.8142 24.3061 21.1086 24.3087 20.4029 24.3095C19.9813 24.31 19.5597 24.3116 19.1381 24.3158C18.7414 24.3197 18.3449 24.3206 17.9482 24.3192C17.7333 24.3192 17.5185 24.3224 17.3036 24.3257C16.3839 24.3183 16.3839 24.3183 16.0717 24.1063C15.8325 23.8296 15.6713 23.5524 15.679 23.1833C15.6776 23.1176 15.6762 23.0519 15.6748 22.9842C16.0029 21.9342 16.7672 22.0312 17.7221 22.0424Z" fill="#876FFD"/>
<path d="M18.7039 4.68689C18.8297 4.68292 18.9555 4.67895 19.0851 4.67486C20.1195 4.66436 20.1195 4.66436 20.4436 4.9814C20.7183 5.39169 20.7827 5.60901 20.7348 6.10717C20.3994 6.6996 20.3994 6.6996 20.0976 6.8505C19.9285 6.86661 19.7588 6.87694 19.5891 6.8841C19.4891 6.88854 19.3892 6.89299 19.2863 6.89758C19.1817 6.90175 19.0771 6.90593 18.9694 6.91023C18.864 6.91481 18.7586 6.9194 18.65 6.92412C18.3892 6.93541 18.1284 6.9461 17.8676 6.95669C17.8676 7.34215 17.8676 7.72762 17.8676 8.12477C18.0539 8.11738 18.0539 8.11738 18.2439 8.10984C18.4083 8.10585 18.5727 8.10199 18.7371 8.09822C18.8187 8.09466 18.9004 8.0911 18.9845 8.08744C19.401 8.08029 19.6224 8.09541 19.9902 8.30936C20.2808 8.63608 20.2999 8.84942 20.3249 9.27294C20.3038 9.601 20.2025 9.78744 19.9914 10.0362C19.6679 10.2519 19.609 10.2747 19.2469 10.2693C19.1664 10.2686 19.086 10.2679 19.0032 10.2672C18.9197 10.2654 18.8363 10.2637 18.7503 10.2618C18.6657 10.2609 18.581 10.2599 18.4938 10.2589C18.2851 10.2564 18.0763 10.2526 17.8676 10.2486C17.8676 10.634 17.8676 11.0195 17.8676 11.4166C18.0999 11.4189 18.0999 11.4189 18.3368 11.4212C18.541 11.4262 18.7452 11.4313 18.9494 11.4366C19.1023 11.4375 19.1023 11.4375 19.2583 11.4384C20.0197 11.4621 20.0197 11.4621 20.4282 11.7804C20.7244 12.1846 20.7832 12.3996 20.7348 12.9033C20.3994 13.4957 20.3994 13.4957 20.0976 13.6466C19.6514 13.6784 19.2042 13.6762 18.757 13.6798C18.6334 13.6829 18.5098 13.686 18.3824 13.6891C17.6252 13.6947 17.1277 13.6354 16.4872 13.2219C15.6998 12.4345 15.5881 11.7097 15.5879 10.6447C15.5871 10.5304 15.5863 10.4161 15.5854 10.2984C15.5843 10.0573 15.584 9.81627 15.5845 9.5752C15.5846 9.20882 15.5801 8.84267 15.5754 8.47631C15.5749 8.24119 15.5746 8.00607 15.5746 7.77094C15.5729 7.66262 15.5711 7.55429 15.5693 7.44268C15.5765 6.68745 15.7338 6.09617 16.1686 5.47003C16.9671 4.72128 17.6418 4.69952 18.7039 4.68689Z" fill="#876FFD"/>
<path d="M30.4014 4.70393C30.5327 4.70188 30.5327 4.70188 30.6667 4.6998C30.7615 4.69901 30.8563 4.69823 30.954 4.69742C31.0514 4.69656 31.1488 4.69571 31.2492 4.69482C31.4557 4.69335 31.6622 4.69221 31.8686 4.69138C32.184 4.68955 32.4992 4.68489 32.8146 4.68021C33.0151 4.67913 33.2157 4.67823 33.4162 4.67751C33.5574 4.67472 33.5574 4.67472 33.7015 4.67188C34.1445 4.67343 34.3753 4.68458 34.7588 4.92465C35.0825 5.27087 35.1088 5.51852 35.1045 5.99285C35.0561 6.32951 34.8872 6.50875 34.6486 6.74032C34.3805 6.87437 34.1907 6.85698 33.892 6.85315C33.7954 6.85219 33.6987 6.85123 33.5992 6.85024C33.4879 6.8484 33.4879 6.8484 33.3743 6.84651C33.3753 6.92093 33.3762 6.99534 33.3772 7.07201C33.3857 7.77502 33.3922 8.47801 33.3963 9.18106C33.3986 9.54246 33.4015 9.90383 33.4064 10.2652C33.4119 10.6811 33.4139 11.0971 33.4158 11.513C33.418 11.6421 33.4202 11.7713 33.4225 11.9043C33.4228 13.0304 33.4228 13.0304 32.9496 13.5364C32.5824 13.72 32.1829 13.6946 31.7815 13.6426C31.4767 13.4521 31.3046 13.3259 31.1444 13.0055C31.1347 12.8092 31.1319 12.6125 31.1323 12.416C31.1323 12.2927 31.1323 12.1694 31.1323 12.0424C31.1329 11.9088 31.1334 11.7752 31.134 11.6375C31.1341 11.5011 31.1343 11.3647 31.1344 11.2241C31.1348 10.8614 31.1359 10.4986 31.1371 10.1358C31.1381 9.76572 31.1386 9.39559 31.1392 9.02547C31.1403 8.29915 31.1421 7.57283 31.1444 6.84651C31.0639 6.84944 30.9834 6.85236 30.9005 6.85538C30.7424 6.85879 30.7424 6.85879 30.5811 6.86227C30.4765 6.8652 30.3719 6.86812 30.2642 6.87114C29.9763 6.84651 29.9763 6.84651 29.6444 6.59431C29.3526 6.18578 29.2906 5.97119 29.3391 5.46605C29.6388 4.93671 29.7953 4.71214 30.4014 4.70393Z" fill="#876FFD"/>
<path d="M10.0118 4.71427C10.1432 4.71171 10.1432 4.71171 10.2772 4.7091C10.6778 4.70438 11.0784 4.70002 11.4791 4.69758C11.6903 4.69582 11.9016 4.69292 12.1128 4.68887C12.4175 4.68305 12.722 4.68073 13.0267 4.67917C13.1208 4.67676 13.215 4.67436 13.312 4.67188C13.7899 4.67351 13.9828 4.68416 14.3693 4.99043C14.6747 5.39391 14.7327 5.60722 14.6838 6.11522C14.3485 6.70764 14.3485 6.70764 14.0467 6.85854C13.8477 6.86601 13.6485 6.86749 13.4494 6.86518C13.3429 6.86422 13.2364 6.86326 13.1266 6.86227C13.0448 6.86104 12.9629 6.85981 12.8786 6.85854C12.8795 6.93452 12.8805 7.0105 12.8815 7.08879C12.89 7.80589 12.8964 8.52298 12.9006 9.24013C12.9028 9.6088 12.9058 9.97742 12.9106 10.3461C12.9161 10.7702 12.9182 11.1943 12.9201 11.6184C12.9223 11.7504 12.9245 11.8824 12.9267 12.0183C12.9267 12.1416 12.9268 12.2649 12.9268 12.3919C12.9278 12.5001 12.9287 12.6083 12.9297 12.7199C12.8649 13.0973 12.7157 13.2744 12.4538 13.5485C12.0851 13.7329 11.688 13.7186 11.2858 13.6547C10.9931 13.423 10.8147 13.2435 10.6486 12.9113C10.639 12.7183 10.6361 12.5249 10.6366 12.3316C10.6366 12.2104 10.6366 12.0893 10.6366 11.9644C10.6371 11.8331 10.6377 11.7018 10.6382 11.5665C10.6384 11.4325 10.6385 11.2985 10.6387 11.1603C10.6392 10.8039 10.6401 10.4474 10.6413 10.0909C10.6424 9.72719 10.6429 9.36347 10.6434 8.99975C10.6446 8.28601 10.6464 7.57228 10.6486 6.85854C10.5757 6.86085 10.5028 6.86316 10.4278 6.86554C10.3321 6.86734 10.2365 6.86913 10.138 6.87099C10.0432 6.8733 9.94842 6.8756 9.85077 6.87799C9.47872 6.85059 9.30278 6.7047 9.05577 6.43378C8.88578 6.09379 8.89658 5.74082 8.94958 5.37189C9.25214 4.89789 9.45845 4.72407 10.0118 4.71427Z" fill="#876FFD"/>
<path d="M17.2639 44.1249C17.3626 44.1239 17.4612 44.123 17.5629 44.122C17.8885 44.1197 18.2138 44.1221 18.5394 44.1247C18.766 44.1246 18.9925 44.1242 19.219 44.1237C19.6936 44.1232 20.168 44.125 20.6426 44.1284C21.2507 44.1326 21.8587 44.1316 22.4669 44.129C22.9346 44.1275 23.4023 44.1286 23.87 44.1304C24.0942 44.1311 24.3184 44.1309 24.5426 44.13C24.8561 44.1292 25.1694 44.1317 25.4828 44.1352C25.5754 44.1343 25.668 44.1334 25.7634 44.1325C26.2296 44.1415 26.4146 44.1618 26.7932 44.4589C27.0192 44.7604 27.0736 44.8957 27.0678 45.2675C27.0698 45.3989 27.0698 45.3989 27.0719 45.533C26.9665 45.9297 26.7926 46.0767 26.4705 46.3294C26.1413 46.4074 25.8199 46.4031 25.4828 46.3998C25.3348 46.4014 25.3348 46.4014 25.1839 46.4031C24.8583 46.406 24.5329 46.405 24.2073 46.4037C23.9808 46.4043 23.7542 46.4051 23.5277 46.406C23.0532 46.4072 22.5787 46.4065 22.1041 46.4045C21.496 46.402 20.888 46.4049 20.2798 46.4092C19.8121 46.412 19.3445 46.4117 18.8768 46.4105C18.6525 46.4104 18.4283 46.4112 18.2041 46.413C17.8906 46.4151 17.5774 46.4132 17.2639 46.4102C17.1713 46.4116 17.0788 46.4131 16.9834 46.4146C16.3692 46.4028 16.3692 46.4028 16.0999 46.1901C15.8539 45.9042 15.671 45.6512 15.679 45.2675C15.6776 45.2018 15.6762 45.1361 15.6748 45.0684C15.943 44.2101 16.4605 44.1122 17.2639 44.1249Z" fill="#876FFD"/>
<path d="M35.7094 22.1203C36.0142 22.3108 36.1864 22.4371 36.3466 22.7575C36.4083 23.5103 36.4083 23.5103 36.1475 23.9189C35.7772 24.2783 35.4932 24.2855 34.9939 24.2823C34.613 24.2218 34.4491 24.0103 34.2228 23.7132C34.0706 23.4088 34.084 23.2021 34.1166 22.8637C34.5348 22.1248 34.8902 22.0142 35.7094 22.1203Z" fill="#876FFD"/>
</svg>
