<svg width="54" height="63" viewBox="0 0 54 63" fill="none" xmlns="http://www.w3.org/2000/svg">
<path d="M29.5484 22.6121C30.3391 22.9697 30.996 23.6234 31.6459 24.1897C31.8379 24.3567 32.0327 24.5198 32.2281 24.6827C32.2904 24.737 32.3527 24.7913 32.4169 24.8472C32.9854 25.3041 33.3867 25.3672 34.1017 25.3117C34.1964 25.3073 34.2911 25.3029 34.3886 25.2983C34.6888 25.2839 34.9885 25.2654 35.2884 25.2461C35.5891 25.2281 35.8898 25.2111 36.1907 25.1965C36.3772 25.1872 36.5636 25.1761 36.7499 25.1627C37.307 25.1337 37.6307 25.1939 38.0746 25.5354C38.6148 26.0586 38.7489 26.6722 38.9348 27.3776C38.967 27.4923 38.9991 27.6069 39.0323 27.725C39.1626 28.1934 39.2839 28.6557 39.3735 29.1338C39.5005 29.8056 39.6776 30.12 40.229 30.5369C40.4822 30.7015 40.7389 30.8609 40.9979 31.0165C41.2518 31.171 41.5054 31.3261 41.7586 31.482C41.9274 31.5853 42.0972 31.687 42.2681 31.7868C42.9453 32.1936 43.4445 32.5827 43.6742 33.3731C43.6783 33.9223 43.5522 34.3344 43.3654 34.8456C43.3174 34.9906 43.3174 34.9906 43.2684 35.1386C43.1098 35.6069 42.9423 36.0377 42.6879 36.4624C42.3173 37.1227 42.1344 37.6142 42.314 38.3748C42.6182 39.3098 42.9974 40.2079 43.4073 41.1014C43.6297 41.6859 43.7234 42.1603 43.5709 42.7704C43.0799 43.7459 41.8581 44.2883 40.958 44.8348C40.1084 45.2837 40.1084 45.2837 39.5813 46.013C39.5664 46.0885 39.5515 46.164 39.5362 46.2418C39.6185 46.2419 39.7008 46.2421 39.7856 46.2423C40.6432 46.2447 41.5007 46.2513 42.3583 46.2603C42.6782 46.2632 42.9981 46.2649 43.318 46.2656C43.7783 46.2667 44.2383 46.2717 44.6986 46.2774C44.8413 46.277 44.9841 46.2765 45.1312 46.276C46.2407 46.2958 46.2407 46.2958 46.6816 46.6354C47.0976 47.1283 47.24 47.5454 47.2415 48.1863C47.2424 48.305 47.2433 48.4236 47.2441 48.5459C47.2438 48.6747 47.2435 48.8035 47.2432 48.9361C47.2442 49.1412 47.2442 49.1412 47.2451 49.3505C47.2468 49.8023 47.2467 50.2542 47.2464 50.7061C47.2469 51.0203 47.2474 51.3344 47.248 51.6486C47.2489 52.307 47.2489 52.9655 47.2482 53.624C47.2475 54.3842 47.249 55.1443 47.2516 55.9045C47.254 56.637 47.2544 57.3695 47.2539 58.1019C47.254 58.4131 47.2546 58.7242 47.2559 59.0354C47.2574 59.4704 47.2565 59.9053 47.2551 60.3404C47.2561 60.4689 47.257 60.5974 47.2579 60.7299C47.2521 61.5412 47.1713 62.0764 46.6123 62.7006C46.0422 63.0456 45.5129 62.996 44.8584 62.9906C44.6473 62.9917 44.6473 62.9917 44.4319 62.9929C44.0416 62.9945 43.6514 62.9939 43.2612 62.9924C42.8401 62.9913 42.4191 62.993 41.998 62.9943C41.1734 62.9965 40.3487 62.996 39.5241 62.9946C38.8538 62.9935 38.1836 62.9934 37.5133 62.9939C37.4179 62.994 37.3225 62.994 37.2243 62.9941C37.0305 62.9943 36.8368 62.9944 36.643 62.9946C34.8259 62.996 33.0087 62.9944 31.1916 62.9918C29.6324 62.9896 28.0733 62.99 26.5142 62.9922C24.7037 62.9948 22.8933 62.9958 21.0829 62.9943C20.8898 62.9942 20.6967 62.994 20.5036 62.9939C20.3611 62.9938 20.3611 62.9938 20.2158 62.9937C19.5464 62.9932 18.877 62.9939 18.2077 62.9951C17.3918 62.9965 16.5759 62.9961 15.7601 62.9935C15.3438 62.9922 14.9276 62.9917 14.5113 62.9933C14.0601 62.9947 13.6089 62.993 13.1577 62.9906C13.0261 62.9916 12.8945 62.9927 12.759 62.9939C12.028 62.9862 11.5819 62.9452 11.0345 62.4415C10.7812 62.0801 10.76 61.7812 10.7583 61.3457C10.7573 61.2231 10.7562 61.1005 10.7551 60.9742C10.7553 60.8404 10.7554 60.7067 10.7555 60.5688C10.7547 60.4274 10.7538 60.2859 10.753 60.1402C10.7507 59.6718 10.7502 59.2034 10.7499 58.7351C10.7494 58.492 10.7488 58.249 10.7481 58.0059C10.7461 57.2416 10.7455 56.4772 10.7457 55.7129C10.7459 54.9253 10.7433 54.1376 10.7395 53.35C10.7363 52.6731 10.735 51.9961 10.7351 51.3192C10.7352 50.9152 10.7343 50.5112 10.7319 50.1072C10.7295 49.6564 10.7302 49.2057 10.7317 48.7549C10.7303 48.6217 10.7289 48.4884 10.7275 48.3511C10.7337 47.6137 10.7679 47.1584 11.2781 46.6072C11.6552 46.3379 11.9792 46.3338 12.4356 46.3359C12.5696 46.3359 12.7037 46.3359 12.8419 46.336C12.9859 46.3372 13.1299 46.3385 13.2783 46.3398C13.5003 46.3403 13.5003 46.3403 13.7268 46.3408C14.1996 46.3422 14.6725 46.3452 15.1453 46.3483C15.4658 46.3496 15.7863 46.3507 16.1069 46.3517C16.8927 46.3544 17.6786 46.3584 18.4644 46.3636C18.3577 45.9165 18.2774 45.6811 17.9233 45.3786C17.8009 45.3039 17.6785 45.2292 17.5523 45.1522C17.4185 45.0688 17.2846 44.9855 17.1467 44.8996C17.0049 44.814 16.863 44.7285 16.7211 44.6431C16.4446 44.4734 16.1687 44.3027 15.8928 44.1321C15.7699 44.0577 15.6471 43.9832 15.5205 43.9065C14.5223 43.262 14.5223 43.262 14.3231 42.7095C14.1924 41.6496 14.6027 40.7839 15.0007 39.8243C15.1298 39.5125 15.2564 39.1998 15.3818 38.8865C15.4385 38.7493 15.4953 38.6122 15.5538 38.4708C15.7457 37.7855 15.5268 37.263 15.2628 36.6246C15.2083 36.489 15.1537 36.3535 15.0975 36.2138C14.9826 35.932 14.8668 35.6507 14.7502 35.3697C14.1274 33.8124 14.1274 33.8124 14.3231 33.0871C14.6396 32.5199 14.9627 32.2081 15.5112 31.8672C15.7124 31.7405 15.7124 31.7405 15.9177 31.6112C16.0586 31.5246 16.1995 31.438 16.3405 31.3514C16.482 31.2631 16.6234 31.1746 16.7647 31.0859C17.0234 30.9241 17.2825 30.7628 17.5421 30.6024C18.1532 30.2221 18.3075 29.9952 18.4792 29.3131C18.5132 29.1865 18.5132 29.1865 18.5478 29.0573C18.6203 28.787 18.691 28.5163 18.7613 28.2455C18.8535 27.8904 18.9475 27.5359 19.0425 27.1816C19.073 27.0605 19.073 27.0605 19.1041 26.937C19.2914 26.2394 19.5367 25.7197 20.1402 25.3038C20.6157 25.1426 21.0045 25.164 21.4928 25.2209C21.6797 25.2372 21.8666 25.2529 22.0536 25.268C22.1984 25.28 22.1984 25.28 22.3462 25.2921C24.2264 25.4714 24.2264 25.4714 25.8994 24.7403C26.2165 24.4406 26.5155 24.1329 26.7999 23.802C27.5243 22.9834 28.4221 22.3116 29.5484 22.6121ZM28.3751 25.0301C28.2869 25.1037 28.1986 25.1773 28.1077 25.2532C27.9693 25.3703 27.9693 25.3703 27.828 25.4897C25.7076 27.2716 25.7076 27.2716 24.4389 27.2258C24.3448 27.223 24.2507 27.2201 24.1537 27.2171C23.8534 27.2078 23.5531 27.1976 23.2528 27.1873C23.0491 27.1808 22.8453 27.1744 22.6416 27.168C22.1424 27.1523 21.6432 27.1358 21.1441 27.1188C21.099 27.2902 21.099 27.2902 21.0531 27.465C20.9404 27.8918 20.8252 28.318 20.7092 28.7439C20.6595 28.9278 20.6105 29.1118 20.5621 29.2961C20.4923 29.5621 20.4199 29.8273 20.3471 30.0925C20.3263 30.174 20.3054 30.2555 20.284 30.3394C20.0554 31.1534 19.6214 31.6809 18.8988 32.1213C18.7997 32.1826 18.7005 32.244 18.5983 32.3073C18.4964 32.3687 18.3944 32.4301 18.2893 32.4933C18.0864 32.6179 17.8836 32.7426 17.6808 32.8673C17.5855 32.9254 17.4902 32.9836 17.392 33.0435C17.0534 33.2529 16.7231 33.4723 16.3938 33.6961C16.4752 34.5685 16.8828 35.3557 17.2281 36.1505C17.7848 37.5025 17.7211 38.4429 17.1788 39.7939C17.1207 39.932 17.0626 40.0702 17.0028 40.2125C16.8881 40.4927 16.7739 40.7731 16.6602 41.0537C16.5837 41.2371 16.5837 41.2371 16.5056 41.4241C16.3732 41.7373 16.3732 41.7373 16.3938 42.1005C16.5673 42.2625 16.5673 42.2625 16.8039 42.3993C16.8912 42.4542 16.9785 42.5092 17.0684 42.5658C17.1623 42.6233 17.2562 42.6807 17.353 42.7399C17.5434 42.8599 17.7337 42.9799 17.9239 43.1001C18.0631 43.1874 18.0631 43.1874 18.2051 43.2765C18.5345 43.4846 18.8587 43.6995 19.18 43.9199C19.2701 43.9813 19.3603 44.0427 19.4531 44.1059C20.2208 44.7319 20.2203 45.3407 20.5351 46.3636C26.0819 46.3636 31.6288 46.3636 37.3438 46.3636C37.6965 45.479 37.6965 45.479 37.831 44.9019C38.2386 43.8384 39.7796 43.199 40.7167 42.6379C41.105 42.4023 41.3514 42.2401 41.6069 41.8569C41.5145 41.4869 41.5145 41.4869 41.3376 41.0785C41.3075 41.0026 41.2774 40.9268 41.2464 40.8486C41.1499 40.6055 41.0513 40.3633 40.9522 40.1212C40.854 39.8808 40.7564 39.6403 40.6606 39.399C40.5731 39.1787 40.4835 38.9593 40.3939 38.7399C40.1501 37.9418 40.27 37.3575 40.5601 36.5894C40.5899 36.5095 40.6196 36.4296 40.6502 36.3473C40.7445 36.0949 40.8407 35.8433 40.9369 35.5917C41.0016 35.4196 41.0662 35.2474 41.1306 35.0752C41.2879 34.6555 41.4469 34.2366 41.6069 33.8179C40.7587 33.1868 39.9048 32.6015 38.9883 32.0751C38.8679 32.0028 38.8679 32.0028 38.745 31.929C38.6744 31.888 38.6038 31.847 38.5311 31.8048C37.9655 31.3285 37.7507 30.726 37.5745 30.0283C37.5539 29.9485 37.5332 29.8687 37.512 29.7865C37.447 29.5345 37.3839 29.2821 37.3209 29.0296C37.2564 28.775 37.1914 28.5205 37.126 28.2661C37.0673 28.037 37.0097 27.8076 36.9521 27.5783C36.8901 27.2543 36.8901 27.2543 36.7348 27.1188C36.4388 27.1228 36.1466 27.1343 35.8512 27.1507C35.6673 27.159 35.4834 27.1671 35.2995 27.1752C35.0095 27.1884 34.7196 27.2024 34.4297 27.2186C33.2049 27.2856 32.3437 27.3211 31.3355 26.5312C31.2582 26.4563 31.181 26.3814 31.1014 26.3042C30.6644 25.8993 30.214 25.5283 29.7387 25.17C29.5543 25.0305 29.5543 25.0305 29.3662 24.8883C28.8931 24.5695 28.7809 24.6882 28.3751 25.0301ZM12.7397 48.3124C12.7397 52.5329 12.7397 56.7533 12.7397 61.1017C16.719 61.1017 20.6983 61.1017 24.7981 61.1017C24.7981 56.8812 24.7981 52.6607 24.7981 48.3124C20.8189 48.3124 16.8396 48.3124 12.7397 48.3124ZM26.747 48.3124C26.747 52.5329 26.747 56.7533 26.747 61.1017C28.194 61.1017 29.641 61.1017 31.1319 61.1017C31.1622 59.7206 31.1622 59.7206 31.1901 58.3396C31.1944 58.1659 31.1987 57.9923 31.2032 57.8187C31.2046 57.7291 31.206 57.6396 31.2074 57.5473C31.2202 57.0957 31.2318 56.728 31.4973 56.3514C31.8394 56.1803 32.0926 56.1992 32.4717 56.2296C32.6325 56.3501 32.7932 56.4707 32.9589 56.595C32.9991 58.0822 33.0393 59.5694 33.0807 61.1017C37.1002 61.1017 41.1197 61.1017 45.2609 61.1017C45.2609 56.8812 45.2609 52.6607 45.2609 48.3124C41.2415 48.3124 37.222 48.3124 33.0807 48.3124C33.0405 49.9604 33.0003 51.6084 32.9589 53.3063C32.4473 53.69 32.3437 53.7358 31.7409 53.6717C31.3755 53.4281 31.3755 53.4281 31.2537 53.0627C31.2349 52.7037 31.2223 52.3471 31.2151 51.9879C31.2126 51.883 31.2101 51.778 31.2075 51.6699C31.1995 51.3349 31.1923 50.9998 31.1851 50.6647C31.1799 50.4375 31.1746 50.2103 31.1692 49.9831C31.1561 49.4262 31.144 48.8693 31.1319 48.3124C29.6848 48.3124 28.2378 48.3124 26.747 48.3124Z" fill="#876FFD"/>
<path d="M26.7926 0.741262C27.9126 1.42906 28.4982 2.59474 29.0611 3.73303C29.3328 3.59885 29.6043 3.46431 29.8757 3.32956C29.9519 3.29196 30.0282 3.25435 30.1067 3.21561C30.4438 3.04793 30.7693 2.87855 31.0856 2.67392C31.4214 2.48979 31.6488 2.45469 32.0301 2.4465C32.1935 2.43872 32.1935 2.43872 32.3603 2.43079C33.0126 2.58556 33.4005 2.9962 33.7679 3.54423C33.9768 3.90225 34.1734 4.26489 34.3672 4.63133C34.5152 4.90361 34.6635 5.17576 34.812 5.44778C34.8875 5.58681 34.963 5.72585 35.0408 5.86909C35.4156 6.54973 35.8082 7.21968 36.2018 7.88954C36.6135 8.59136 36.6135 8.59136 36.8059 8.9212C36.913 9.10321 37.0216 9.28434 37.1326 9.46402C37.3851 9.8798 37.5328 10.1935 37.5264 10.6834C37.5283 10.8287 37.5283 10.8287 37.5302 10.9769C37.4075 11.5606 37.1729 11.8795 36.6925 12.2154C36.3204 12.4398 35.9432 12.6515 35.5623 12.8606C35.4201 12.9403 35.278 13.0203 35.136 13.1004C34.8412 13.2665 34.546 13.4318 34.2505 13.5966C33.572 13.9757 32.9004 14.3665 32.228 14.7561C31.9645 14.9083 31.7009 15.0604 31.4372 15.2124C31.2414 15.3254 31.2414 15.3254 31.0415 15.4408C30.6425 15.6709 30.2434 15.9008 29.8443 16.1307C28.5713 16.8642 27.2995 17.5998 26.0313 18.3417C24.9023 19.002 23.7681 19.6528 22.6318 20.3003C21.7541 20.8004 20.8785 21.3036 20.0068 21.814C19.6497 22.023 19.2921 22.2312 18.9344 22.4392C18.4363 22.7291 17.9409 23.023 17.4462 23.3185C17.1943 23.4664 16.9425 23.6142 16.6906 23.7619C16.5178 23.8669 16.5178 23.8669 16.3415 23.974C15.4447 24.4946 15.4447 24.4946 14.9278 24.4304C14.4034 24.2666 14.4034 24.2666 14.2013 23.9522C14.0532 23.5609 14.0638 23.3868 14.2065 22.9907C14.5091 22.5105 14.826 22.3344 15.3203 22.0795C15.4 22.0363 15.4797 21.9932 15.5618 21.9487C15.7569 21.8433 15.9534 21.7404 16.1501 21.638C16.1501 21.2936 16.0013 21.0988 15.8327 20.7987C15.7638 20.6757 15.6949 20.5526 15.6239 20.4259C15.5113 20.227 15.5113 20.227 15.3964 20.0241C15.3204 19.8891 15.2444 19.7541 15.1661 19.615C14.4166 18.2889 13.6437 16.9767 12.8614 15.6697C10.1377 17.1494 7.44478 18.6815 4.78299 20.2701C4.59733 20.3806 4.59733 20.3806 4.40792 20.4934C4.17133 20.6345 3.93503 20.7761 3.69905 20.9181C3.59404 20.9808 3.48903 21.0434 3.38083 21.108C3.28845 21.1634 3.19607 21.2189 3.10089 21.2761C2.87364 21.3944 2.87364 21.3944 2.63004 21.3944C3.51694 23.0129 4.4394 24.609 5.37285 26.201C5.59806 26.5867 5.81994 26.9743 6.0405 27.3627C6.52805 27.1823 6.96277 26.951 7.41221 26.6904C7.48416 26.6489 7.5561 26.6075 7.63023 26.5647C7.85927 26.4327 8.08801 26.3002 8.31668 26.1675C8.8959 25.8317 9.47641 25.4985 10.06 25.1702C10.2377 25.0701 10.2377 25.0701 10.419 24.9679C10.5779 24.8827 10.5779 24.8827 10.7399 24.7958C10.8301 24.7469 10.9204 24.6979 11.0134 24.6475C11.3508 24.5375 11.5506 24.5805 11.887 24.683C12.2775 24.9574 12.362 25.1103 12.458 25.5813C12.3409 26.1986 12.0135 26.3925 11.5216 26.7537C11.2001 26.9584 10.8687 27.1388 10.532 27.317C10.34 27.421 10.1481 27.5252 9.95626 27.6296C9.85542 27.6843 9.75458 27.7389 9.65068 27.7952C9.07219 28.1127 8.50062 28.4423 7.92844 28.771C7.71151 28.8956 7.49455 29.0201 7.27756 29.1445C7.18563 29.1974 7.0937 29.2502 6.99898 29.3047C6.47045 29.6034 6.03329 29.6126 5.43149 29.5551C4.68501 29.24 4.31089 28.5692 3.92561 27.8865C3.80998 27.6829 3.80998 27.6829 3.692 27.4752C3.60948 27.3286 3.52701 27.182 3.44459 27.0353C3.27147 26.728 3.09812 26.4208 2.92455 26.1137C2.88043 26.0356 2.83632 25.9575 2.79087 25.877C2.48664 25.3404 2.17218 24.811 1.85212 24.2839C1.76701 24.1421 1.68197 24.0004 1.59701 23.8586C1.43684 23.5923 1.27467 23.3272 1.11021 23.0636C0.656191 22.3021 0.369677 21.6792 0.559397 20.7854C0.869533 20.1096 1.34105 19.8229 1.96774 19.476C2.13032 19.3828 2.29288 19.2895 2.45542 19.1962C2.59343 19.1177 2.73145 19.0392 2.87364 18.9583C3.05452 18.8377 3.05452 18.8377 3.23905 18.7147C3.10282 18.3474 2.94483 18.0004 2.76278 17.6542C2.72015 17.5726 2.67753 17.4911 2.63361 17.407C2.54543 17.2393 2.45631 17.0722 2.36621 16.9055C1.92364 16.0506 1.80964 15.2839 2.05528 14.3417C2.31254 13.5909 2.84253 13.0652 3.48265 12.6246C4.36825 12.2042 5.33585 12.1527 6.29838 12.0679C6.46253 12.0525 6.62667 12.0369 6.7908 12.0212C7.21946 11.9805 7.64825 11.9413 8.07709 11.9024C8.76591 11.8398 9.45453 11.7749 10.1431 11.71C10.383 11.6876 10.6228 11.6659 10.8627 11.6442C11.0079 11.6308 11.1531 11.6174 11.3027 11.6035C11.4306 11.5919 11.5584 11.5803 11.6902 11.5683C12.0217 11.5373 12.0217 11.5373 12.3742 11.4066C12.4734 11.0985 12.4734 11.0985 12.5341 10.7291C12.8011 9.56743 13.4933 8.81319 14.4449 8.11792C15.3786 7.59127 16.5383 7.4555 17.577 7.71254C17.8362 7.79936 18.0901 7.89139 18.3425 7.99612C18.8721 7.34017 19.396 6.68368 19.8865 5.9978C20.1507 5.67983 20.3637 5.56639 20.771 5.51439C21.144 5.56007 21.144 5.56007 21.4257 5.76561C21.6675 6.09708 21.753 6.24404 21.753 6.65629C21.4883 7.45036 20.9381 8.09 20.4132 8.72693C20.7513 8.61421 21.0154 8.48174 21.3243 8.30681C21.4346 8.24445 21.545 8.1821 21.6586 8.11786C21.8372 8.01614 21.8372 8.01614 22.0194 7.91238C22.1423 7.84268 22.2651 7.77299 22.3917 7.70119C24.6294 6.43774 24.6294 6.43774 26.8301 5.1117C27.1123 4.95106 27.1123 4.95106 27.3559 4.95106C27.1816 4.63343 27.0064 4.31633 26.8306 3.99948C26.7814 3.90959 26.7322 3.8197 26.6815 3.72709C26.6091 3.59696 26.6091 3.59696 26.5352 3.46421C26.4912 3.38448 26.4472 3.30475 26.4018 3.2226C26.2505 2.98792 26.1105 2.81403 25.8943 2.63681C25.3953 2.54394 25.3953 2.54394 24.9199 2.63681C24.5833 2.92472 24.3331 3.25918 24.0673 3.61123C23.7654 3.97147 23.7301 3.9735 23.2222 4.02993C22.8645 4.01412 22.7358 3.98184 22.4229 3.78632C22.2358 3.48223 22.1404 3.25708 22.1622 2.89612C22.4357 1.9872 23.1607 1.23827 23.9745 0.785986C24.7915 0.412791 25.9635 0.377186 26.7926 0.741262ZM31.0823 4.94773C30.9455 5.02624 30.8088 5.10476 30.6678 5.18565C30.518 5.27238 30.3681 5.35913 30.2183 5.44588C30.0635 5.53497 29.9088 5.62401 29.754 5.71301C29.3557 5.94216 28.9577 6.17192 28.5599 6.40186C28.2105 6.60373 27.8607 6.80508 27.511 7.00647C26.9929 7.30492 26.4751 7.60395 25.9576 7.90334C25.4721 8.18393 24.986 8.46325 24.4989 8.74101C24.2049 8.90873 23.9111 9.07687 23.6174 9.24503C23.4097 9.3637 23.2016 9.48175 22.9936 9.5998C22.8682 9.67162 22.7429 9.74344 22.6137 9.81744C22.5031 9.88044 22.3925 9.94344 22.2785 10.0084C22.0242 10.1709 21.8327 10.331 21.6312 10.554C21.6739 10.6272 21.7167 10.7005 21.7607 10.7759C21.8908 10.9991 22.021 11.2222 22.1511 11.4454C22.303 11.7057 22.4551 11.966 22.6074 12.2261C23.0147 12.9225 23.4187 13.6204 23.8165 14.3222C23.893 14.4562 23.9696 14.5902 24.0484 14.7283C24.1966 14.9879 24.3436 15.2482 24.4896 15.5091C24.5902 15.6847 24.5902 15.6847 24.6929 15.8638C24.7516 15.9677 24.8103 16.0715 24.8707 16.1785C24.9271 16.2518 24.9835 16.325 25.0417 16.4005C25.4799 16.4005 25.6567 16.2851 26.0361 16.0703C26.1616 15.9996 26.2871 15.929 26.4164 15.8562C26.5506 15.7796 26.6848 15.7029 26.823 15.624C26.9614 15.5457 27.0997 15.4674 27.2422 15.3868C28.0716 14.9161 28.8973 14.4394 29.7175 13.9529C31.5967 12.8383 33.4959 11.7564 35.3949 10.6758C35.229 10.238 35.0342 9.83526 34.8058 9.42682C34.7371 9.30371 34.6684 9.18061 34.5976 9.05377C34.4873 8.85807 34.4873 8.85807 34.3748 8.65842C34.2994 8.52442 34.224 8.39042 34.1463 8.25236C33.6465 7.36814 33.1412 6.48742 32.6239 5.61336C32.5324 5.45696 32.5324 5.45696 32.4391 5.2974C32.3826 5.20305 32.3261 5.10869 32.268 5.01148C32.2189 4.92881 32.1698 4.84613 32.1192 4.76095C32.0747 4.7031 32.0302 4.64525 31.9844 4.58565C31.6194 4.58565 31.3973 4.76612 31.0823 4.94773ZM14.894 10.3484C14.4914 10.8609 14.2951 11.277 14.3687 11.9395C14.3939 12.045 14.419 12.1505 14.4449 12.2592C15.044 12.045 15.5823 11.733 16.1349 11.4218C16.2296 11.3689 16.3242 11.316 16.4218 11.2615C16.9826 10.9476 17.5414 10.63 18.0989 10.3104C17.6371 9.7972 17.2804 9.60526 16.5916 9.54148C15.8728 9.60345 15.3791 9.81626 14.894 10.3484ZM19.0182 11.8895C18.8856 11.9664 18.7531 12.0433 18.6165 12.1225C18.4744 12.2061 18.3323 12.2897 18.1903 12.3734C18.0465 12.4575 17.9027 12.5416 17.7588 12.6257C17.4746 12.7919 17.1907 12.9587 16.907 13.1258C16.5724 13.322 16.2367 13.5158 15.8998 13.708C15.7345 13.8036 15.5693 13.8992 15.4041 13.9949C15.3293 14.037 15.2545 14.079 15.1775 14.1224C14.9567 14.2477 14.9567 14.2477 14.6885 14.4516C14.6885 14.8898 14.8038 15.0666 15.0187 15.446C15.0894 15.5718 15.1602 15.6975 15.2331 15.827C15.3096 15.961 15.3861 16.095 15.465 16.233C15.5422 16.3695 15.6194 16.506 15.699 16.6466C16.4414 17.9551 17.202 19.2524 17.9771 20.5418C18.5013 20.383 18.9482 20.1807 19.4207 19.9047C19.6216 19.788 19.6216 19.788 19.8265 19.6689C19.9649 19.5877 20.1032 19.5064 20.2457 19.4227C20.3812 19.3438 20.5167 19.2649 20.6563 19.1836C21.0628 18.9467 21.4688 18.709 21.8748 18.4711C22.1523 18.3091 22.4299 18.1472 22.7074 17.9853C22.8284 17.9148 22.9494 17.8442 23.074 17.7716C23.2039 17.6958 23.2039 17.6958 23.3364 17.6185C23.2644 17.1222 23.1034 16.7698 22.8502 16.3386C22.7749 16.2094 22.6997 16.0801 22.6222 15.947C22.5413 15.8103 22.4605 15.6735 22.3772 15.5326C22.2943 15.3912 22.2114 15.2498 22.1285 15.1083C22.003 14.8939 21.8774 14.6796 21.7515 14.4655C21.4896 14.0196 21.2334 13.571 20.9813 13.1194C20.9208 13.0119 20.8603 12.9044 20.798 12.7936C20.6856 12.5932 20.5741 12.3922 20.4637 12.1906C20.3352 11.9638 20.1928 11.745 20.0478 11.5284C19.5953 11.5284 19.4077 11.662 19.0182 11.8895ZM9.48285 13.7194C9.35084 13.7321 9.21883 13.7447 9.08282 13.7577C8.80591 13.7845 8.52903 13.8117 8.25219 13.8392C7.82871 13.8808 7.40507 13.9201 6.98138 13.9594C6.71135 13.9859 6.44134 14.0124 6.17135 14.0391C6.0451 14.0506 5.91885 14.062 5.78877 14.0738C5.02691 14.1524 4.52632 14.2606 3.96986 14.817C3.87589 15.6484 4.08668 16.1274 4.51797 16.8268C4.57026 16.9153 4.62254 17.0039 4.67641 17.0951C4.80442 17.3113 4.93499 17.526 5.06608 17.7403C5.51337 17.4979 5.95977 17.254 6.40591 17.0095C6.52052 16.9468 6.52052 16.9468 6.63744 16.8828C7.81996 16.2346 8.99228 15.5695 10.1589 14.8932C10.2847 14.8207 10.4104 14.7483 10.5399 14.6736C10.6587 14.6044 10.7774 14.5353 10.8998 14.464C11.0051 14.4029 11.1104 14.3417 11.2189 14.2788C11.5427 14.0728 11.8353 13.8436 12.1306 13.599C11.2403 13.5816 10.3687 13.6331 9.48285 13.7194Z" fill="#876FFD"/>
<path d="M36.8566 14.086C37.1998 14.229 37.1998 14.229 37.5513 14.429C37.6808 14.5021 37.8103 14.5752 37.9438 14.6505C38.1442 14.7668 38.1442 14.7668 38.3487 14.8853C38.4804 14.9595 38.6122 15.0337 38.7479 15.1101C40.9925 16.3895 40.9925 16.3895 41.2415 16.8875C41.3517 17.6861 41.3517 17.6861 41.0897 18.1041C40.8667 18.3611 40.6326 18.5988 40.3889 18.8363C40.301 18.927 40.213 19.0178 40.1224 19.1113C39.624 19.6219 39.1072 20.1002 38.5656 20.5644C38.2894 20.8108 38.0301 21.0697 37.7701 21.3332C37.2828 21.8264 36.7752 22.2847 36.2476 22.734C36.1678 22.8035 36.0881 22.8731 36.0059 22.9447C35.2813 23.575 35.2813 23.575 34.8088 23.617C34.3668 23.5824 34.1595 23.4918 33.8115 23.2212C33.5042 22.8114 33.526 22.373 33.5679 21.8814C33.6599 21.3691 33.7803 20.8644 33.9015 20.3583C33.9358 20.2126 33.97 20.0668 34.0054 19.9167C34.0779 19.6093 34.1509 19.3021 34.2244 18.995C34.3365 18.5257 34.4465 18.056 34.5564 17.5862C34.6273 17.2871 34.6982 16.9881 34.7693 16.6891C34.8021 16.549 34.8348 16.4089 34.8686 16.2645C35.2546 14.664 35.2546 14.664 35.7985 14.223C36.189 14.0595 36.4349 14.0534 36.8566 14.086ZM36.8566 16.5221C36.7304 17.019 36.6068 17.5165 36.4836 18.0141C36.4477 18.1553 36.4118 18.2964 36.3749 18.4419C36.3415 18.5777 36.3081 18.7135 36.2738 18.8534C36.2425 18.9784 36.2113 19.1035 36.1791 19.2323C36.1271 19.559 36.1389 19.746 36.2476 20.0543C36.4021 19.8977 36.4021 19.8977 36.5597 19.7379C37.2862 19.0045 38.0105 18.2787 38.8054 17.6183C38.5016 17.2752 38.1641 17.0812 37.7625 16.8646C37.5852 16.7678 37.5852 16.7678 37.4042 16.6691C37.1199 16.5044 37.1199 16.5044 36.8566 16.5221Z" fill="#876FFD"/>
<path d="M9.58727 35.603C9.88757 35.692 10.1882 35.7798 10.4891 35.8666C10.926 35.9926 11.3618 36.1218 11.7975 36.2519C11.9317 36.2899 12.066 36.328 12.2043 36.3673C12.9658 36.5994 13.4146 36.7805 13.8353 37.4718C13.9284 37.9934 13.8923 38.2286 13.6211 38.6839C13.1268 39.2457 12.3997 39.3758 11.7047 39.5752C11.5562 39.6199 11.4077 39.6645 11.2546 39.7105C10.941 39.8043 10.6273 39.8971 10.3129 39.9883C9.91191 40.1047 9.51175 40.2237 9.11182 40.3438C8.7279 40.459 8.3436 40.5729 7.95927 40.6867C7.81638 40.7291 7.67349 40.7714 7.52627 40.8151C5.82199 41.3103 5.82199 41.3103 5.22537 41.1715C4.85509 40.9514 4.68836 40.7619 4.4565 40.395C4.38432 40.0195 4.38529 39.6504 4.38751 39.2688C4.38675 39.1606 4.386 39.0523 4.38522 38.9408C4.38436 38.7124 4.38474 38.484 4.38629 38.2556C4.38797 37.9072 4.38383 37.5592 4.37918 37.2108C4.37906 36.9884 4.37929 36.7659 4.37989 36.5435C4.37828 36.44 4.37666 36.3364 4.375 36.2297C4.38289 35.7237 4.41953 35.3792 4.73534 34.9719C5.85485 33.9492 8.33416 35.2298 9.58727 35.603ZM6.40533 36.8628C6.40533 37.5461 6.40533 38.2294 6.40533 38.9334C7.26246 38.7743 8.08514 38.5669 8.91751 38.3092C9.0282 38.2754 9.13889 38.2417 9.25294 38.2069C9.52192 38.1248 9.79074 38.0421 10.0594 37.959C9.70247 37.721 9.43949 37.6239 9.0317 37.5051C8.90263 37.4674 8.77357 37.4297 8.6406 37.3909C8.50588 37.3523 8.37117 37.3136 8.23237 37.2738C8.09765 37.2343 7.96294 37.1947 7.82414 37.154C7.12565 36.9386 7.12565 36.9386 6.40533 36.8628Z" fill="#876FFD"/>
<path d="M53.0566 34.7913C53.3071 35.0121 53.409 35.1892 53.4571 35.5205C53.4746 35.8311 53.479 36.1394 53.4791 36.4504C53.4805 36.6216 53.4805 36.6216 53.4819 36.7962C53.4832 37.0373 53.4835 37.2784 53.483 37.5195C53.4829 37.888 53.4879 38.2561 53.4933 38.6245C53.494 38.859 53.4943 39.0935 53.4943 39.328C53.4963 39.4379 53.4983 39.5478 53.5003 39.661C53.4945 40.1915 53.4728 40.4444 53.1586 40.8872C52.6939 41.207 52.3104 41.2856 51.7519 41.1908C51.64 41.1574 51.5281 41.124 51.4128 41.0895C51.2847 41.0521 51.1566 41.0146 51.0246 40.976C50.888 40.9343 50.7513 40.8926 50.6105 40.8496C50.4682 40.8073 50.3258 40.765 50.1791 40.7215C49.8782 40.6318 49.5776 40.5413 49.2771 40.4502C48.8197 40.3115 48.3617 40.1753 47.9035 40.0395C47.6106 39.9519 47.3178 39.8641 47.025 39.7762C46.889 39.7357 46.7531 39.6952 46.6131 39.6535C44.55 39.025 44.55 39.025 44.1422 38.4073C44.0246 37.8738 44.0667 37.6031 44.2868 37.1056C44.6199 36.8083 44.9313 36.6653 45.3559 36.5368C45.4711 36.5014 45.5862 36.466 45.7048 36.4296C45.8286 36.3927 45.9525 36.3557 46.08 36.3177C46.2087 36.2785 46.3373 36.2393 46.4698 36.199C46.8812 36.0739 47.293 35.9503 47.7049 35.8267C47.9789 35.7435 48.2529 35.6602 48.5268 35.5769C49.2646 35.3531 50.0024 35.1299 50.7423 34.9131C50.8634 34.8769 50.9845 34.8406 51.1093 34.8032C51.2272 34.7691 51.3452 34.7349 51.4667 34.6997C51.5719 34.6688 51.6771 34.638 51.7854 34.6061C52.2829 34.5082 52.5891 34.5993 53.0566 34.7913ZM50.3793 37.0751C50.2376 37.1191 50.0959 37.1631 49.9499 37.2084C49.8019 37.2548 49.6539 37.3013 49.5015 37.3492C49.3521 37.3957 49.2027 37.4421 49.0487 37.49C48.6793 37.605 48.31 37.7205 47.9409 37.8364C48.289 38.0685 48.5462 38.1698 48.9419 38.2903C49.0655 38.328 49.1891 38.3657 49.3164 38.4045C49.4453 38.4431 49.5742 38.4817 49.707 38.5215C49.8359 38.5611 49.9648 38.6007 50.0976 38.6414C50.7738 38.858 50.7738 38.858 51.4731 38.9326C51.4731 38.2493 51.4731 37.566 51.4731 36.862C51.0637 36.862 50.7701 36.9531 50.3793 37.0751Z" fill="#876FFD"/>
<path d="M34.2983 30.4071C34.6255 30.6395 34.7531 30.8121 34.8997 31.1835C34.9159 31.8627 34.4358 32.4007 34.0319 32.9116C33.9228 33.051 33.8139 33.1904 33.705 33.3298C33.6146 33.4452 33.6146 33.4452 33.5224 33.5629C33.138 34.0561 32.7591 34.5535 32.3799 35.0508C32.2962 35.1605 32.2125 35.2703 32.1263 35.3834C31.5138 36.1884 30.9119 37.0008 30.3142 37.8168C29.7028 38.6496 29.0766 39.4706 28.4487 40.2909C27.899 41.0103 27.3581 41.7354 26.8227 42.4655C26.3268 43.1409 25.8302 43.8157 25.323 44.4828C25.2296 44.6061 25.1362 44.7293 25.0399 44.8563C24.743 45.2104 24.5431 45.3719 24.0822 45.442C23.7015 45.3887 23.7015 45.3887 23.3513 45.1299C23.04 44.7087 23.0312 44.5617 23.0925 44.0489C23.2904 43.6945 23.2904 43.6945 23.5797 43.3105C23.6332 43.2385 23.6867 43.1666 23.7419 43.0924C23.9295 42.8413 24.1199 42.5925 24.3105 42.3437C24.4608 42.1456 24.611 41.9476 24.7611 41.7494C25.0913 41.3146 25.4226 40.8807 25.7546 40.4472C26.2314 39.8238 26.7029 39.1965 27.1729 38.5678C27.7999 37.7292 28.4324 36.895 29.0684 36.0633C29.6926 35.2465 30.3098 34.4252 30.9183 33.5968C31.0218 33.4559 31.0218 33.4559 31.1273 33.3123C31.2637 33.1266 31.4 32.941 31.5364 32.7554C31.8773 32.2915 32.2192 31.8283 32.5626 31.3662C32.6238 31.2832 32.6849 31.2002 32.7479 31.1146C33.2397 30.4549 33.464 30.3351 34.2983 30.4071Z" fill="#876FFD"/>
<path d="M34.634 39.855C35.3462 40.5323 35.6724 41.306 35.715 42.2834C35.6721 43.2668 35.3467 44.0414 34.6188 44.7118C33.7517 45.3673 32.9314 45.5158 31.863 45.3894C30.8206 45.0837 30.1902 44.5429 29.6725 43.6009C29.2607 42.6618 29.3904 41.7709 29.7519 40.8408C30.1273 40.0922 30.7208 39.6032 31.4976 39.2992C32.59 38.983 33.7292 39.1621 34.634 39.855ZM31.7412 41.4917C31.4551 41.8445 31.3741 42.0171 31.3834 42.4737C31.513 42.8798 31.6578 43.0512 31.9848 43.3187C32.3323 43.4925 32.5737 43.4783 32.9592 43.4405C33.2881 43.2213 33.5124 43.0649 33.69 42.7097C33.75 42.1796 33.7531 41.9424 33.4312 41.5069C32.8118 41.0491 32.3499 40.9981 31.7412 41.4917Z" fill="#876FFD"/>
<path d="M27.0892 30.8293C27.7694 31.3107 28.2157 31.9214 28.4523 32.7234C28.5609 33.8153 28.435 34.6374 27.8281 35.5477C27.2101 36.2352 26.3507 36.5902 25.4453 36.6515C24.4845 36.6319 23.7564 36.2979 23.0597 35.6429C22.5315 35.0406 22.2721 34.3455 22.21 33.5532C22.2704 32.6318 22.5852 31.823 23.2148 31.14C24.3712 30.2296 25.8039 30.0969 27.0892 30.8293ZM24.5547 32.6016C24.2946 32.9962 24.1874 33.2382 24.1969 33.7131C24.3326 34.1293 24.4411 34.2967 24.7983 34.5505C25.2736 34.6801 25.5362 34.7207 25.9934 34.5276C26.3934 34.1962 26.4838 33.9741 26.5492 33.4618C26.4925 32.9991 26.3374 32.8103 26.0163 32.4798C25.5372 32.2403 24.9812 32.2781 24.5547 32.6016Z" fill="#876FFD"/>
<path d="M44.5304 23.8311C44.9087 24.0603 45.1967 24.3688 45.5048 24.6837C45.6305 24.8057 45.7564 24.9273 45.8826 25.0487C46.0157 25.1781 46.1486 25.3077 46.2813 25.4374C46.3452 25.4996 46.409 25.5618 46.4748 25.6259C46.9558 26.1063 47.1976 26.3923 47.2329 27.0741C47.1149 27.8298 46.5111 28.3084 45.992 28.825C45.905 28.9178 45.8181 29.0106 45.7284 29.1062C45.1735 29.6901 44.72 30.1488 43.8757 30.1801C43.2545 29.9873 42.9158 29.6434 42.4598 29.1904C42.3323 29.0661 42.2048 28.9417 42.0772 28.8174C40.9005 27.6606 40.9005 27.6606 40.8154 27.0437C40.8318 26.3398 41.248 26.0064 41.7289 25.5364C41.8627 25.4002 41.9962 25.2638 42.1296 25.1272C43.593 23.6376 43.593 23.6376 44.5304 23.8311ZM43.7377 26.3052C43.6727 26.3731 43.6077 26.4409 43.5408 26.5108C43.4751 26.5786 43.4095 26.6464 43.3419 26.7163C43.2919 26.7691 43.242 26.8218 43.1906 26.8762C43.3722 27.3384 43.6482 27.5595 44.0432 27.8506C44.3246 27.5692 44.6059 27.2879 44.8958 26.998C44.7802 26.8573 44.6647 26.7166 44.5456 26.5717C44.4806 26.4925 44.4156 26.4134 44.3486 26.3319C44.288 26.2703 44.2274 26.2088 44.165 26.1454C43.9114 26.1187 43.9114 26.1187 43.7377 26.3052Z" fill="#876FFD"/>
<path d="M7.38059 43.4404C7.76017 43.6675 8.0454 43.9798 8.35501 44.293C8.49098 44.417 8.62741 44.5406 8.76419 44.6637C8.90963 44.7988 9.0549 44.9341 9.20001 45.0695C9.27069 45.1324 9.34138 45.1954 9.41421 45.2602C9.874 45.703 10.0607 46.0679 10.0879 46.7121C10.0034 47.5088 9.20176 48.1115 8.65951 48.6475C8.57865 48.7293 8.49779 48.8111 8.41448 48.8954C8.33582 48.9737 8.25715 49.0521 8.17611 49.1328C8.10522 49.2034 8.03433 49.274 7.96129 49.3468C7.62344 49.6351 7.34904 49.7624 6.9086 49.8198C6.04208 49.7158 5.43882 48.966 4.85319 48.3734C4.77139 48.2926 4.68958 48.2117 4.6053 48.1284C4.52695 48.0497 4.4486 47.9711 4.36788 47.89C4.29727 47.8191 4.22665 47.7482 4.1539 47.6752C3.83065 47.2965 3.67821 46.9714 3.70035 46.4703C3.81385 45.6569 4.42298 45.1929 4.99783 44.6584C5.10562 44.554 5.2134 44.4496 5.32446 44.342C6.45906 43.2515 6.45906 43.2515 7.38059 43.4404ZM6.58792 45.9145C6.52292 45.9824 6.45792 46.0502 6.39094 46.1201C6.32531 46.1879 6.25968 46.2557 6.19206 46.3256C6.14213 46.3784 6.0922 46.4311 6.04076 46.4855C6.21647 46.8955 6.44669 47.1567 6.77158 47.4599C7.18155 47.2842 7.44276 47.054 7.74599 46.7291C7.57051 46.3196 7.35044 46.048 7.01518 45.7547C6.76162 45.728 6.76162 45.728 6.58792 45.9145Z" fill="#876FFD"/>
</svg>
