<svg width="40" height="40" viewBox="0 0 40 40" fill="none" xmlns="http://www.w3.org/2000/svg">
<mask id="mask0_5487_2595" style="mask-type:luminance" maskUnits="userSpaceOnUse" x="1" y="1" width="38" height="38">
<path d="M1.35352 1.25H38.8602V38.75H1.35352V1.25Z" fill="white"/>
</mask>
<g mask="url(#mask0_5487_2595)">
<path d="M1.37505 14.3738V4.37459C1.37505 4.27226 1.38034 4.17033 1.39031 4.0684C1.40048 3.96668 1.41554 3.86556 1.43568 3.76526C1.45562 3.66496 1.48064 3.56588 1.51035 3.46802C1.54025 3.37016 1.57464 3.27393 1.6139 3.17932C1.65317 3.08492 1.69671 2.99255 1.74513 2.90243C1.79335 2.81209 1.84584 2.72461 1.9028 2.63957C1.95956 2.55452 2.0206 2.47233 2.0855 2.39339C2.1504 2.31425 2.21896 2.23857 2.29139 2.16614C2.36362 2.09391 2.4393 2.02515 2.51844 1.96025C2.59759 1.89535 2.67958 1.83451 2.76462 1.77755C2.84966 1.72078 2.93735 1.66829 3.02748 1.61987C3.11761 1.57166 3.20997 1.52791 3.30458 1.48865C3.39898 1.44958 3.49521 1.415 3.59307 1.38529C3.69093 1.35559 3.79001 1.33057 3.89031 1.31063C3.99081 1.29049 4.09173 1.27543 4.19366 1.26526C4.29538 1.25509 4.39751 1.25 4.49964 1.25H19.4984C19.6008 1.25 19.7027 1.25509 19.8046 1.26526C19.9063 1.27543 20.0075 1.29049 20.1078 1.31063C20.2081 1.33057 20.3071 1.35559 20.405 1.38529C20.5029 1.415 20.5991 1.44958 20.6935 1.48865C20.7881 1.52791 20.8805 1.57166 20.9706 1.61987C21.0609 1.66829 21.1484 1.72078 21.2334 1.77755C21.3185 1.83451 21.4007 1.89535 21.4796 1.96025C21.5588 2.02515 21.6345 2.09391 21.7069 2.16614C21.7791 2.23857 21.8479 2.31425 21.9128 2.39339C21.9777 2.47233 22.0385 2.55452 22.0953 2.63957C22.1522 2.72461 22.2047 2.81209 22.2531 2.90243C22.3014 2.99255 22.3451 3.08492 22.3842 3.17932C22.4234 3.27393 22.458 3.37016 22.4877 3.46802C22.5174 3.56588 22.5425 3.66496 22.5624 3.76526C22.5825 3.86556 22.5976 3.96668 22.6078 4.0684C22.6179 4.17033 22.623 4.27226 22.623 4.37459V4.99959C22.623 5.04069 22.6192 5.08118 22.611 5.12146C22.6031 5.16174 22.5913 5.20081 22.5756 5.23865C22.5597 5.27669 22.5406 5.3127 22.5178 5.34668C22.495 5.38086 22.469 5.41239 22.4401 5.44149C22.411 5.47058 22.3795 5.49642 22.3453 5.51921C22.3113 5.54199 22.2753 5.56132 22.2373 5.57699C22.1994 5.59265 22.1604 5.60445 22.1201 5.61259C22.0798 5.62052 22.0391 5.62459 21.9982 5.62459C21.9571 5.62459 21.9164 5.62052 21.8762 5.61259C21.8361 5.60445 21.797 5.59265 21.759 5.57699C21.7211 5.56132 21.6851 5.54199 21.6509 5.51921C21.6168 5.49642 21.5852 5.47058 21.5563 5.44149C21.5272 5.41239 21.5014 5.38086 21.4786 5.34668C21.4558 5.3127 21.4365 5.27669 21.4208 5.23865C21.4052 5.20081 21.3932 5.16174 21.3852 5.12146C21.3773 5.08118 21.3732 5.04069 21.3732 4.99959V4.37459C21.3732 4.31315 21.3702 4.25191 21.3641 4.19088C21.358 4.12984 21.3488 4.06921 21.3368 4.00899C21.3248 3.94877 21.3099 3.88936 21.292 3.83057C21.2741 3.77197 21.2534 3.71419 21.23 3.65743C21.2064 3.60087 21.1801 3.54533 21.1513 3.49121C21.1224 3.43709 21.0908 3.3846 21.0567 3.33354C21.0225 3.28247 20.9861 3.23324 20.947 3.18583C20.9081 3.13843 20.8668 3.09285 20.8235 3.04952C20.7802 3.00618 20.7346 2.96488 20.6872 2.92603C20.6398 2.88696 20.5905 2.85055 20.5395 2.81637C20.4884 2.78219 20.4359 2.75065 20.3818 2.72176C20.3277 2.69287 20.2721 2.66663 20.2156 2.64303C20.1588 2.61963 20.101 2.59888 20.0424 2.58097C19.9837 2.56307 19.9242 2.54822 19.864 2.53621C19.8038 2.52421 19.7432 2.51506 19.6821 2.50895C19.6209 2.50285 19.5599 2.4998 19.4984 2.4998H4.49964C4.43841 2.4998 4.37717 2.50285 4.31613 2.50895C4.25489 2.51506 4.19427 2.52421 4.13404 2.53621C4.07403 2.54822 4.01442 2.56307 3.95582 2.58097C3.89702 2.59888 3.83924 2.61963 3.78268 2.64303C3.72592 2.66663 3.67058 2.69287 3.61626 2.72176C3.56214 2.75065 3.50965 2.78219 3.45859 2.81637C3.40752 2.85055 3.35829 2.88696 3.31088 2.92603C3.26348 2.96488 3.21811 3.00618 3.17457 3.04952C3.13124 3.09285 3.09014 3.13843 3.05108 3.18583C3.01222 3.23324 2.9756 3.28247 2.94142 3.33354C2.90744 3.3846 2.87591 3.43709 2.84681 3.49121C2.81792 3.54533 2.79168 3.60087 2.76808 3.65743C2.74468 3.71419 2.72393 3.77197 2.70602 3.83057C2.68832 3.88936 2.67327 3.94877 2.66127 4.00899C2.64926 4.06921 2.64011 4.12984 2.63421 4.19088C2.6281 4.25191 2.62505 4.31315 2.62485 4.37459V14.3738C2.62505 14.435 2.6281 14.4963 2.63421 14.5575C2.64011 14.6185 2.64926 14.6792 2.66127 14.7394C2.67327 14.7996 2.68832 14.859 2.70602 14.9178C2.72393 14.9764 2.74468 15.0342 2.76808 15.0909C2.79168 15.1475 2.81792 15.203 2.84681 15.2572C2.87591 15.3113 2.90744 15.3638 2.94142 15.4148C2.9756 15.4659 3.01222 15.5151 3.05108 15.5625C3.09014 15.6099 3.13124 15.6555 3.17457 15.6989C3.21811 15.7422 3.26348 15.7835 3.31088 15.8223C3.35829 15.8612 3.40752 15.8978 3.45859 15.932C3.50965 15.966 3.56214 15.9975 3.61626 16.0266C3.67058 16.0555 3.72592 16.0817 3.78268 16.1053C3.83924 16.1287 3.89702 16.1495 3.95582 16.1674C4.01442 16.1853 4.07403 16.2002 4.13404 16.2122C4.19427 16.2242 4.25489 16.2333 4.31613 16.2394C4.37717 16.2453 4.43841 16.2486 4.49964 16.2486H6.37464C6.45745 16.2486 6.5372 16.2644 6.6137 16.2962C6.6902 16.3279 6.75774 16.3731 6.81634 16.4317L10.3073 19.9225C10.3263 19.9386 10.3468 19.9518 10.3694 19.9622C10.3918 19.9723 10.4152 19.9795 10.4396 19.9833C10.464 19.9872 10.4886 19.9876 10.5132 19.9847C10.5377 19.9819 10.5615 19.9756 10.5842 19.9662C10.6072 19.9567 10.6282 19.9443 10.6477 19.929C10.667 19.9137 10.6841 19.896 10.6986 19.8761C10.7132 19.856 10.7248 19.8344 10.7334 19.8112C10.7419 19.788 10.7472 19.764 10.7492 19.7394V16.8736C10.7492 16.8325 10.7531 16.7918 10.761 16.7515C10.7692 16.7112 10.781 16.6722 10.7966 16.6343C10.8123 16.5963 10.8316 16.5603 10.8544 16.5263C10.8772 16.4921 10.903 16.4606 10.9321 16.4315C10.961 16.4024 10.9928 16.3765 11.0267 16.3538C11.0609 16.331 11.0969 16.3116 11.135 16.296C11.1728 16.2803 11.2119 16.2685 11.2522 16.2606C11.2925 16.2524 11.3331 16.2486 11.374 16.2486H15.7486C15.7897 16.2486 15.8304 16.2526 15.8707 16.2606C15.911 16.2685 15.95 16.2803 15.9879 16.2962C16.0257 16.3118 16.0617 16.331 16.0959 16.354C16.1301 16.3767 16.1616 16.4026 16.1905 16.4317C16.2196 16.4606 16.2455 16.4921 16.2682 16.5263C16.2912 16.5605 16.3104 16.5965 16.326 16.6343C16.3419 16.6722 16.3537 16.7112 16.3616 16.7515C16.3698 16.7918 16.3736 16.8325 16.3736 16.8736C16.3736 16.9145 16.3698 16.9552 16.3616 16.9954C16.3537 17.0357 16.3419 17.0748 16.326 17.1126C16.3104 17.1505 16.2912 17.1865 16.2682 17.2207C16.2455 17.2548 16.2196 17.2864 16.1905 17.3155C16.1616 17.3444 16.1301 17.3704 16.0959 17.3932C16.0617 17.416 16.0257 17.4351 15.9879 17.4508C15.95 17.4666 15.911 17.4784 15.8707 17.4864C15.8304 17.4945 15.7897 17.4984 15.7486 17.4984H11.999V19.7394C11.999 19.8136 11.9935 19.8875 11.9828 19.9607C11.9718 20.0342 11.9557 20.1064 11.9341 20.1774C11.9126 20.2484 11.8859 20.3174 11.8542 20.3845C11.8224 20.4515 11.786 20.516 11.7447 20.5776C11.7036 20.6392 11.6581 20.6976 11.6082 20.7526C11.5584 20.8075 11.5049 20.8586 11.4475 20.9056C11.3901 20.9528 11.3297 20.9953 11.266 21.0335C11.2023 21.0716 11.1362 21.1049 11.0676 21.1332C10.9993 21.1617 10.9289 21.1849 10.8571 21.2028C10.785 21.2209 10.712 21.2335 10.6384 21.2408C10.5645 21.2482 10.4904 21.25 10.4164 21.2463C10.3423 21.2427 10.2689 21.2335 10.1961 21.2191C10.1232 21.2046 10.052 21.1849 9.98223 21.1599C9.91224 21.1348 9.8447 21.1049 9.77919 21.0699C9.71388 21.035 9.65122 20.9955 9.59161 20.9511C9.5322 20.907 9.47604 20.8588 9.42355 20.8063L6.11586 17.4984H4.49964C4.39751 17.4984 4.29538 17.4933 4.19366 17.4831C4.09173 17.4729 3.99081 17.4579 3.89031 17.4377C3.79001 17.4178 3.69093 17.3928 3.59307 17.3631C3.49521 17.3334 3.39898 17.2988 3.30458 17.2595C3.20997 17.2205 3.11761 17.1767 3.02748 17.1283C2.93735 17.0801 2.84966 17.0276 2.76462 16.9706C2.67958 16.9139 2.59759 16.853 2.51844 16.7881C2.4393 16.723 2.36362 16.6545 2.29139 16.5822C2.21896 16.5098 2.1504 16.4341 2.0855 16.355C2.0206 16.276 1.95956 16.1938 1.9028 16.1088C1.84584 16.0238 1.79335 15.9363 1.74513 15.8459C1.69671 15.7558 1.65317 15.6635 1.6139 15.5688C1.57464 15.4744 1.54025 15.3782 1.51035 15.2804C1.48064 15.1825 1.45562 15.0834 1.43568 14.9831C1.41554 14.8828 1.40048 14.7817 1.39031 14.68C1.38034 14.578 1.37505 14.4761 1.37505 14.3738ZM38.8716 9.99919V19.9982C38.8716 20.1005 38.8663 20.2026 38.8563 20.3044C38.8462 20.4061 38.8311 20.5072 38.811 20.6075C38.791 20.7078 38.766 20.8069 38.7363 20.9049C38.7064 21.0028 38.672 21.0988 38.6327 21.1934C38.5937 21.2878 38.5499 21.3802 38.5015 21.4705C38.4533 21.5607 38.4008 21.6484 38.3438 21.7334C38.2871 21.8184 38.226 21.9004 38.1611 21.9796C38.0962 22.0585 38.0277 22.1344 37.9553 22.2066C37.883 22.2791 37.8073 22.3476 37.7282 22.4125C37.6491 22.4774 37.5671 22.5382 37.482 22.5952C37.397 22.652 37.3093 22.7047 37.2192 22.7529C37.129 22.8011 37.0367 22.8449 36.9421 22.8841C36.8477 22.9234 36.7514 22.9578 36.6536 22.9875C36.5557 23.0174 36.4566 23.0422 36.3563 23.0623C36.256 23.0823 36.1549 23.0973 36.053 23.1075C35.9513 23.1177 35.8491 23.1228 35.747 23.123H30.3812L27.0733 26.4307C27.0208 26.4832 26.9649 26.5316 26.9052 26.5757C26.8456 26.6199 26.7832 26.6595 26.7177 26.6945C26.6524 26.7295 26.5846 26.7594 26.5148 26.7845C26.445 26.8095 26.3736 26.8292 26.301 26.8437C26.2282 26.8581 26.1547 26.8671 26.0807 26.8707C26.0064 26.8744 25.9325 26.8726 25.8587 26.8652C25.7848 26.8581 25.712 26.8455 25.64 26.8274C25.568 26.8093 25.4978 26.7861 25.4292 26.7578C25.3606 26.7293 25.2945 26.6962 25.2311 26.6579C25.1674 26.6199 25.1069 26.5772 25.0496 26.5302C24.9922 26.4832 24.9385 26.4321 24.8886 26.3772C24.839 26.322 24.7934 26.2638 24.7521 26.202C24.711 26.1403 24.6744 26.0761 24.6429 26.0089C24.6111 25.942 24.5845 25.8728 24.5629 25.8018C24.5414 25.7308 24.5251 25.6588 24.5143 25.5853C24.5033 25.5119 24.498 25.438 24.498 25.364V23.123H20.7482C20.6459 23.1228 20.544 23.1177 20.442 23.1075C20.3403 23.0973 20.2392 23.0823 20.1389 23.0623C20.0386 23.0422 19.9395 23.0174 19.8416 22.9875C19.7438 22.9578 19.6476 22.9234 19.5532 22.8841C19.4585 22.8449 19.3662 22.8011 19.2761 22.7529C19.1857 22.7047 19.0982 22.652 19.0132 22.5952C18.9282 22.5382 18.846 22.4774 18.767 22.4125C18.6879 22.3476 18.6122 22.2791 18.5398 22.2066C18.4675 22.1344 18.3988 22.0585 18.3339 21.9796C18.269 21.9004 18.2081 21.8184 18.1514 21.7334C18.0944 21.6484 18.0419 21.5607 17.9935 21.4705C17.9453 21.3802 17.9015 21.2878 17.8625 21.1934C17.8232 21.0988 17.7886 21.0028 17.7589 20.9049C17.7292 20.8069 17.7042 20.7078 17.6843 20.6075C17.6641 20.5072 17.6491 20.4061 17.6389 20.3044C17.6287 20.2026 17.6236 20.1005 17.6236 19.9982V9.99919C17.6236 9.89685 17.6287 9.79472 17.6389 9.69299C17.6491 9.59106 17.6641 9.49015 17.6843 9.38985C17.7042 9.28935 17.7292 9.19027 17.7589 9.09241C17.7886 8.99455 17.8232 8.89832 17.8625 8.80391C17.9015 8.70951 17.9453 8.61715 17.9935 8.52681C18.0419 8.43669 18.0944 8.349 18.1514 8.26396C18.2081 8.17891 18.269 8.09692 18.3339 8.01778C18.3988 7.93864 18.4675 7.86296 18.5398 7.79073C18.6122 7.7183 18.6879 7.64974 18.767 7.58484C18.846 7.51994 18.9282 7.4589 19.0132 7.40214C19.0982 7.34517 19.1857 7.29268 19.2761 7.24447C19.3662 7.19625 19.4585 7.15251 19.5532 7.11324C19.6476 7.07397 19.7438 7.03959 19.8416 7.00968C19.9395 6.97998 20.0386 6.95516 20.1389 6.93502C20.2392 6.91508 20.3403 6.89982 20.442 6.88985C20.544 6.87968 20.6459 6.87459 20.7482 6.87439H35.747C35.8491 6.87459 35.9513 6.87968 36.053 6.88985C36.1549 6.89982 36.256 6.91508 36.3563 6.93502C36.4566 6.95516 36.5557 6.97998 36.6536 7.00968C36.7514 7.03959 36.8477 7.07397 36.9421 7.11324C37.0367 7.15251 37.129 7.19625 37.2192 7.24447C37.3093 7.29268 37.397 7.34517 37.482 7.40214C37.5671 7.4589 37.6491 7.51994 37.7282 7.58484C37.8073 7.64974 37.883 7.7183 37.9553 7.79073C38.0277 7.86296 38.0962 7.93864 38.1611 8.01778C38.226 8.09692 38.2871 8.17891 38.3438 8.26396C38.4008 8.349 38.4533 8.43669 38.5015 8.52681C38.5499 8.61715 38.5937 8.70951 38.6327 8.80391C38.672 8.89832 38.7064 8.99455 38.7363 9.09241C38.766 9.19027 38.791 9.28935 38.811 9.38985C38.8311 9.49015 38.8462 9.59106 38.8563 9.69299C38.8663 9.79472 38.8716 9.89685 38.8716 9.99919ZM37.6218 9.99919C37.6216 9.93774 37.6185 9.87651 37.6124 9.81547C37.6065 9.75423 37.5974 9.6936 37.5854 9.63359C37.5734 9.57336 37.5583 9.51375 37.5406 9.45516C37.5227 9.39636 37.502 9.33858 37.4786 9.28202C37.455 9.22526 37.4287 9.16992 37.3998 9.1158C37.3707 9.06169 37.3392 9.00899 37.3052 8.95793C37.271 8.90706 37.2344 8.85783 37.1956 8.81022C37.1565 8.76282 37.1154 8.71745 37.0721 8.67391C37.0285 8.63057 36.9832 8.58948 36.9358 8.55042C36.8884 8.51156 36.8391 8.47494 36.7881 8.44096C36.737 8.40678 36.6845 8.37524 36.6304 8.34635C36.5763 8.31726 36.5207 8.29102 36.464 8.26762C36.4074 8.24402 36.3496 8.22327 36.2908 8.20557C36.2322 8.18766 36.1726 8.17261 36.1126 8.1606C36.0524 8.1486 35.9918 8.13965 35.9305 8.13355C35.8695 8.12744 35.8082 8.12439 35.747 8.12419H20.7482C20.687 8.12439 20.6257 8.12744 20.5645 8.13355C20.5035 8.13965 20.4428 8.1486 20.3826 8.1606C20.3224 8.17261 20.263 8.18766 20.2042 8.20557C20.1456 8.22327 20.0878 8.24402 20.0311 8.26762C19.9745 8.29102 19.919 8.31726 19.8648 8.34635C19.8107 8.37524 19.7582 8.40678 19.7072 8.44096C19.6561 8.47494 19.6069 8.51156 19.5595 8.55042C19.5121 8.58948 19.4665 8.63057 19.4231 8.67391C19.3798 8.71745 19.3385 8.76282 19.2997 8.81022C19.2606 8.85783 19.2242 8.90706 19.19 8.95793C19.156 9.00899 19.1243 9.06169 19.0954 9.1158C19.0665 9.16992 19.0403 9.22526 19.0167 9.28202C18.9933 9.33858 18.9725 9.39636 18.9546 9.45516C18.9367 9.51375 18.9218 9.57336 18.9098 9.63359C18.8978 9.6936 18.8887 9.75423 18.8826 9.81547C18.8765 9.87651 18.8734 9.93774 18.8734 9.99919V19.9982C18.8734 20.0596 18.8765 20.1208 18.8826 20.1819C18.8887 20.2429 18.8978 20.3035 18.9098 20.3638C18.9218 20.424 18.9367 20.4834 18.9546 20.5422C18.9725 20.601 18.9933 20.6586 19.0167 20.7153C19.0403 20.7721 19.0665 20.8274 19.0954 20.8816C19.1243 20.9357 19.156 20.9884 19.19 21.0392C19.2242 21.0903 19.2606 21.1395 19.2997 21.1871C19.3385 21.2345 19.3798 21.2799 19.4231 21.3232C19.4665 21.3668 19.5121 21.4079 19.5595 21.4469C19.6069 21.4858 19.6561 21.5224 19.7072 21.5564C19.7582 21.5906 19.8107 21.6221 19.8648 21.651C19.919 21.6801 19.9745 21.7063 20.0311 21.7297C20.0878 21.7533 20.1456 21.7741 20.2042 21.7918C20.263 21.8097 20.3224 21.8247 20.3826 21.8368C20.4428 21.8488 20.5035 21.8577 20.5645 21.8638C20.6257 21.8699 20.687 21.873 20.7482 21.873H25.1228C25.1639 21.873 25.2046 21.877 25.2449 21.885C25.2852 21.8929 25.3242 21.9049 25.3621 21.9206C25.3999 21.9362 25.4361 21.9554 25.4701 21.9784C25.5043 22.0011 25.5358 22.027 25.5649 22.0561C25.5938 22.085 25.6198 22.1165 25.6426 22.1507C25.6654 22.1849 25.6847 22.2209 25.7004 22.2587C25.7161 22.2968 25.7279 22.3358 25.7358 22.3761C25.7439 22.4164 25.7478 22.4569 25.7478 22.498V25.364C25.7498 25.3886 25.7551 25.4124 25.7637 25.4356C25.7722 25.4588 25.7838 25.4803 25.7985 25.5005C25.8129 25.5204 25.83 25.5381 25.8493 25.5534C25.8689 25.5686 25.89 25.5811 25.9128 25.5904C25.9356 25.6 25.9594 25.6061 25.9838 25.6091C26.0084 25.612 26.0328 25.6116 26.0573 25.6077C26.0817 25.6038 26.1053 25.5967 26.1277 25.5865C26.1502 25.5762 26.1708 25.5632 26.1897 25.5471L29.6805 22.0561C29.7391 21.9975 29.8067 21.9523 29.8834 21.9206C29.9599 21.8888 30.0396 21.873 30.1224 21.873H35.747C35.8082 21.873 35.8695 21.8699 35.9305 21.8638C35.9918 21.8577 36.0524 21.8488 36.1126 21.8368C36.1726 21.8247 36.2322 21.8097 36.2908 21.7918C36.3496 21.7741 36.4074 21.7533 36.464 21.7297C36.5207 21.7063 36.5763 21.6801 36.6304 21.651C36.6845 21.6221 36.737 21.5906 36.7881 21.5564C36.8391 21.5224 36.8884 21.4858 36.9358 21.4469C36.9832 21.4079 37.0285 21.3668 37.0721 21.3232C37.1154 21.2799 37.1565 21.2345 37.1956 21.1871C37.2344 21.1395 37.271 21.0903 37.3052 21.0392C37.3392 20.9884 37.3707 20.9357 37.3998 20.8816C37.4287 20.8274 37.455 20.7721 37.4786 20.7153C37.502 20.6586 37.5227 20.601 37.5406 20.5422C37.5583 20.4834 37.5734 20.424 37.5854 20.3638C37.5974 20.3035 37.6065 20.2429 37.6124 20.1819C37.6185 20.1208 37.6216 20.0596 37.6218 19.9982V9.99919ZM14.2561 8.12419L13.542 10.624H15.1238C15.1647 10.624 15.2054 10.6281 15.2457 10.636C15.286 10.6441 15.325 10.6559 15.3629 10.6716C15.4009 10.6873 15.4369 10.7066 15.4709 10.7294C15.5051 10.7522 15.5366 10.778 15.5657 10.8071C15.5946 10.8362 15.6207 10.8677 15.6434 10.9019C15.6662 10.9359 15.6854 10.9719 15.7012 11.0099C15.7169 11.0478 15.7287 11.0868 15.7366 11.1271C15.7448 11.1674 15.7486 11.2079 15.7486 11.249C15.7486 11.2901 15.7448 11.3308 15.7366 11.3709C15.7287 11.4111 15.7169 11.4502 15.7012 11.4882C15.6854 11.5261 15.6662 11.5621 15.6434 11.5963C15.6207 11.6302 15.5946 11.6618 15.5657 11.6909C15.5366 11.72 15.5051 11.7458 15.4709 11.7686C15.4369 11.7914 15.4009 11.8107 15.3629 11.8264C15.325 11.842 15.286 11.8538 15.2457 11.862C15.2054 11.8699 15.1647 11.874 15.1238 11.874H13.1849L12.6002 13.9203C12.5909 13.9526 12.5791 13.9842 12.5648 14.0147C12.5504 14.0452 12.5337 14.0743 12.5146 14.1022C12.4955 14.1298 12.4743 14.1559 12.4511 14.1803C12.4277 14.2047 12.4027 14.2271 12.3758 14.2474C12.3488 14.2678 12.3205 14.2857 12.2906 14.3014C12.2609 14.3172 12.23 14.3304 12.198 14.3412C12.1661 14.3518 12.1335 14.3599 12.1002 14.3654C12.067 14.3709 12.0334 14.3736 11.9996 14.3738C11.9413 14.3736 11.8839 14.3656 11.8275 14.35C11.7881 14.3386 11.7502 14.3235 11.7136 14.3048C11.6772 14.2861 11.6428 14.2639 11.6106 14.2385C11.5785 14.2129 11.5492 14.1846 11.5228 14.1532C11.4961 14.1219 11.4729 14.0883 11.453 14.0525C11.433 14.0165 11.4168 13.9791 11.4041 13.94C11.3915 13.901 11.383 13.8611 11.3783 13.8204C11.3734 13.7795 11.3728 13.7388 11.3761 13.6979C11.3795 13.657 11.3866 13.6167 11.3978 13.5773L11.8845 11.874H9.43515L8.85064 13.9203C8.84128 13.9526 8.82948 13.9842 8.81503 14.0147C8.80079 14.0452 8.78391 14.0743 8.76499 14.1022C8.74586 14.1298 8.7247 14.1559 8.70131 14.1803C8.67811 14.2047 8.65309 14.2271 8.62603 14.2474C8.59917 14.2678 8.57089 14.2857 8.54099 14.3014C8.51128 14.3172 8.48036 14.3304 8.44842 14.3412C8.41647 14.3518 8.38372 14.3599 8.35056 14.3654C8.31719 14.3709 8.28382 14.3736 8.25005 14.3738C8.19166 14.3736 8.13429 14.3656 8.07793 14.35C8.03846 14.3386 8.00042 14.3235 7.964 14.3048C7.92758 14.2861 7.8932 14.2639 7.86105 14.2385C7.82891 14.2129 7.79961 14.1846 7.77296 14.1532C7.74651 14.1219 7.72332 14.0883 7.70338 14.0525C7.68344 14.0165 7.66717 13.9791 7.65455 13.94C7.64194 13.901 7.63339 13.8611 7.62851 13.8204C7.62383 13.7795 7.62322 13.7388 7.62648 13.6979C7.62973 13.657 7.63705 13.6167 7.64824 13.5773L8.1349 11.874H6.37464C6.33355 11.874 6.29286 11.8699 6.25257 11.862C6.21249 11.8538 6.17323 11.842 6.13539 11.8264C6.09755 11.8107 6.06153 11.7914 6.02735 11.7686C5.99318 11.7458 5.96164 11.72 5.93275 11.6909C5.90366 11.6618 5.87782 11.6302 5.85503 11.5963C5.83225 11.5621 5.81292 11.5261 5.79725 11.4882C5.78159 11.4502 5.76958 11.4111 5.76165 11.3709C5.75371 11.3308 5.74964 11.2901 5.74964 11.249C5.74964 11.2079 5.75371 11.1674 5.76165 11.1271C5.76958 11.0868 5.78159 11.0478 5.79725 11.0099C5.81292 10.9719 5.83225 10.9359 5.85503 10.9019C5.87782 10.8677 5.90366 10.8362 5.93275 10.8071C5.96164 10.778 5.99318 10.7522 6.02735 10.7294C6.06153 10.7066 6.09755 10.6873 6.13539 10.6716C6.17323 10.6559 6.21249 10.6441 6.25257 10.636C6.29286 10.6281 6.33355 10.624 6.37464 10.624H8.49195L9.20627 8.12419H7.62444C7.58334 8.12419 7.54286 8.12032 7.50257 8.11218C7.46229 8.10425 7.42323 8.09245 7.38539 8.07678C7.34734 8.06091 7.31133 8.04179 7.27735 8.019C7.24318 7.99622 7.21164 7.97017 7.18255 7.94128C7.15345 7.91219 7.12761 7.88066 7.10483 7.84648C7.08204 7.8125 7.06271 7.77649 7.04705 7.73844C7.03138 7.7006 7.01958 7.66154 7.01144 7.62126C7.00351 7.58097 6.99944 7.54028 6.99944 7.49939C6.99944 7.45829 7.00351 7.4176 7.01144 7.37732C7.01958 7.33724 7.03138 7.29818 7.04705 7.26013C7.06271 7.22229 7.08204 7.18628 7.10483 7.1521C7.12761 7.11792 7.15345 7.08639 7.18255 7.0575C7.21164 7.0284 7.24318 7.00256 7.27735 6.97978C7.31133 6.95699 7.34734 6.93766 7.38539 6.922C7.42323 6.90633 7.46229 6.89433 7.50257 6.88639C7.54286 6.87846 7.58334 6.87439 7.62444 6.87439H9.56332L10.148 4.82808C10.1594 4.78861 10.1745 4.75077 10.1932 4.71436C10.2121 4.67794 10.2343 4.64376 10.2597 4.61182C10.2854 4.57967 10.3137 4.55058 10.345 4.52413C10.3763 4.49768 10.4099 4.47449 10.4457 4.45455C10.4815 4.43481 10.5189 4.41854 10.558 4.40613C10.5971 4.39351 10.6367 4.38497 10.6774 4.38029C10.7183 4.37561 10.759 4.375 10.7999 4.37826C10.8406 4.38171 10.8807 4.38904 10.9201 4.40023C10.9596 4.41142 10.9974 4.42647 11.0339 4.44519C11.0703 4.46391 11.1047 4.48588 11.1368 4.51131C11.169 4.53674 11.1983 4.56502 11.2247 4.59635C11.2514 4.62748 11.2745 4.66105 11.2945 4.69666C11.3144 4.73246 11.3307 4.7699 11.3433 4.80896C11.3559 4.84782 11.3647 4.8877 11.3696 4.92839C11.3742 4.96908 11.3751 5.00977 11.3718 5.05066C11.3685 5.09155 11.3614 5.13163 11.3502 5.1711L10.8636 6.87439H13.3131L13.8976 4.82808C13.909 4.78861 13.9241 4.75077 13.943 4.71436C13.9617 4.67794 13.9839 4.64376 14.0095 4.61182C14.035 4.57967 14.0634 4.55058 14.0946 4.52413C14.1259 4.49768 14.1595 4.47449 14.1953 4.45455C14.2311 4.43481 14.2685 4.41854 14.3076 4.40613C14.3467 4.39351 14.3865 4.38497 14.4272 4.38029C14.4679 4.37561 14.5086 4.375 14.5495 4.37826C14.5904 4.38171 14.6305 4.38904 14.6697 4.40023C14.7092 4.41142 14.747 4.42647 14.7837 4.44519C14.8201 4.46391 14.8543 4.48588 14.8864 4.51131C14.9185 4.53674 14.9478 4.56502 14.9745 4.59635C15.0009 4.62748 15.0241 4.66105 15.0443 4.69666C15.0642 4.73246 15.0805 4.7699 15.0931 4.80896C15.1057 4.84782 15.1145 4.8877 15.1192 4.92839C15.124 4.96908 15.1246 5.00977 15.1216 5.05066C15.1183 5.09155 15.111 5.13163 15.1 5.1711L14.6134 6.87439H16.3736C16.4147 6.87439 16.4554 6.87846 16.4955 6.88639C16.5358 6.89433 16.5748 6.90633 16.6129 6.922C16.6507 6.93766 16.6867 6.95699 16.7209 6.97978C16.7549 7.00256 16.7866 7.0284 16.8155 7.0575C16.8446 7.08639 16.8705 7.11792 16.8932 7.1521C16.916 7.18628 16.9354 7.22229 16.951 7.26013C16.9667 7.29818 16.9787 7.33724 16.9866 7.37732C16.9946 7.4176 16.9986 7.45829 16.9986 7.49939C16.9986 7.54028 16.9946 7.58097 16.9866 7.62126C16.9787 7.66154 16.9667 7.7006 16.951 7.73844C16.9354 7.77649 16.916 7.8125 16.8932 7.84648C16.8705 7.88066 16.8446 7.91219 16.8155 7.94128C16.7866 7.97017 16.7549 7.99622 16.7209 8.019C16.6867 8.04179 16.6507 8.06091 16.6129 8.07678C16.5748 8.09245 16.5358 8.10425 16.4955 8.11218C16.4554 8.12032 16.4147 8.12419 16.3736 8.12419H14.2561ZM12.9559 8.12419H10.5065L9.79221 10.624H12.2418L12.9559 8.12419ZM33.872 14.9986V18.7484C33.872 18.8096 33.8689 18.8708 33.8628 18.9321C33.8567 18.9931 33.8478 19.0538 33.8358 19.114C33.8238 19.1742 33.8087 19.2336 33.7908 19.2924C33.7731 19.351 33.7524 19.4088 33.7288 19.4655C33.7054 19.5221 33.6791 19.5776 33.65 19.6318C33.6211 19.6859 33.5896 19.7384 33.5554 19.7894C33.5215 19.8405 33.4848 19.8897 33.446 19.9371C33.4069 19.9845 33.3658 20.0301 33.3223 20.0734C33.2789 20.1168 33.2336 20.1581 33.1862 20.1969C33.1386 20.236 33.0893 20.2724 33.0383 20.3066C32.9874 20.3406 32.9347 20.3721 32.8806 20.4012C32.8265 20.4301 32.7711 20.4563 32.7144 20.4799C32.6576 20.5033 32.6 20.5241 32.5412 20.542C32.4824 20.5599 32.423 20.5747 32.3628 20.5868C32.3026 20.5988 32.242 20.6079 32.1809 20.614C32.1199 20.6199 32.0586 20.6232 31.9972 20.6232H28.8726C28.6433 20.6211 28.4151 20.604 28.188 20.5717C27.9609 20.5396 27.7372 20.4926 27.5164 20.4305C27.2955 20.3687 27.0798 20.2924 26.869 20.2018C26.6585 20.1113 26.4546 20.0073 26.2579 19.8897C26.2332 19.9441 26.2048 19.9961 26.1728 20.0464C26.1407 20.0966 26.1051 20.1442 26.0662 20.1894C26.0274 20.2346 25.9854 20.2767 25.9405 20.316C25.8955 20.355 25.8481 20.3908 25.7981 20.4232C25.748 20.4553 25.6959 20.484 25.6418 20.5088C25.5875 20.5339 25.532 20.5548 25.4748 20.5717C25.4176 20.5886 25.3596 20.6014 25.3006 20.6099C25.2418 20.6187 25.1824 20.623 25.1228 20.6232H23.873C23.8321 20.6232 23.7912 20.6211 23.7505 20.6171C23.7099 20.613 23.6694 20.6069 23.6293 20.599C23.5892 20.5908 23.5495 20.5809 23.5103 20.5691C23.4712 20.557 23.4328 20.5432 23.3949 20.5275C23.3571 20.5119 23.3202 20.4944 23.284 20.4751C23.248 20.4557 23.213 20.4348 23.179 20.412C23.1449 20.3892 23.1121 20.365 23.0806 20.3389C23.0488 20.3129 23.0185 20.2854 22.9896 20.2566C22.9607 20.2277 22.9333 20.1973 22.9072 20.1658C22.8814 20.1341 22.857 20.1013 22.8342 20.0673C22.8114 20.0332 22.7905 19.9982 22.7711 19.9622C22.7518 19.9261 22.7343 19.8891 22.7186 19.8513C22.703 19.8134 22.6891 19.775 22.6773 19.7359C22.6653 19.6967 22.6554 19.6572 22.6474 19.6169C22.6393 19.5768 22.6334 19.5365 22.6293 19.4956C22.6253 19.455 22.6232 19.4143 22.623 19.3732V13.7488C22.6232 13.7079 22.6253 13.667 22.6293 13.6263C22.6334 13.5856 22.6393 13.5451 22.6474 13.505C22.6554 13.465 22.6653 13.4253 22.6773 13.3862C22.6891 13.347 22.703 13.3085 22.7186 13.2707C22.7343 13.2328 22.7518 13.196 22.7711 13.16C22.7905 13.1238 22.8114 13.0888 22.8342 13.0548C22.857 13.0208 22.8814 12.9879 22.9072 12.9563C22.9333 12.9246 22.9607 12.8943 22.9896 12.8654C23.0185 12.8365 23.0488 12.809 23.0806 12.783C23.1121 12.7572 23.1449 12.7327 23.179 12.71C23.213 12.6874 23.248 12.6662 23.284 12.6469C23.3202 12.6276 23.3571 12.6101 23.3949 12.5944C23.4328 12.5787 23.4712 12.5649 23.5103 12.5531C23.5495 12.5411 23.5892 12.5311 23.6293 12.5232C23.6694 12.5151 23.7099 12.5092 23.7505 12.5051C23.7912 12.501 23.8321 12.499 23.873 12.499H25.1228C25.1946 12.499 25.2658 12.5053 25.3366 12.5177C25.4072 12.5301 25.4764 12.5484 25.544 12.5726C25.6115 12.5968 25.6766 12.6267 25.7391 12.6624C25.8013 12.6978 25.8603 12.7382 25.9157 12.7838C25.9712 12.8294 26.0223 12.8794 26.0693 12.934C26.1161 12.9883 26.1578 13.0463 26.1948 13.1079C26.2316 13.1696 26.263 13.2338 26.2886 13.3008C26.3144 13.3677 26.3344 13.4365 26.3484 13.5069C26.4975 13.4043 26.6345 13.2876 26.7592 13.1561C26.8841 13.0322 26.9972 12.8984 27.0983 12.7541C27.1994 12.6101 27.2869 12.4579 27.3606 12.2982C27.4344 12.1383 27.4934 11.9733 27.5378 11.8028C27.5819 11.6323 27.6106 11.4594 27.6238 11.2838C27.6157 11.1605 27.6198 11.0376 27.6364 10.9149C27.6531 10.7924 27.682 10.673 27.7229 10.5562C27.764 10.4397 27.8163 10.3282 27.8798 10.2222C27.9435 10.1162 28.0169 10.0177 28.1005 9.92655C28.1911 9.83419 28.2903 9.7522 28.3982 9.68058C28.506 9.60917 28.6201 9.54956 28.7404 9.50195C28.8606 9.45435 28.9847 9.41996 29.1123 9.3984C29.2398 9.37683 29.3682 9.36869 29.4974 9.37419C29.5652 9.37581 29.6323 9.38192 29.699 9.39229C29.7658 9.40267 29.8317 9.41711 29.8966 9.43604C29.9617 9.45475 30.0252 9.47774 30.087 9.5046C30.1491 9.53166 30.2091 9.56238 30.2671 9.59696C30.3252 9.63175 30.3808 9.67 30.4339 9.71171C30.487 9.75342 30.5372 9.79858 30.5846 9.8468C30.6321 9.89502 30.6762 9.94609 30.7169 10C30.7578 10.0539 30.795 10.1101 30.8286 10.1689C30.8878 10.2814 30.9411 10.3965 30.9883 10.5145C31.0357 10.6327 31.0766 10.753 31.1114 10.8752C31.1462 10.9975 31.1744 11.1214 31.1962 11.2465C31.2182 11.3719 31.2334 11.498 31.2422 11.6248C31.2509 11.7517 31.2532 11.8787 31.2487 12.0058C31.2442 12.1328 31.2332 12.2593 31.2155 12.3853C31.1978 12.5112 31.1738 12.6359 31.1431 12.7594C31.1126 12.8827 31.0756 13.0042 31.0324 13.1238H31.9972C32.0586 13.124 32.1199 13.127 32.1809 13.1331C32.242 13.139 32.3026 13.1482 32.3628 13.1602C32.423 13.1722 32.4824 13.1873 32.5412 13.205C32.6 13.2229 32.6576 13.2436 32.7144 13.267C32.7711 13.2906 32.8265 13.3169 32.8806 13.3457C32.9347 13.3748 32.9874 13.4064 33.0385 13.4403C33.0893 13.4745 33.1386 13.5111 33.1862 13.55C33.2336 13.5891 33.2789 13.6302 33.3223 13.6735C33.3658 13.717 33.4069 13.7624 33.446 13.8098C33.4848 13.8572 33.5215 13.9065 33.5554 13.9575C33.5896 14.0086 33.6211 14.0611 33.65 14.1152C33.6791 14.1693 33.7054 14.2249 33.7288 14.2814C33.7524 14.3382 33.7731 14.396 33.7908 14.4548C33.8087 14.5133 33.8238 14.5728 33.8358 14.633C33.8478 14.6932 33.8567 14.7538 33.8628 14.8149C33.8689 14.8761 33.872 14.9373 33.872 14.9986ZM25.124 19.3732L25.1228 13.7488H23.873V19.3732H25.124ZM32.6222 14.9986C32.6222 14.9577 32.6181 14.917 32.6102 14.8767C32.6021 14.8366 32.5903 14.7976 32.5746 14.7595C32.5587 14.7217 32.5396 14.6857 32.5168 14.6515C32.494 14.6175 32.468 14.586 32.4391 14.5569C32.41 14.5278 32.3785 14.502 32.3443 14.4792C32.3103 14.4564 32.2743 14.4371 32.2363 14.4214C32.1984 14.4057 32.1594 14.3939 32.1191 14.3858C32.079 14.3778 32.0383 14.3738 31.9972 14.3738H30.1224C30.0962 14.3738 30.0699 14.3722 30.0439 14.3687C30.0176 14.3654 29.992 14.3606 29.9664 14.354C29.9409 14.3473 29.9159 14.3392 29.8915 14.3296C29.8671 14.3199 29.8433 14.3087 29.8203 14.2959C29.7973 14.2832 29.7751 14.269 29.754 14.2535C29.7326 14.2381 29.7125 14.2212 29.6933 14.2031C29.6742 14.1852 29.6563 14.1659 29.6396 14.1455C29.6229 14.1252 29.6075 14.104 29.5934 14.0816C29.5794 14.0594 29.567 14.0363 29.5558 14.0125C29.5446 13.9886 29.5352 13.9642 29.5271 13.939C29.5192 13.914 29.5127 13.8886 29.508 13.8627C29.5031 13.8369 29.5001 13.8108 29.4984 13.7844C29.497 13.7581 29.4972 13.7319 29.499 13.7056C29.5009 13.6794 29.5043 13.6534 29.5094 13.6275C29.5145 13.6017 29.5212 13.5765 29.5296 13.5514C29.5379 13.5264 29.5477 13.5022 29.5591 13.4784C30.1194 12.3104 30.0693 11.3088 29.7702 10.8346C29.7208 10.7558 29.6195 10.624 29.4974 10.624C29.4083 10.616 29.3212 10.6262 29.2364 10.6543C29.1513 10.6824 29.0755 10.7263 29.0087 10.7857C28.9581 10.8451 28.9208 10.9119 28.897 10.9861C28.8732 11.0606 28.8647 11.1365 28.8714 11.2142C28.8651 11.4752 28.834 11.7334 28.7782 11.9885C28.7225 12.2434 28.6431 12.491 28.54 12.7309C28.4368 12.9708 28.3119 13.1986 28.165 13.4147C28.0183 13.6306 27.8523 13.8308 27.6672 14.0149C27.4904 14.21 27.2924 14.3809 27.0733 14.5272C26.8544 14.6735 26.6208 14.7911 26.3728 14.88V18.4619C26.5492 18.6035 26.736 18.7297 26.9331 18.8407C27.1303 18.9518 27.3349 19.046 27.5475 19.1235C27.7601 19.201 27.9774 19.2607 28.1998 19.3026C28.4222 19.3445 28.6464 19.3681 28.8726 19.3732H31.9972C32.0383 19.3732 32.079 19.3693 32.1191 19.3612C32.1594 19.3532 32.1984 19.3412 32.2363 19.3256C32.2743 19.3099 32.3103 19.2906 32.3443 19.2678C32.3785 19.245 32.41 19.2192 32.4391 19.1901C32.468 19.1612 32.494 19.1294 32.5168 19.0955C32.5396 19.0613 32.5587 19.0253 32.5746 18.9874C32.5903 18.9496 32.6021 18.9105 32.6102 18.8702C32.6181 18.83 32.6222 18.7893 32.6222 18.7484V14.9986ZM18.8734 28.7474C18.8734 28.8293 18.8694 28.9109 18.8612 28.9923C18.8531 29.0739 18.8411 29.1547 18.825 29.2348C18.8089 29.3152 18.789 29.3945 18.7652 29.4729C18.7414 29.5512 18.7139 29.6281 18.6826 29.7036C18.6511 29.7793 18.6161 29.8531 18.5776 29.9253C18.539 29.9976 18.4968 30.0675 18.4515 30.1357C18.4059 30.2037 18.3573 30.2694 18.3052 30.3326C18.2533 30.3959 18.1984 30.4563 18.1406 30.5143C18.0826 30.5721 18.0222 30.627 17.9589 30.6789C17.8956 30.731 17.8299 30.7796 17.762 30.8252C17.6938 30.8706 17.6236 30.9127 17.5516 30.9513C17.4794 30.99 17.4055 31.0248 17.3298 31.0563C17.2544 31.0876 17.1773 31.1151 17.0991 31.1389C17.0208 31.1627 16.9415 31.1827 16.8611 31.1987C16.7809 31.2148 16.7 31.2268 16.6186 31.2349C16.5372 31.2431 16.4554 31.2472 16.3736 31.2472V35.6217C16.3736 35.6557 16.371 35.6895 16.3655 35.7229C16.36 35.7564 16.3519 35.7892 16.3409 35.8213C16.3301 35.8537 16.3167 35.8846 16.3008 35.9147C16.2849 35.9446 16.2666 35.9731 16.2461 36.0002C16.2255 36.0272 16.2029 36.0522 16.1783 36.0756C16.1537 36.099 16.1272 36.1202 16.0992 36.1391C16.0711 36.1582 16.0416 36.1749 16.0109 36.1892C15.9802 36.2034 15.9482 36.215 15.9157 36.2242C15.8829 36.2331 15.8497 36.2394 15.816 36.2431C15.7822 36.2467 15.7484 36.2478 15.7144 36.2457C15.6807 36.2439 15.6471 36.2394 15.6139 36.2321C15.5808 36.2248 15.5484 36.2148 15.5169 36.2022C15.4854 36.1896 15.455 36.1745 15.426 36.157C15.3971 36.1395 15.3696 36.1198 15.3438 36.0978C15.3179 36.0756 15.2939 36.0518 15.2719 36.026C15.25 36 15.2304 35.9725 15.2129 35.9434C15.1468 35.8364 13.5444 33.3521 8.87444 33.1425V36.5592C8.87444 36.6309 8.87078 36.7023 8.86386 36.7737C8.85674 36.8449 8.84637 36.9157 8.83233 36.9859C8.81829 37.0563 8.801 37.1257 8.78024 37.1942C8.75929 37.2628 8.73528 37.3301 8.70782 37.3962C8.68035 37.4624 8.64983 37.5271 8.61606 37.5903C8.58229 37.6534 8.54546 37.7148 8.50579 37.7745C8.46591 37.8341 8.42339 37.8914 8.37782 37.9468C8.33245 38.0021 8.28444 38.0552 8.23378 38.1059C8.18312 38.1565 8.13002 38.2046 8.07468 38.2499C8.01934 38.2955 7.96176 38.338 7.90215 38.3779C7.84274 38.4178 7.7813 38.4544 7.71803 38.4882C7.65496 38.5219 7.59026 38.5527 7.52414 38.5799C7.45782 38.6074 7.39047 38.6316 7.32191 38.6523C7.25335 38.6731 7.18397 38.6906 7.11378 38.7044C7.04359 38.7185 6.97279 38.729 6.90138 38.736C6.83017 38.7431 6.75876 38.7465 6.68714 38.7465C6.61533 38.7465 6.54392 38.7431 6.47271 38.736C6.4013 38.729 6.3305 38.7185 6.26031 38.7044C6.19011 38.6906 6.12074 38.6731 6.05218 38.6523C5.98361 38.6316 5.91627 38.6074 5.84995 38.5799C5.78382 38.5527 5.71913 38.5219 5.65606 38.4882C5.59278 38.4544 5.53134 38.4178 5.47193 38.3779C5.41232 38.338 5.35475 38.2955 5.29941 38.2499C5.24407 38.2046 5.19097 38.1565 5.14031 38.1059C5.08965 38.0552 5.04164 38.0021 4.99627 37.9468C4.95069 37.8914 4.90817 37.8341 4.8683 37.7745C4.82862 37.7148 4.7918 37.6534 4.75803 37.5903C4.72425 37.5271 4.69374 37.4624 4.66627 37.3962C4.6388 37.3301 4.6148 37.2628 4.59384 37.1942C4.57309 37.1257 4.5558 37.0563 4.54176 36.9859C4.52772 36.9157 4.51734 36.8449 4.51022 36.7737C4.50331 36.7023 4.49964 36.6309 4.49964 36.5592V32.9378C4.37513 32.9006 4.25245 32.8581 4.1316 32.8099C4.01075 32.7618 3.89234 32.7085 3.77638 32.6499C3.66021 32.5911 3.54709 32.5275 3.43662 32.4589C3.32635 32.3901 3.21913 32.3165 3.11537 32.2384C3.01161 32.16 2.91131 32.0772 2.81487 31.99C2.71844 31.9029 2.62607 31.8115 2.53777 31.7161C2.44947 31.6205 2.36565 31.5214 2.28631 31.4185C2.20676 31.3155 2.13209 31.2093 2.0621 31.0997C1.99212 30.99 1.92722 30.8775 1.8672 30.7621C1.80738 30.6468 1.75266 30.529 1.70322 30.4087C1.65378 30.2883 1.60983 30.1662 1.57138 30.0419C1.53273 29.9178 1.49997 29.7921 1.4725 29.6649C1.44524 29.5378 1.42368 29.4098 1.40781 29.2808C1.39194 29.1516 1.38177 29.0222 1.37749 28.8922C1.37302 28.7622 1.37464 28.6324 1.38177 28.5026C1.38909 28.3726 1.40211 28.2434 1.42083 28.1148C1.43955 27.986 1.46416 27.8585 1.49427 27.7321C1.52438 27.6056 1.56019 27.4807 1.60149 27.3574C1.64279 27.2341 1.68938 27.1128 1.74147 26.9938C1.79355 26.8746 1.85092 26.758 1.91338 26.6441C1.97584 26.5299 2.04339 26.4191 2.11581 26.311C2.18824 26.203 2.26535 26.0984 2.34693 25.9973C2.42872 25.8962 2.51478 25.799 2.60532 25.7054C2.69565 25.612 2.79005 25.5227 2.88832 25.4376C2.98679 25.3526 3.08872 25.2722 3.19431 25.1961C3.2999 25.1202 3.40854 25.0492 3.52044 24.9829C3.63233 24.9166 3.74688 24.8556 3.86427 24.7996C3.98166 24.7435 4.10129 24.6928 4.22316 24.6474C4.34502 24.6021 4.46852 24.5622 4.59405 24.528C4.71937 24.4936 4.84612 24.4649 4.97409 24.4419C5.10206 24.4189 5.23085 24.4017 5.36024 24.3901C5.48984 24.3785 5.61964 24.3728 5.74964 24.3728H8.24944C13.41 24.3728 15.144 21.663 15.2148 21.5476C15.2327 21.519 15.2526 21.4919 15.2748 21.4665C15.2972 21.441 15.3212 21.4174 15.3472 21.3959C15.3733 21.3743 15.4009 21.355 15.43 21.3379C15.4591 21.3206 15.4894 21.306 15.521 21.2937C15.5525 21.2813 15.5848 21.2718 15.6178 21.2647C15.651 21.2575 15.6843 21.2533 15.7181 21.2516C15.7519 21.2498 15.7855 21.2508 15.8192 21.2545C15.8528 21.2583 15.8858 21.2647 15.9183 21.2738C15.9509 21.2828 15.9824 21.2946 16.0129 21.3088C16.0436 21.323 16.0729 21.3395 16.1008 21.3586C16.1287 21.3776 16.1547 21.3987 16.1793 21.4219C16.2037 21.4451 16.2261 21.4701 16.2467 21.497C16.267 21.5238 16.2851 21.5521 16.301 21.582C16.3167 21.6117 16.3301 21.6427 16.3409 21.6746C16.3517 21.7065 16.3598 21.7393 16.3653 21.7725C16.3708 21.8058 16.3736 21.8394 16.3736 21.873V26.2476C16.4554 26.2478 16.5372 26.2518 16.6186 26.26C16.7 26.2679 16.7809 26.2801 16.8611 26.2962C16.9415 26.3121 17.0208 26.332 17.0991 26.3558C17.1773 26.3796 17.2544 26.4073 17.3298 26.4386C17.4055 26.4699 17.4794 26.5049 17.5516 26.5436C17.6236 26.5822 17.6938 26.6241 17.762 26.6697C17.8299 26.7151 17.8956 26.7639 17.9589 26.8158C18.0222 26.8677 18.0826 26.9226 18.1406 26.9806C18.1984 27.0384 18.2533 27.099 18.3052 27.1623C18.3573 27.2255 18.4059 27.2913 18.4515 27.3592C18.4968 27.4272 18.539 27.4974 18.5776 27.5696C18.6161 27.6416 18.6511 27.7157 18.6826 27.7911C18.7139 27.8668 18.7414 27.9437 18.7652 28.0221C18.789 28.1004 18.8089 28.1797 18.825 28.2599C18.8411 28.3403 18.8531 28.421 18.8612 28.5024C18.8694 28.584 18.8734 28.6656 18.8734 28.7474ZM5.74964 31.8722H7.62444V25.6228H5.74964C5.64731 25.6228 5.54518 25.6276 5.44345 25.6378C5.34152 25.6478 5.24041 25.6628 5.14011 25.6828C5.0396 25.7027 4.94052 25.7275 4.84266 25.7572C4.7446 25.7869 4.64837 25.8213 4.55376 25.8606C4.45936 25.8997 4.36699 25.9434 4.27666 25.9916C4.18633 26.0398 4.09864 26.0925 4.0136 26.1493C3.92856 26.2063 3.84636 26.2671 3.76743 26.332C3.68828 26.3969 3.6124 26.4655 3.54017 26.5379C3.46774 26.6103 3.39918 26.686 3.33428 26.7651C3.26918 26.8443 3.20834 26.9263 3.15158 27.0113C3.09462 27.0966 3.04212 27.1842 2.99391 27.2744C2.94569 27.3647 2.90195 27.4571 2.86268 27.5517C2.82362 27.6463 2.78924 27.7425 2.75953 27.8404C2.72983 27.9382 2.70501 28.0375 2.68487 28.1378C2.66493 28.2381 2.65008 28.3392 2.6399 28.4412C2.62993 28.5429 2.62485 28.645 2.62485 28.7474C2.62485 28.8497 2.62993 28.9518 2.6399 29.0538C2.65008 29.1555 2.66493 29.2566 2.68487 29.3571C2.70501 29.4574 2.72983 29.5565 2.75953 29.6545C2.78924 29.7524 2.82362 29.8486 2.86268 29.9432C2.90195 30.0376 2.94569 30.1302 2.99391 30.2203C3.04212 30.3107 3.09462 30.3984 3.15158 30.4834C3.20834 30.5684 3.26918 30.6506 3.33428 30.7298C3.39918 30.8089 3.46774 30.8846 3.54017 30.9568C3.6124 31.0293 3.68828 31.098 3.76743 31.1629C3.84636 31.2278 3.92856 31.2887 4.0136 31.3454C4.09864 31.4024 4.18633 31.4549 4.27666 31.5031C4.36699 31.5513 4.45936 31.5951 4.55376 31.6343C4.64837 31.6734 4.7446 31.708 4.84266 31.7377C4.94052 31.7674 5.0396 31.7922 5.14011 31.8121C5.24041 31.8321 5.34152 31.8471 5.44345 31.8571C5.54518 31.8671 5.64731 31.8722 5.74964 31.8722ZM7.62444 36.5592V33.122H5.74964V36.5592C5.74964 36.59 5.75107 36.6205 5.75412 36.651C5.75717 36.6817 5.76165 36.712 5.76755 36.7421C5.77365 36.7723 5.78118 36.802 5.78993 36.8313C5.79888 36.8608 5.80926 36.8896 5.82106 36.9179C5.83265 36.9462 5.84588 36.9741 5.86032 37.0011C5.87477 37.0282 5.89064 37.0544 5.90752 37.0801C5.92461 37.1055 5.94292 37.1301 5.96245 37.1539C5.98199 37.1775 6.00253 37.2003 6.0241 37.2221C6.04587 37.2439 6.06866 37.2644 6.09226 37.2839C6.11606 37.3033 6.14068 37.3216 6.16631 37.3387C6.19174 37.3558 6.21799 37.3714 6.24525 37.3859C6.27231 37.4003 6.29998 37.4135 6.32826 37.4253C6.35674 37.4369 6.38563 37.4473 6.41493 37.4563C6.44422 37.4652 6.47413 37.4725 6.50424 37.4786C6.53435 37.4845 6.56467 37.489 6.59518 37.4921C6.6257 37.4951 6.65642 37.4965 6.68714 37.4965C6.71766 37.4965 6.74838 37.4951 6.7789 37.4921C6.80942 37.489 6.83973 37.4845 6.86984 37.4786C6.89995 37.4725 6.92986 37.4652 6.95916 37.4563C6.98845 37.4473 7.01734 37.4369 7.04583 37.4253C7.07411 37.4135 7.10178 37.4003 7.12904 37.3859C7.1561 37.3714 7.18234 37.3558 7.20777 37.3387C7.23341 37.3216 7.25803 37.3033 7.28183 37.2839C7.30543 37.2644 7.32822 37.2439 7.34999 37.2221C7.37155 37.2003 7.3921 37.1775 7.41163 37.1539C7.43116 37.1301 7.44947 37.1055 7.46656 37.0801C7.48345 37.0544 7.49932 37.0282 7.51376 37.0011C7.52821 36.9741 7.54143 36.9462 7.55303 36.9179C7.56483 36.8896 7.57521 36.8608 7.58416 36.8313C7.59291 36.802 7.60043 36.7723 7.60654 36.7421C7.61244 36.712 7.61691 36.6817 7.61997 36.651C7.62302 36.6205 7.62444 36.59 7.62444 36.5592ZM15.1238 23.4605C14.0232 24.3776 12.0432 25.4643 8.87444 25.5965V31.8982C12.0432 32.0304 14.0232 33.1171 15.1238 34.0344V23.4605ZM17.6236 28.7474C17.6234 28.7065 17.6214 28.6658 17.6173 28.6249C17.6133 28.5842 17.6074 28.5439 17.5992 28.5036C17.5913 28.4635 17.5813 28.4239 17.5693 28.3848C17.5575 28.3455 17.5437 28.3071 17.528 28.2695C17.5123 28.2316 17.4948 28.1946 17.4755 28.1586C17.4562 28.1226 17.4352 28.0874 17.4124 28.0534C17.3897 28.0194 17.3652 27.9867 17.3394 27.9549C17.3134 27.9234 17.2859 27.8931 17.257 27.8642C17.2281 27.8351 17.1978 27.8076 17.1661 27.7818C17.1345 27.7557 17.1018 27.7313 17.0676 27.7087C17.0336 27.686 16.9986 27.665 16.9626 27.6457C16.9264 27.6263 16.8896 27.6088 16.8517 27.5932C16.8139 27.5775 16.7754 27.5637 16.7364 27.5517C16.6971 27.5399 16.6574 27.5299 16.6174 27.5218C16.5773 27.5138 16.5368 27.5077 16.4961 27.5037C16.4554 27.4996 16.4145 27.4976 16.3736 27.4976V29.9974C16.4145 29.9972 16.4554 29.9951 16.4961 29.991C16.5368 29.9872 16.5773 29.9811 16.6174 29.9729C16.6574 29.965 16.6971 29.955 16.7364 29.943C16.7754 29.9312 16.8139 29.9174 16.8517 29.9017C16.8896 29.8861 16.9264 29.8686 16.9626 29.8492C16.9986 29.8299 17.0336 29.809 17.0676 29.7862C17.1018 29.7634 17.1345 29.739 17.1661 29.7131C17.1978 29.6871 17.2281 29.6596 17.257 29.6307C17.2859 29.6018 17.3134 29.5715 17.3394 29.54C17.3652 29.5083 17.3897 29.4755 17.4124 29.4415C17.4352 29.4074 17.4562 29.3724 17.4755 29.3363C17.4948 29.3001 17.5123 29.2633 17.528 29.2255C17.5437 29.1876 17.5575 29.1492 17.5693 29.1101C17.5813 29.0708 17.5913 29.0312 17.5992 28.9911C17.6074 28.951 17.6133 28.9105 17.6173 28.8698C17.6214 28.8291 17.6234 28.7882 17.6236 28.7474ZM22.623 28.1226H20.7482C20.7073 28.1226 20.6666 28.1264 20.6264 28.1346C20.5861 28.1425 20.547 28.1543 20.5092 28.17C20.4711 28.1858 20.4351 28.205 20.4011 28.2277C20.367 28.2505 20.3354 28.2766 20.3063 28.3055C20.2774 28.3346 20.2514 28.3661 20.2286 28.4003C20.2058 28.4342 20.1867 28.4703 20.1708 28.5083C20.1552 28.5461 20.1434 28.5852 20.1354 28.6255C20.1273 28.6658 20.1234 28.7065 20.1234 28.7474C20.1234 28.7885 20.1273 28.8291 20.1354 28.8694C20.1434 28.9095 20.1552 28.9486 20.1708 28.9866C20.1867 29.0245 20.2058 29.0605 20.2286 29.0946C20.2514 29.1288 20.2774 29.1604 20.3063 29.1893C20.3354 29.2183 20.367 29.2442 20.4011 29.267C20.4351 29.2898 20.4711 29.3091 20.5092 29.3247C20.547 29.3404 20.5861 29.3524 20.6264 29.3604C20.6666 29.3683 20.7073 29.3724 20.7482 29.3724H22.623C22.6641 29.3724 22.7048 29.3683 22.7451 29.3604C22.7852 29.3524 22.8244 29.3404 22.8623 29.3247C22.9001 29.3091 22.9361 29.2898 22.9703 29.267C23.0045 29.2442 23.036 29.2183 23.0649 29.1893C23.094 29.1604 23.1198 29.1288 23.1426 29.0946C23.1654 29.0605 23.1847 29.0245 23.2004 28.9866C23.2161 28.9486 23.2281 28.9095 23.236 28.8694C23.2439 28.8291 23.248 28.7885 23.248 28.7474C23.248 28.7065 23.2439 28.6658 23.236 28.6255C23.2281 28.5852 23.2161 28.5461 23.2004 28.5083C23.1847 28.4703 23.1654 28.4342 23.1426 28.4003C23.1198 28.3661 23.094 28.3346 23.0649 28.3055C23.036 28.2766 23.0045 28.2505 22.9703 28.2277C22.9361 28.205 22.9001 28.1858 22.8623 28.17C22.8244 28.1543 22.7852 28.1425 22.7451 28.1346C22.7048 28.1264 22.6641 28.1226 22.623 28.1226ZM22.8208 31.2795L20.946 30.6545C20.9071 30.6415 20.8672 30.6323 20.8265 30.627C20.7857 30.6217 20.7448 30.6207 20.7039 30.6234C20.663 30.6262 20.6225 30.6331 20.583 30.6439C20.5433 30.6547 20.5051 30.6691 20.4683 30.6875C20.4314 30.7058 20.3969 30.7275 20.3643 30.7528C20.332 30.7778 20.3023 30.8059 20.2752 30.837C20.2483 30.8679 20.2245 30.9013 20.2042 30.9369C20.1838 30.9727 20.1672 31.0099 20.1541 31.049C20.1411 31.0879 20.1322 31.1277 20.1269 31.1686C20.1218 31.2093 20.1208 31.2502 20.1236 31.2911C20.1267 31.3322 20.1334 31.3725 20.1444 31.4122C20.1552 31.4516 20.1698 31.4899 20.1883 31.5267C20.2066 31.5633 20.2286 31.5979 20.2538 31.6303C20.2791 31.6628 20.3071 31.6925 20.3383 31.7194C20.3692 31.7462 20.4028 31.7698 20.4384 31.79C20.4742 31.8103 20.5116 31.8268 20.5505 31.8398L22.4253 32.4648C22.4643 32.4776 22.504 32.4866 22.5447 32.4917C22.5854 32.4967 22.6261 32.4978 22.667 32.4947C22.7077 32.4917 22.7479 32.4847 22.7874 32.474C22.8269 32.4632 22.8649 32.4485 22.9015 32.4302C22.9382 32.4117 22.9725 32.3901 23.0049 32.3649C23.0372 32.3399 23.0669 32.3118 23.0936 32.2809C23.1205 32.25 23.1441 32.2166 23.1644 32.181C23.1845 32.1454 23.2012 32.1082 23.2142 32.0693C23.2273 32.0304 23.2362 31.9908 23.2413 31.9501C23.2466 31.9096 23.2476 31.8687 23.2448 31.828C23.2419 31.7871 23.2352 31.7468 23.2244 31.7074C23.2136 31.6679 23.199 31.6298 23.1809 31.5932C23.1626 31.5564 23.141 31.522 23.1158 31.4895C23.0907 31.4571 23.0629 31.4274 23.032 31.4006C23.001 31.3737 22.9679 31.3501 22.9323 31.3298C22.8969 31.3094 22.8596 31.2925 22.8208 31.2795ZM20.7482 26.8726C20.816 26.8726 20.8819 26.8618 20.946 26.8402L22.8208 26.2152C22.8598 26.2024 22.8973 26.1857 22.9329 26.1656C22.9687 26.1452 23.002 26.1216 23.0332 26.0948C23.0643 26.0679 23.0924 26.0382 23.1176 26.0059C23.1428 25.9735 23.1646 25.9389 23.1831 25.9021C23.2014 25.8655 23.2161 25.8272 23.2271 25.7876C23.2378 25.7479 23.2448 25.7076 23.2476 25.6667C23.2507 25.6256 23.2494 25.5849 23.2444 25.544C23.2393 25.5033 23.2301 25.4635 23.2171 25.4244C23.2041 25.3855 23.1874 25.3481 23.167 25.3125C23.1467 25.2769 23.1231 25.2435 23.096 25.2124C23.0692 25.1815 23.0395 25.1534 23.0069 25.1282C22.9746 25.1032 22.9398 25.0814 22.9032 25.0631C22.8663 25.0448 22.8281 25.0301 22.7884 25.0193C22.7488 25.0085 22.7085 25.0018 22.6676 24.999C22.6265 24.9961 22.5856 24.9974 22.5449 25.0026C22.5042 25.0077 22.4643 25.0171 22.4253 25.0301L20.5505 25.6551C20.5157 25.6667 20.4821 25.6814 20.4498 25.6989C20.4174 25.7166 20.3869 25.7367 20.3582 25.7597C20.3293 25.7827 20.3029 25.8081 20.2787 25.8358C20.2544 25.8634 20.2327 25.8929 20.2138 25.9245C20.1946 25.956 20.1786 25.9888 20.1653 26.0232C20.1521 26.0575 20.1419 26.0927 20.135 26.1289C20.1279 26.165 20.1242 26.2014 20.1236 26.2382C20.123 26.275 20.1257 26.3116 20.1316 26.3479C20.1375 26.3843 20.1466 26.4197 20.1588 26.4545C20.171 26.4893 20.1861 26.5226 20.2042 26.5546C20.2223 26.5867 20.2428 26.6168 20.2662 26.6453C20.2898 26.6736 20.3155 26.6998 20.3436 26.7236C20.3714 26.7474 20.4013 26.7686 20.4333 26.7873C20.465 26.8058 20.4982 26.8215 20.5326 26.8341C20.5672 26.8469 20.6026 26.8565 20.6388 26.8628C20.675 26.8693 20.7114 26.8726 20.7482 26.8726Z" fill="#876FFD"/>
</g>
</svg>
