<svg width="40" height="40" viewBox="0 0 40 40" fill="none" xmlns="http://www.w3.org/2000/svg">
<mask id="mask0_5487_2567" style="mask-type:luminance" maskUnits="userSpaceOnUse" x="1" y="1" width="38" height="38">
<path d="M1.34766 1.30078H38.6523V38.6966H1.34766V1.30078Z" fill="white"/>
</mask>
<g mask="url(#mask0_5487_2567)">
<path d="M38.1873 19.5625H36.3916C36.1599 10.8159 29.151 3.74927 20.4624 3.51754V1.77987C20.4624 1.54814 20.2887 1.31641 19.9992 1.31641C19.7675 1.31641 19.5357 1.49015 19.5357 1.77987V3.51754C10.8472 3.74927 3.8385 10.8159 3.66475 19.5625H1.81112C1.57939 19.5625 1.34766 19.7362 1.34766 20.0257C1.34766 20.3154 1.5214 20.4892 1.81112 20.4892H3.60677C3.89628 29.1198 10.9052 36.0706 19.5357 36.3024V38.2138C19.5357 38.4455 19.7095 38.6772 19.9992 38.6772C20.2309 38.6772 20.4624 38.5035 20.4624 38.2138V36.3024C29.0932 36.0706 36.1019 29.1198 36.3916 20.4892H38.1873C38.4188 20.4892 38.6505 20.3154 38.6505 20.0259C38.6505 19.7362 38.4188 19.5625 38.1873 19.5625ZM35.4647 19.5625H34.0167C33.843 12.0903 27.8768 6.06616 20.4624 5.83443V4.38647C28.6877 4.6182 35.2909 11.2794 35.4647 19.5625ZM30.9467 20.4312H33.1478C32.8583 27.3243 27.2976 32.827 20.4047 33.0586V30.9734C20.4047 30.7417 20.2309 30.5099 19.9412 30.5099C19.7095 30.5099 19.4777 30.6837 19.4777 30.9734V33.0586C12.5848 32.827 7.02413 27.3243 6.73462 20.4312H8.93575C9.16748 20.4312 9.39901 20.2574 9.39901 19.9679C9.39901 19.6782 9.22526 19.5045 8.93575 19.5045H6.73462C6.90837 12.5536 12.5271 6.87712 19.4777 6.64539V8.96248C19.4777 9.19401 19.6517 9.42574 19.9412 9.42574C20.1729 9.42574 20.4047 9.25199 20.4047 8.96248V6.64539C27.3553 6.87712 32.974 12.4958 33.1478 19.5045H30.9467C30.7149 19.5045 30.4834 19.6782 30.4834 19.9679C30.4834 20.2574 30.7149 20.4312 30.9467 20.4312ZM19.5937 4.38647V5.83443C12.1216 6.06616 6.1554 12.0903 5.98165 19.5625H4.53349C4.70723 11.2794 11.3106 4.6182 19.5937 4.38647ZM4.53349 20.4312H5.98165C6.27116 27.7876 12.2373 33.6958 19.5937 33.9275V35.3756C11.4264 35.1439 4.8232 28.5405 4.53349 20.4312ZM20.4624 35.3756V33.9275C27.8188 33.6958 33.785 27.7876 34.0745 20.4312H35.5227C35.2332 28.5405 28.5718 35.1439 20.4624 35.3756Z" fill="#876FFD"/>
</g>
<path d="M19.9997 18.9874C21.7953 18.9874 23.2433 17.5393 23.2433 15.7436C23.2433 13.948 21.7953 12.5 19.9997 12.5C18.204 12.5 16.7559 13.948 16.7559 15.7436C16.7559 17.5393 18.204 18.9874 19.9997 18.9874ZM19.9997 13.3687C21.3319 13.3687 22.3746 14.4114 22.3746 15.7436C22.3746 17.0758 21.3319 18.1185 19.9997 18.1185C18.6673 18.1185 17.6248 17.0758 17.6248 15.7436C17.6248 14.4114 18.6673 13.3687 19.9997 13.3687Z" fill="#876FFD"/>
<path d="M26.1967 20.7802C25.5597 20.7802 24.9225 20.896 24.3433 21.1277C23.1848 20.027 21.6787 19.332 19.999 19.332C18.3191 19.332 16.7552 20.027 15.6547 21.1277C15.0755 20.896 14.4383 20.7802 13.8011 20.7802C11.1367 20.7802 8.93555 22.9813 8.93555 25.6457C8.93555 25.8774 9.10929 26.1092 9.3988 26.1092C32.3366 26.1092 31.1202 26.3409 31.1202 25.6457C31.1202 22.9813 28.9193 20.7802 26.1967 20.7802ZM19.999 20.2587C22.7793 20.2587 25.1542 22.4019 25.3857 25.2402C24.2853 25.2402 14.7858 25.2402 14.612 25.2402C14.8438 22.4599 17.1606 20.2587 19.999 20.2587ZM15.0175 21.8807C14.2645 22.8074 13.859 23.966 13.7431 25.2402H9.80428C10.094 22.7496 12.5846 21.0697 15.0175 21.8807ZM26.2547 25.2402C26.1389 23.966 25.7334 22.8074 24.9803 21.8807C25.3857 21.7649 25.7912 21.7069 26.1967 21.7069C28.2821 21.7069 29.9618 23.2708 30.1935 25.2982H26.2547V25.2402Z" fill="#876FFD"/>
<path d="M26.1976 20.1454C27.6458 20.1454 28.8622 18.929 28.8622 17.4808C28.8622 16.0328 27.6458 14.8164 26.1976 14.8164C24.7496 14.8164 23.5332 16.0328 23.5332 17.4808C23.5332 18.929 24.7496 20.1454 26.1976 20.1454ZM26.1976 15.6853C27.1823 15.6853 27.9932 16.4961 27.9932 17.4808C27.9932 18.4655 27.1823 19.2764 26.1976 19.2764C25.2129 19.2764 24.4019 18.4655 24.4019 17.4808C24.4599 16.4961 25.2129 15.6853 26.1976 15.6853Z" fill="#876FFD"/>
<path d="M13.8012 20.1455C15.1914 20.1455 16.292 19.0449 16.292 17.6549C16.292 16.2647 15.1914 15.1641 13.8012 15.1641C12.411 15.1641 11.3105 16.2647 11.3105 17.6549C11.3105 18.9871 12.411 20.1455 13.8012 20.1455ZM13.8012 15.975C14.7279 15.975 15.4231 16.728 15.4231 17.5969C15.4231 18.5236 14.6701 19.2188 13.8012 19.2188C12.8745 19.2188 12.1793 18.4657 12.1793 17.5969C12.1793 16.728 12.8745 15.975 13.8012 15.975Z" fill="#876FFD"/>
</svg>
