<svg width="54" height="54" viewBox="0 0 54 54" fill="none" xmlns="http://www.w3.org/2000/svg">
<path d="M18.1963 10.3215C18.2891 10.3211 18.3819 10.3207 18.4774 10.3203C18.5785 10.3207 18.6795 10.321 18.7837 10.3214C18.9443 10.3218 18.9443 10.3218 19.1083 10.3222C20.3818 10.3308 21.6529 10.3899 22.9245 10.4561C23.3347 10.4771 23.7449 10.4961 24.1552 10.5151C24.4209 10.5285 24.6866 10.542 24.9523 10.5557C25.0725 10.5611 25.1927 10.5664 25.3166 10.5719C27.5337 10.6944 28.9198 11.5579 30.5471 13.0083C31.8905 14.2453 31.8905 14.2453 33.61 14.6409C34.2863 14.5615 34.9192 14.2896 35.5546 14.0555C36.4607 13.7405 37.3987 13.5532 38.3265 13.8854C38.4582 13.9778 38.4582 13.9778 38.5926 14.0721C38.6848 14.1316 38.777 14.191 38.872 14.2522C39.3824 14.7505 39.6191 15.3597 39.6665 16.069C39.6377 16.8056 39.3348 17.4057 38.8276 17.932C38.5749 18.1423 38.3748 18.2312 38.0645 18.3348C37.9612 18.3703 37.8579 18.4058 37.7515 18.4423C37.6427 18.4794 37.5339 18.5164 37.4217 18.5545C37.2006 18.6354 36.9797 18.7168 36.7589 18.7988C36.5319 18.8819 36.3049 18.965 36.0779 19.0481C35.9643 19.0902 35.8507 19.1323 35.7336 19.1757C34.136 19.7582 32.3131 20.1005 30.6772 19.4416C29.5561 18.8821 28.5475 18.087 27.5227 17.3806C27.4524 19.1767 27.3822 20.9728 27.3098 22.8234C27.6962 22.8939 28.0825 22.9643 28.4806 23.0369C28.948 23.1444 29.4113 23.2651 29.8748 23.3884C30.0837 23.4437 30.293 23.4972 30.5024 23.5507C32.1092 23.9761 33.4087 24.6367 34.3087 26.0964C34.7634 26.9495 34.9874 27.7242 34.9856 28.6925C34.9857 28.7654 34.9857 28.8384 34.9857 28.9135C34.9856 29.1531 34.9848 29.3928 34.984 29.6324C34.9838 29.7991 34.9836 29.9659 34.9835 30.1326C34.9831 30.5703 34.982 31.0081 34.9809 31.4458C34.9798 31.893 34.9793 32.3401 34.9788 32.7872C34.9776 33.6637 34.9757 34.5402 34.9736 35.4167C35.922 35.4167 36.8703 35.4167 37.8475 35.4167C37.8458 35.1894 37.8441 34.9621 37.8424 34.7279C37.8371 33.9769 37.8336 33.2259 37.8309 32.4749C37.8293 32.0196 37.827 31.5643 37.8234 31.109C37.8199 30.6696 37.818 30.2302 37.8172 29.7908C37.8166 29.6231 37.8154 29.4555 37.8137 29.2878C37.8114 29.053 37.8111 28.8183 37.8112 28.5834C37.8102 28.3829 37.8102 28.3829 37.8091 28.1784C37.8506 27.8117 37.9006 27.6637 38.1668 27.4125C38.5052 27.2984 38.8225 27.2921 39.1776 27.2915C39.2966 27.291 39.4155 27.2906 39.538 27.2901C39.668 27.2902 39.798 27.2902 39.932 27.2903C40.0693 27.2899 40.2066 27.2896 40.348 27.2892C40.7243 27.2882 41.1006 27.288 41.4769 27.2879C41.712 27.2878 41.9472 27.2876 42.1823 27.2873C43.0028 27.2863 43.8233 27.2859 44.6439 27.286C45.4085 27.2861 46.1731 27.2849 46.9377 27.2832C47.5944 27.2819 48.2512 27.2813 48.9079 27.2813C49.3 27.2814 49.6921 27.2811 50.0843 27.2799C50.5215 27.2787 50.9588 27.2792 51.3961 27.2798C51.5259 27.2792 51.6557 27.2786 51.7894 27.278C51.9682 27.2787 51.9682 27.2787 52.1507 27.2794C52.3057 27.2793 52.3057 27.2793 52.4639 27.2792C52.8483 27.315 53.1728 27.3904 53.4278 27.6926C53.5257 28.0654 53.5348 28.4396 53.3879 28.7999C53.011 29.0723 52.7485 29.16 52.2866 29.1586C52.1176 29.1592 52.1176 29.1592 51.9451 29.1599C51.8226 29.1587 51.7001 29.1576 51.5739 29.1564C51.3792 29.1565 51.3792 29.1565 51.1804 29.1565C50.8253 29.1564 50.4702 29.1548 50.1151 29.1525C49.7436 29.1505 49.3721 29.1503 49.0006 29.15C48.2976 29.149 47.5945 29.1463 46.8915 29.1431C46.0909 29.1395 45.2904 29.1378 44.4898 29.1362C42.8434 29.1328 41.197 29.1272 39.5505 29.1201C39.5515 29.214 39.5524 29.308 39.5534 29.4049C39.5619 30.2905 39.5684 31.1761 39.5726 32.0618C39.5748 32.5172 39.5778 32.9725 39.5827 33.4278C39.5873 33.8672 39.5898 34.3066 39.5909 34.746C39.5917 34.9137 39.5933 35.0813 39.5956 35.249C39.5986 35.4838 39.5991 35.7185 39.5989 35.9533C39.5998 36.087 39.6008 36.2207 39.6017 36.3584C39.5505 36.6974 39.5505 36.6974 39.4085 36.9543C38.9444 37.2323 38.4731 37.1799 37.943 37.1727C37.8225 37.1728 37.702 37.1729 37.5779 37.1729C37.1793 37.1726 36.7808 37.1693 36.3822 37.166C36.106 37.1652 35.8298 37.1646 35.5536 37.1641C34.9007 37.1627 34.2478 37.1593 33.5949 37.155C32.8515 37.1502 32.1081 37.1479 31.3646 37.1458C29.8356 37.1413 28.3066 37.1338 26.7776 37.1243C26.7788 37.2156 26.7799 37.3069 26.7812 37.401C26.7918 38.2615 26.7999 39.122 26.8051 39.9825C26.8079 40.425 26.8117 40.8673 26.8177 41.3097C26.8235 41.7367 26.8267 42.1636 26.8281 42.5906C26.829 42.7535 26.831 42.9164 26.8338 43.0792C26.8377 43.3075 26.8382 43.5355 26.838 43.7637C26.8398 43.9585 26.8398 43.9585 26.8416 44.1572C26.7776 44.4881 26.7776 44.4881 26.5811 44.7438C26.0806 44.999 25.625 44.9711 25.0711 44.9635C24.8934 44.9636 24.8934 44.9636 24.7122 44.9637C24.3211 44.9634 23.9301 44.9601 23.539 44.9567C23.2677 44.9559 22.9964 44.9553 22.7251 44.9549C22.0843 44.9534 21.4435 44.9501 20.8026 44.9458C20.0728 44.941 19.3431 44.9387 18.6133 44.9365C17.1125 44.9321 15.6118 44.9245 14.111 44.915C14.112 45.009 14.1129 45.103 14.1139 45.1998C14.1224 46.0855 14.1289 46.9711 14.1331 47.8568C14.1353 48.3121 14.1383 48.7674 14.1432 49.2228C14.1478 49.6622 14.1503 50.1016 14.1514 50.541C14.1522 50.7086 14.1538 50.8763 14.1561 51.0439C14.1591 51.2788 14.1596 51.5135 14.1594 51.7483C14.1603 51.882 14.1613 52.0156 14.1622 52.1533C14.1002 52.5643 14.0039 52.6628 13.6853 52.9192C13.4343 52.9727 13.4343 52.9727 13.1513 52.9727C13.0437 52.9738 12.9361 52.9748 12.8253 52.9759C12.7079 52.9749 12.5904 52.9738 12.4695 52.9728C12.3454 52.9734 12.2212 52.9739 12.0933 52.9745C11.6825 52.9759 11.2717 52.9741 10.8608 52.9722C10.5758 52.9722 10.2908 52.9724 10.0058 52.9727C9.40838 52.9729 8.81094 52.9715 8.21349 52.969C7.52263 52.9662 6.83181 52.966 6.14094 52.9673C5.47633 52.9684 4.81174 52.9677 4.14713 52.9662C3.86427 52.9658 3.58141 52.9657 3.29855 52.9661C2.90378 52.9664 2.50908 52.9647 2.11431 52.9624C1.99669 52.9628 1.87907 52.9633 1.75789 52.9638C1.65059 52.9628 1.5433 52.9617 1.43275 52.9606C1.3394 52.9604 1.24606 52.9601 1.14988 52.9598C0.858692 52.9101 0.767252 52.835 0.592976 52.5991C0.483621 52.1762 0.443349 51.9469 0.626239 51.5452C0.805859 51.3184 0.805859 51.3184 1.01874 51.2117C1.17115 51.2019 1.324 51.1987 1.47672 51.1988C1.57284 51.1987 1.66897 51.1985 1.768 51.1984C1.87374 51.1988 1.97947 51.1992 2.08841 51.1996C2.25508 51.1995 2.25508 51.1995 2.42512 51.1995C2.79373 51.1996 3.16232 51.2004 3.53093 51.2013C3.78597 51.2015 4.04102 51.2016 4.29606 51.2017C4.96837 51.2021 5.64067 51.2032 6.31298 51.2043C6.9986 51.2054 7.68423 51.2059 8.36985 51.2065C9.71589 51.2076 11.0619 51.2094 12.408 51.2117C12.407 51.1177 12.4061 51.0237 12.4051 50.9269C12.3966 50.0412 12.3901 49.1556 12.3859 48.2699C12.3837 47.8146 12.3807 47.3593 12.3759 46.9039C12.3712 46.4645 12.3687 46.0252 12.3676 45.5857C12.3668 45.4181 12.3653 45.2504 12.363 45.0828C12.3599 44.8479 12.3594 44.6132 12.3596 44.3784C12.3587 44.2447 12.3577 44.1111 12.3568 43.9734C12.408 43.6344 12.408 43.6344 12.5977 43.378C12.9588 43.1171 13.3311 43.1431 13.7601 43.1424C13.8493 43.1407 13.9385 43.1389 14.0303 43.1371C14.3145 43.1319 14.5986 43.1296 14.8827 43.1274C15.0757 43.1244 15.2686 43.1212 15.4615 43.1178C15.9338 43.1099 16.4061 43.1047 16.8785 43.1007C16.8413 43.0527 16.8041 43.0047 16.7658 42.9552C16.0458 41.9348 16.2371 40.7772 16.3646 39.5915C16.3793 39.4466 16.394 39.3017 16.4086 39.1567C16.4399 38.847 16.472 38.5373 16.5046 38.2277C16.5562 37.7375 16.6063 37.2471 16.6561 36.7567C16.7352 35.981 16.8153 35.2053 16.8959 34.4297C17.0402 33.0406 17.1828 31.6514 17.3248 30.2621C17.3746 29.7752 17.4249 29.2884 17.4757 28.8017C17.5072 28.4985 17.5384 28.1953 17.5695 27.892C17.5908 27.6857 17.6126 27.4794 17.6343 27.2731C17.7752 26.0202 17.7752 26.0202 17.5738 24.7879C17.3754 24.0413 17.3601 23.3243 17.3563 22.5549C17.3545 22.4108 17.3525 22.2667 17.3505 22.1226C17.3455 21.7478 17.3423 21.3731 17.3395 20.9983C17.3363 20.6141 17.3313 20.2298 17.3265 19.8456C17.3174 19.0951 17.3102 18.3446 17.3043 17.594C17.1872 17.7102 17.0702 17.8265 16.9534 17.9429C16.8882 18.0077 16.8231 18.0725 16.756 18.1392C16.501 18.4008 16.2638 18.6748 16.028 18.9537C15.8716 19.13 15.7072 19.2992 15.5386 19.4639C14.7473 20.2564 14.3845 20.9789 14.0844 22.0697C14.0411 22.2158 13.9974 22.3618 13.9534 22.5077C13.8662 22.7973 13.7807 23.0873 13.6969 23.3779C13.5338 23.9388 13.3596 24.4956 13.1797 25.0513C13.1536 25.1372 13.1275 25.2232 13.1006 25.3118C12.8697 26.0303 12.5292 26.7046 11.9448 27.1961C11.1621 27.5723 10.4346 27.6649 9.58561 27.4521C8.86965 27.1799 8.38623 26.6839 8.02974 26.0109C7.64201 25.0338 7.9442 23.9607 8.1815 22.9764C8.20582 22.874 8.23015 22.7716 8.25521 22.6661C8.30657 22.4514 8.35838 22.2368 8.41063 22.0223C8.48939 21.697 8.56532 21.3712 8.64115 21.0452C8.95835 19.7145 9.29132 18.6599 10.2592 17.654C10.6187 17.2709 10.9616 16.8835 11.2903 16.4734C11.6988 15.9658 12.1306 15.4857 12.571 15.006C12.8278 14.7192 13.0714 14.4254 13.3127 14.1255C13.7258 13.6125 14.1602 13.1241 14.6058 12.6393C14.8275 12.396 15.0422 12.1485 15.2553 11.8977C16.0126 11.0326 17.0119 10.3264 18.1963 10.3215ZM16.6656 13.0049C16.4278 13.2875 16.1957 13.574 15.9654 13.8629C15.7116 14.1741 15.4473 14.4704 15.1755 14.7658C14.8249 15.1477 14.4893 15.5359 14.1643 15.9398C13.8392 16.3437 13.5036 16.7319 13.1531 17.1137C12.7189 17.5869 12.3086 18.074 11.9078 18.5758C11.6629 18.8747 11.6629 18.8747 11.4884 19.0509C10.9513 19.6086 10.7443 20.1133 10.5656 20.8595C10.5383 20.9655 10.511 21.0714 10.4829 21.1806C10.4261 21.4032 10.3704 21.6261 10.3159 21.8493C10.2326 22.1898 10.1457 22.5292 10.0582 22.8686C10.0031 23.086 9.94831 23.3034 9.89371 23.5209C9.86811 23.6217 9.84251 23.7226 9.81613 23.8265C9.6869 24.359 9.59485 24.8363 9.6405 25.3848C9.79802 25.6583 9.79802 25.6583 10.0663 25.8117C10.4387 25.8752 10.632 25.851 10.9648 25.6715C11.3799 25.2345 11.492 24.7294 11.6625 24.1591C11.7004 24.0386 11.7383 23.918 11.7773 23.7938C11.8983 23.4086 12.017 23.0227 12.1352 22.6367C12.2906 22.1296 12.4482 21.6234 12.6071 21.1175C12.6591 20.9441 12.6591 20.9441 12.712 20.7671C12.9968 19.8609 13.4157 19.2153 14.094 18.5545C14.2011 18.4488 14.2011 18.4488 14.3104 18.3411C14.3829 18.2706 14.4554 18.2002 14.5302 18.1276C15.0206 17.6485 15.4907 17.1635 15.9378 16.6434C16.3086 16.2199 16.6989 15.816 17.0914 15.4129C17.1732 15.326 17.255 15.2391 17.3392 15.1496C18.0184 14.4553 18.0184 14.4553 18.4552 14.3686C18.8461 14.3959 18.9576 14.4247 19.2202 14.7125C19.2623 15.0197 19.277 15.2866 19.2733 15.594C19.2739 15.6839 19.2744 15.7739 19.275 15.8665C19.276 16.062 19.276 16.2575 19.2752 16.453C19.2739 16.7631 19.2751 17.0732 19.2769 17.3833C19.2798 17.9308 19.2803 18.4783 19.2802 19.0259C19.28 19.8996 19.2815 20.7732 19.2861 21.6469C19.2871 21.9511 19.2862 22.2553 19.2852 22.5595C19.2865 23.7629 19.2927 24.8704 20.0993 25.8407C20.9489 26.6858 22.1956 26.8003 23.3182 27.0256C23.5175 27.067 23.7168 27.1085 23.9161 27.1501C24.5148 27.275 25.1139 27.3973 25.7132 27.5192C26.2973 27.6384 26.8814 27.7583 27.4651 27.8799C27.683 27.9249 27.9011 27.9685 28.1193 28.0119C29.1338 28.2216 30.0209 28.4092 30.6955 29.2397C30.9642 29.6646 31.0619 30.0436 31.0692 30.5439C31.0723 30.7105 31.0723 30.7105 31.0756 30.8804C31.0774 31.0584 31.0774 31.0584 31.0793 31.2399C31.0824 31.4236 31.0824 31.4236 31.0855 31.6109C31.0919 32.0013 31.0968 32.3916 31.1018 32.782C31.1058 33.0469 31.11 33.3118 31.1142 33.5768C31.1244 34.2256 31.1334 34.8745 31.1417 35.5234C31.8793 35.5234 32.6169 35.5234 33.3769 35.5234C33.3866 34.5956 33.3944 33.6679 33.399 32.7401C33.4012 32.3092 33.4042 31.8783 33.4091 31.4474C33.4137 31.0308 33.4162 30.6143 33.4173 30.1977C33.4181 30.0395 33.4196 29.8813 33.422 29.7231C33.4373 28.6282 33.3789 27.5879 32.6052 26.7388C32.5498 26.6754 32.4944 26.612 32.4373 26.5466C31.7206 25.9224 30.9836 25.6719 30.0706 25.4448C29.9505 25.4135 29.8305 25.3823 29.7068 25.3501C29.2134 25.222 28.7191 25.0976 28.2246 24.9739C27.9944 24.9162 27.7643 24.8582 27.5343 24.7998C27.3222 24.7461 27.1098 24.6935 26.8971 24.6421C26.8018 24.6181 26.7065 24.5941 26.6083 24.5693C26.4834 24.5387 26.4834 24.5387 26.356 24.5075C26.0948 24.4073 25.9787 24.3364 25.8196 24.1041C25.7817 23.8011 25.7817 23.8011 25.7847 23.4246C25.7848 23.3551 25.785 23.2856 25.7851 23.214C25.7861 22.9815 25.7895 22.7491 25.793 22.5166C25.7945 22.3529 25.7959 22.1893 25.7972 22.0257C25.8015 21.5729 25.8082 21.1202 25.8153 20.6675C25.8198 20.3552 25.8232 20.0429 25.8263 19.7305C25.8319 19.1837 25.8392 18.6369 25.848 18.09C25.8512 17.8754 25.854 17.6608 25.8564 17.4462C25.8599 17.1433 25.8655 16.8405 25.8716 16.5376C25.8723 16.4472 25.8729 16.3567 25.8736 16.2635C25.8859 15.775 25.9126 15.4189 26.2454 15.0327C26.8488 14.9343 27.1883 15.0288 27.68 15.3797C27.7466 15.4302 27.8133 15.4808 27.8819 15.5329C27.9537 15.5848 28.0256 15.6367 28.0996 15.6901C28.3345 15.8603 28.5673 16.0333 28.8 16.2066C29.0534 16.3931 29.3073 16.5791 29.5615 16.7645C29.7237 16.8831 29.8853 17.0024 30.0462 17.1226C31.1912 17.9664 32.2607 18.3356 33.6963 18.1276C34.468 17.9365 35.2132 17.658 35.9579 17.3815C36.2168 17.2864 36.4764 17.1964 36.7382 17.1096C37.4446 16.91 37.4446 16.91 37.9539 16.42C37.9321 16.1285 37.8777 15.9369 37.7277 15.6863C37.4159 15.4987 37.1224 15.5972 36.7831 15.673C36.4004 15.7873 36.0235 15.9176 35.6455 16.0465C34.1854 16.5241 33.0056 16.7278 31.5637 16.0561C30.8676 15.6752 30.3022 15.2096 29.728 14.6645C29.0951 14.0692 28.4129 13.529 27.7156 13.0116C27.6372 12.9534 27.5589 12.8952 27.4782 12.8352C26.6663 12.3907 25.7178 12.4095 24.8159 12.3571C24.6669 12.3479 24.518 12.3386 24.369 12.3293C24.0579 12.31 23.7467 12.2912 23.4355 12.2728C23.0395 12.2494 22.6435 12.2251 22.2475 12.2003C21.9401 12.1812 21.6327 12.1624 21.3253 12.1438C21.1794 12.1349 21.0335 12.126 20.8877 12.1169C18.5899 11.9018 18.5899 11.9018 16.6656 13.0049ZM19.5396 27.5192C19.3068 28.8516 19.1851 30.1967 19.0498 31.5417C19.0238 31.7975 18.9979 32.0533 18.9719 32.309C18.9178 32.843 18.864 33.377 18.8104 33.911C18.7419 34.5927 18.6724 35.2743 18.6028 35.9559C18.549 36.4833 18.4958 37.0108 18.4428 37.5383C18.4174 37.7896 18.3919 38.0408 18.3661 38.2921C18.3301 38.644 18.2949 38.9961 18.2599 39.3482C18.2493 39.4502 18.2387 39.5521 18.2278 39.6572C18.0448 40.9529 18.0448 40.9529 18.3554 42.1602C18.7096 42.4632 18.9616 42.4972 19.4294 42.4904C19.7769 42.4423 19.9453 42.2876 20.1782 42.0335C20.3429 41.6758 20.4325 41.3392 20.4935 40.951C20.5108 40.8428 20.5281 40.7346 20.5459 40.6231C20.5641 40.5056 20.5822 40.3881 20.6009 40.2671C20.6207 40.1424 20.6404 40.0178 20.6608 39.8894C20.7147 39.5486 20.768 39.2077 20.821 38.8668C20.8767 38.5099 20.9331 38.1531 20.9894 37.7962C21.0837 37.1975 21.1776 36.5986 21.2712 35.9997C21.3914 35.2305 21.5123 34.4615 21.6334 33.6924C21.7376 33.0314 21.8414 32.3703 21.9452 31.7092C21.9786 31.4965 22.012 31.2838 22.0454 31.0712C22.1075 30.6757 22.1694 30.2801 22.2312 29.8846C22.2498 29.7664 22.2684 29.6483 22.2875 29.5265C22.3042 29.4192 22.3209 29.312 22.3381 29.2014C22.3528 29.1079 22.3674 29.0143 22.3825 28.9179C22.4183 28.6957 22.4183 28.6957 22.4135 28.4797C22.3491 28.462 22.2847 28.4443 22.2184 28.426C21.924 28.3446 21.6299 28.2621 21.3358 28.1796C21.2345 28.1517 21.1332 28.1238 21.0289 28.0951C20.5002 27.9461 20.0192 27.7888 19.5396 27.5192ZM24.1165 28.9066C23.9999 29.6129 23.8838 30.3192 23.7679 31.0255C23.7254 31.2849 23.6828 31.5442 23.6401 31.8036C23.388 33.3382 23.1416 34.8733 22.9085 36.411C22.8731 36.6447 22.8375 36.8784 22.8018 37.112C22.7783 37.2663 22.7548 37.4205 22.7313 37.5747C22.7197 37.6505 22.7082 37.7262 22.6963 37.8042C22.6278 38.254 22.5605 38.704 22.494 39.154C22.462 39.3686 22.4296 39.5831 22.3969 39.7975C22.357 40.0589 22.3181 40.3205 22.2802 40.5822C22.1352 41.5208 21.8794 42.3575 21.4555 43.2075C22.6498 43.2075 23.844 43.2075 25.0745 43.2075C25.0797 42.6784 25.0849 42.1493 25.0903 41.6041C25.0941 41.2695 25.0979 40.9349 25.1019 40.6003C25.1084 40.0688 25.1146 39.5374 25.1194 39.0059C25.1233 38.5775 25.1283 38.1492 25.1339 37.7209C25.1359 37.5572 25.1375 37.3936 25.1387 37.2299C25.1405 37.0012 25.1436 36.7725 25.147 36.5438C25.1484 36.4135 25.1498 36.2831 25.1513 36.1488C25.1809 35.8436 25.1809 35.8436 25.3938 35.6301C25.8349 35.5033 26.2667 35.5112 26.7231 35.513C26.798 35.5132 26.8728 35.5133 26.9499 35.5135C27.1874 35.5141 27.4249 35.5154 27.6624 35.5168C27.824 35.5173 27.9857 35.5178 28.1474 35.5182C28.5423 35.5194 28.9372 35.5212 29.3322 35.5234C29.3376 34.8169 29.3413 34.1104 29.3439 33.4038C29.3449 33.1635 29.3464 32.9231 29.3482 32.6827C29.3508 32.3373 29.352 31.9918 29.353 31.6464C29.3541 31.5389 29.3552 31.4314 29.3563 31.3206C29.3563 31.2202 29.3563 31.1198 29.3563 31.0164C29.3568 30.9282 29.3573 30.84 29.3578 30.7492C29.3289 30.4763 29.2689 30.3099 29.1193 30.0806C28.5928 29.8042 28.0564 29.6675 27.4782 29.5424C27.3952 29.5239 27.3122 29.5054 27.2267 29.4863C27.0526 29.4477 26.8784 29.4094 26.7042 29.3715C26.4377 29.3134 26.1716 29.254 25.9055 29.1945C25.7356 29.1569 25.5658 29.1195 25.3959 29.0821C25.3166 29.0645 25.2373 29.0468 25.1557 29.0286C24.7974 28.9511 24.4852 28.9066 24.1165 28.9066Z" fill="#876FFD"/>
<path d="M46.7885 31.5744C47.035 31.7569 47.2309 31.923 47.4434 32.1385C47.5014 32.1955 47.5594 32.2526 47.6192 32.3113C47.7408 32.4319 47.8616 32.5533 47.9816 32.6755C48.1651 32.8613 48.3523 33.0428 48.54 33.2243C48.6581 33.3423 48.776 33.4607 48.8936 33.5792C48.9495 33.6329 49.0054 33.6865 49.0629 33.7417C49.3581 34.0493 49.4851 34.2746 49.4943 34.6942C49.4495 35.0963 49.4495 35.0963 49.2899 35.3631C48.9925 35.542 48.7504 35.6077 48.4019 35.5952C48.0898 35.4973 47.9414 35.3281 47.7182 35.0913C47.6433 35.0128 47.5683 34.9342 47.4911 34.8533C47.4349 34.7926 47.3786 34.7319 47.3207 34.6694C47.3205 34.7619 47.3202 34.8543 47.32 34.9496C47.3137 37.1986 47.3056 39.4476 47.2956 41.6966C47.2908 42.7842 47.2866 43.8718 47.2838 44.9594C47.2814 45.9073 47.2778 46.8551 47.273 47.803C47.2704 48.305 47.2684 48.8069 47.2678 49.3089C47.2671 49.7813 47.265 50.2537 47.2617 50.7261C47.2608 50.8995 47.2604 51.073 47.2606 51.2464C47.2608 51.4832 47.259 51.7199 47.2567 51.9566C47.256 52.1554 47.256 52.1554 47.2552 52.3582C47.2108 52.7354 47.1214 52.9377 46.895 53.2392C46.5696 53.4023 46.2957 53.3707 45.937 53.3459C45.598 53.158 45.529 53.0792 45.4048 52.7055C45.3937 52.4647 45.3892 52.2235 45.3879 51.9823C45.3871 51.8714 45.3871 51.8714 45.3863 51.7583C45.3847 51.51 45.3838 51.2618 45.3829 51.0135C45.3819 50.8358 45.3808 50.658 45.3797 50.4803C45.3768 49.9972 45.3746 49.5141 45.3725 49.0311C45.3702 48.5264 45.3672 48.0218 45.3644 47.5171C45.3591 46.5612 45.3543 45.6054 45.3497 44.6495C45.3444 43.5614 45.3386 42.4733 45.3327 41.3851C45.3206 39.1466 45.3092 36.908 45.2983 34.6694C45.2421 34.7301 45.1859 34.7908 45.128 34.8533C45.053 34.9319 44.9781 35.0104 44.9008 35.0913C44.8271 35.1696 44.7533 35.2479 44.6773 35.3286C44.4292 35.538 44.314 35.5917 43.9944 35.6032C43.5953 35.5232 43.5953 35.5232 43.3292 35.3631C43.1086 34.9946 43.0932 34.657 43.1695 34.2425C43.3568 33.978 43.5123 33.7953 43.7441 33.5792C43.832 33.4926 43.832 33.4926 43.9216 33.4042C44.108 33.2213 44.2973 33.0416 44.4867 32.8618C44.6133 32.7382 44.7397 32.6145 44.8659 32.4905C45.9978 31.3862 45.9978 31.3862 46.7885 31.5744Z" fill="#876FFD"/>
<path d="M25.6063 1.26464C26.7117 2.08258 27.4 3.21137 27.6287 4.57305C27.7383 6.04815 27.3617 7.28438 26.4379 8.43508C25.6408 9.30724 24.469 9.82959 23.3012 9.93462C21.8818 9.97176 20.7352 9.52444 19.6789 8.58849C18.7036 7.47844 18.224 6.40803 18.2386 4.91406C18.3348 3.50478 18.9658 2.44005 19.965 1.47809C21.5382 0.213756 23.9323 0.175604 25.6063 1.26464ZM20.7167 3.27904C20.0481 4.13279 19.9468 4.88169 20.0714 5.96045C20.3483 6.90887 20.9723 7.47456 21.7878 7.98151C22.5654 8.2652 23.5218 8.22063 24.2692 7.88146C24.9156 7.5041 25.5118 6.90957 25.7722 6.19182C25.9538 5.29779 25.9216 4.42883 25.4592 3.63256C25.0255 3.04439 24.4238 2.48159 23.6904 2.33187C22.4821 2.20022 21.5622 2.3712 20.7167 3.27904Z" fill="#876FFD"/>
<path d="M33.1966 38.6406C33.6186 38.7311 33.7804 38.8095 34.0818 39.1117C34.1699 39.1981 34.258 39.2845 34.3488 39.3735C34.3965 39.4224 34.4443 39.4713 34.4936 39.5217C34.6753 39.7071 34.8603 39.8888 35.0456 40.0705C35.3097 40.331 35.5734 40.5919 35.8348 40.8551C35.8893 40.9099 35.9439 40.9647 36.0001 41.0212C36.262 41.309 36.3548 41.4747 36.3903 41.8665C36.357 42.2467 36.357 42.2467 36.2506 42.5002C35.991 42.7116 35.7533 42.7907 35.4202 42.8203C34.9508 42.7401 34.6501 42.3682 34.3346 42.0332C34.2644 41.9628 34.1941 41.8924 34.1217 41.8198C34.1211 41.9595 34.1205 42.0992 34.1198 42.2431C34.1138 43.5575 34.106 44.872 34.0966 46.1864C34.0919 46.8622 34.0877 47.538 34.0849 48.2139C34.0821 48.8657 34.0778 49.5175 34.0724 50.1694C34.0707 50.4184 34.0694 50.6675 34.0688 50.9166C34.0678 51.2646 34.0648 51.6126 34.0613 51.9607C34.0615 52.0643 34.0616 52.1679 34.0618 52.2747C34.0604 52.3694 34.0591 52.4642 34.0577 52.5618C34.057 52.6853 34.057 52.6853 34.0563 52.8113C34.0044 53.0825 33.9076 53.1747 33.696 53.3459C33.3885 53.5 33.1854 53.4928 32.8444 53.4526C32.543 53.2375 32.3442 53.0651 32.2628 52.6926C32.2423 52.407 32.2395 52.1258 32.242 51.8395C32.2409 51.7312 32.2398 51.6229 32.2387 51.5112C32.2356 51.1538 32.2363 50.7964 32.237 50.4389C32.2356 50.1908 32.234 49.9427 32.2321 49.6947C32.2279 49.0422 32.2268 48.3897 32.2263 47.7372C32.2254 47.0712 32.2214 46.4052 32.2176 45.7392C32.2108 44.4327 32.2072 43.1263 32.2058 41.8198C32.1489 41.8799 32.092 41.94 32.0333 42.0019C31.9578 42.0799 31.8823 42.1579 31.8046 42.2384C31.7301 42.316 31.6556 42.3937 31.5789 42.4738C31.3543 42.6736 31.3543 42.6736 30.9618 42.807C30.6092 42.7803 30.6092 42.7803 30.3032 42.6202C29.9971 42.2592 29.9389 42.0815 29.9705 41.6064C30.1008 41.418 30.1008 41.418 30.2819 41.2211C30.3499 41.1468 30.4179 41.0724 30.4879 40.9957C30.5631 40.9155 30.6382 40.8352 30.7156 40.7526C30.7939 40.6671 30.8722 40.5816 30.9529 40.4936C31.2053 40.2208 31.4622 39.9528 31.7202 39.6853C31.8061 39.5925 31.8921 39.4996 31.9806 39.4039C32.6983 38.6652 32.6983 38.6652 33.1966 38.6406Z" fill="#876FFD"/>
<path d="M21.5619 46.2999C21.8002 46.483 21.9865 46.6477 22.1898 46.8632C22.2452 46.9194 22.3006 46.9756 22.3576 47.0334C22.533 47.2122 22.7061 47.393 22.8792 47.574C22.9978 47.6952 23.1166 47.8163 23.2355 47.9373C24.21 48.9346 24.21 48.9346 24.2562 49.4349C24.223 49.8218 24.223 49.8218 24.0633 50.0819C23.7651 50.2688 23.5292 50.3275 23.1764 50.3129C22.7215 50.1863 22.4139 49.835 22.0942 49.5016C22.059 49.4664 22.0239 49.4312 21.9877 49.3949C21.9873 49.5026 21.9868 49.6103 21.9864 49.7212C21.9841 50.1215 21.9783 50.5216 21.9715 50.9218C21.969 51.0948 21.9675 51.2679 21.9669 51.441C21.9659 51.6901 21.9615 51.939 21.9565 52.188C21.9572 52.3038 21.9572 52.3038 21.9578 52.4219C21.9462 52.8231 21.9118 52.9916 21.6304 53.2854C21.2814 53.4901 21.1082 53.5252 20.7104 53.4504C20.339 53.1611 20.1938 53.0022 20.108 52.5329C20.1037 52.3867 20.1021 52.2405 20.103 52.0942C20.1013 52.0168 20.0997 51.9394 20.0981 51.8597C20.0935 51.6139 20.0926 51.3683 20.0917 51.1225C20.0893 50.9552 20.0866 50.788 20.0836 50.6208C20.0769 50.2121 20.0735 49.8036 20.0718 49.3949C20.0205 49.4476 19.9691 49.5003 19.9163 49.5546C19.849 49.623 19.7818 49.6913 19.7125 49.7618C19.6458 49.8299 19.5792 49.898 19.5105 49.9681C19.1898 50.2714 18.9113 50.2922 18.4731 50.285C18.2623 50.2487 18.2623 50.2487 17.9895 50.0286C17.7808 49.6009 17.7971 49.4221 17.9429 48.968C18.4156 48.335 19.0031 47.7788 19.5595 47.2204C19.6338 47.1446 19.7081 47.0688 19.7847 46.9907C19.8568 46.9182 19.9289 46.8457 20.0032 46.771C20.0675 46.706 20.1319 46.6411 20.1982 46.5741C20.6598 46.1734 20.9612 46.141 21.5619 46.2999Z" fill="#876FFD"/>
</svg>
