<svg width="40" height="40" viewBox="0 0 40 40" fill="none" xmlns="http://www.w3.org/2000/svg">
<path fill-rule="evenodd" clip-rule="evenodd" d="M28.6694 18.7292L26.9113 19.7446C26.5022 19.9796 26.29 20.3888 26.4416 20.6539L31.5488 29.4966C31.7004 29.7619 32.1626 29.7847 32.5717 29.5422L34.3296 28.5268C34.7389 28.2918 34.9509 27.8827 34.7995 27.6176C33.0946 24.67 31.3972 21.7224 29.6923 18.7748C29.5407 18.517 29.0785 18.4944 28.6694 18.7292Z" fill="#876FFD"/>
<path d="M32.0015 30.0227C31.6985 30.0227 31.4104 29.8864 31.2816 29.659L26.1746 20.8162C25.9018 20.3389 26.2882 19.7403 26.7579 19.4903L28.5159 18.4749C29.0842 18.1492 29.7132 18.2173 29.9558 18.634L35.0628 27.4768C35.3356 27.954 34.949 28.5528 34.4793 28.8028C33.9945 29.0301 32.5546 30.0834 32.0015 30.0227ZM28.8191 18.9977L27.0611 20.0132C26.8792 20.1192 26.6672 20.3238 26.705 20.5055L31.812 29.3483C31.9561 29.4696 32.2289 29.3863 32.4183 29.2801L34.1763 28.2647C34.358 28.1587 34.5702 27.9618 34.5324 27.7724L29.4252 18.9296C29.3798 18.8612 29.1145 18.8309 28.8191 18.9977Z" fill="#876FFD"/>
<path d="M18.4015 39.3631C17.0604 39.3934 16.189 37.7719 16.9619 36.6733L17.4317 35.9685C17.9621 35.1728 19.0457 34.9606 19.8336 35.491C20.6141 35.9913 20.8415 37.1353 20.3111 37.9007C19.8715 38.6205 19.3639 39.3859 18.4015 39.3631ZM17.6817 36.1352L17.9393 36.3095L17.4771 36.999C17.1361 37.5144 17.2726 38.2114 17.7877 38.5524C18.3031 38.9009 19.0001 38.757 19.3411 38.2417L19.8033 37.5447C20.599 36.302 18.7804 35.0894 17.9393 36.2943L17.6817 36.1352Z" fill="#876FFD"/>
<path d="M15.7877 38.1369C14.4466 38.1672 13.5675 36.538 14.3479 35.4394L15.8712 33.1585C17.197 31.2945 19.978 33.151 18.7581 35.0906L17.4774 37.0155C17.1289 37.6291 16.5379 38.1595 15.7877 38.1369ZM17.3183 32.9994C16.9545 32.9994 16.5985 33.1737 16.3863 33.4995L14.8633 35.7803C14.0676 37.0155 15.8862 38.2429 16.7273 37.0305C17.1441 36.4017 17.8336 35.3863 18.2503 34.7499C18.7581 34.0299 18.1821 32.9691 17.3183 32.9994Z" fill="#876FFD"/>
<path d="M13.4147 36.5456C12.081 36.5987 11.1871 34.9317 11.975 33.8481L14.0663 30.7264C14.5969 29.9307 15.6803 29.7185 16.476 30.2489C17.2564 30.7491 17.4914 31.8931 16.9533 32.6585L14.862 35.7805C14.521 36.273 13.9756 36.5456 13.4147 36.5456ZM15.5061 30.5673C15.1424 30.5673 14.7863 30.7414 14.5741 31.0673L12.4827 34.1968C11.6872 35.4318 13.5056 36.6518 14.3467 35.447L16.4381 32.3251C16.9457 31.6053 16.37 30.5292 15.5061 30.5673Z" fill="#876FFD"/>
<path d="M11.0365 34.9524C9.69534 34.9827 8.82375 33.3536 9.59666 32.2548L10.8318 30.406C11.3319 29.6254 12.4761 29.3982 13.2415 29.9285C14.0219 30.4286 14.2492 31.5728 13.7188 32.3382L12.4836 34.187C12.1654 34.6645 11.6122 34.9599 11.0365 34.9524ZM12.2792 30.2545C11.9079 30.2545 11.5441 30.4439 11.3396 30.7546L10.1045 32.6033C9.30878 33.846 11.135 35.0586 11.9685 33.8537L13.2036 32.0048C13.7112 31.3 13.143 30.2242 12.2792 30.2545Z" fill="#876FFD"/>
<path d="M21.8175 39.1295C21.1508 39.2052 20.3323 38.4172 19.8172 38.0685C19.6807 37.97 19.6503 37.7881 19.7413 37.6518C20.681 36.4242 18.8473 35.0528 17.9454 36.3032C17.8547 36.447 17.6575 36.4773 17.5212 36.3864C17.3847 36.2954 17.3469 36.0985 17.4378 35.9622L18.2561 34.7421C19.0518 33.4994 17.2333 32.287 16.3921 33.4919C16.1801 33.8253 15.6572 33.4766 15.8845 33.1509L16.4452 32.3098C16.7862 31.8173 16.6421 31.0747 16.1345 30.7565C15.642 30.4155 14.8994 30.5593 14.5812 31.0672L13.7248 32.3477C13.6341 32.484 13.4445 32.522 13.3007 32.4311C13.1566 32.3401 13.1188 32.1432 13.2172 32.0067C13.7855 31.2187 13.0126 30.0593 12.0655 30.2867C11.7699 30.3474 11.5198 30.514 11.3532 30.764C11.1789 30.9687 10.9516 31.6126 10.5803 31.3475C10.3152 31.1203 9.74678 30.855 9.69388 30.4609L9.04976 28.0665C9.02697 27.9908 9.04223 27.9074 9.08007 27.8317L13.1566 20.777C13.24 20.6255 13.4598 20.5726 13.6038 20.6861L15.1797 21.8303C15.2253 21.8606 15.2707 21.8759 15.3238 21.8759H18.3548C18.6048 21.8681 18.7714 22.1865 18.6048 22.376L16.6499 24.7173C15.642 25.9675 17.4757 27.4907 18.5214 26.2781L20.6354 23.7474C20.7417 23.6262 20.9233 23.6034 21.0523 23.6943L29.751 30.029C29.8648 30.1124 29.9632 30.2033 30.0542 30.3018C31.2362 31.6126 29.9101 33.7495 28.2205 33.2797C28.5084 34.5602 27.2657 35.765 25.9396 35.3559C26.2352 36.6745 24.75 37.8791 23.5299 37.3109C23.6134 38.2504 22.7495 39.1673 21.8175 39.1295ZM20.4082 37.7428L21.1886 38.311C22.3782 39.1218 23.5906 37.4093 22.4541 36.5607C22.1434 36.3257 22.507 35.8332 22.8254 36.0682L23.7346 36.7274C24.2119 36.9471 24.8107 36.7805 25.1289 36.3485C25.4243 35.9394 25.4167 35.3787 25.1136 34.9771C24.9167 34.727 25.2198 34.3708 25.5002 34.5224L25.6517 34.5982C26.22 34.8937 26.9778 34.924 27.3945 34.3557C27.7886 33.8101 27.6673 33.0449 27.1292 32.6508C26.8035 32.4236 27.1748 31.9158 27.493 32.1583L27.9401 32.484C29.1145 33.3175 30.5087 31.787 29.5767 30.6959C29.5161 30.6277 29.4479 30.5671 29.3722 30.514L20.9083 24.3535L18.9761 26.6647C17.991 27.9149 15.8391 27.2407 15.7482 25.6568C15.7026 25.172 15.8542 24.6945 16.1648 24.3157L17.7031 22.482H15.3085C15.1191 22.482 14.9525 22.4289 14.8009 22.3153L13.5051 21.3681L9.66357 28.0211L10.2772 30.2943C10.2924 30.423 10.5956 30.5746 10.6788 30.6503C11.3835 29.2259 13.5129 29.347 13.9523 30.9003C15.0509 28.9378 17.9532 30.3246 17.0968 32.4008C18.6123 32.1658 19.6581 34.0223 18.6805 35.2119C19.9913 34.9999 21.0826 36.5758 20.4082 37.7428Z" fill="#876FFD"/>
<path d="M29.8355 30.7871C29.7749 30.7871 29.7065 30.7643 29.6536 30.7264L24.1601 26.7256C21.3185 24.6343 21.4472 24.7403 20.9018 24.3538L18.9694 26.665C18.3558 27.4303 17.1282 27.5439 16.3856 26.8999C15.6127 26.2483 15.5067 25.0964 16.1583 24.3159L18.1436 21.9443C18.924 21.338 19.7954 21.0351 20.5834 21.0273H26.8273C26.9333 21.0273 27.0393 21.088 27.0924 21.1789L31.7146 29.1731C31.7905 29.3094 31.7524 29.4838 31.6312 29.5747C31.5176 29.6125 29.934 30.8628 29.8355 30.7871ZM21.4397 23.9827C21.5457 24.0356 28.7519 29.3247 29.8355 30.0976L31.0401 29.2337L26.6529 21.6336H20.5911C19.947 21.6336 19.2801 21.8761 18.5906 22.361L16.6356 24.7025C16.2037 25.195 16.2796 26.0133 16.7872 26.4224C17.3025 26.8544 18.0755 26.7862 18.5074 26.2709L20.6214 23.7402C20.8637 23.437 21.2275 23.8537 21.4397 23.9827Z" fill="#876FFD"/>
<path fill-rule="evenodd" clip-rule="evenodd" d="M13.0893 19.7446L11.3313 18.7292C10.9222 18.4944 10.4599 18.517 10.3084 18.7748L5.20134 27.6251C5.04977 27.8904 5.26197 28.2995 5.67111 28.5343L7.42912 29.5497C7.83826 29.7847 8.3005 29.7619 8.45187 29.5044C10.1568 26.5568 11.8542 23.6092 13.5591 20.6616C13.7107 20.3963 13.4985 19.9871 13.0893 19.7446Z" fill="#876FFD"/>
<path d="M7.99764 30.0227C7.45199 30.0834 5.99711 29.0226 5.51982 28.8028C5.05005 28.5528 4.66349 27.954 4.93632 27.4768L10.0435 18.634C10.2861 18.2173 10.9149 18.1492 11.4832 18.4749L13.2412 19.4903C13.7109 19.7403 14.0973 20.3389 13.8247 20.8162L8.71745 29.659C8.58866 29.8939 8.30831 30.0303 7.99764 30.0227ZM10.7558 18.8765C10.6573 18.8765 10.589 18.8993 10.5739 18.9371L5.46672 27.7799C5.4364 27.9693 5.64107 28.1587 5.82296 28.2724L7.58077 29.2877C7.76265 29.3939 8.03548 29.4773 8.18705 29.356L13.2943 20.5133C13.3246 20.3238 13.1199 20.1267 12.938 20.0207C12.6426 19.8919 11.0588 18.8234 10.7558 18.8765Z" fill="#876FFD"/>
<path d="M27.4259 32.8035C27.3652 32.8035 27.2971 32.7807 27.244 32.7428L22.8568 29.5527C22.5309 29.3255 22.9022 28.8177 23.2203 29.0602L27.6078 32.2578C27.8425 32.4169 27.7062 32.8185 27.4259 32.8035Z" fill="#876FFD"/>
<path d="M25.3503 35.1047C25.2897 35.1047 25.2215 35.0819 25.1684 35.0441L21.3266 32.248C21.0009 32.0208 21.3647 31.513 21.6904 31.7555L25.5322 34.5515C25.7747 34.7106 25.6382 35.1122 25.3503 35.1047Z" fill="#876FFD"/>
<path d="M22.6377 36.6277C22.5771 36.6277 22.5088 36.6049 22.4559 36.5671L19.9856 34.7637C19.6598 34.5364 20.0311 34.0286 20.3493 34.2711L22.8194 36.0745C23.0619 36.2336 22.9256 36.6352 22.6377 36.6277Z" fill="#876FFD"/>
<path d="M28.5329 14.5235H24.494C24.3577 14.5235 24.244 14.4401 24.2061 14.3113C24.1683 14.1825 24.2136 14.046 24.3198 13.9703C24.6911 13.6975 24.9184 13.2656 24.9184 12.8033C24.8653 10.909 22.0996 10.909 22.0467 12.8033C22.0467 13.2656 22.2664 13.6975 22.6452 13.9703C22.8878 14.1294 22.7512 14.5386 22.4634 14.5235H18.4247C18.2578 14.5235 18.1215 14.387 18.1215 14.2204V10.8864C16.8182 11.7729 14.9239 10.7499 14.9617 9.16626C14.9164 7.5826 16.8182 6.55965 18.1215 7.44629V4.11214C18.1215 3.94551 18.2578 3.809 18.4247 3.809H22.4634C22.7512 3.80147 22.88 4.20308 22.6452 4.36218C22.2739 4.63501 22.0467 5.06693 22.0467 5.52917C22.0996 7.4235 24.8653 7.4235 24.9184 5.52917C24.9184 5.06693 24.6987 4.63501 24.3198 4.36218C24.0773 4.20308 24.2136 3.79394 24.5017 3.809H28.5404C28.7071 3.809 28.8436 3.94551 28.8436 4.11214V7.44629C30.1469 6.55965 32.0412 7.59013 32.0032 9.16626C32.0487 10.7499 30.1469 11.7729 28.8436 10.8864V14.2204C28.8358 14.387 28.6995 14.5235 28.5329 14.5235ZM25.1988 13.9097H28.2222V10.1817C28.2222 10.0452 28.3054 9.93164 28.4342 9.8938C28.5555 9.85575 28.6995 9.8938 28.7752 10.0073C29.5559 11.1287 31.4046 10.5377 31.3743 9.16626C31.3971 7.7948 29.5481 7.20377 28.7752 8.32519C28.6995 8.43119 28.5555 8.47676 28.4342 8.43892C28.3054 8.40088 28.2222 8.27982 28.2222 8.15084V4.41528H25.1988C26.0854 5.71858 25.0624 7.61291 23.4788 7.57507C21.8951 7.62044 20.8722 5.71858 21.7586 4.41528H18.7353V8.14331C18.7353 8.27982 18.6519 8.39335 18.5231 8.43119C18.3944 8.46924 18.2578 8.42366 18.1822 8.31767C17.4017 7.19625 15.5528 7.78727 15.5831 9.15873C15.5605 10.5302 17.4017 11.1212 18.1822 9.99979C18.2578 9.8938 18.4019 9.84822 18.5231 9.88607C18.6519 9.92411 18.7353 10.0452 18.7353 10.1742V13.9022H21.7586C20.8722 12.5989 21.9027 10.7045 23.4788 10.7424C25.0624 10.7121 26.0854 12.6064 25.1988 13.9097Z" fill="#876FFD"/>
<path fill-rule="evenodd" clip-rule="evenodd" d="M12.3473 14.2141H8.30859V10.1754C9.23307 11.5316 11.4987 10.827 11.4684 9.15997C11.5062 7.4929 9.2406 6.78815 8.30859 8.14455V4.10586H12.3473C10.9986 3.18138 11.7032 0.915752 13.3702 0.953593C15.0373 0.915752 15.7419 3.18138 14.3857 4.11338H18.4244V8.15208C17.4999 6.79588 15.2343 7.50043 15.2646 9.1675C15.2267 10.8346 17.4924 11.5393 18.4244 10.1829V14.2216H14.3857C15.7419 15.1461 15.0373 17.4117 13.3702 17.3814C11.7032 17.4117 10.9986 15.1386 12.3473 14.2141Z" fill="#876FFD"/>
<path d="M13.3694 17.679C11.7857 17.7246 10.7628 15.8227 11.6494 14.5194H8.31526C8.14864 14.5194 8.01212 14.3829 8.01212 14.2163V10.1776C8.0046 9.88947 8.40621 9.76069 8.56531 9.99568C8.83813 10.367 9.27006 10.5942 9.7323 10.5942C11.6266 10.5411 11.6266 7.77542 9.7323 7.72232C9.27006 7.72232 8.83813 7.94225 8.56531 8.32107C8.40621 8.56359 7.99707 8.42707 8.01212 8.13919V4.10049C8.01212 3.93366 8.14864 3.79735 8.31526 3.79735H11.6494C10.7628 2.50158 11.7857 0.607248 13.3694 0.64509C14.953 0.607248 15.976 2.50158 15.0894 3.80488H18.4235C18.5901 3.80488 18.7266 3.9414 18.7266 4.10802V8.14672C18.7342 8.4346 18.3326 8.56359 18.1735 8.3286C17.9006 7.9573 17.4687 7.73005 17.0065 7.73005C15.1121 7.78295 15.1121 10.5489 17.0065 10.6018C17.4687 10.6018 17.9006 10.382 18.1735 10.0032C18.3326 9.76069 18.7417 9.89721 18.7266 10.1851V14.2238C18.7266 14.3904 18.5901 14.5269 18.4235 14.5269H15.0894C15.976 15.8227 14.953 17.7246 13.3694 17.679ZM8.61841 13.9131H12.3464C12.4827 13.9131 12.5965 13.9965 12.6343 14.1253C12.6724 14.2541 12.6268 14.3904 12.5208 14.4663C11.3992 15.2467 11.9904 17.0957 13.3619 17.0654C14.7333 17.088 15.3243 15.2467 14.2029 14.4663C14.0967 14.3904 14.0513 14.2466 14.0892 14.1253C14.127 13.9965 14.2483 13.9131 14.3771 13.9131H18.1053V10.8898C16.802 11.7763 14.9077 10.7533 14.9455 9.16967C14.8999 7.58601 16.802 6.56306 18.1053 7.4497V4.41869H14.3771C14.2408 4.41869 14.127 4.33528 14.0892 4.20649C14.0513 4.07771 14.0967 3.9414 14.2029 3.86551C15.3243 3.08507 14.7333 1.23611 13.3619 1.26643C11.9904 1.24384 11.3992 3.08507 12.5208 3.86551C12.6268 3.9414 12.6724 4.08523 12.6343 4.20649C12.5965 4.33528 12.4752 4.41869 12.3464 4.41869H8.61841V7.44196C9.92171 6.55553 11.816 7.58601 11.7782 9.16214C11.8236 10.7458 9.92171 11.7687 8.61841 10.8821V13.9131Z" fill="#876FFD"/>
</svg>
