<svg width="40" height="40" viewBox="0 0 40 40" fill="none" xmlns="http://www.w3.org/2000/svg">
<mask id="mask0_5487_2578" style="mask-type:luminance" maskUnits="userSpaceOnUse" x="0" y="18" width="40" height="21">
<path d="M0.833984 18.6992H39.1673V38.5074H0.833984V18.6992Z" fill="white"/>
</mask>
<g mask="url(#mask0_5487_2578)">
<path d="M39.1638 37.2478H0.835938V38.5253H39.1638V37.2478ZM2.75224 31.4985H6.58504V35.9702H2.75224V31.4985ZM10.4178 28.3046H14.2507V35.9702H10.4178V28.3046ZM18.0835 32.1374H21.9163V35.9702H18.0835V32.1374ZM25.7491 27.0271H29.5817V35.9702H25.7491V27.0271ZM33.4145 18.7227H37.2473V35.9702H33.4145V18.7227Z" fill="#876FFD"/>
</g>
<path d="M27.6653 20.6372C27.3131 20.6372 27.0264 20.3506 27.0264 19.9984C27.0264 19.6462 27.3131 19.3596 27.6653 19.3596C28.0175 19.3596 28.3041 19.6462 28.3041 19.9984C28.3041 20.3506 28.0175 20.6372 27.6653 20.6372ZM19.9997 28.3027C19.6475 28.3027 19.3608 28.016 19.3608 27.6638C19.3608 27.3118 19.6475 27.0252 19.9997 27.0252C20.3518 27.0252 20.6385 27.3118 20.6385 27.6638C20.6385 28.016 20.3518 28.3027 19.9997 28.3027ZM12.3343 25.1087C11.9821 25.1087 11.6954 24.822 11.6954 24.4698C11.6954 24.1177 11.9821 23.8312 12.3343 23.8312C12.6862 23.8312 12.9729 24.1177 12.9729 24.4698C12.9729 24.822 12.6862 25.1087 12.3343 25.1087ZM38.5249 8.5H34.6921V9.77767H36.9827L28.4909 18.2695C28.2408 18.1493 27.9607 18.0819 27.6653 18.0819C26.6086 18.0819 25.749 18.9417 25.749 19.9984C25.749 20.2938 25.8163 20.5738 25.9364 20.824L20.8253 25.9349C20.5752 25.8149 20.2951 25.7475 19.9997 25.7475C19.4363 25.7475 18.9295 25.9917 18.5784 26.38L14.2477 24.5748C14.2493 24.54 14.2506 24.5052 14.2506 24.4698C14.2506 23.4131 13.391 22.5535 12.3343 22.5535C11.2773 22.5535 10.4178 23.4131 10.4178 24.4698C10.4178 24.55 10.4235 24.6289 10.4328 24.7067L4.38281 27.7314L4.9543 28.8741L11.0053 25.8488C11.3504 26.1815 11.8185 26.3864 12.3343 26.3864C12.8974 26.3864 13.4044 26.142 13.7556 25.7538L18.0862 27.559C18.0846 27.5936 18.0834 27.6286 18.0834 27.6638C18.0834 28.7207 18.943 29.5803 19.9997 29.5803C21.0564 29.5803 21.9162 28.7207 21.9162 27.6638C21.9162 27.3686 21.8488 27.0885 21.7286 26.8382L26.8397 21.7275C27.0897 21.8474 27.3699 21.9147 27.6653 21.9147C28.722 21.9147 29.5816 21.0551 29.5816 19.9984C29.5816 19.703 29.5142 19.4229 29.3942 19.1728L37.886 10.681V12.9716H39.1637V9.13883C39.1637 8.78605 38.8776 8.5 38.5249 8.5Z" fill="#876FFD"/>
<path d="M6.15625 11.0577C6.52531 11.1991 6.88928 11.3516 7.24797 11.5179C7.23169 11.3659 7.22396 11.2127 7.22396 11.0577C7.22396 10.9026 7.23169 10.7496 7.24797 10.5977C6.88928 10.7639 6.52531 10.9165 6.15625 11.0577Z" fill="#876FFD"/>
<path d="M11.6955 10.418C11.3433 10.418 11.0566 10.7044 11.0566 11.0566C11.0566 11.4088 11.3433 11.6954 11.6955 11.6954C12.0476 11.6954 12.3343 11.4088 12.3343 11.0566C12.3343 10.7044 12.0476 10.418 11.6955 10.418Z" fill="#876FFD"/>
<path d="M11.6959 12.9723C10.6392 12.9723 9.77942 12.1127 9.77942 11.0558C9.77942 9.99905 10.6392 9.13948 11.6959 9.13948C12.7526 9.13948 13.6122 9.99905 13.6122 11.0558C13.6122 12.1127 12.7526 12.9723 11.6959 12.9723ZM14.2342 9.56265C12.6924 8.59891 10.6992 8.59891 9.15747 9.56265C9.02401 9.64566 8.88993 9.72704 8.75525 9.80639C8.58679 10.2015 8.50195 10.6208 8.50195 11.0558C8.50195 11.491 8.58679 11.9103 8.75525 12.3054C8.88993 12.3845 9.02401 12.4661 9.15747 12.5489C10.6992 13.5128 12.6924 13.5128 14.2342 12.5489C14.3676 12.4661 14.5019 12.3845 14.6366 12.3054C14.8051 11.9103 14.8899 11.491 14.8899 11.0558C14.8899 10.6208 14.8051 10.2015 14.6366 9.80639C14.5019 9.72704 14.3676 9.64566 14.2342 9.56265Z" fill="#876FFD"/>
<mask id="mask1_5487_2578" style="mask-type:luminance" maskUnits="userSpaceOnUse" x="2" y="1" width="20" height="20">
<path d="M2.08398 1.47656H21.459V20.783H2.08398V1.47656Z" fill="white"/>
</mask>
<g mask="url(#mask1_5487_2578)">
<path d="M14.9127 13.6352C13.9359 14.2453 12.8165 14.5505 11.6971 14.5505C10.5776 14.5505 9.45817 14.2453 8.48161 13.6352C7.05623 12.7441 5.50716 12.0863 3.87651 11.6784C3.59229 11.6072 3.3927 11.3516 3.3927 11.0585C3.3927 10.7653 3.59229 10.51 3.87651 10.4388C5.50716 10.0308 7.05623 9.37288 8.48161 8.48177C10.4345 7.26107 12.9598 7.26107 14.9127 8.48177C16.3381 9.37288 17.8869 10.0308 19.5174 10.4388C19.8018 10.51 20.0014 10.7653 20.0014 11.0585C20.0014 11.3516 19.8018 11.6072 19.5174 11.6784C17.8869 12.0863 16.3381 12.7441 14.9127 13.6352ZM20.193 17.8218C20 18.0645 19.7961 18.2993 19.5831 18.5245L18.6552 17.6462C19.0822 17.1951 19.4675 16.7008 19.7987 16.1777C19.8002 16.1753 19.8008 16.1736 19.8028 16.1714V16.1706C20.7688 14.6431 21.2791 12.8751 21.2791 11.0585C21.2791 5.77466 16.981 1.47656 11.6971 1.47656C6.41353 1.47656 2.11523 5.77466 2.11523 11.0585C2.11523 16.3423 6.41353 20.6406 11.6971 20.6406C13.5138 20.6406 15.2815 20.1301 16.809 19.1641C16.9128 19.0986 17.032 19.0651 17.1508 19.0651C17.2338 19.0651 17.3169 19.0809 17.3952 19.1137L21.4188 20.7802L20.193 17.8218Z" fill="#876FFD"/>
</g>
<path d="M16.1666 11.0577C16.1666 11.2127 16.1587 11.3659 16.1426 11.5179C16.5011 11.3516 16.8654 11.1991 17.2343 11.0577C16.8654 10.9165 16.5011 10.7639 16.1426 10.5977C16.1587 10.7496 16.1666 10.9026 16.1666 11.0577Z" fill="#876FFD"/>
</svg>
