<svg width="54" height="53" viewBox="0 0 54 53" fill="none" xmlns="http://www.w3.org/2000/svg">
<g clip-path="url(#clip0_575_922)">
<path d="M29.6478 0.688269C30.6188 1.4004 31.4221 2.4155 31.6583 3.6235C31.6737 3.87073 31.6839 4.1183 31.691 4.3659C31.6932 4.43654 31.6953 4.50719 31.6976 4.57997C31.7043 4.80459 31.7104 5.02923 31.7165 5.25387C31.721 5.40659 31.7255 5.5593 31.7301 5.71201C31.7411 6.08549 31.7516 6.45898 31.7618 6.83249C31.866 6.86531 31.9702 6.89814 32.0776 6.93196C34.3454 7.67341 36.3159 8.85835 38.0274 10.5155C38.1812 10.6639 38.3371 10.81 38.4931 10.9561C41.2011 13.5301 42.9772 17.3929 43.0764 21.1385C43.0799 21.4065 43.0825 21.6745 43.0842 21.9425C43.0859 22.0886 43.0877 22.2346 43.0896 22.3807C43.0942 22.7624 43.0979 23.1441 43.1012 23.5258C43.0881 27.1661 43.0881 27.1661 43.4267 30.7834C43.4446 30.9002 43.4625 31.0169 43.481 31.1372C44.2723 36.0398 46.5569 40.2083 49.7727 43.9222C50.272 44.4991 50.3275 44.7917 50.3202 45.5485C50.2813 45.9618 50.1615 46.1791 49.877 46.479C49.4854 46.7602 49.2186 46.8281 48.7392 46.8269C48.6148 46.8273 48.4904 46.8277 48.3622 46.8282C48.2266 46.827 48.0911 46.8259 47.9514 46.8248C47.8065 46.8247 47.6616 46.8247 47.5167 46.8249C47.124 46.825 46.7314 46.8232 46.3388 46.821C45.9282 46.8191 45.5176 46.8189 45.107 46.8185C44.3298 46.8175 43.5526 46.815 42.7754 46.8119C41.8905 46.8084 41.0055 46.8067 40.1206 46.8051C38.3004 46.8019 36.4803 46.7964 34.6602 46.7895C34.6397 46.8745 34.6192 46.9594 34.598 47.047C34.5707 47.1586 34.5434 47.2702 34.5152 47.3853C34.4882 47.4958 34.4613 47.6064 34.4336 47.7204C34.1636 48.7225 33.5896 49.6452 32.9005 50.4126C32.8251 50.4976 32.7497 50.5826 32.672 50.6701C31.3804 52.0452 29.5626 52.9594 27.6624 53.0352C25.4306 53.0691 23.3655 52.6388 21.716 51.04C21.578 50.9014 21.4423 50.7606 21.3067 50.6196C21.238 50.5517 21.1693 50.4838 21.0985 50.4138C20.2616 49.5356 19.3399 48.0352 19.3399 46.7895C19.2647 46.7899 19.1896 46.7903 19.1121 46.7907C17.2822 46.7998 15.4524 46.8067 13.6225 46.811C12.7376 46.8131 11.8527 46.816 10.9677 46.8208C10.1964 46.8249 9.42507 46.8276 8.65372 46.8285C8.24533 46.829 7.83698 46.8303 7.42861 46.8333C7.04405 46.8361 6.65954 46.837 6.27497 46.8363C6.06691 46.8365 5.85886 46.8387 5.65081 46.841C4.5097 46.8358 4.5097 46.8358 4.01961 46.3755C3.65782 45.9061 3.64335 45.5016 3.66095 44.9246C3.7398 44.4184 3.98209 44.1488 4.33016 43.7876C5.12717 42.9307 5.83593 42.0563 6.50399 41.0962C6.62048 40.929 6.62048 40.929 6.73932 40.7585C9.83014 36.1335 10.8211 31.0484 10.8735 25.5801C10.875 25.4331 10.8765 25.286 10.878 25.139C10.884 24.5344 10.8897 23.9299 10.8932 23.3253C10.9129 20.0564 10.9129 20.0564 11.2657 18.6333C11.2862 18.5446 11.3068 18.456 11.3279 18.3647C11.9755 15.7402 13.2553 13.3899 15.0913 11.4135C15.2382 11.2515 15.379 11.0839 15.5147 10.9125C15.8186 10.5368 16.1729 10.2445 16.545 9.93796C16.6411 9.85869 16.7372 9.77943 16.8361 9.69777C18.4614 8.40165 20.2625 7.4682 22.2384 6.83249C22.2388 6.74232 22.2392 6.65216 22.2397 6.55927C22.2425 6.21789 22.2476 5.8767 22.2542 5.53538C22.2565 5.38895 22.258 5.2425 22.2586 5.09605C22.2658 3.52993 22.6594 2.32339 23.7478 1.17309C25.3261 -0.316845 27.8492 -0.459018 29.6478 0.688269ZM25.8614 3.6235C25.2774 4.40895 25.4473 5.23208 25.4473 6.21139C26.4722 6.21139 27.497 6.21139 28.5528 6.21139C28.6476 4.82187 28.6476 4.82187 28.0935 3.64291C27.6159 3.23524 27.3531 3.16333 26.7421 3.17669C26.3591 3.22501 26.1452 3.36737 25.8614 3.6235ZM17.5568 13.4429C14.8244 16.2788 14.059 19.8944 14.04 23.7088C14.0387 23.9401 14.0367 24.1713 14.0345 24.4025C14.0282 25.0589 14.0226 25.7152 14.0191 26.3715C14.0084 28.2636 13.9741 30.117 13.6466 31.9868C13.6255 32.1095 13.6044 32.2321 13.5827 32.3585C13.53 32.6397 13.4714 32.9179 13.4072 33.1966C13.3741 33.3429 13.3741 33.3429 13.3403 33.4922C12.5733 36.8009 11.2121 39.9421 9.29891 42.7524C9.09395 43.0598 8.88899 43.3673 8.67781 43.684C20.7705 43.684 32.8632 43.684 45.3223 43.684C45.1174 43.3766 44.9124 43.0692 44.7013 42.7524C42.2664 39.0729 40.7004 35.025 40.1466 30.6411C40.1377 30.5726 40.1289 30.5042 40.1198 30.4336C40.0339 29.6917 40.0246 28.9509 40.0193 28.205C40.0175 27.9712 40.0151 27.7374 40.0125 27.5036C40.0053 26.8395 39.9991 26.1755 39.9937 25.5113C39.9526 20.5757 39.4664 16.4478 35.8135 12.813C30.6171 7.80622 22.4761 8.49906 17.5568 13.4429ZM22.6524 46.7895C23.32 48.1246 23.8481 48.8274 25.1368 49.4809C25.2053 49.5163 25.2737 49.5516 25.3442 49.5881C26.2825 49.9829 27.6066 49.9444 28.5593 49.6233C29.9822 49.0022 30.6454 48.1942 31.3477 46.7895C28.4783 46.7895 25.6088 46.7895 22.6524 46.7895Z" fill="#876FFD"/>
<path d="M43.1293 5.40892C43.7738 5.76951 44.233 6.37753 44.7014 6.93578C44.7527 6.99662 44.8041 7.05747 44.8569 7.12016C47.6016 10.3992 49.3316 14.2224 50.0842 18.426C50.1077 18.5557 50.1312 18.6854 50.1554 18.819C50.293 19.7253 50.3182 20.6289 50.3301 21.5444C50.3328 21.666 50.3355 21.7877 50.3383 21.913C50.3405 23.016 50.3405 23.016 49.8772 23.4983C49.3366 23.9182 48.7744 23.8889 48.1174 23.8088C47.6502 23.5875 47.3987 23.3479 47.1858 22.8772C47.1049 22.467 47.0648 22.066 47.0451 21.6487C46.7824 16.8025 45.1547 12.3329 41.8159 8.76024C40.7545 7.61906 40.7545 7.61906 40.7031 6.88402C40.7356 6.36218 40.9408 5.97737 41.2854 5.59007C41.8562 5.18415 42.4897 5.15127 43.1293 5.40892Z" fill="#876FFD"/>
<path d="M12.4234 5.44099C12.8527 5.67945 13.0834 5.94882 13.2321 6.41792C13.3275 6.92333 13.2838 7.32275 13.025 7.77009C12.7637 8.14315 12.451 8.44519 12.1241 8.76036C10.1742 10.7733 8.85939 13.3178 7.95277 15.9414C7.91354 16.0542 7.91354 16.0542 7.87352 16.1693C7.28419 17.9025 6.98784 19.745 6.95148 21.5732C6.93587 22.2361 6.9023 22.8578 6.45826 23.3815C5.92928 23.8202 5.61779 23.8535 4.94596 23.8413C4.53623 23.7974 4.31698 23.677 4.01918 23.3945C3.75682 23.0225 3.66848 22.7669 3.66374 22.3132C3.66256 22.2032 3.66138 22.0931 3.66016 21.9797C3.66121 21.8616 3.66226 21.7435 3.66334 21.6218C3.66412 21.4984 3.66491 21.375 3.66572 21.2479C3.76368 15.8 6.02952 10.4223 9.77076 6.4814C9.95492 6.28396 10.124 6.08799 10.2924 5.8781C10.8597 5.21927 11.6425 5.10553 12.4234 5.44099Z" fill="#876FFD"/>
</g>
<defs>
<clipPath id="clip0_575_922">
<rect width="53" height="53" fill="white" transform="translate(0.5)"/>
</clipPath>
</defs>
</svg>
