<svg width="53" height="54" viewBox="0 0 53 54" fill="none" xmlns="http://www.w3.org/2000/svg">
<path d="M30.3654 1.45686C31.0522 2.04495 31.5837 2.6619 31.9816 3.48317C32.0236 3.56653 32.0656 3.64988 32.1089 3.73576C33.0378 5.69074 32.7413 7.98728 32.0758 9.97881C31.6207 11.1471 31.0378 12.1393 30.134 13.0022C30.2018 13.0093 30.2695 13.0164 30.3393 13.0237C33.8361 13.4015 35.7896 14.8407 38.2036 17.2899C38.3285 17.4163 38.4535 17.5426 38.5785 17.6688C38.8795 17.973 39.1801 18.2776 39.4806 18.5824C39.8061 18.4358 40.0268 18.2761 40.2732 18.0177C40.3408 17.9475 40.4083 17.8774 40.4779 17.8051C40.55 17.7293 40.6222 17.6535 40.6965 17.5754C40.8525 17.4145 41.0086 17.2537 41.1647 17.0929C41.4089 16.8403 41.6526 16.5873 41.895 16.333C44.1094 14.0153 44.1094 14.0154 45.7841 13.9528C46.9058 13.9753 47.8069 14.3592 48.5996 15.1508C49.3475 16.0006 49.644 16.8379 49.6147 17.9725C49.4513 19.6936 48.2268 20.7694 47.0789 21.9217C46.9284 22.0737 46.7779 22.2258 46.6275 22.3779C46.3132 22.6953 45.9983 23.012 45.6831 23.3283C45.2803 23.7326 44.8793 24.1385 44.4787 24.545C44.1688 24.859 43.8579 25.172 43.5467 25.4846C43.3984 25.6339 43.2505 25.7835 43.1029 25.9334C42.8962 26.1431 42.6882 26.3514 42.4798 26.5593C42.4199 26.6207 42.36 26.682 42.2983 26.7452C41.4454 27.5881 40.564 27.8084 39.3946 27.8072C37.6909 27.7717 36.7671 26.5757 35.6402 25.4396C35.5599 25.3587 35.4796 25.2778 35.3969 25.1944C35.2003 24.9964 35.0038 24.7983 34.8073 24.6002C34.8071 24.7279 34.8071 24.7279 34.8068 24.8582C34.8049 25.6615 34.8004 26.4648 34.7929 27.2681C34.7892 27.6811 34.7865 28.094 34.786 28.507C34.7856 28.9057 34.7825 29.3044 34.7776 29.7031C34.7762 29.855 34.7757 30.007 34.7762 30.1589C34.7767 30.3721 34.7736 30.5853 34.7703 30.7985C34.7696 30.9197 34.7688 31.0409 34.7681 31.1658C34.6759 31.6005 34.4956 31.7662 34.1552 32.0404C33.7748 32.1088 33.7748 32.1088 33.3944 32.0404C32.9896 31.7356 32.8639 31.5737 32.7828 31.0657C32.7799 30.8958 32.78 30.7259 32.7824 30.556C32.7813 30.4164 32.7813 30.4164 32.7801 30.2739C32.7783 29.9668 32.7804 29.6599 32.7827 29.3529C32.7826 29.1391 32.7823 28.9253 32.7819 28.7116C32.7816 28.2638 32.7832 27.8161 32.7862 27.3684C32.7899 26.7948 32.7892 26.2212 32.7872 25.6476C32.786 25.2063 32.787 24.7649 32.7886 24.3236C32.7892 24.1121 32.7891 23.9006 32.7885 23.6891C32.7879 23.3934 32.7901 23.0978 32.7931 22.8021C32.792 22.6713 32.792 22.6713 32.7909 22.5379C32.7978 22.1332 32.837 21.8878 33.0491 21.54C33.3806 21.2287 33.597 21.2005 34.0465 21.2083C34.7072 21.568 35.2014 22.1238 35.7243 22.6581C35.8581 22.7929 35.8581 22.7929 35.9945 22.9303C36.466 23.4084 36.9222 23.8942 37.3573 24.4062C38.177 25.3757 38.177 25.3757 39.3125 25.8414C40.0509 25.8681 40.526 25.7019 41.0947 25.2044C41.2036 25.0964 41.3116 24.9875 41.4188 24.8779C41.5083 24.7884 41.5083 24.7884 41.5996 24.6972C41.7953 24.5009 41.9899 24.3036 42.1845 24.1061C42.3211 23.9685 42.4577 23.831 42.5944 23.6936C42.8804 23.4056 43.1658 23.1172 43.4508 22.8282C43.8148 22.4593 44.18 22.0916 44.5456 21.7242C44.8279 21.4404 45.1096 21.1561 45.3912 20.8715C45.5256 20.7358 45.6601 20.6002 45.7948 20.4648C45.9836 20.2748 46.1717 20.0841 46.3596 19.8931C46.4145 19.8381 46.4695 19.783 46.5261 19.7263C47.0707 19.1699 47.5872 18.6015 47.6656 17.796C47.6116 17.1327 47.3949 16.6842 46.9049 16.2368C46.4612 16.0261 46.0589 15.8955 45.5667 15.9564C44.7504 16.286 44.2398 16.8054 43.6368 17.4382C43.4862 17.5927 43.3357 17.7472 43.1851 17.9016C42.8697 18.2256 42.5562 18.5514 42.2428 18.8773C41.9834 19.1468 41.7236 19.4159 41.4623 19.6835C41.267 19.8837 41.0729 20.085 40.8802 20.2877C40.7917 20.3783 40.7031 20.4689 40.6119 20.5622C40.4964 20.6823 40.4964 20.6823 40.3785 20.8048C40.0751 21.0328 39.8558 21.0747 39.4806 21.0989C38.9594 20.9067 38.6025 20.5891 38.221 20.195C38.1658 20.1392 38.1107 20.0835 38.0538 20.0261C37.9377 19.9084 37.822 19.7904 37.7067 19.6721C37.5327 19.4936 37.3577 19.3162 37.1824 19.1391C36.6443 18.5932 36.1217 18.0393 35.624 17.4555C34.2362 15.8863 32.4529 15.1442 30.386 15.0204C29.976 14.9996 29.5662 14.9844 29.1559 14.9717C29.1743 15.039 29.1926 15.1063 29.2116 15.1756C29.2732 15.4474 29.2483 15.6234 29.1898 15.8949C29.1737 15.976 29.1576 16.0571 29.141 16.1406C29.0472 16.3941 29.0472 16.3941 28.8232 16.6405C28.5604 17.0155 28.5755 17.178 28.6241 17.6286C28.6381 17.7643 28.652 17.8999 28.6664 18.0396C28.6844 18.1826 28.7025 18.3256 28.7211 18.473C28.7388 18.6141 28.7565 18.7552 28.7747 18.9006C28.8242 19.2787 28.8783 19.656 28.9339 20.0333C28.9705 20.2817 29.0064 20.5302 29.0421 20.7788C29.1179 21.305 29.1946 21.8311 29.2713 22.3572C29.3608 22.9707 29.4498 23.5842 29.5381 24.1979C29.5734 24.4417 29.6092 24.6854 29.645 24.9292C29.6667 25.079 29.6883 25.2289 29.7099 25.3787C29.7289 25.5087 29.7479 25.6387 29.7674 25.7726C29.87 26.6825 29.87 26.6825 29.6483 27.0612C29.5755 27.1472 29.5026 27.2332 29.4276 27.3219C29.3481 27.4161 29.2687 27.5103 29.1869 27.6074C28.8948 27.9311 28.5926 28.2406 28.2809 28.5451C28.0639 28.7632 27.8621 28.9896 27.6615 29.223C27.5992 29.2946 27.5368 29.3663 27.4726 29.4401C27.3433 29.5921 27.2195 29.7487 27.0977 29.9068C26.8129 30.1154 26.5713 30.1393 26.2228 30.1192C25.616 29.9852 25.2144 29.3789 24.8311 28.9251C24.4494 28.485 24.0499 28.0613 23.6517 27.6363C23.5624 27.5403 23.5624 27.5403 23.4713 27.4424C23.4176 27.385 23.3638 27.3275 23.3084 27.2683C22.9457 26.8454 23.0396 26.3314 23.0697 25.8038C23.1337 25.2409 23.214 24.6811 23.2978 24.1209C23.3396 23.8405 23.3804 23.5599 23.4209 23.2792C23.536 22.4821 23.6529 21.6853 23.7708 20.8886C23.8432 20.3994 23.9142 19.91 23.9844 19.4205C24.0113 19.2345 24.0388 19.0486 24.0668 18.8628C24.1058 18.6037 24.1432 18.3445 24.1801 18.0852C24.1981 17.9704 24.1981 17.9704 24.2164 17.8533C24.2732 17.4413 24.283 17.1814 24.0479 16.8318C23.9698 16.6979 23.8929 16.5634 23.8169 16.4283C23.7593 16.3295 23.7593 16.3295 23.7006 16.2287C23.5674 15.814 23.5976 15.4039 23.6131 14.9717C20.4247 15.0773 18.6201 16.0278 16.4206 18.2824C16.3437 18.3612 16.2667 18.44 16.1874 18.5213C15.8685 18.8483 15.5497 19.1755 15.233 19.5047C14.9984 19.7482 14.7621 19.9899 14.5255 20.2313C14.419 20.3433 14.419 20.3433 14.3104 20.4575C13.9182 20.8546 13.6569 21.0971 13.071 21.0989C12.6171 20.9531 12.3676 20.7291 12.0681 20.3712C11.6797 19.9164 11.2724 19.4858 10.8537 19.0594C10.7796 18.9839 10.7056 18.9085 10.6293 18.8308C10.4739 18.6728 10.3184 18.5151 10.1627 18.3575C10.0047 18.1971 9.84712 18.0363 9.69007 17.8749C9.46088 17.6395 9.23028 17.4056 8.99932 17.172C8.93012 17.1004 8.86092 17.0288 8.78963 16.9551C8.28263 16.4471 7.73703 15.9985 7.00358 15.9261C6.87329 15.9445 6.87329 15.9445 6.74037 15.9633C6.65238 15.9736 6.5644 15.9839 6.47376 15.9945C6.18847 16.0761 6.02038 16.2108 5.7894 16.3941C5.71767 16.3941 5.64595 16.3941 5.57204 16.3941C5.53842 16.4799 5.5048 16.5656 5.47015 16.654C5.35468 16.9412 5.35468 16.9412 5.246 17.16C5.22029 17.4047 5.22029 17.4047 5.21883 17.6797C5.21603 17.7717 5.21322 17.8636 5.21034 17.9584C5.29576 18.6668 5.7291 19.1162 6.21073 19.5944C6.27474 19.6592 6.33875 19.7241 6.4047 19.7909C6.61528 20.0037 6.82701 20.2154 7.03881 20.4271C7.186 20.5752 7.33313 20.7234 7.4802 20.8716C7.78803 21.1815 8.09641 21.4908 8.40521 21.7997C8.80095 22.1956 9.19548 22.5928 9.58963 22.9903C9.89306 23.2962 10.197 23.6015 10.5012 23.9066C10.6469 24.0528 10.7924 24.1993 10.9378 24.3458C11.141 24.5504 11.3448 24.7542 11.5488 24.9578C11.6387 25.0487 11.6387 25.0487 11.7304 25.1414C12.2177 25.6252 12.5355 25.8351 13.2205 25.8448C13.32 25.8479 13.4194 25.851 13.5219 25.8542C14.3191 25.7245 14.88 24.9943 15.4196 24.4416C15.5074 24.3527 15.5952 24.2637 15.6857 24.172C15.9649 23.889 16.2433 23.6053 16.5217 23.3214C16.8017 23.0365 17.0818 22.7518 17.3623 22.4673C17.5366 22.2906 17.7105 22.1135 17.8841 21.9362C18.0017 21.8167 18.0017 21.8167 18.1216 21.6949C18.1906 21.6245 18.2596 21.5541 18.3307 21.4817C18.5693 21.2575 18.7012 21.2112 19.0281 21.1673C19.3746 21.2083 19.3746 21.2083 19.6636 21.4245C20.0042 21.8676 19.9943 22.1695 19.9866 22.7145C19.9877 22.8577 19.9877 22.8577 19.9889 23.0037C19.9907 23.3184 19.9886 23.6329 19.9863 23.9476C19.9864 24.1665 19.9867 24.3855 19.9871 24.6044C19.9874 25.0629 19.9858 25.5214 19.9828 25.9799C19.9791 26.5677 19.9798 27.1555 19.9818 27.7433C19.983 28.1953 19.982 28.6472 19.9804 29.0992C19.9798 29.316 19.9799 29.5327 19.9805 29.7495C19.9811 30.0523 19.9789 30.355 19.9759 30.6578C19.977 30.7923 19.977 30.7923 19.9781 30.9294C19.9714 31.3271 19.9534 31.5559 19.7106 31.877C19.3952 32.1037 19.1968 32.1026 18.8205 32.0836C18.5017 32.017 18.3645 31.8641 18.1791 31.6027C18.0631 31.2525 18.0534 30.9929 18.0481 30.6246C18.0459 30.491 18.0437 30.3573 18.0415 30.2197C18.0388 30.0033 18.0388 30.0033 18.036 29.7824C18.0338 29.6333 18.0315 29.4841 18.0292 29.3349C18.0232 28.9426 18.0178 28.5503 18.0125 28.158C18.0071 27.7576 18.001 27.3571 17.995 26.9567C17.9833 26.1712 17.9723 25.3857 17.9617 24.6002C17.9124 24.6535 17.8631 24.7067 17.8123 24.7616C17.586 25.0058 17.3593 25.2496 17.1326 25.4935C17.0551 25.5773 16.9775 25.661 16.8976 25.7474C15.8653 26.8561 14.9873 27.7461 13.4161 27.8166C11.8456 27.8473 11.0797 27.2626 9.97892 26.1983C9.57237 25.8013 9.1708 25.3993 8.76965 24.9968C8.70671 24.9338 8.64377 24.8707 8.57893 24.8058C8.24668 24.4729 7.91474 24.1397 7.58307 23.8063C7.24302 23.4646 6.90198 23.1239 6.5607 22.7834C6.29571 22.5186 6.03147 22.2532 5.76742 21.9875C5.64204 21.8616 5.5164 21.736 5.39047 21.6107C4.23805 20.4628 3.26986 19.4211 3.24219 17.7208C3.25275 16.5928 3.55998 15.7983 4.33112 14.9768C5.13027 14.2958 6.08883 13.937 7.13136 13.9579C9.11854 14.1583 10.2899 15.7673 11.6174 17.1121C11.7695 17.2658 11.9217 17.4195 12.0738 17.5731C12.4427 17.9457 12.8113 18.3187 13.1797 18.6918C13.3007 18.5882 13.4215 18.4844 13.5423 18.3806C13.6432 18.294 13.6432 18.294 13.7462 18.2056C14.3357 17.689 14.885 17.1196 15.3873 16.5172C16.3509 15.3976 17.4007 14.5285 18.7225 13.8776C18.8288 13.8237 18.9351 13.7698 19.0447 13.7143C20.178 13.2075 21.4134 13.1288 22.635 13.0022C22.5761 12.9402 22.5171 12.8781 22.4564 12.8142C20.8239 11.0747 20.1738 8.80933 20.0946 6.45788C20.1551 4.67551 20.8471 3.17845 21.9829 1.84195C24.3513 -0.283998 27.8442 -0.555275 30.3654 1.45686ZM22.8299 3.74944C22.019 4.91789 21.8501 6.22618 22.0721 7.60633C22.3765 9.33193 23.0049 10.8767 24.3739 12.0175C25.3127 12.6121 26.3277 12.7227 27.4149 12.4975C28.5352 12.1364 29.2609 11.3834 29.8551 10.3827C30.6616 8.79735 31.1257 6.84028 30.6638 5.07652C30.223 3.83309 29.2625 2.83061 28.0873 2.26679C26.1563 1.47516 24.1434 2.18949 22.8299 3.74944ZM25.5694 14.9717C25.5335 15.1522 25.4977 15.3328 25.4607 15.5188C25.5459 15.5752 25.6311 15.6316 25.7188 15.6897C26.0788 16.0262 26.125 16.2398 26.2215 16.7223C26.2183 17.0356 26.1739 17.3371 26.1247 17.646C26.1054 17.7796 26.1054 17.7796 26.0857 17.9159C26.0432 18.2083 25.9984 18.5002 25.9536 18.7922C25.9236 18.9961 25.8938 19.2001 25.8642 19.404C25.786 19.9395 25.706 20.4748 25.6255 21.0099C25.4967 21.8676 25.3699 22.7256 25.2443 23.5837C25.2002 23.8832 25.1548 24.1826 25.1094 24.4819C25.0823 24.6653 25.0552 24.8486 25.0281 25.032C25.0087 25.1567 25.0087 25.1567 24.989 25.284C24.9052 25.8268 24.9052 25.8268 25.026 26.3508C25.236 26.602 25.236 26.602 25.4947 26.8432C25.5794 26.9256 25.6642 27.0079 25.7515 27.0928C25.8349 27.1729 25.9182 27.253 26.0041 27.3356C26.1494 27.4811 26.2944 27.6268 26.4388 27.7732C26.6543 27.5612 26.8676 27.3477 27.0782 27.1308C27.3083 26.8979 27.3083 26.8979 27.4908 26.7436C27.675 26.586 27.675 26.586 27.8517 26.2414C27.8709 25.255 27.674 24.2519 27.5303 23.277C27.4937 23.029 27.4578 22.7809 27.422 22.5327C27.3333 21.9176 27.2436 21.3026 27.1537 20.6876C27.0772 20.1649 27.0013 19.6421 26.926 19.1191C26.8909 18.8762 26.855 18.6333 26.8191 18.3904C26.602 16.8997 26.602 16.8997 26.6562 16.2847C26.9143 15.9906 26.9143 15.9906 27.1996 15.7376C27.3545 15.4578 27.3545 15.4578 27.417 15.1905C27.3811 15.1183 27.3452 15.0461 27.3083 14.9717C26.7345 14.9717 26.1606 14.9717 25.5694 14.9717Z" fill="#876FFD"/>
<path d="M13.0384 33.1425C14.1206 34.0743 14.811 35.203 15.0277 36.6357C15.1885 38.825 14.793 41.0951 13.3432 42.8176C13.2535 42.9079 13.1638 42.9981 13.0715 43.0911C13.1897 43.1085 13.308 43.1258 13.4298 43.1437C15.3498 43.4429 16.7209 44.0608 17.9621 45.6077C18.0664 45.4994 18.0664 45.4994 18.1727 45.3889C18.2833 45.2791 18.3943 45.1697 18.5055 45.0606C18.5742 44.9919 18.6428 44.9232 18.7136 44.8525C19.9097 43.7117 21.346 43.2475 22.9615 43.0911C22.9141 43.0353 22.8668 42.9794 22.818 42.9219C21.4111 41.1928 20.877 39.0695 21.0052 36.8545C21.2176 35.3922 21.881 34.0568 23.0294 33.1276C24.4023 32.1437 25.8515 31.721 27.5269 31.9817C28.963 32.3007 30.2021 32.9788 31.0603 34.1927C32.1574 35.9295 32.2967 37.6048 31.8708 39.5976C31.5632 40.9086 30.979 42.0526 30.1344 43.0911C30.2552 43.1098 30.3759 43.1284 30.5004 43.1476C32.3851 43.4506 33.8122 44.0408 35.0251 45.6077C35.0946 45.5355 35.1641 45.4633 35.2356 45.3889C35.3462 45.2791 35.4572 45.1697 35.5685 45.0606C35.6371 44.9919 35.7058 44.9232 35.7765 44.8525C36.9727 43.7117 38.409 43.2475 40.0244 43.0911C39.8899 42.9557 39.8899 42.9557 39.7527 42.8176C38.3619 41.1652 37.922 38.9713 38.0481 36.8619C38.093 36.3559 38.2073 35.9025 38.3942 35.4321C38.4287 35.342 38.4631 35.2519 38.4986 35.159C39.1058 33.7695 40.1994 32.8623 41.546 32.2591C43.0923 31.7239 44.6373 31.8157 46.1242 32.4916C47.515 33.2412 48.4687 34.4807 48.9363 35.9792C49.3956 37.9474 49.0294 40.0513 48.0838 41.826C47.81 42.2653 47.5077 42.6777 47.1974 43.0911C47.3078 43.1085 47.4182 43.1258 47.5319 43.1437C49.1733 43.4172 50.501 43.9159 51.6533 45.17C51.7878 45.3156 51.7878 45.3156 51.925 45.4641C52.726 46.451 52.9914 47.557 52.9902 48.7991C52.9906 48.9038 52.9911 49.0086 52.9916 49.1165C52.9922 49.3367 52.9923 49.5569 52.9918 49.7772C52.9914 50.1143 52.994 50.4513 52.9968 50.7884C52.997 51.0029 52.9971 51.2174 52.997 51.4319C52.998 51.5325 52.999 51.6332 53 51.7369C52.995 52.4273 52.995 52.4273 52.8149 52.78C52.5166 53.0376 52.2554 53.0412 51.8707 53.0479C51.565 52.9316 51.565 52.9316 51.3273 52.7196C51.1003 52.193 51.0825 51.7005 51.0878 51.1357C51.0867 50.9543 51.0854 50.773 51.084 50.5916C51.0829 50.3093 51.0827 50.0271 51.0849 49.7448C51.0925 48.4556 51.0397 47.3588 50.1308 46.3501C49.2255 45.4781 48.1263 45.1443 46.8911 45.14C46.7711 45.1391 46.7711 45.1391 46.6487 45.1383C46.3869 45.1368 46.1252 45.1369 45.8635 45.1371C45.6797 45.1367 45.4959 45.1362 45.3122 45.1357C44.9279 45.1349 44.5437 45.1349 44.1595 45.1355C43.6696 45.1361 43.1798 45.1343 42.6899 45.1317C42.3106 45.1301 41.9313 45.13 41.552 45.1304C41.3715 45.1303 41.191 45.1297 41.0105 45.1286C39.5844 45.1209 38.3652 45.2503 37.1987 46.1548C36.437 46.9201 36.0792 47.7917 36.0695 48.8724C36.0705 49.0022 36.0705 49.0022 36.0716 49.1346C36.0697 49.3234 36.0678 49.5121 36.0658 49.7009C36.0647 49.9943 36.0643 50.2877 36.0645 50.5811C36.0641 50.8671 36.0612 51.1531 36.058 51.4391C36.0589 51.5266 36.0598 51.614 36.0607 51.7041C36.055 52.1297 36.0309 52.3457 35.8058 52.7176C35.4772 53.0234 35.2504 53.0479 34.8077 53.0479C34.4874 52.9007 34.314 52.8197 34.1556 52.5008C34.1425 52.2026 34.1354 51.9067 34.1327 51.6084C34.1297 51.4246 34.1265 51.2408 34.1234 51.057C34.1189 50.768 34.1149 50.479 34.112 50.19C34.0947 48.598 34.0264 47.3943 32.8956 46.1889C32.0904 45.4242 31.0595 45.1549 29.9797 45.1507C29.8587 45.1496 29.8587 45.1496 29.7353 45.1485C29.4687 45.1463 29.2021 45.145 28.9355 45.144C28.844 45.1435 28.7525 45.1431 28.6583 45.1426C28.1734 45.1403 27.6884 45.1388 27.2035 45.1377C26.7056 45.1365 26.2077 45.1328 25.7098 45.1284C25.3245 45.1255 24.9393 45.1246 24.554 45.1242C24.3706 45.1237 24.1873 45.1224 24.0039 45.1204C22.5554 45.1053 21.2468 45.2182 20.1357 46.2642C19.332 47.0641 19.0418 47.89 19.0312 49.0277C19.0305 49.1578 19.0305 49.1578 19.0298 49.2906C19.0273 49.4763 19.0247 49.662 19.022 49.8477C19.0182 50.139 19.015 50.4302 19.0135 50.7215C19.0118 51.0036 19.0075 51.2857 19.0027 51.5678C19.0029 51.6548 19.0031 51.7417 19.0033 51.8313C18.9947 52.2196 18.9743 52.4543 18.7423 52.7711C18.4037 53.0104 18.1565 53.0479 17.7448 53.0479C17.4402 52.8546 17.254 52.7163 17.0927 52.3914C17.0795 52.084 17.0725 51.7788 17.0697 51.4712C17.0667 51.2819 17.0636 51.0927 17.0604 50.9034C17.0559 50.6055 17.0519 50.3076 17.0491 50.0096C17.046 49.7218 17.041 49.434 17.0358 49.1461C17.0353 49.0148 17.0353 49.0148 17.0347 48.8808C17.0117 47.7973 16.6624 46.9237 15.8972 46.1548C14.6559 45.1924 13.343 45.1189 11.8365 45.1226C11.6538 45.1221 11.4711 45.1215 11.2884 45.1208C10.9069 45.1199 10.5253 45.1201 10.1438 45.1212C9.65855 45.1225 9.17339 45.1203 8.68816 45.1171C8.31117 45.115 7.9342 45.1151 7.5572 45.1157C7.37849 45.1157 7.19977 45.1151 7.02107 45.1137C5.62366 45.1045 4.28705 45.1979 3.17468 46.1552C2.18344 47.1833 1.97765 48.276 1.96306 49.6646C1.96001 49.8293 1.95689 49.994 1.95372 50.1586C1.94921 50.4146 1.9452 50.6705 1.94236 50.9265C1.93936 51.1761 1.93438 51.4255 1.92909 51.6751C1.92874 51.7514 1.92839 51.8278 1.92802 51.9065C1.91969 52.2377 1.89297 52.4719 1.73396 52.7648C1.44165 53.0426 1.183 53.0411 0.790486 53.0479C0.48482 52.9316 0.48482 52.9316 0.24708 52.7196C0.0528404 52.2474 0.00185208 51.8435 0.000849072 51.3349C0.000568879 51.1958 0.000288685 51.0567 0 50.9134C0.000840581 50.7693 0.00168116 50.6251 0.00254722 50.4766C0.00170664 50.3359 0.000866054 50.1951 0 50.0501C0.00361095 48.2433 0.175532 46.7019 1.33389 45.2794C1.39666 45.1869 1.45942 45.0944 1.52408 44.9991C2.68664 43.7311 4.27381 43.3465 5.8985 43.0911C5.84989 43.0249 5.80128 42.9586 5.75119 42.8903C4.45351 41.0796 3.72157 38.8777 3.98555 36.625C4.19249 35.6198 4.61242 34.7024 5.24642 33.9003C5.30372 33.8264 5.36102 33.7525 5.42005 33.6764C7.35793 31.4638 10.801 31.4091 13.0384 33.1425ZM6.56418 35.2543C5.756 36.3806 5.72061 37.4951 5.92143 38.8402C6.20969 40.2568 6.85527 41.6082 8.07213 42.4347C8.9038 42.8467 9.66152 42.8693 10.531 42.5783C11.6384 42.133 12.1568 41.351 12.6652 40.2878C13.1988 39.0078 13.442 37.5735 13.0239 36.2185C12.663 35.3522 11.9479 34.5468 11.1152 34.1191C9.43126 33.4521 7.73418 33.8221 6.56418 35.2543ZM23.6883 35.1381C22.9783 36.0335 22.77 37.0463 22.8528 38.1675C23.1076 39.8142 23.6076 41.2284 24.9309 42.3013C25.5391 42.6985 26.2635 42.8755 26.9827 42.7629C27.9312 42.5501 28.5672 42.1162 29.1563 41.3405C29.9717 40.0058 30.4756 38.3664 30.193 36.7947C29.9288 35.787 29.3726 34.9196 28.5042 34.338C26.8109 33.4225 25.0097 33.7011 23.6883 35.1381ZM40.6765 35.2133C39.9113 36.2121 39.804 37.2662 39.9157 38.4957C40.1118 39.8083 40.6589 41.3196 41.7463 42.15C42.4538 42.6239 43.1867 42.8704 44.0456 42.7629C45.0204 42.5097 45.7466 41.9386 46.3279 41.1217C47.0936 39.7503 47.4992 38.1439 47.1672 36.5882C46.8904 35.5983 46.3334 34.8531 45.4721 34.3038C43.7532 33.3338 41.9736 33.7589 40.6765 35.2133Z" fill="#876FFD"/>
<path d="M38.0397 0.0620475C38.1444 0.0614883 38.2491 0.0609291 38.357 0.0603529C38.7021 0.0588357 39.0472 0.058937 39.3923 0.0591893C39.633 0.0587638 39.8736 0.0582895 40.1143 0.0577685C40.6184 0.0569527 41.1225 0.0569834 41.6266 0.0575598C42.2715 0.0581935 42.9163 0.0563417 43.5612 0.053802C44.0582 0.0521873 44.5551 0.0520944 45.0521 0.0524354C45.2898 0.0523793 45.5275 0.0518082 45.7652 0.0507053C46.0981 0.0493502 46.431 0.050097 46.7639 0.0513625C46.8614 0.0505261 46.9588 0.0496898 47.0593 0.0488281C47.8015 0.05504 48.3681 0.206547 49.0114 0.598142C49.8707 1.48659 49.8859 2.42665 49.8745 3.60747C49.8746 3.77814 49.8749 3.94881 49.8753 4.11947C49.8756 4.47567 49.874 4.83179 49.871 5.18798C49.8673 5.64258 49.868 6.09705 49.87 6.55167C49.8712 6.90359 49.8702 7.25549 49.8686 7.60741C49.868 7.77495 49.8681 7.9425 49.8687 8.11004C49.8713 9.11332 49.8622 9.91394 49.1817 10.7079C49.121 10.7567 49.0604 10.8055 48.9979 10.8558C48.9375 10.9063 48.8771 10.9568 48.8149 11.0088C48.2092 11.4068 47.674 11.3821 46.9741 11.3648C46.755 11.3633 46.5358 11.3621 46.3167 11.3612C45.9739 11.359 45.6315 11.355 45.2888 11.3457C44.0005 11.3133 43.0029 11.3017 42.0125 12.2069C41.8551 12.3607 41.7007 12.5177 41.5464 12.6748C41.3398 12.8536 41.128 13.0236 40.9147 13.1945C40.6364 13.4222 40.3614 13.6501 40.0941 13.8907C39.606 14.3142 39.2681 14.5106 38.6167 14.5058C38.2486 14.3726 38.1494 14.2255 37.9599 13.8783C37.9074 13.4461 37.919 13.0205 37.9327 12.5859C37.9347 12.4683 37.9367 12.3508 37.9387 12.2296C37.9438 11.9403 37.9509 11.6511 37.9599 11.3618C37.8386 11.3648 37.8386 11.3648 37.7149 11.3678C37.6081 11.3694 37.5014 11.3709 37.3915 11.3725C37.2332 11.3755 37.2332 11.3755 37.0717 11.3785C36.5091 11.3479 36.1066 11.1286 35.7044 10.7399C35.1892 10.1588 34.9988 9.75497 34.9939 8.96163C34.9932 8.88614 34.9925 8.81064 34.9917 8.73286C34.9897 8.48368 34.9892 8.23453 34.989 7.98534C34.9883 7.81144 34.9876 7.63754 34.9868 7.46364C34.9855 7.09905 34.9851 6.73447 34.9852 6.36987C34.9853 5.90435 34.9823 5.43889 34.9786 4.97338C34.9761 4.61405 34.9757 4.25473 34.9758 3.89539C34.9756 3.72388 34.9746 3.55236 34.9729 3.38085C34.9561 1.49958 34.9561 1.49958 35.67 0.746023C35.7397 0.697222 35.8095 0.648421 35.8814 0.598142C35.9506 0.547649 36.0198 0.497156 36.0911 0.445132C36.7334 0.0838525 37.3231 0.0600637 38.0397 0.0620475ZM36.8731 2.28039C36.8084 2.59396 36.8084 2.59396 36.8203 2.957C36.8196 3.09646 36.819 3.23593 36.8183 3.37962C36.8198 3.53193 36.8214 3.68425 36.823 3.83656C36.8233 3.99256 36.8234 4.14857 36.8233 4.30458C36.8236 4.63139 36.8254 4.95814 36.8284 5.28494C36.8321 5.70428 36.8329 6.12356 36.8327 6.54291C36.8328 6.86496 36.834 7.18699 36.8356 7.50904C36.8362 7.66369 36.8367 7.81834 36.8368 7.97299C36.8373 8.18882 36.8394 8.40466 36.8415 8.62049C36.8424 8.74341 36.8432 8.86633 36.844 8.99298C36.8441 9.2999 36.8441 9.2999 37.0905 9.50176C37.4994 9.53387 37.9043 9.5472 38.3142 9.55412C38.874 9.57304 39.2827 9.62995 39.6988 10.0488C39.7244 10.3059 39.7438 10.5637 39.7599 10.8216C39.7691 10.9628 39.7782 11.1039 39.7875 11.2494C39.7941 11.3587 39.8007 11.468 39.8075 11.5806C40.2307 11.2653 40.6502 10.9468 41.062 10.6164C41.1294 10.5624 41.1969 10.5085 41.2664 10.4529C41.4021 10.344 41.5376 10.2347 41.6727 10.125C42.135 9.75469 42.4386 9.5986 43.0253 9.59392C43.1265 9.5928 43.2276 9.59167 43.3319 9.59052C43.4409 9.58972 43.55 9.58892 43.6623 9.5881C43.8925 9.58503 44.1228 9.58189 44.353 9.57869C44.7165 9.57417 45.08 9.57013 45.4435 9.56726C45.7939 9.56425 46.1443 9.55923 46.4948 9.5539C46.6583 9.55337 46.6583 9.55337 46.8252 9.55283C46.9264 9.55101 47.0275 9.5492 47.1318 9.54733C47.2208 9.54645 47.3099 9.54556 47.4016 9.54465C47.6372 9.51629 47.6372 9.51629 47.8241 9.37634C48.0181 9.08382 48.0008 8.85874 48.0025 8.50869C48.0039 8.37177 48.0053 8.23485 48.0067 8.09378C48.0065 7.94423 48.0061 7.79468 48.0057 7.64513C48.0062 7.49184 48.0068 7.33855 48.0074 7.18526C48.0084 6.86407 48.0081 6.54291 48.0071 6.22172C48.0058 5.80998 48.008 5.39833 48.0112 4.9866C48.0132 4.67009 48.0132 4.3536 48.0125 4.03708C48.0125 3.88526 48.0132 3.73345 48.0145 3.58164C48.0161 3.36951 48.0147 3.15735 48.0131 2.94521C48.0131 2.82448 48.0131 2.70374 48.0131 2.57935C47.9821 2.27769 47.9821 2.27769 47.7991 2.07737C47.3835 1.88826 46.9948 1.90646 46.5436 1.90968C46.4446 1.9091 46.3456 1.90853 46.2436 1.90793C45.9164 1.90649 45.5892 1.90744 45.2619 1.90855C45.0346 1.90833 44.8072 1.90801 44.5798 1.9076C44.1032 1.90712 43.6267 1.90782 43.1502 1.90936C42.5391 1.91123 41.9281 1.91015 41.317 1.90818C40.8475 1.907 40.378 1.90737 39.9084 1.90822C39.6831 1.90844 39.4578 1.90817 39.2325 1.90741C38.9176 1.90658 38.6029 1.90785 38.2881 1.90968C38.1948 1.90901 38.1015 1.90835 38.0054 1.90766C37.3625 1.90234 37.3625 1.90234 36.8731 2.28039Z" fill="#876FFD"/>
<path d="M39.6169 6.18974C39.7543 6.1887 39.8918 6.18766 40.0334 6.18658C40.1831 6.18661 40.3328 6.18671 40.4825 6.18689C40.6365 6.18646 40.7906 6.18599 40.9446 6.18546C41.2672 6.18465 41.5897 6.18468 41.9123 6.18526C42.325 6.18589 42.7377 6.18404 43.1504 6.1815C43.4685 6.17988 43.7865 6.17979 44.1045 6.18013C44.2566 6.18008 44.4088 6.1795 44.5609 6.1784C44.7739 6.17705 44.9869 6.17801 45.1999 6.17906C45.321 6.17899 45.442 6.17892 45.5667 6.17885C45.9351 6.22505 46.1399 6.32695 46.4366 6.54804C46.6067 6.89044 46.6211 7.27136 46.5453 7.64219C46.3042 7.95797 46.1757 8.06887 45.7807 8.13542C45.6517 8.13577 45.5226 8.13612 45.3897 8.13648C45.3183 8.13724 45.2468 8.13801 45.1732 8.1388C44.9377 8.14072 44.7023 8.13945 44.4668 8.13797C44.3027 8.13827 44.1387 8.13869 43.9747 8.13924C43.6312 8.13989 43.2877 8.13895 42.9442 8.1369C42.5041 8.13441 42.0642 8.13585 41.6242 8.13847C41.2855 8.14005 40.9469 8.13954 40.6083 8.13841C40.4461 8.13812 40.2838 8.13848 40.1216 8.1395C39.8947 8.14061 39.668 8.13891 39.4411 8.13648C39.2476 8.13595 39.2476 8.13595 39.0502 8.13542C38.6539 8.06867 38.5288 7.95748 38.2855 7.64219C38.1393 7.26924 38.1654 7.126 38.3059 6.74635C38.6506 6.20784 39.0043 6.1923 39.6169 6.18974Z" fill="#876FFD"/>
<path d="M41.5659 3.35635C41.6599 3.3553 41.7538 3.35425 41.8506 3.35316C42.0033 3.35247 42.0033 3.35247 42.159 3.35175C42.2636 3.35113 42.3681 3.35051 42.4758 3.34986C42.6974 3.34883 42.9189 3.34812 43.1405 3.34769C43.479 3.34663 43.8174 3.34324 44.1558 3.33979C44.371 3.33907 44.5862 3.3385 44.8014 3.33808C44.9025 3.33673 45.0036 3.33538 45.1078 3.33398C45.6374 3.33582 46.0102 3.34655 46.4362 3.70222C46.6063 4.04463 46.6207 4.42554 46.5449 4.79637C46.396 5.02548 46.396 5.02548 46.1102 5.23403C45.7307 5.30236 45.3542 5.29794 44.9695 5.296C44.858 5.29668 44.7465 5.29736 44.6317 5.29806C44.3961 5.29883 44.1605 5.29849 43.9249 5.2971C43.5646 5.29558 43.2047 5.29931 42.8445 5.30348C42.6154 5.30359 42.3864 5.30338 42.1573 5.30284C41.996 5.30502 41.996 5.30502 41.8314 5.30724C41.3243 5.30034 41.0793 5.29151 40.6621 4.98055C40.3953 4.59534 40.384 4.3813 40.4588 3.92105C40.7907 3.49776 41.0413 3.36108 41.5659 3.35635Z" fill="#876FFD"/>
<path d="M39.6986 3.48411C39.942 3.68169 40.0083 3.82149 40.0586 4.12991C40.0813 4.51336 40.0604 4.7371 39.8616 5.07062C39.4788 5.30184 39.156 5.32388 38.7205 5.23474C38.4176 5.02362 38.3143 4.87727 38.1906 4.53038C38.1739 4.18423 38.2218 4.00319 38.3944 3.70294C38.8313 3.32596 39.1537 3.33173 39.6986 3.48411Z" fill="#876FFD"/>
</svg>
