<svg width="53" height="48" viewBox="0 0 53 48" fill="none" xmlns="http://www.w3.org/2000/svg">
<path d="M20.4454 18.833C21.6319 19.7506 22.3126 21.0415 22.5117 22.5198C22.6491 23.6961 22.6243 24.8812 22.6201 26.0632C22.6198 26.2481 22.6194 26.433 22.6191 26.6179C22.6183 27.0664 22.6171 27.515 22.6156 27.9635C22.7341 27.963 22.7341 27.963 22.8551 27.9626C24.7803 27.9555 26.7055 27.9502 28.6307 27.9469C29.5618 27.9452 30.4928 27.943 31.4238 27.9393C32.2355 27.9361 33.0471 27.934 33.8588 27.9333C34.2884 27.9329 34.718 27.9319 35.1476 27.9296C35.5524 27.9274 35.9571 27.9267 36.3619 27.9272C36.5101 27.9271 36.6582 27.9265 36.8064 27.9253C37.6958 27.9182 38.4361 27.9276 39.1936 28.4414C39.9132 29.1666 40.1584 29.8844 40.1902 30.9023C40.1611 31.8968 39.9027 32.7192 39.1753 33.4137C38.442 33.8744 37.8291 33.9054 36.9751 33.9063C36.8482 33.9081 36.7214 33.9098 36.5907 33.9116C36.188 33.9168 35.7853 33.9191 35.3825 33.9213C35.1085 33.9243 34.8345 33.9275 34.5604 33.9309C33.8907 33.9388 33.2211 33.9443 32.5514 33.948C32.6031 34.1241 32.6031 34.1241 32.656 34.3038C32.9197 35.2522 32.7949 36.0754 32.3377 36.9403C32.1107 37.2743 32.1107 37.2743 31.9104 37.4747C31.8398 37.4747 31.7693 37.4747 31.6967 37.4747C31.7328 37.5277 31.7688 37.5807 31.806 37.6354C32.3348 38.4409 32.5429 39.1821 32.4445 40.1463C32.2141 41.0972 31.6719 41.777 30.842 42.2837C30.7715 42.2837 30.701 42.2837 30.6283 42.2837C30.679 42.3829 30.7297 42.482 30.7819 42.5842C31.1254 43.3996 31.1276 44.2104 30.8357 45.0393C30.5022 45.8243 29.9657 46.3713 29.1977 46.7254C28.6154 46.9379 28.0456 46.9239 27.4321 46.9205C27.3069 46.921 27.1817 46.9216 27.0527 46.9222C26.6403 46.9236 26.228 46.9226 25.8157 46.9216C25.5277 46.9216 25.2398 46.9221 24.9518 46.9225C24.3487 46.9231 23.7456 46.9223 23.1424 46.9208C22.4482 46.919 21.7539 46.9196 21.0597 46.9214C20.461 46.9228 19.8623 46.923 19.2636 46.9222C18.9072 46.9217 18.5509 46.9217 18.1945 46.9227C17.7962 46.9235 17.3979 46.9222 16.9996 46.9205C16.8257 46.9214 16.8257 46.9214 16.6483 46.9224C14.817 46.9074 13.5204 46.2534 12.2236 45.0155C11.739 44.5606 11.2738 44.2312 10.6498 43.9936C10.6548 44.0839 10.6598 44.1743 10.6649 44.2674C10.6888 45.019 10.6987 45.6285 10.2225 46.2378C9.83823 46.6361 9.49379 46.9621 8.91854 47.0023C8.82693 47.0037 8.73532 47.005 8.64094 47.0064C8.48469 47.009 8.48469 47.009 8.32529 47.0117C7.8484 47.0164 7.37153 47.0208 6.89462 47.0233C6.64355 47.025 6.39248 47.0279 6.14144 47.032C5.7786 47.0379 5.41589 47.0402 5.05301 47.0418C4.88587 47.0454 4.88587 47.0454 4.71535 47.0491C3.84588 47.0466 3.33701 46.8105 2.71054 46.2177C2.21555 45.3925 2.11664 44.3852 1.97721 43.4492C1.95632 43.3132 1.93543 43.1771 1.91391 43.037C1.85714 42.667 1.80134 42.297 1.74577 41.9268C1.68721 41.5376 1.62788 41.1485 1.56868 40.7594C1.46945 40.1062 1.37086 39.4529 1.27265 38.7996C1.15944 38.0466 1.04509 37.2938 0.930168 36.5411C0.831134 35.8922 0.732723 35.2432 0.63482 34.5942C0.576515 34.2077 0.518002 33.8212 0.458922 33.4348C0.393059 33.0038 0.328501 32.5726 0.264062 32.1413C0.244586 32.0149 0.225109 31.8885 0.205043 31.7583C-0.105454 29.6556 -0.105455 29.6556 0.50035 28.8184C0.926363 28.3596 1.38762 28.0947 2.0139 28.0418C2.20469 28.0405 2.20469 28.0405 2.39934 28.0393C2.50525 28.0382 2.50525 28.0382 2.61329 28.0371C2.84562 28.0351 3.07791 28.0347 3.31024 28.0344C3.47271 28.0337 3.63517 28.033 3.79764 28.0323C4.13791 28.031 4.47817 28.0306 4.81845 28.0307C5.25277 28.0308 5.68701 28.0278 6.12131 28.0242C6.45687 28.0218 6.79241 28.0213 7.12798 28.0215C7.288 28.0212 7.44802 28.0203 7.60804 28.0186C9.37382 28.002 9.37382 28.002 10.0627 28.6487C10.5883 29.2339 10.6683 29.7795 10.7567 30.5283C10.8325 30.3849 10.8325 30.3849 10.9098 30.2386C11.9017 28.4057 13.1251 27.3242 15.137 26.6811C15.2075 26.6811 15.278 26.6811 15.3507 26.6811C15.351 26.5946 15.3514 26.5081 15.3518 26.419C15.3559 25.6015 15.362 24.784 15.3703 23.9665C15.3745 23.5462 15.378 23.126 15.3796 22.7058C15.3812 22.2997 15.3849 21.8937 15.39 21.4876C15.3916 21.3332 15.3924 21.1788 15.3925 21.0244C15.3936 20.0741 15.3981 19.274 16.0985 18.5529C16.169 18.5043 16.2395 18.4556 16.3122 18.4055C16.3827 18.355 16.4532 18.3044 16.5259 18.2523C17.7623 17.5542 19.3647 18.1098 20.4454 18.833ZM17.06 19.9484C17.0122 20.2508 17.0122 20.2508 17.0206 20.5991C17.0199 20.7332 17.0192 20.8674 17.0184 21.0056C17.0187 21.0773 17.0191 21.149 17.0194 21.2228C17.0204 21.448 17.0193 21.6731 17.0177 21.8983C17.0134 22.5385 17.0132 23.1787 17.0135 23.8189C17.0135 24.2108 17.0114 24.6026 17.0082 24.9945C17.0071 25.2152 17.0084 25.4358 17.0097 25.6565C17.0021 26.6153 16.9222 27.2375 16.2304 27.9451C15.8456 28.2036 15.495 28.3345 15.0569 28.4711C13.7425 28.927 13.0408 29.7675 12.3592 30.9558C11.8871 31.7649 11.5149 32.1261 10.6498 32.5588C10.6498 35.8032 10.6498 39.0477 10.6498 42.3905C11.1082 42.5316 11.5665 42.6727 12.0387 42.818C12.4014 43.0167 12.4014 43.0167 12.6597 43.2188C12.8031 43.3299 12.8031 43.3299 12.9493 43.4434C13.1943 43.6559 13.4139 43.8766 13.6346 44.1138C14.2324 44.7415 15.1399 45.2421 16.02 45.2888C16.1083 45.2886 16.1965 45.2883 16.2875 45.2881C16.388 45.2881 16.4885 45.2881 16.592 45.2881C16.6996 45.2875 16.8073 45.287 16.9182 45.2864C17.0844 45.2862 17.0844 45.2862 17.2541 45.2859C17.6078 45.2853 17.9616 45.284 18.3154 45.2826C18.5553 45.2821 18.7953 45.2816 19.0353 45.2812C19.6233 45.28 20.2113 45.2782 20.7993 45.276C20.7841 45.2027 20.7688 45.1294 20.753 45.0538C20.7333 44.9576 20.7136 44.8615 20.6933 44.7623C20.6736 44.667 20.6539 44.5717 20.6336 44.4734C20.4866 43.6574 20.651 42.8587 21.1198 42.1768C21.2885 41.9803 21.4599 41.8151 21.654 41.6425C21.5378 41.3475 21.4206 41.0724 21.2667 40.7942C20.9629 40.0697 20.994 39.219 21.2526 38.4895C21.6587 37.6496 21.6587 37.6496 22.0814 37.3678C22.0355 37.2769 22.0355 37.2769 21.9887 37.1841C21.5208 36.2414 21.2161 35.3725 21.5184 34.3166C21.863 33.4795 22.3445 32.9576 23.1567 32.5649C23.722 32.3612 24.281 32.3798 24.8759 32.3865C25.0809 32.3856 25.0809 32.3856 25.2901 32.3847C25.5852 32.3834 25.8802 32.3837 26.1753 32.3854C26.6423 32.388 27.1093 32.3868 27.5763 32.385C28.3988 32.3824 29.2212 32.383 30.0436 32.3843C31.283 32.3863 32.5224 32.3858 33.7618 32.3822C34.2257 32.381 34.6896 32.3814 35.1535 32.3833C35.3725 32.3839 35.5914 32.3838 35.8104 32.3835C36.0769 32.383 36.3434 32.3837 36.6099 32.3858C37.458 32.3855 37.458 32.3855 38.2137 32.0244C38.574 31.5199 38.6147 31.0213 38.5342 30.4214C38.3683 29.9868 38.2818 29.8256 37.8932 29.5665C37.6034 29.5347 37.6034 29.5347 37.2706 29.5408C37.1407 29.5405 37.0108 29.5402 36.877 29.5399C36.7329 29.5406 36.5887 29.5414 36.4446 29.5422C36.293 29.5423 36.1413 29.5422 35.9897 29.5421C35.5779 29.5421 35.166 29.5433 34.7541 29.5448C34.3238 29.5461 33.8935 29.5463 33.4632 29.5465C32.6481 29.5472 31.8331 29.5489 31.0181 29.5511C30.0903 29.5535 29.1625 29.5546 28.2347 29.5557C26.3261 29.558 24.4174 29.5617 22.5087 29.5665C22.4884 29.6815 22.468 29.7964 22.4471 29.9149C22.4192 30.0686 22.3914 30.2223 22.3635 30.3759C22.3502 30.4514 22.3369 30.5268 22.3233 30.6046C22.0177 32.2746 21.2435 33.8067 19.8378 34.803C18.8694 35.3859 17.8552 35.6984 16.7395 35.8716C16.6518 35.8856 16.5641 35.8995 16.4737 35.9138C14.8673 36.1279 14.8673 36.1279 14.3574 35.8399C14.1755 35.6579 14.1755 35.6579 14.1287 35.2839C14.1755 34.9098 14.1755 34.9098 14.3027 34.7316C14.5604 34.5418 14.7525 34.5308 15.0702 34.5028C15.1844 34.4913 15.2986 34.4798 15.4162 34.468C15.654 34.4467 15.8919 34.4255 16.1298 34.4045C17.6755 34.2484 18.9567 33.718 19.9676 32.5078C21.0902 30.9205 21.0643 28.8248 21.0489 26.9617C21.0464 26.6351 21.0467 26.3086 21.0474 25.982C21.1142 22.9554 21.1142 22.9554 19.7593 20.3742C19.1083 19.8039 18.4698 19.5667 17.608 19.5777C17.3192 19.6413 17.2374 19.7122 17.06 19.9484ZM1.81623 29.8002C1.61759 30.0738 1.65849 30.2377 1.69685 30.5701C1.7096 30.6849 1.72234 30.7998 1.73547 30.9182C1.75095 31.0364 1.76644 31.1546 1.78239 31.2764C1.79646 31.3848 1.81052 31.4932 1.82501 31.605C1.8724 31.9498 1.92358 32.2939 1.97577 32.638C1.99507 32.7675 2.01437 32.8969 2.03426 33.0303C2.08669 33.3812 2.1395 33.732 2.19256 34.0827C2.22578 34.3024 2.25888 34.5221 2.29195 34.7418C2.40754 35.5097 2.52362 36.2775 2.64011 37.0452C2.7484 37.759 2.85553 38.4729 2.96216 39.1869C3.05412 39.8023 3.14693 40.4176 3.24037 41.0327C3.29601 41.3992 3.35131 41.7656 3.40574 42.1322C3.46636 42.5404 3.52873 42.9482 3.59126 43.3561C3.60892 43.4766 3.62658 43.5972 3.64478 43.7215C3.76726 44.6246 3.76726 44.6246 4.23964 45.3828C4.56735 45.3963 4.89252 45.403 5.22036 45.4045C5.36839 45.4054 5.36839 45.4054 5.51941 45.4064C5.72867 45.4074 5.93794 45.4081 6.1472 45.4085C6.46776 45.4095 6.78825 45.4129 7.10879 45.4162C7.31175 45.4169 7.51471 45.4175 7.71767 45.4179C7.86192 45.4199 7.86192 45.4199 8.00907 45.4219C8.14327 45.4214 8.14327 45.4214 8.28018 45.4209C8.35886 45.4213 8.43754 45.4217 8.51861 45.4221C8.79681 45.3696 8.8757 45.2866 9.04729 45.0622C9.0957 44.7793 9.0957 44.7793 9.08799 44.4538C9.08889 44.327 9.0898 44.2003 9.09073 44.0696C9.09008 43.9304 9.08943 43.7912 9.08876 43.6477C9.0892 43.4997 9.08977 43.3517 9.09046 43.2038C9.09193 42.8017 9.09136 42.3996 9.09034 41.9976C9.08953 41.5771 9.09028 41.1566 9.09079 40.7362C9.09137 40.03 9.0906 39.3239 9.08908 38.6178C9.08733 37.801 9.0879 36.9842 9.08966 36.1674C9.09111 35.4666 9.09132 34.7658 9.09048 34.0649C9.08998 33.6462 9.08992 33.2274 9.09097 32.8086C9.0919 32.4149 9.09126 32.0213 9.08941 31.6276C9.08878 31.4139 9.08973 31.2002 9.09073 30.9865C9.08982 30.8598 9.08892 30.733 9.08799 30.6024C9.08787 30.492 9.08775 30.3816 9.08762 30.2678C9.06878 29.9909 9.06878 29.9909 8.90273 29.7982C8.63315 29.6069 8.40476 29.6326 8.07762 29.6319C7.94393 29.6308 7.81023 29.6298 7.67248 29.6288C7.52646 29.6294 7.38043 29.63 7.2344 29.6308C7.08473 29.6305 6.93505 29.6302 6.78537 29.6298C6.47175 29.6294 6.15815 29.63 5.84454 29.6315C5.4425 29.6334 5.04054 29.6323 4.63851 29.6304C4.32946 29.6292 4.02042 29.6296 3.71136 29.6304C3.56312 29.6307 3.41489 29.6304 3.26666 29.6296C3.05951 29.6288 2.85236 29.6303 2.64522 29.6319C2.52733 29.6321 2.40944 29.6324 2.28797 29.6326C1.99989 29.6501 1.99989 29.6501 1.81623 29.8002ZM23.2699 34.3154C22.9095 34.7501 22.8892 35.1053 22.9361 35.6579C23.1834 36.1344 23.4205 36.3822 23.8976 36.6197C24.1966 36.6677 24.1966 36.6677 24.5169 36.6612C24.6388 36.6622 24.7608 36.6632 24.8864 36.6643C25.0172 36.6636 25.148 36.663 25.2827 36.6623C25.418 36.6626 25.5532 36.6629 25.6926 36.6632C25.9785 36.6634 26.2643 36.663 26.5501 36.6615C26.9152 36.6597 27.2803 36.6607 27.6454 36.6627C27.9952 36.6641 28.345 36.6631 28.6948 36.6623C28.8254 36.6629 28.9559 36.6636 29.0904 36.6643C29.9602 36.6646 29.9602 36.6646 30.7352 36.2991C31.0332 35.9539 31.1513 35.7363 31.2159 35.2839C31.1399 34.7517 30.9164 34.4382 30.5282 34.0749C30.1202 33.84 29.6872 33.8277 29.2247 33.8256C29.118 33.825 29.0114 33.8243 28.9015 33.8236C28.7875 33.8235 28.6734 33.8233 28.5558 33.8232C28.4374 33.8229 28.319 33.8225 28.197 33.8221C27.9468 33.8216 27.6967 33.8213 27.4465 33.8214C27.0648 33.8211 26.6831 33.8192 26.3014 33.8172C26.058 33.8168 25.8145 33.8166 25.5711 33.8165C25.4574 33.8158 25.3438 33.815 25.2267 33.8142C24.1711 33.8157 24.1711 33.8157 23.2699 34.3154ZM22.7892 38.8305C22.5624 39.293 22.5587 39.5277 22.6156 40.0395C22.8052 40.4888 23.0355 40.6823 23.4703 40.8944C23.8029 40.9974 24.1066 41.0159 24.454 41.0185C24.565 41.0195 24.6759 41.0205 24.7901 41.0216C24.9095 41.0221 25.0288 41.0225 25.1517 41.023C25.275 41.0236 25.3983 41.0242 25.5253 41.0248C25.7862 41.0258 26.0471 41.0265 26.308 41.0269C26.7061 41.028 27.1042 41.0313 27.5023 41.0347C27.756 41.0354 28.0096 41.0359 28.2633 41.0363C28.382 41.0377 28.5006 41.039 28.6229 41.0403C29.2679 41.0385 29.7423 41.0016 30.3078 40.6807C30.7064 40.2597 30.7064 40.2597 30.8478 39.7201C30.8124 39.2617 30.7797 39.0274 30.4881 38.6569C30.0362 38.31 29.7492 38.1961 29.1763 38.1934C29.0564 38.1924 28.9366 38.1913 28.8132 38.1903C28.6197 38.1904 28.6197 38.1904 28.4223 38.1906C28.2227 38.1899 28.2227 38.1899 28.0191 38.1892C27.7377 38.1886 27.4563 38.1884 27.1748 38.189C26.8867 38.1895 26.5987 38.1887 26.3106 38.1868C25.8949 38.1842 25.4793 38.1837 25.0636 38.1839C24.9351 38.1829 24.8065 38.1819 24.6741 38.1809C23.8877 38.1853 23.3369 38.2106 22.7892 38.8305ZM22.3485 43.0585C22.1452 43.4312 22.0814 43.6737 22.0814 44.1004C22.2121 44.5181 22.3723 44.8396 22.7086 45.125C23.2198 45.3558 23.7136 45.3217 24.2682 45.3185C24.3871 45.3188 24.506 45.3192 24.6285 45.3195C24.8796 45.3197 25.1307 45.3191 25.3818 45.3178C25.7659 45.316 26.1498 45.3177 26.5339 45.3198C26.778 45.3196 27.0222 45.3192 27.2663 45.3185C27.381 45.3192 27.4958 45.3198 27.614 45.3205C28.376 45.3228 28.376 45.3228 29.0258 44.9554C29.2775 44.6136 29.4333 44.3128 29.4531 43.8867C29.3568 43.4191 29.2414 43.1247 28.8726 42.8097C28.409 42.5113 27.9244 42.5339 27.3877 42.5279C27.2289 42.5241 27.2289 42.5241 27.0668 42.5202C26.8434 42.5154 26.6199 42.5116 26.3963 42.5088C26.0565 42.5041 25.717 42.4955 25.3772 42.4864C25.1593 42.4821 24.9414 42.4782 24.7235 42.4745C24.623 42.4718 24.5224 42.4692 24.4189 42.4664C23.6605 42.4602 22.9302 42.5348 22.3485 43.0585Z" fill="#876FFD"/>
<path d="M33.7249 0.0537333C36.2757 -0.0151457 38.8244 0.641854 40.9915 1.99446C41.0841 2.05201 41.0841 2.05201 41.1785 2.11072C44.1882 4.02556 46.0666 7.03435 46.8475 10.4704C47.0433 11.5391 47.2819 12.9065 46.9743 13.9636C47.056 13.9768 47.1377 13.99 47.2218 14.0037C49.0537 14.3565 50.5671 15.3465 51.6685 16.8557C52.7954 18.5918 53.2696 20.5759 52.8477 22.6275C52.3847 24.5685 51.273 26.1685 49.5743 27.2199C48.5183 27.838 47.4435 28.1686 46.2265 28.2838C46.147 28.2915 46.0676 28.2992 45.9857 28.3072C44.0381 28.3959 42.217 27.595 40.8024 26.3038C40.3427 25.8561 39.9248 25.4208 39.6026 24.8641C39.401 24.9269 39.401 24.9269 39.1953 24.991C38.9751 25.0561 38.7547 25.1206 38.5342 25.1847C38.4626 25.2058 38.3909 25.227 38.3171 25.2488C34.8855 26.2525 31.2852 26.1529 28.0709 24.4499C26.9544 23.8349 25.9974 23.0645 25.0728 22.1924C25.0005 22.1269 24.9282 22.0615 24.8537 21.9941C22.482 19.7643 21.3574 16.4949 21.2004 13.3082C21.138 9.78982 22.4339 6.55387 24.8591 4.02494C24.9414 3.93595 25.0236 3.84695 25.1083 3.75526C27.3496 1.40098 30.5259 0.225458 33.7249 0.0537333ZM26.889 4.34554C26.7991 4.42144 26.7092 4.49735 26.6165 4.57555C24.4849 6.41662 23.0604 9.19612 22.8388 12.0174C22.8341 12.1344 22.8341 12.1344 22.8292 12.2537C22.825 12.3559 22.8207 12.4581 22.8163 12.5635C22.7514 15.7188 23.9272 18.6664 26.0819 20.9672C28.2811 23.0896 31.2133 24.3949 34.2975 24.346C35.8984 24.2542 37.396 23.9398 38.8548 23.261C38.8472 23.1982 38.8396 23.1354 38.8317 23.0707C38.5538 20.691 38.6746 18.648 40.1368 16.6353C40.1847 16.5676 40.2326 16.5 40.282 16.4303C41.5213 14.837 43.4666 14.2014 45.3718 13.8567C45.9297 11.8953 45.0147 9.30723 44.0935 7.57535C42.6366 4.96261 40.2671 3.01044 37.3849 2.1606C36.5322 1.92132 35.6845 1.69606 34.795 1.67386C34.6957 1.66849 34.5964 1.66311 34.4941 1.65758C31.7392 1.57136 28.958 2.51867 26.889 4.34554ZM41.4188 17.4902C40.5134 18.6401 40.0588 19.9982 40.1602 21.461C40.3591 23.0681 41.0793 24.4814 42.3269 25.5249C43.5668 26.4259 44.9855 26.796 46.5065 26.6345C48.0611 26.3738 49.4335 25.5822 50.3593 24.293C51.2444 22.8977 51.5937 21.3638 51.2411 19.7344C50.8296 18.2946 50.0002 17.0348 48.6929 16.2729C47.9454 15.8678 47.1905 15.5239 46.3333 15.4597C46.2406 15.4524 46.148 15.4451 46.0525 15.4376C44.2336 15.3677 42.6332 16.1663 41.4188 17.4902Z" fill="#876FFD"/>
<path d="M34.581 4.98817C34.76 5.09879 34.76 5.09879 34.9015 5.30877C34.9247 5.6092 34.9317 5.88461 34.9215 6.18375C34.9193 6.30391 34.9193 6.30391 34.9171 6.42649C34.9134 6.62391 34.9076 6.82129 34.9015 7.01865C35.0205 7.02526 35.1395 7.03187 35.2621 7.03869C36.2304 7.16212 37.1329 7.7387 37.7293 8.50185C38.144 9.11796 38.3586 9.72499 38.3136 10.4718C38.2134 10.8659 38.2134 10.8659 37.9797 11.0863C37.6115 11.2091 37.4081 11.1922 37.0382 11.0796C36.7411 10.8446 36.6765 10.6676 36.6242 10.2981C36.5226 9.79303 36.3531 9.51434 35.9699 9.15599C35.1853 8.66033 34.3768 8.5013 33.46 8.67092C32.7171 8.8629 32.1723 9.17902 31.7498 9.83059C31.6442 10.3983 31.6826 10.8856 31.9902 11.3802C32.6819 11.8458 33.4975 11.9936 34.3022 12.1679C34.4042 12.1901 34.5062 12.2124 34.6113 12.2353C34.813 12.2786 35.015 12.3204 35.2174 12.3605C36.2765 12.5842 37.2136 12.9875 37.8929 13.8582C38.3265 14.5811 38.3969 15.4654 38.2773 16.2927C38.0274 17.2512 37.4928 17.9021 36.658 18.4192C36.0862 18.7285 35.5573 18.9878 34.9015 18.9878C34.9108 19.1655 34.9108 19.1655 34.9203 19.3468C34.9253 19.5032 34.9301 19.6596 34.9349 19.816C34.9393 19.894 34.9438 19.9719 34.9484 20.0523C34.9579 20.4708 34.9415 20.6542 34.6532 20.9669C34.3673 21.1251 34.3673 21.1251 34.0334 21.1184C33.7243 21.0176 33.595 20.9566 33.4058 20.6977C33.2839 20.3319 33.2884 20.0472 33.2923 19.6624C33.2932 19.5363 33.2942 19.4103 33.2952 19.2804C33.2964 19.1838 33.2977 19.0873 33.2989 18.9878C33.0907 18.9514 33.0907 18.9514 32.8783 18.9143C31.904 18.6967 31.0011 18.1317 30.4411 17.2979C30.0987 16.7132 29.8811 16.0351 29.987 15.3543C30.2073 15.0404 30.2073 15.0404 30.5212 14.82C30.8949 14.82 31.146 14.8307 31.446 15.065C31.6186 15.2844 31.6441 15.4336 31.683 15.7083C31.7858 16.2149 31.9482 16.4943 32.3374 16.8504C33.0679 17.3092 33.9126 17.4835 34.7638 17.3338C35.47 17.1408 36.0651 16.8923 36.4439 16.2359C36.6594 15.7497 36.6466 15.4386 36.504 14.9268C36.0404 14.198 35.0962 14.0799 34.3041 13.9033C34.2054 13.8819 34.1067 13.8605 34.0051 13.8385C33.9031 13.8163 33.8011 13.794 33.696 13.7711C33.4943 13.7278 33.2922 13.686 33.0899 13.6459C32.037 13.4236 31.0842 13.0218 30.4143 12.1483C29.9675 11.3764 29.8525 10.474 30.0563 9.6106C30.3702 8.64311 30.9076 7.95888 31.7903 7.44946C32.273 7.2147 32.7588 7.01865 33.2989 7.01865C33.2952 6.9258 33.2915 6.83295 33.2877 6.73729C33.2579 5.47035 33.2579 5.47035 33.6194 4.98817C33.9987 4.86172 34.1963 4.89198 34.581 4.98817Z" fill="#876FFD"/>
<path d="M48.7968 18.2773C49.2316 18.3699 49.3906 18.5163 49.6448 18.8785C49.6624 19.2967 49.6264 19.5102 49.3718 19.8453C49.1475 20.0843 48.9153 20.3104 48.6766 20.5349C48.5976 20.6119 48.5186 20.6889 48.4372 20.7683C47.9923 21.1989 47.5333 21.6097 47.0652 22.0148C46.7072 22.3337 46.3776 22.6803 46.0459 23.0263C45.7379 23.3413 45.4597 23.6231 45.0508 23.7944C44.4305 23.7688 44.153 23.6181 43.7195 23.1815C43.6687 23.1308 43.6178 23.08 43.5654 23.0277C43.4589 22.9207 43.3532 22.8129 43.2482 22.7043C43.0877 22.5387 42.9246 22.3762 42.7609 22.2139C41.8818 21.3244 41.8818 21.3244 41.8457 20.8021C41.9594 20.3946 42.0193 20.2945 42.3799 20.054C42.667 19.9939 42.667 19.9939 43.0209 20.054C43.3383 20.2703 43.6038 20.5318 43.8756 20.8021C43.9563 20.8813 44.037 20.9605 44.1202 21.0421C44.3253 21.2455 44.5285 21.4504 44.7303 21.657C45.0512 21.512 45.2843 21.3473 45.5395 21.1056C45.6104 21.0388 45.6812 20.972 45.7543 20.9033C45.8284 20.8324 45.9026 20.7615 45.979 20.6885C46.0935 20.5802 46.0935 20.5802 46.2103 20.4696C46.6176 20.083 47.0195 19.6918 47.4146 19.2926C48.331 18.3724 48.331 18.3724 48.7968 18.2773Z" fill="#876FFD"/>
<path d="M5.84258 30.955C6.02021 31.074 6.02021 31.074 6.16309 31.2756C6.20457 31.6093 6.20457 31.6093 6.20566 32.0165C6.20612 32.1246 6.20612 32.1246 6.20659 32.2349C6.20681 32.3872 6.20622 32.5394 6.20488 32.6917C6.20317 32.9242 6.20486 33.1564 6.20691 33.3889C6.2067 33.537 6.20629 33.6852 6.20566 33.8333C6.2053 33.9678 6.20494 34.1023 6.20457 34.2409C6.1608 34.6077 6.10148 34.7581 5.84258 35.0159C5.55346 35.09 5.28073 35.0679 4.98789 35.0159C4.75554 34.851 4.68679 34.7341 4.56054 34.4816C4.53554 34.0429 4.53614 33.6041 4.53488 33.1648C4.53384 32.9469 4.53053 32.7291 4.52716 32.5112C4.52661 32.3737 4.52605 32.2363 4.52549 32.0946C4.52449 31.9684 4.52349 31.8421 4.52246 31.7121C4.56405 31.3521 4.62553 31.2073 4.88105 30.955C5.26029 30.8285 5.45793 30.8588 5.84258 30.955Z" fill="#876FFD"/>
</svg>
