<svg width="53" height="53" viewBox="0 0 53 53" fill="none" xmlns="http://www.w3.org/2000/svg">
<path d="M15.8414 4.2676C16.882 5.03821 17.4823 6.01599 17.7233 7.28773C17.7911 8.09181 17.7276 8.78656 17.5168 9.5602C17.6597 9.48869 17.6597 9.48869 17.8056 9.41575C17.8694 9.38381 17.9333 9.35187 17.9991 9.31896C18.1451 9.24592 18.2911 9.17285 18.4371 9.09976C18.8475 8.8943 19.2582 8.68935 19.6693 8.4853C20.5358 8.05461 21.3982 7.61788 22.2534 7.16507C23.4206 6.54785 23.4206 6.54784 24.0086 6.24834C24.1743 6.16346 24.1743 6.16346 24.3434 6.07686C25.1292 5.72853 25.903 5.7646 26.6955 6.05749C27.5086 6.40977 28.0086 7.00025 28.358 7.8042C28.5909 8.5797 28.5366 9.39693 28.1946 10.1287C27.7485 10.9149 27.0314 11.3688 26.2394 11.7544C26.1467 11.8012 26.0539 11.848 25.9584 11.8963C25.6641 12.0445 25.3688 12.1904 25.0734 12.3362C24.8798 12.433 24.6863 12.53 24.4928 12.6271C24.2049 12.7717 23.9169 12.9161 23.6287 13.06C22.685 13.5315 21.7518 14.0223 20.8208 14.5183C20.6557 14.6062 20.6557 14.6062 20.4873 14.6959C20.3487 14.7698 20.3487 14.7698 20.2073 14.8451C20.1261 14.8884 20.0448 14.9317 19.9611 14.9763C19.8002 15.062 19.6394 15.1481 19.4787 15.2345C19.3998 15.2764 19.3208 15.3184 19.2394 15.3616C19.1708 15.3983 19.1021 15.435 19.0314 15.4728C18.859 15.5512 18.859 15.5512 18.6525 15.5512C18.6525 21.4824 18.6525 27.4135 18.6525 33.5243C19.2318 33.5243 19.811 33.5243 20.4078 33.5243C21.6315 33.8465 22.634 34.4952 23.2988 35.5902C23.6155 36.2214 23.8772 36.841 23.9183 37.5528C23.9268 37.6764 23.9353 37.7999 23.9441 37.9272C23.9199 39.0633 23.5428 39.949 22.8858 40.8582C22.8176 40.9604 22.7495 41.0627 22.6793 41.1681C22.7945 41.2084 22.7945 41.2084 22.912 41.2496C23.8221 41.6511 24.2786 42.5622 24.641 43.4405C24.778 43.8483 24.7611 44.2653 24.7626 44.6905C24.7632 44.7746 24.7639 44.8586 24.7646 44.9452C24.7666 45.2226 24.7679 45.5001 24.7689 45.7775C24.7693 45.8724 24.7697 45.9672 24.7702 46.0649C24.7723 46.5664 24.7738 47.0678 24.7748 47.5692C24.7759 48.0875 24.7795 48.6057 24.7836 49.124C24.7862 49.5224 24.7871 49.9207 24.7875 50.3192C24.788 50.5103 24.7892 50.7013 24.7911 50.8924C24.7936 51.1595 24.7935 51.4265 24.7928 51.6935C24.7948 51.812 24.7948 51.812 24.7968 51.9329C24.7935 52.2674 24.7646 52.4961 24.593 52.7859C24.2009 53.0221 23.8498 53.0013 23.4 52.997C23.2589 52.9981 23.2589 52.9981 23.115 52.9992C22.8041 53.001 22.4933 52.9998 22.1824 52.9984C21.9664 52.9987 21.7504 52.9991 21.5343 52.9996C21.0816 53.0002 20.6289 52.9993 20.1762 52.9974C19.5956 52.9951 19.0152 52.9964 18.4346 52.9989C17.9886 53.0004 17.5425 52.9999 17.0965 52.9988C16.8824 52.9986 16.6683 52.9989 16.4543 52.9999C16.1552 53.0009 15.8562 52.9993 15.5571 52.997C15.4685 52.9978 15.3798 52.9987 15.2885 52.9995C14.688 52.991 14.688 52.991 14.3676 52.7465C14.0834 52.3497 14.0937 52.0321 14.0929 51.5582C14.0924 51.4792 14.0919 51.4002 14.0914 51.3189C14.0899 51.0567 14.0892 50.7945 14.0886 50.5323C14.088 50.3498 14.0874 50.1673 14.0868 49.9848C14.0857 49.6013 14.0851 49.2179 14.0848 48.8344C14.0842 48.3451 14.0817 47.8559 14.0788 47.3667C14.0768 46.9892 14.0763 46.6117 14.0762 46.2341C14.0758 46.0539 14.075 45.8737 14.0737 45.6936C14.0655 44.5297 14.0894 43.4806 14.7291 42.4657C14.8057 42.3413 14.8057 42.3413 14.8839 42.2143C15.0388 41.9944 15.0388 41.9944 15.3486 41.6845C13.4064 41.6845 11.4643 41.6845 9.46333 41.6845C9.66776 41.9231 9.8722 42.1618 10.0828 42.4076C10.5443 43.2155 10.7339 43.9737 10.7307 44.9045C10.7315 45.0243 10.7315 45.0243 10.7323 45.1466C10.7337 45.4079 10.7336 45.6692 10.7334 45.9305C10.7338 46.1133 10.7342 46.2962 10.7347 46.479C10.7355 46.861 10.7355 47.2429 10.7349 47.6248C10.7343 48.1139 10.7361 48.6029 10.7385 49.0919C10.74 49.469 10.7401 49.846 10.7398 50.2231C10.7398 50.4034 10.7403 50.5837 10.7414 50.7641C10.7427 51.016 10.742 51.2678 10.7408 51.5197C10.7416 51.5938 10.7423 51.6679 10.7432 51.7443C10.7384 52.1953 10.6693 52.4814 10.3926 52.8403C10.0472 53.013 9.65818 52.9606 9.27826 52.9618C9.18423 52.9625 9.0902 52.9632 8.99332 52.9639C8.68133 52.9659 8.36935 52.9671 8.05736 52.9682C7.8978 52.9688 7.8978 52.9688 7.73502 52.9694C7.1722 52.9716 6.60939 52.9731 6.04656 52.974C5.4644 52.9752 4.88228 52.9787 4.30014 52.9828C3.85319 52.9855 3.40625 52.9864 2.9593 52.9868C2.74465 52.9873 2.53001 52.9885 2.31538 52.9904C2.01527 52.9929 1.71527 52.9928 1.41515 52.9921C1.28173 52.9941 1.28173 52.9941 1.14562 52.9961C0.771075 52.9928 0.5442 52.9819 0.219144 52.786C0.0071182 52.4283 0.0090704 52.1014 0.0125326 51.6972C0.0116431 51.6135 0.0107535 51.5298 0.009837 51.4435C0.00749246 51.1666 0.00819459 50.8899 0.00912962 50.613C0.00858886 50.4197 0.00794078 50.2264 0.00719022 50.0331C0.00611478 49.6274 0.00658813 49.2218 0.00809611 48.8161C0.00986164 48.299 0.00745698 47.7821 0.00381242 47.2651C0.00153063 46.8654 0.00169543 46.4658 0.0025489 46.0661C0.00263299 45.8757 0.00193494 45.6852 0.000404692 45.4948C-0.00943972 44.0469 0.153863 42.7827 1.20336 41.6845C1.8067 41.1681 1.8067 41.1681 2.1326 41.1681C2.03737 41.0348 2.03737 41.0348 1.94022 40.8989C1.12674 39.7239 0.734133 38.5735 0.938377 37.134C1.17769 35.8699 1.80194 34.8884 2.85535 34.1441C3.82916 33.5538 4.94631 33.327 6.07545 33.4791C6.67559 33.6276 6.67559 33.6276 7.81134 34.1441C7.81134 30.3264 7.81134 26.5086 7.81134 22.5752C7.57283 23.3251 7.33432 24.075 7.08859 24.8477C6.38935 25.897 6.38935 25.897 5.99156 26.1388C5.9157 26.1868 5.83983 26.2347 5.76167 26.2841C5.06276 26.64 4.11005 26.6365 3.37523 26.4031C2.60713 26.0345 1.94566 25.4737 1.64822 24.65C1.39839 23.7446 1.56089 23.0269 1.81923 22.1427C1.8511 22.0307 1.88297 21.9188 1.91581 21.8035C2.01939 21.4407 2.12433 21.0783 2.2294 20.7159C2.30105 20.4668 2.37264 20.2176 2.44417 19.9684C2.58534 19.477 2.72704 18.9858 2.86901 18.4946C3.03158 17.931 3.19004 17.3663 3.34619 16.8008C3.38668 16.6558 3.42722 16.5107 3.46782 16.3657C3.53814 16.1139 3.60753 15.8619 3.67568 15.6095C4.19622 13.7731 5.1231 12.3258 6.77884 11.3162C7.66811 10.8463 8.58397 10.655 9.56658 10.4898C9.53171 10.4323 9.49684 10.3748 9.46091 10.3155C8.82701 9.23047 8.6821 8.18071 8.90756 6.93589C9.26565 5.60434 10.0372 4.67609 11.2186 3.98234C12.6649 3.1892 14.4852 3.40574 15.8414 4.2676ZM11.1343 6.4743C10.7306 7.11409 10.5809 7.77476 10.7023 8.52726C11.0361 9.47138 11.5762 10.041 12.4576 10.4898C13.1567 10.7606 13.8377 10.592 14.4959 10.303C15.1648 9.94995 15.629 9.23512 15.8648 8.52726C15.9441 7.66799 15.8167 6.97909 15.2905 6.28708C14.7406 5.69772 14.0865 5.40209 13.2836 5.36389C12.4012 5.40587 11.6716 5.76776 11.1343 6.4743ZM23.0612 8.83431C22.3864 9.1943 21.7069 9.5451 21.0273 9.8959C20.7713 10.0281 20.5153 10.1603 20.2594 10.2925C20.1953 10.3256 20.1313 10.3587 20.0654 10.3927C19.6047 10.6309 19.1446 10.8702 18.6848 11.11C18.4943 11.2093 18.3038 11.3085 18.1133 11.4077C17.9338 11.5013 17.7546 11.5951 17.5753 11.6889C17.4665 11.7455 17.3578 11.8022 17.2458 11.8605C17.1507 11.9101 17.0557 11.9598 16.9578 12.0109C16.4444 12.264 16.0666 12.375 15.4878 12.3771C15.3875 12.378 15.3875 12.378 15.2851 12.3788C15.1405 12.3798 14.9959 12.3804 14.8513 12.3806C14.6215 12.381 14.3918 12.3827 14.162 12.3848C13.5089 12.3905 12.8559 12.3937 12.2028 12.3963C11.8025 12.3979 11.4023 12.401 11.002 12.405C10.8504 12.4062 10.6988 12.4068 10.5472 12.4068C9.04901 12.407 7.84137 12.6772 6.7014 13.7049C5.86093 14.6302 5.55206 15.8862 5.2188 17.0599C5.17166 17.2227 5.12443 17.3854 5.0771 17.5481C4.97887 17.8867 4.88141 18.2256 4.78458 18.5646C4.6611 18.9969 4.53634 19.4288 4.41107 19.8606C4.29056 20.2762 4.17063 20.6919 4.05079 21.1077C4.01701 21.2247 4.01701 21.2247 3.98255 21.3441C3.50473 22.6642 3.50473 22.6642 3.43613 24.0019C3.60727 24.2743 3.72638 24.4529 3.9911 24.6411C4.41565 24.7119 4.41565 24.7119 4.8171 24.6411C5.36863 24.2067 5.51646 23.7049 5.71892 23.0477C5.75358 22.9395 5.78824 22.8314 5.82395 22.7199C5.93776 22.3624 6.04886 22.0041 6.15934 21.6456C6.19763 21.5218 6.23592 21.3981 6.27537 21.2707C6.59977 20.2205 6.92126 19.1694 7.23802 18.117C7.31894 17.8482 7.40048 17.5796 7.4827 17.3113C7.55903 17.0621 7.63447 16.8126 7.70887 16.5629C7.74338 16.451 7.7779 16.3391 7.81345 16.2238C7.84306 16.126 7.87267 16.0282 7.90317 15.9274C8.03558 15.6123 8.2012 15.39 8.43083 15.1381C8.63733 15.0731 8.63733 15.0731 8.84383 15.08C8.91198 15.0798 8.98012 15.0797 9.05033 15.0795C9.3635 15.1683 9.47291 15.2903 9.66983 15.5512C9.73157 15.8594 9.72464 16.1636 9.72088 16.477C9.72138 16.5716 9.72188 16.6662 9.72239 16.7637C9.72356 17.0814 9.72177 17.3991 9.71999 17.7168C9.72021 17.9444 9.72061 18.1719 9.72118 18.3994C9.72218 19.0181 9.7206 19.6368 9.7185 20.2556C9.71669 20.9029 9.71706 21.5503 9.71713 22.1976C9.71694 23.2854 9.71516 24.3732 9.71233 25.461C9.70942 26.5791 9.70796 27.6971 9.70809 28.8152C9.70811 28.9184 9.70811 28.9184 9.70812 29.0237C9.70813 29.1267 9.70813 29.1267 9.70815 29.2317C9.70829 30.57 9.70685 31.9082 9.70495 33.2465C9.70451 33.6318 9.70437 34.0171 9.70429 34.4025C9.70408 35.0089 9.70281 35.6154 9.70074 36.2218C9.70014 36.4441 9.69988 36.6665 9.7 36.8888C9.70011 37.1928 9.69893 37.4969 9.69744 37.801C9.69776 37.8884 9.69808 37.9759 9.69841 38.0659C9.69774 38.1485 9.69708 38.2311 9.69639 38.3161C9.69625 38.3861 9.6961 38.4562 9.69595 38.5283C9.65604 38.9317 9.55123 39.3262 9.46333 39.722C10.4174 39.722 11.3714 39.722 12.3543 39.722C12.3543 34.7453 12.3543 29.7686 12.3543 24.6411C12.9676 24.6411 13.5809 24.6411 14.2128 24.6411C14.2128 29.6178 14.2128 34.5945 14.2128 39.722C14.5876 39.722 14.9624 39.722 15.3486 39.722C15.3145 39.6048 15.2804 39.4876 15.2453 39.3669C14.9379 37.9562 15.0778 36.6319 15.8519 35.403C15.9944 35.1923 16.1312 35.0074 16.3251 34.8419C16.6553 34.5551 16.7823 34.4094 16.8707 33.9675C16.8735 33.8216 16.873 33.6757 16.8697 33.5299C16.8704 33.4491 16.871 33.3683 16.8717 33.2851C16.8732 33.0152 16.8702 32.7456 16.8673 32.4758C16.8675 32.282 16.8679 32.0882 16.8686 31.8944C16.8696 31.4776 16.8686 31.0609 16.8661 30.644C16.8621 29.9852 16.8627 29.3264 16.8639 28.6676C16.8657 27.3884 16.8628 26.1092 16.8595 24.8301C16.8555 23.2011 16.8538 21.572 16.8559 19.943C16.8565 19.2878 16.8551 18.6327 16.8519 17.9775C16.8503 17.5704 16.8504 17.1633 16.8509 16.7562C16.8508 16.5671 16.85 16.3781 16.8484 16.189C16.8464 15.9314 16.8468 15.6738 16.8479 15.4161C16.8461 15.3034 16.8461 15.3034 16.8442 15.1884C16.8483 14.8356 16.8713 14.6545 17.0929 14.3738C17.3151 14.2048 17.5272 14.0771 17.7786 13.9558C17.8695 13.9113 17.9604 13.8667 18.0542 13.8208C18.1515 13.774 18.2489 13.7272 18.3493 13.679C18.5574 13.577 18.7656 13.4748 18.9736 13.3724C19.129 13.2961 19.129 13.2961 19.2876 13.2182C19.6927 13.0171 20.0925 12.8071 20.4917 12.5944C21.1186 12.2611 21.7481 11.9333 22.38 11.6095C22.4547 11.5712 22.5293 11.533 22.6062 11.4935C22.9084 11.3385 23.2107 11.1835 23.5133 11.0292C25.1408 10.3128 25.1408 10.3128 26.4995 9.25031C26.6007 8.86009 26.6395 8.62242 26.4931 8.2432C26.2489 7.95954 26.0185 7.84041 25.6735 7.70091C24.7989 7.70091 23.8152 8.43187 23.0612 8.83431ZM3.32643 36.2358C2.87281 36.8272 2.66278 37.5354 2.7521 38.2758C2.95224 39.1635 3.32367 39.7442 4.09435 40.2384C4.73992 40.5472 5.36253 40.6291 6.05609 40.445C6.86669 40.1479 7.37062 39.6357 7.81134 38.8956C8.03012 38.1996 8.01038 37.4676 7.70809 36.8039C7.33192 36.1325 6.79599 35.6194 6.05609 35.3836C4.98511 35.2502 4.08532 35.4375 3.32643 36.2358ZM17.4781 36.2487C16.9375 36.903 16.8491 37.4405 16.8646 38.2787C16.94 38.9869 17.2925 39.4706 17.8266 39.9285C18.4213 40.3913 18.9861 40.5884 19.7367 40.5354C20.5385 40.4127 21.0895 40.0622 21.5972 39.4322C22.0282 38.7929 22.1224 38.1789 22.0215 37.4192C21.8438 36.654 21.461 36.162 20.8272 35.7133C19.6321 35.0226 18.3895 35.2814 17.4781 36.2487ZM2.44235 43.1306C1.82448 43.9123 1.85818 44.7387 1.87569 45.6876C1.87645 45.8261 1.87698 45.9646 1.87727 46.1032C1.87995 46.6123 1.88716 47.1213 1.89384 47.6304C1.90449 48.7702 1.91513 49.9099 1.9261 51.0843C4.20895 51.0843 6.49181 51.0843 8.84383 51.0843C8.85235 49.9977 8.86087 48.9112 8.86965 47.7918C8.8734 47.4507 8.87716 47.1095 8.88104 46.7581C8.88225 46.4853 8.8833 46.2125 8.88416 45.9398C8.88578 45.8355 8.88578 45.8355 8.88743 45.7291C8.90107 44.8035 8.90359 43.8694 8.25615 43.1406C7.67282 42.5883 7.03787 42.3687 6.24363 42.3664C6.17557 42.3661 6.10751 42.3658 6.03739 42.3655C5.89448 42.3653 5.75158 42.3659 5.60868 42.3672C5.39228 42.3688 5.17607 42.3672 4.95967 42.3652C4.00372 42.3638 3.14683 42.4068 2.44235 43.1306ZM16.6557 43.0201C16.6013 43.0864 16.5468 43.1527 16.4908 43.221C16.4345 43.2868 16.3782 43.3526 16.3202 43.4204C16.0042 43.9125 15.9424 44.3872 15.9446 44.9631C15.9446 45.0307 15.9446 45.0984 15.9445 45.168C15.9447 45.3849 15.9463 45.6018 15.9479 45.8187C15.9481 45.9521 15.9483 46.0855 15.9485 46.2229C15.9496 46.7201 15.9525 47.2172 15.9552 47.7143C15.9594 48.8264 15.9637 49.9385 15.9681 51.0843C18.2509 51.0843 20.5338 51.0843 22.8858 51.0843C22.8954 49.3938 22.8954 49.3938 22.9051 47.6691C22.908 47.3144 22.9108 46.9597 22.9137 46.5942C22.9146 46.3122 22.9154 46.0301 22.916 45.7481C22.9168 45.6755 22.9177 45.603 22.9185 45.5283C22.9208 45.3125 22.9211 45.0968 22.9209 44.881C22.9216 44.7596 22.9223 44.6383 22.923 44.5133C22.8568 43.8916 22.6012 43.3745 22.163 42.9241C21.3621 42.368 20.6211 42.3824 19.6797 42.3771C19.5336 42.3759 19.3875 42.3738 19.2415 42.3707C18.2578 42.3502 17.441 42.3722 16.6557 43.0201Z" fill="#876FFD"/>
<path d="M1.34278 0.00499039C1.43099 0.00438987 1.5192 0.00378934 1.61009 0.00317062C1.90771 0.00165451 2.20524 0.00310052 2.50286 0.00451834C2.71757 0.00404258 2.93228 0.00338659 3.14698 0.00256516C3.73858 0.000833967 4.33014 0.00169577 4.92173 0.00297264C5.55912 0.00390445 6.19649 0.00246603 6.83388 0.00132824C8.01087 -0.000406114 9.18785 -0.000251189 10.3648 0.000878485C11.4521 0.00191691 12.5393 0.00218962 13.6265 0.00169548C13.6986 0.00166392 13.7706 0.00163236 13.8449 0.00159984C14.1373 0.00147121 14.4298 0.00133965 14.7223 0.00120329C17.4672 -6.12645e-05 20.2121 0.00108635 22.9571 0.0033092C25.397 0.00527004 27.8369 0.0050946 30.2768 0.00311873C33.0166 0.00090743 35.7565 2.84089e-05 38.4963 0.00130583C38.7882 0.00143835 39.0802 0.0015676 39.3721 0.00169548C39.444 0.00172815 39.5159 0.00176082 39.59 0.00179449C40.6767 0.00226492 41.7633 0.00171398 42.85 0.00067099C44.0853 -0.000508738 45.3206 -0.000178665 46.556 0.00202651C47.1867 0.00311518 47.8174 0.00353282 48.4481 0.00217147C49.0249 0.000945424 49.6016 0.00160837 50.1783 0.0038149C50.3876 0.0042786 50.5969 0.0040368 50.8062 0.00303987C51.0894 0.00179326 51.3726 0.00306189 51.6559 0.00499039C51.7793 0.00353943 51.7793 0.00353943 51.9052 0.00205915C52.2661 0.00700858 52.4788 0.028586 52.7754 0.24214C53.0149 0.592485 52.9885 0.946711 52.9844 1.35625C52.9851 1.44658 52.9858 1.53691 52.9866 1.62997C52.9884 1.93323 52.9874 2.2364 52.9863 2.53966C52.987 2.75684 52.988 2.974 52.989 3.19117C52.9913 3.78148 52.991 4.37175 52.9901 4.96206C52.9896 5.45443 52.9903 5.94679 52.9911 6.43916C52.9929 7.6004 52.9925 8.76161 52.9908 9.92284C52.989 11.1219 52.9907 12.321 52.994 13.5201C52.9967 14.5487 52.9975 15.5774 52.9966 16.606C52.9961 17.2208 52.9963 17.8355 52.9985 18.4502C53.0003 19.0281 52.9997 19.606 52.9972 20.1838C52.9967 20.3962 52.997 20.6086 52.9983 20.8209C53 21.1103 52.9985 21.3995 52.9961 21.6889C52.9979 21.8157 52.9979 21.8157 52.9998 21.9451C52.9938 22.3074 52.9593 22.5351 52.7491 22.8339C52.2207 23.0779 51.7089 23.0435 51.1339 23.0379C51.0023 23.0382 50.8707 23.0386 50.7352 23.0389C50.3702 23.0399 50.0053 23.0382 49.6403 23.0361C49.2467 23.0344 48.8531 23.035 48.4594 23.0353C47.7775 23.0355 47.0956 23.0342 46.4137 23.0319C45.4277 23.0285 44.4417 23.0274 43.4558 23.0269C41.8562 23.026 40.2565 23.0233 38.6569 23.0194C37.103 23.0156 35.5491 23.0126 33.9951 23.0109C33.8994 23.0108 33.8036 23.0107 33.7049 23.0106C33.2244 23.01 32.7439 23.0095 32.2634 23.009C28.2771 23.0047 24.2907 22.9974 20.3044 22.9882C20.3044 22.3746 20.3044 21.7611 20.3044 21.1289C30.4579 21.1289 40.6115 21.1289 51.0728 21.1289C51.0728 14.7887 51.0728 8.44856 51.0728 1.91627C34.8543 1.91627 18.6358 1.91627 1.92591 1.91627C1.92591 7.43835 1.92591 12.9604 1.92591 18.6498C1.31261 18.6498 0.699308 18.6498 0.0674201 18.6498C0.0578657 16.2867 0.0504926 13.9235 0.0460218 11.5602C0.0438909 10.463 0.040985 9.36577 0.0362638 8.26853C0.0321514 7.31234 0.0294838 6.35617 0.0285617 5.39997C0.0280226 4.89352 0.0267528 4.38709 0.0237538 3.88065C0.020955 3.40417 0.0200849 2.92773 0.0207068 2.45124C0.020593 2.27618 0.0197689 2.10112 0.0181884 1.92607C0.0161384 1.68734 0.0166258 1.44875 0.0177552 1.21002C0.0173745 1.07633 0.0169938 0.942652 0.0166016 0.804919C0.0674201 0.47016 0.0674201 0.47016 0.223198 0.245899C0.58382 -0.0189578 0.912376 -6.93262e-05 1.34278 0.00499039Z" fill="#876FFD"/>
<path d="M50.6631 34.5694C51.6074 35.4747 52.0943 36.5945 52.1372 37.895C52.108 39.0606 51.7422 39.917 51.0725 40.8582C51.0043 40.9605 50.9362 41.0627 50.866 41.1681C50.9405 41.1915 51.015 41.215 51.0918 41.2391C51.445 41.404 51.6366 41.603 51.8985 41.8912C51.9836 41.9785 52.0688 42.0659 52.1566 42.1559C53.0228 43.2487 53.0065 44.4556 52.9959 45.7776C52.996 45.9717 52.9962 46.1658 52.9966 46.3599C52.9969 46.7641 52.9954 47.1682 52.9926 47.5725C52.989 48.0905 52.9897 48.6084 52.9916 49.1264C52.9927 49.5261 52.9918 49.9257 52.9902 50.3253C52.9897 50.5164 52.9898 50.7075 52.9904 50.8986C52.991 51.1649 52.9889 51.431 52.986 51.6972C52.9867 51.7759 52.9874 51.8545 52.9881 51.9356C52.982 52.2687 52.9506 52.4974 52.7792 52.7857C52.3875 53.0224 52.0364 53.0013 51.5867 52.9971C51.4926 52.9978 51.3986 52.9985 51.3017 52.9992C50.9908 53.0011 50.68 52.9999 50.3691 52.9985C50.153 52.9987 49.937 52.9991 49.721 52.9997C49.2683 53.0003 48.8156 52.9994 48.3629 52.9975C47.7823 52.9951 47.2019 52.9965 46.6213 52.9989C46.1752 53.0004 45.7292 52.9999 45.2831 52.9989C45.0691 52.9986 44.855 52.9989 44.6409 52.9999C44.3418 53.001 44.0428 52.9994 43.7437 52.9971C43.6551 52.9979 43.5665 52.9987 43.4752 52.9996C42.8747 52.991 42.8747 52.991 42.5542 52.7466C42.2701 52.3497 42.2803 52.0321 42.2796 51.5582C42.2791 51.4792 42.2786 51.4003 42.278 51.3189C42.2765 51.0567 42.2758 50.7945 42.2753 50.5323C42.2747 50.3498 42.2741 50.1673 42.2735 49.9848C42.2724 49.6014 42.2718 49.2179 42.2714 48.8344C42.2709 48.3452 42.2684 47.856 42.2654 47.3667C42.2635 46.9892 42.263 46.6117 42.2628 46.2342C42.2625 46.054 42.2617 45.8738 42.2603 45.6936C42.2506 44.3037 42.3589 43.1367 43.2255 41.9945C43.5198 41.6981 43.8315 41.432 44.1547 41.1681C44.2569 41.0658 44.2569 41.0658 44.3612 40.9615C44.3013 40.8882 44.3013 40.8882 44.2402 40.8134C43.3196 39.6439 43.0998 38.5 43.2255 37.0364C43.4979 35.7421 44.3159 34.7523 45.382 34.0082C47.0616 32.9849 49.2026 33.3488 50.6631 34.5694ZM45.5462 36.4101C45.0718 37.073 44.9996 37.6896 45.084 38.4825C45.2494 39.1912 45.5878 39.6947 46.1939 40.1029C46.909 40.5221 47.577 40.6372 48.388 40.4451C49.0722 40.2224 49.5398 39.8001 49.9367 39.2055C50.277 38.503 50.3443 37.8423 50.1303 37.088C49.8762 36.3992 49.4797 35.964 48.8461 35.5967C47.5733 35.0167 46.3921 35.3591 45.5462 36.4101ZM44.6774 43.2146C44.1051 44.0995 44.1126 44.8907 44.1245 45.9196C44.1248 46.0508 44.1251 46.1819 44.1254 46.3171C44.127 46.8043 44.1314 47.2916 44.1354 47.7789C44.1418 48.8697 44.1481 49.9605 44.1547 51.0843C46.4376 51.0843 48.7204 51.0843 51.0725 51.0843C51.0831 49.9445 51.0938 48.8047 51.1047 47.6304C51.1118 47.0931 51.1118 47.0931 51.119 46.5449C51.1207 46.2202 51.1207 46.2202 51.1217 45.8956C51.1225 45.7524 51.1243 45.6092 51.127 45.466C51.1424 44.5855 51.1293 43.8461 50.5562 43.1307C50.3308 42.9052 50.3308 42.9052 50.0851 42.7692C50.0083 42.7212 49.9315 42.6733 49.8524 42.6239C49.2352 42.3146 48.5465 42.3772 47.872 42.3715C47.7266 42.3698 47.5813 42.367 47.4359 42.363C46.3862 42.3346 45.4327 42.4002 44.6774 43.2146Z" fill="#876FFD"/>
<path d="M36.7309 34.7642C37.7629 35.8429 38.0118 36.9861 37.9893 38.4311C37.952 39.3323 37.5265 40.0252 37.031 40.7553C36.9629 40.8575 36.8947 40.9598 36.8245 41.0651C36.8844 41.1077 36.9443 41.1504 37.006 41.1943C37.9931 41.9243 38.6891 42.8234 38.8895 44.0607C38.9 44.3312 38.9057 44.5991 38.9061 44.8697C38.9069 44.9894 38.9069 44.9894 38.9077 45.1116C38.9092 45.3746 38.9099 45.6376 38.9105 45.9006C38.9111 46.0839 38.9117 46.2672 38.9123 46.4505C38.9133 46.8342 38.914 47.218 38.9143 47.6018C38.9149 48.0933 38.9174 48.5847 38.9203 49.0762C38.9222 49.4546 38.9228 49.833 38.9229 50.2114C38.9232 50.3926 38.9241 50.5738 38.9254 50.755C38.9272 51.0084 38.927 51.2617 38.9263 51.5151C38.9273 51.5897 38.9282 51.6644 38.9292 51.7412C38.9255 52.1938 38.8579 52.4807 38.5798 52.8406C38.2344 53.0134 37.8454 52.961 37.4654 52.9622C37.3244 52.9632 37.3244 52.9632 37.1805 52.9642C36.8685 52.9663 36.5565 52.9675 36.2445 52.9685C36.085 52.9692 36.085 52.9692 35.9222 52.9698C35.3594 52.972 34.7966 52.9734 34.2337 52.9744C33.6516 52.9755 33.0695 52.9791 32.4873 52.9832C32.0404 52.9859 31.5934 52.9868 31.1465 52.9871C30.9318 52.9876 30.7172 52.9888 30.5026 52.9908C30.2025 52.9933 29.9025 52.9932 29.6023 52.9925C29.4689 52.9944 29.4689 52.9944 29.3328 52.9965C28.9579 52.9932 28.7314 52.9823 28.4062 52.7859C28.1952 52.4303 28.197 52.1072 28.2014 51.7054C28.2006 51.6225 28.1999 51.5396 28.1992 51.4543C28.1973 51.1802 28.1985 50.9063 28.1999 50.6323C28.1997 50.4411 28.1993 50.2499 28.1987 50.0586C28.1981 49.6574 28.199 49.2562 28.201 48.8549C28.2033 48.3432 28.202 47.8316 28.1995 47.3199C28.198 46.9245 28.1985 46.5292 28.1995 46.1339C28.1998 45.9454 28.1995 45.7569 28.1985 45.5685C28.1929 44.1644 28.2887 42.9722 29.2873 41.8915C30.0266 41.1684 30.0266 41.1684 30.3198 41.1684C30.2724 41.0984 30.225 41.0284 30.1762 40.9562C29.2851 39.604 28.8776 38.3888 29.1969 36.7784C29.3541 36.1431 29.6059 35.6862 30.01 35.1774C30.0888 35.0687 30.1676 34.9601 30.2488 34.8481C31.0147 34.0462 32.0896 33.5153 33.2023 33.4246C34.6033 33.4036 35.718 33.7963 36.7309 34.7642ZM31.4555 36.3459C30.9805 37.0251 30.8767 37.6188 30.9881 38.4364C31.1607 39.2384 31.5974 39.7923 32.2815 40.2388C32.9293 40.5425 33.5493 40.6296 34.2433 40.4454C35.0578 40.1468 35.5494 39.6341 35.9985 38.896C36.2057 38.2742 36.1691 37.5844 35.9921 36.9592C35.5707 36.2521 35.0677 35.6038 34.2433 35.384C33.1079 35.2311 32.205 35.4542 31.4555 36.3459ZM30.6295 43.131C30.1822 43.7278 30.1002 44.1107 30.1016 44.8461C30.1016 44.9148 30.1015 44.9834 30.1015 45.0542C30.1016 45.2755 30.1024 45.4969 30.1032 45.7182C30.1033 45.8538 30.1034 45.9895 30.1035 46.1292C30.1041 46.6362 30.1055 47.1431 30.1068 47.6501C30.109 48.7835 30.1111 49.9169 30.1133 51.0846C32.3961 51.0846 34.679 51.0846 37.031 51.0846C37.0395 49.9789 37.0481 48.8732 37.0568 47.734C37.0606 47.3866 37.0643 47.0391 37.0682 46.6811C37.0694 46.4039 37.0705 46.1266 37.0713 45.8493C37.073 45.743 37.073 45.743 37.0746 45.6345C37.0885 44.6734 37.0519 43.8639 36.4188 43.0959C36.3525 43.0414 36.2862 42.987 36.2179 42.9309C36.1522 42.8746 36.0864 42.8182 36.0187 42.7602C35.3353 42.321 34.5839 42.3729 33.8037 42.3753C33.5863 42.3757 33.3692 42.3732 33.1519 42.3706C32.1734 42.366 31.3656 42.4151 30.6295 43.131Z" fill="#876FFD"/>
<path d="M29.0811 4.39648C34.9415 4.39648 40.802 4.39648 46.84 4.39648C46.84 5.01005 46.84 5.62361 46.84 6.25577C40.9795 6.25577 35.1191 6.25577 29.0811 6.25577C29.0811 5.64221 29.0811 5.02864 29.0811 4.39648Z" fill="#876FFD"/>
<path d="M28.2549 15.0352C34.0813 15.0352 39.9076 15.0352 45.9106 15.0352C45.9106 15.6487 45.9106 16.2623 45.9106 16.8944C40.0842 16.8944 34.2578 16.8944 28.2549 16.8944C28.2549 16.2809 28.2549 15.6673 28.2549 15.0352Z" fill="#876FFD"/>
<path d="M31.7656 9.66406C37.592 9.66406 43.4184 9.66406 49.4213 9.66406C49.4213 10.2776 49.4213 10.8912 49.4213 11.5233C43.5949 11.5233 37.7686 11.5233 31.7656 11.5233C31.7656 10.9098 31.7656 10.2962 31.7656 9.66406Z" fill="#876FFD"/>
</svg>
