<svg width="53" height="54" viewBox="0 0 53 54" fill="none" xmlns="http://www.w3.org/2000/svg">
<path d="M35.5592 0.806482C35.8196 0.983677 36.0655 1.16776 36.3098 1.36635C36.3986 1.43316 36.4874 1.49997 36.5789 1.5688C37.5598 2.40116 38.3487 3.85543 38.4662 5.14428C38.5169 6.31411 38.539 7.43834 38.0161 8.51136C37.9647 8.61762 37.9133 8.72389 37.8603 8.83337C37.6036 9.33042 37.3616 9.72751 36.9497 10.111C37.1722 10.0705 37.3943 10.0278 37.6162 9.98435C37.7399 9.96084 37.8636 9.93734 37.9911 9.91312C39.0992 9.64477 40.0617 9.08326 41.0154 8.47803C41.1977 8.3641 41.38 8.25016 41.5623 8.13632C41.7499 8.01909 41.9372 7.90146 42.1244 7.78377C42.7075 7.41782 43.2947 7.0585 43.8814 6.69845C44.5304 6.29978 45.1793 5.90087 45.8258 5.4981C46.0123 5.38191 46.1991 5.26595 46.3858 5.15006C46.6185 5.00554 46.851 4.86061 47.0832 4.71516C49.4001 3.279 49.4001 3.279 50.9198 3.49919C51.6502 3.71862 52.2245 4.12586 52.626 4.77889C52.9216 5.35509 53.0047 5.8206 52.9993 6.46517C52.9986 6.54975 52.9979 6.63434 52.9972 6.72149C52.9727 7.50992 52.7976 8.10932 52.241 8.69075C51.6257 9.23774 50.9516 9.65572 50.2466 10.0777C50.0596 10.1909 49.8728 10.3044 49.6861 10.418C49.5616 10.4936 49.437 10.5691 49.3124 10.6446C48.7911 10.9604 48.2748 11.2836 47.7605 11.6106C47.0135 12.0845 46.2646 12.5551 45.5143 13.0236C45.4075 13.0904 45.3006 13.1572 45.1905 13.226C44.6344 13.5732 44.0782 13.9202 43.5219 14.2671C42.9877 14.6003 42.4541 14.9343 41.9207 15.2688C41.6692 15.426 41.417 15.5822 41.1645 15.738C41.0304 15.8218 40.8962 15.9057 40.7621 15.9896C40.6516 16.0581 40.5411 16.1265 40.4272 16.1971C39.8587 16.6175 39.5747 17.0993 39.4524 17.7884C39.3815 18.3111 39.3778 18.8351 39.3687 19.3618C39.3654 19.5235 39.3654 19.5235 39.362 19.6885C39.355 20.0307 39.3487 20.373 39.3424 20.7152C39.3378 20.9481 39.3332 21.1811 39.3285 21.414C39.3171 21.9831 39.3063 22.5522 39.2958 23.1213C39.3704 23.1191 39.445 23.1168 39.5219 23.1145C39.8664 23.1056 40.2109 23.1001 40.5555 23.0946C40.6728 23.0911 40.7902 23.0875 40.911 23.0838C42.1786 23.0689 43.172 23.4136 44.0947 24.2944C45.0547 25.3 45.3341 26.3813 45.3162 27.7449C45.3162 27.8709 45.3163 27.9969 45.3164 28.1268C45.3161 28.5394 45.3127 28.9519 45.3094 29.3644C45.3084 29.6521 45.308 29.9397 45.3076 30.2273C45.3062 30.9045 45.3028 31.5816 45.2985 32.2588C45.2932 33.1063 45.2909 33.9538 45.2886 34.8013C45.2844 36.3112 45.2759 37.821 45.2677 39.3309C47.8015 39.3309 50.3354 39.3309 52.946 39.3309C52.946 43.8354 52.946 48.34 52.946 52.981C43.0922 52.981 33.2385 52.981 23.0862 52.981C23.0862 50.7288 23.0862 48.4765 23.0862 46.156C24.2124 46.156 25.3385 46.156 26.4988 46.156C26.4988 41.0883 26.4988 36.0207 26.4988 30.7995C26.182 30.7995 25.8653 30.7995 25.539 30.7995C24.4038 30.559 23.4956 29.8745 22.8318 28.936C22.1291 27.8366 22.17 26.6934 22.1764 25.4366C22.1761 25.237 22.1757 25.0374 22.1752 24.8378C22.1746 24.4206 22.1755 24.0035 22.1775 23.5864C22.1799 23.0568 22.1785 22.5274 22.1759 21.9979C22.1744 21.5858 22.1749 21.1737 22.176 20.7616C22.1763 20.5666 22.176 20.3717 22.1749 20.1767C22.1686 18.6061 22.2908 17.0143 23.0662 15.6097C23.1031 15.5397 23.1401 15.4697 23.1781 15.3976C24.2677 13.3737 25.786 12.0055 27.8455 11.0312C28.2074 10.8665 28.2074 10.8665 28.525 10.6442C28.4502 10.5716 28.3754 10.499 28.2983 10.4242C27.1759 9.28917 26.4696 7.9986 26.4488 6.36865C26.4499 6.27073 26.451 6.17281 26.4521 6.07193C26.4529 5.96899 26.4537 5.86605 26.4546 5.75999C26.4726 4.97832 26.5804 4.31481 26.9253 3.60583C26.9743 3.50328 27.0232 3.40073 27.0736 3.29507C27.8973 1.68673 29.1965 0.772043 30.8894 0.182044C32.4502 -0.182663 34.1749 -0.0116761 35.5592 0.806482ZM29.0782 3.52585C28.3216 4.5727 28.1887 5.65491 28.3117 6.91173C28.5524 8.06136 29.2442 8.94977 30.1858 9.63027C31.2497 10.2915 32.4464 10.4014 33.66 10.1472C34.8528 9.7608 35.7556 8.9178 36.344 7.82277C36.776 6.81523 36.8004 5.6133 36.4631 4.57227C35.9751 3.43405 35.0953 2.55425 33.957 2.06619C32.0997 1.46443 30.3159 2.05687 29.0782 3.52585ZM48.3737 6.0586C48.2513 6.13656 48.1289 6.21431 48.0063 6.29188C47.752 6.45299 47.4982 6.61497 47.2449 6.7776C46.6621 7.15062 46.0712 7.51038 45.481 7.87151C44.7753 8.30481 44.0704 8.7393 43.3678 9.17746C42.5222 9.7039 41.6737 10.2255 40.8163 10.7325C40.7498 10.7719 40.6832 10.8112 40.6147 10.8518C38.6377 11.9163 36.6894 12.0014 34.4769 11.9972C31.2725 12.005 28.61 12.0405 26.1522 14.3433C24.2766 16.3195 23.9027 18.6917 23.911 21.3346C23.9109 21.4829 23.9107 21.6312 23.9104 21.7795C23.9101 22.0866 23.9105 22.3937 23.9115 22.7008C23.9128 23.0918 23.9121 23.4828 23.9108 23.8738C23.91 24.1785 23.9103 24.4833 23.9108 24.7881C23.911 25.0015 23.9104 25.2149 23.9097 25.4283C23.9153 26.5142 23.9387 27.4976 24.7542 28.3072C25.3365 28.8326 25.6917 28.9866 26.4988 28.9866C26.4988 24.7988 26.4988 20.611 26.4988 16.2962C27.0618 16.2962 27.6249 16.2962 28.205 16.2962C28.205 26.1499 28.205 36.0036 28.205 46.156C29.3312 46.156 30.4573 46.156 31.6176 46.156C31.6176 39.1176 31.6176 32.0792 31.6176 24.8276C32.1806 24.8276 32.7437 24.8276 33.3238 24.8276C33.3238 25.9537 33.3238 27.0799 33.3238 28.2401C33.7321 28.2429 34.1404 28.2456 34.5611 28.2484C34.9571 28.2525 35.3531 28.2574 35.7491 28.2622C36.024 28.2653 36.2989 28.2675 36.5739 28.269C36.9694 28.2713 37.3648 28.2763 37.7603 28.2818C37.883 28.2819 38.0056 28.282 38.132 28.2822C38.779 28.294 39.2288 28.308 39.7224 28.7733C40.104 29.2592 40.0894 29.6956 40.0884 30.2873C40.09 30.434 40.09 30.434 40.0917 30.5838C40.0949 30.9063 40.0959 31.2289 40.0969 31.5514C40.0987 31.7754 40.1006 31.9994 40.1027 32.2234C40.1077 32.8123 40.1109 33.4012 40.1137 33.9901C40.1169 34.5912 40.1218 35.1924 40.1266 35.7936C40.1358 36.9727 40.1428 38.1518 40.1489 39.3309C41.2751 39.3309 42.4012 39.3309 43.5615 39.3309C43.5663 37.7902 43.5702 36.2495 43.5725 34.7087C43.5736 33.9933 43.5751 33.2778 43.5776 32.5624C43.5799 31.8716 43.5812 31.1808 43.5817 30.4901C43.5821 30.2269 43.5829 29.9636 43.584 29.7004C43.5856 29.3311 43.5858 28.9617 43.5857 28.5924C43.5868 28.43 43.5868 28.43 43.588 28.2644C43.5854 27.3465 43.5231 26.5188 42.9216 25.7874C42.1653 25.0364 41.4616 24.8154 40.393 24.8155C40.2825 24.8163 40.2825 24.8163 40.1698 24.8172C40.0539 24.8174 40.0539 24.8174 39.9358 24.8176C39.6914 24.8182 39.4469 24.8195 39.2025 24.8209C39.0359 24.8214 38.8692 24.8219 38.7026 24.8224C38.296 24.8235 37.8895 24.8254 37.4829 24.8276C37.4919 23.9894 37.5021 23.1513 37.5135 22.3132C37.5188 21.9239 37.5238 21.5346 37.5279 21.1452C37.5318 20.7684 37.5368 20.3915 37.5424 20.0147C37.5453 19.8034 37.5472 19.5922 37.5491 19.3809C37.5854 17.1134 37.5854 17.1134 38.0894 16.1496C38.1626 16.0032 38.1626 16.0032 38.2373 15.8538C38.7959 15.0267 39.5448 14.5455 40.3889 14.0367C40.619 13.8956 40.8491 13.7544 41.0791 13.6131C41.1927 13.5438 41.3063 13.4745 41.4233 13.4031C41.8791 13.1236 42.3305 12.8373 42.7816 12.5504C43.5772 12.0464 44.3773 11.55 45.1787 11.0553C45.8798 10.622 46.5773 10.1831 47.2734 9.7417C48.0222 9.26765 48.7757 8.80124 49.5305 8.33682C49.7808 8.18251 50.0306 8.02736 50.2799 7.87151C50.3455 7.83082 50.4112 7.79013 50.4788 7.7482C50.9004 7.47912 51.0956 7.27497 51.2197 6.77843C51.2473 6.22531 51.1041 5.84368 50.7398 5.42541C49.8195 5.00256 49.1313 5.56321 48.3737 6.0586ZM33.3238 29.9464C33.3238 34.1694 33.3238 38.3924 33.3238 42.7434C34.45 42.7434 35.5761 42.7434 36.7364 42.7434C36.7364 41.6173 36.7364 40.4911 36.7364 39.3309C37.2995 39.3309 37.8625 39.3309 38.4427 39.3309C38.4427 36.234 38.4427 33.1371 38.4427 29.9464C36.7534 29.9464 35.0642 29.9464 33.3238 29.9464ZM38.4427 41.0371C38.4427 42.1633 38.4427 43.2894 38.4427 44.4497C36.7534 44.4497 35.0642 44.4497 33.3238 44.4497C33.3238 45.5758 33.3238 46.702 33.3238 47.8622C30.5085 47.8622 27.6931 47.8622 24.7925 47.8622C24.7925 48.9884 24.7925 50.1145 24.7925 51.2748C33.5201 51.2748 42.2476 51.2748 51.2397 51.2748C51.2397 47.8964 51.2397 44.5179 51.2397 41.0371C47.0167 41.0371 42.7936 41.0371 38.4427 41.0371Z" fill="#876FFD"/>
<path d="M13.3781 7.6307C13.6386 7.8079 13.8844 7.99197 14.1288 8.19057C14.2176 8.25738 14.3064 8.32419 14.3979 8.39302C15.3814 9.22766 16.1582 10.674 16.2869 11.9633C16.3804 13.7739 16.19 15.2889 14.9819 16.7219C14.6953 17.0285 14.6953 17.0285 14.4487 17.2551C14.3061 17.3969 14.1639 17.5391 14.0221 17.6817C14.1369 17.7386 14.2517 17.7955 14.37 17.8542C16.9967 19.1832 19.0512 21.1548 20.0704 23.9712C20.3778 24.9091 20.5427 25.8046 20.5462 26.7907C20.5469 26.8786 20.5476 26.9664 20.5483 27.0569C20.5504 27.346 20.5516 27.6352 20.5527 27.9243C20.5531 28.0236 20.5536 28.1229 20.554 28.2251C20.5562 28.7505 20.5578 29.2758 20.5588 29.8012C20.5599 30.3417 20.5636 30.8821 20.5678 31.4226C20.5706 31.8401 20.5715 32.2577 20.5719 32.6753C20.5724 32.8744 20.5737 33.0735 20.5756 33.2727C20.5878 34.5727 20.5816 35.7085 19.6425 36.714C18.8796 37.3999 18.0877 37.6609 17.0748 37.6371C16.9963 37.6361 16.9178 37.6351 16.8369 37.6342C16.6451 37.6317 16.4534 37.6278 16.2616 37.6237C16.262 37.6887 16.2624 37.7537 16.2628 37.8206C16.2722 39.4051 16.2793 40.9896 16.2837 42.5741C16.2859 43.3403 16.2889 44.1066 16.2938 44.8728C16.2981 45.5411 16.3008 46.2093 16.3017 46.8776C16.3023 47.2311 16.3038 47.5846 16.3067 47.9381C16.3098 48.3337 16.3102 48.7293 16.31 49.125C16.3116 49.2408 16.3131 49.3566 16.3147 49.476C16.3093 50.472 16.0682 51.3301 15.3768 52.0704C14.4977 52.8608 13.5664 53.0419 12.4146 53.0139C11.5657 52.9455 11.0095 52.5864 10.3963 52.0204C10.0357 52.1791 9.74308 52.3967 9.43403 52.6369C8.61699 53.1407 7.47174 53.1156 6.55511 52.9069C5.61996 52.5621 4.96888 51.9528 4.531 51.0606C4.25947 50.4401 4.28916 49.8378 4.2935 49.1734C4.29347 49.0485 4.29344 48.9236 4.29341 48.7949C4.29356 48.3829 4.29521 47.9709 4.29689 47.5589C4.29728 47.2729 4.2976 46.9869 4.2978 46.7009C4.29846 46.0257 4.30021 45.3504 4.30235 44.6751C4.30474 43.9061 4.30591 43.137 4.30698 42.3679C4.30921 40.7865 4.31296 39.2051 4.31771 37.6237C4.14224 37.6268 4.14224 37.6268 3.96321 37.6298C3.80811 37.6315 3.65301 37.633 3.4979 37.6346C3.38253 37.6367 3.38253 37.6367 3.26483 37.639C2.62758 37.6437 2.18325 37.5395 1.65167 37.1972C1.57633 37.1507 1.501 37.1042 1.42339 37.0564C0.683896 36.5552 0.292737 35.9177 0.0520374 35.0643C0.0313965 34.7655 0.0206968 34.4773 0.021055 34.1786C0.0203386 34.0919 0.0196223 34.0053 0.0188843 33.9161C0.016864 33.6305 0.0164417 33.345 0.0162124 33.0594C0.015526 32.859 0.0148085 32.6587 0.0140612 32.4583C0.0127849 32.038 0.0123888 31.6176 0.0125153 31.1973C0.0125368 30.6636 0.00963882 30.1299 0.00595188 29.5962C0.00355653 29.1818 0.00314837 28.7674 0.00326045 28.353C0.00301175 28.1566 0.00208635 27.9602 0.000417683 27.7637C-0.0222614 24.8154 0.877605 22.2614 2.94803 20.1149C4.0099 19.0476 5.21581 18.3433 6.5572 17.6817C6.46922 17.6179 6.38124 17.5541 6.29059 17.4884C5.22793 16.602 4.44221 15.1479 4.28514 13.7702C4.27122 13.4781 4.26783 13.1886 4.27106 12.8961C4.27187 12.7932 4.27267 12.6903 4.27351 12.5842C4.29154 11.8025 4.39937 11.139 4.74428 10.4301C4.79322 10.3275 4.84216 10.2249 4.89258 10.1193C5.71626 8.51094 7.0155 7.59626 8.70836 7.00626C10.2691 6.64156 11.9938 6.81254 13.3781 7.6307ZM6.89712 10.3501C6.14057 11.3969 6.00761 12.4791 6.13063 13.736C6.37138 14.8856 7.06316 15.774 8.00478 16.4545C9.06863 17.1158 10.2654 17.2256 11.479 16.9714C12.6717 16.585 13.5745 15.742 14.1629 14.647C14.5949 13.6394 14.6193 12.4375 14.2821 11.3965C13.794 10.2583 12.9142 9.37846 11.776 8.89041C9.91861 8.28865 8.13484 8.88109 6.89712 10.3501ZM9.31655 18.9414C9.19712 18.9546 9.19712 18.9546 9.07528 18.968C8.62157 19.0173 8.62157 19.0173 8.26346 19.2813C8.37749 19.4147 8.37749 19.4147 8.49383 19.5509C9.07333 20.231 9.64345 20.9148 10.183 21.6275C10.4809 21.3432 10.7241 21.057 10.9545 20.716C11.0157 20.626 11.0769 20.5359 11.1399 20.4431C11.2024 20.3501 11.265 20.257 11.3294 20.1611C11.3936 20.0664 11.4578 19.9717 11.524 19.8741C11.6817 19.6412 11.839 19.4081 11.9959 19.1747C11.1643 18.7385 10.2243 18.8388 9.31655 18.9414ZM13.8088 19.7079C12.6561 21.2969 11.5197 22.8969 10.3963 24.5068C9.97297 24.0944 9.58209 23.6615 9.19658 23.2138C9.13557 23.1431 9.07456 23.0725 9.0117 22.9997C8.58417 22.503 8.16532 22 7.75275 21.4908C7.47904 21.1542 7.20179 20.8207 6.92378 20.4877C6.8766 20.4312 6.82942 20.3747 6.78082 20.3164C6.67077 20.1846 6.56067 20.0529 6.45055 19.9212C5.97573 20.0558 5.655 20.2246 5.27749 20.541C5.19171 20.6121 5.10593 20.6832 5.01755 20.7564C4.92737 20.8327 4.83719 20.909 4.74428 20.9876C4.63857 21.0719 4.53286 21.1561 4.42394 21.243C2.76449 22.686 1.95123 24.8739 1.78075 27.0179C1.7411 27.6685 1.73876 28.3187 1.73665 28.9703C1.73634 29.0433 1.73604 29.1162 1.73573 29.1913C1.73415 29.5762 1.73316 29.9611 1.73269 30.3459C1.7321 30.7403 1.72953 31.1347 1.72651 31.529C1.72451 31.8356 1.72396 32.1422 1.7238 32.4488C1.72333 32.6641 1.72135 32.8794 1.71933 33.0947C1.7122 34.2872 1.7122 34.2871 2.21421 35.3391C2.84722 35.9233 3.48699 35.9175 4.31771 35.9175C4.31771 31.976 4.31771 28.0345 4.31771 23.9736C4.88078 23.9736 5.44385 23.9736 6.02399 23.9736C6.02354 24.1701 6.02354 24.1701 6.02309 24.3706C6.01616 27.4825 6.01089 30.5943 6.00765 33.7062C6.00725 34.0894 6.00683 34.4726 6.00641 34.8558C6.00629 34.9703 6.00629 34.9703 6.00616 35.087C6.00477 36.3214 6.00224 37.5559 5.9993 38.7903C5.99631 40.0574 5.99453 41.3246 5.99388 42.5917C5.99348 43.3032 5.99249 44.0147 5.99016 44.7262C5.98799 45.3961 5.98732 46.066 5.9878 46.7358C5.98771 46.9815 5.98708 47.2272 5.98585 47.4729C5.98425 47.8088 5.98464 48.1447 5.98551 48.4806C5.98412 48.6258 5.98411 48.6258 5.98269 48.7739C5.98732 49.436 6.03843 50.1849 6.49875 50.701C7.00554 51.1327 7.34578 51.2052 7.99269 51.1968C8.39406 51.153 8.60663 51.0091 8.90332 50.7407C9.39167 50.1204 9.44996 49.6281 9.44935 48.8558C9.44944 48.7856 9.44953 48.7155 9.44963 48.6432C9.4498 48.4091 9.44922 48.1749 9.44863 47.9408C9.4486 47.7726 9.44862 47.6044 9.44868 47.4363C9.44871 46.9802 9.44808 46.5242 9.44734 46.0681C9.44667 45.5913 9.44661 45.1145 9.44648 44.6377C9.44615 43.7351 9.44528 42.8324 9.44421 41.9298C9.44302 40.9021 9.44243 39.8743 9.44189 38.8466C9.44078 36.7327 9.43888 34.6188 9.43653 32.5049C9.9996 32.5049 10.5627 32.5049 11.1428 32.5049C11.1421 32.7166 11.1414 32.9282 11.1406 33.1462C11.1341 35.1406 11.1293 37.1349 11.1262 39.1293C11.1246 40.1546 11.1223 41.1799 11.1187 42.2053C11.1155 43.0991 11.1134 43.993 11.1127 44.8869C11.1123 45.36 11.1113 45.8331 11.109 46.3062C11.1068 46.752 11.1061 47.1978 11.1066 47.6436C11.1065 47.8067 11.1059 47.9699 11.1047 48.133C11.0511 49.5038 11.0511 49.5038 11.6176 50.6987C12.1212 51.1345 12.4654 51.2052 13.1115 51.1968C13.5129 51.153 13.7254 51.0091 14.0221 50.7407C14.5826 50.0287 14.5709 49.3998 14.5682 48.5319C14.5683 48.4269 14.5683 48.3219 14.5684 48.2138C14.5686 47.8617 14.568 47.5097 14.5674 47.1576C14.5674 46.9054 14.5674 46.6532 14.5675 46.4009C14.5675 45.7158 14.5669 45.0306 14.5662 44.3454C14.5655 43.702 14.5654 43.0586 14.5653 42.4152C14.5651 41.141 14.5644 39.8667 14.5634 38.5924C14.5624 37.3547 14.5617 36.117 14.5612 34.8792C14.5612 34.7648 14.5612 34.7648 14.5611 34.648C14.561 34.2652 14.5608 33.8824 14.5607 33.4995C14.5596 30.3242 14.5577 27.1489 14.5553 23.9736C15.1184 23.9736 15.6815 23.9736 16.2616 23.9736C16.2616 27.9151 16.2616 31.8565 16.2616 35.9175C17.3256 35.9274 17.3256 35.9274 18.2461 35.4601C18.9537 34.6817 18.8524 33.6916 18.8493 32.709C18.8495 32.5614 18.8497 32.4138 18.85 32.2662C18.8503 31.957 18.8498 31.6477 18.8488 31.3385C18.8476 30.9476 18.8483 30.5567 18.8496 30.1658C18.8582 26.9691 18.7584 23.9313 16.4152 21.459C15.6557 20.7102 14.7829 20.139 13.8088 19.7079Z" fill="#876FFD"/>
<path d="M47.8281 47.8613C48.3912 47.8613 48.9543 47.8613 49.5344 47.8613C49.5344 48.4244 49.5344 48.9875 49.5344 49.5676C48.9713 49.5676 48.4083 49.5676 47.8281 49.5676C47.8281 49.0045 47.8281 48.4415 47.8281 47.8613Z" fill="#876FFD"/>
<path d="M44.415 47.8613C44.9781 47.8613 45.5412 47.8613 46.1213 47.8613C46.1213 48.4244 46.1213 48.9875 46.1213 49.5676C45.5582 49.5676 44.9952 49.5676 44.415 49.5676C44.415 49.0045 44.415 48.4415 44.415 47.8613Z" fill="#876FFD"/>
<path d="M41.0029 47.8613C41.566 47.8613 42.1291 47.8613 42.7092 47.8613C42.7092 48.4244 42.7092 48.9875 42.7092 49.5676C42.1461 49.5676 41.5831 49.5676 41.0029 49.5676C41.0029 49.0045 41.0029 48.4415 41.0029 47.8613Z" fill="#876FFD"/>
</svg>
