<svg width="39" height="39" viewBox="0 0 39 39" fill="none" xmlns="http://www.w3.org/2000/svg">
<circle cx="19.5" cy="19.5" r="19.5" fill="#F5F5F5"/>
<path d="M19 28C16.7667 28 14.875 27.225 13.325 25.675C11.775 24.125 11 22.2333 11 20C11 17.7667 11.775 15.875 13.325 14.325C14.875 12.775 16.7667 12 19 12C20.15 12 21.25 12.2373 22.3 12.712C23.35 13.1867 24.25 13.866 25 14.75V12H27V19H20V17H24.2C23.6667 16.0667 22.9377 15.3333 22.013 14.8C21.0883 14.2667 20.084 14 19 14C17.3333 14 15.9167 14.5833 14.75 15.75C13.5833 16.9167 13 18.3333 13 20C13 21.6667 13.5833 23.0833 14.75 24.25C15.9167 25.4167 17.3333 26 19 26C20.2833 26 21.4417 25.6333 22.475 24.9C23.5083 24.1667 24.2333 23.2 24.65 22H26.75C26.2833 23.7667 25.3333 25.2083 23.9 26.325C22.4667 27.4417 20.8333 28 19 28Z" fill="black"/>
</svg>
