<svg width="26" height="27" viewBox="0 0 26 27" fill="none" xmlns="http://www.w3.org/2000/svg">
<path d="M6.49967 24.334C5.90384 24.334 5.39395 24.122 4.97001 23.6981C4.54606 23.2741 4.33373 22.7639 4.33301 22.1673V11.334C4.33301 10.7382 4.54534 10.2283 4.97001 9.80432C5.39467 9.38037 5.90456 9.16804 6.49967 9.16732H7.58301V7.00065C7.58301 5.50204 8.11131 4.22479 9.16792 3.1689C10.2245 2.11301 11.5018 1.58471 12.9997 1.58399C14.4976 1.58326 15.7752 2.11157 16.8325 3.1689C17.8898 4.22624 18.4178 5.50348 18.4163 7.00065V9.16732H19.4997C20.0955 9.16732 20.6058 9.37965 21.0304 9.80432C21.4551 10.229 21.6671 10.7389 21.6663 11.334V22.1673C21.6663 22.7632 21.4544 23.2734 21.0304 23.6981C20.6065 24.1227 20.0962 24.3347 19.4997 24.334H6.49967ZM6.49967 22.1673H19.4997V11.334H6.49967V22.1673ZM12.9997 18.9173C13.5955 18.9173 14.1058 18.7053 14.5304 18.2814C14.9551 17.8575 15.1671 17.3472 15.1663 16.7507C15.1656 16.1541 14.9536 15.6442 14.5304 15.221C14.1072 14.7978 13.597 14.5854 12.9997 14.584C12.4024 14.5825 11.8925 14.7949 11.47 15.221C11.0475 15.6471 10.8352 16.157 10.833 16.7507C10.8308 17.3443 11.0432 17.8546 11.47 18.2814C11.8968 18.7082 12.4067 18.9202 12.9997 18.9173ZM9.74967 9.16732H16.2497V7.00065C16.2497 6.09787 15.9337 5.33051 15.3018 4.69857C14.6698 4.06662 13.9025 3.75065 12.9997 3.75065C12.0969 3.75065 11.3295 4.06662 10.6976 4.69857C10.0656 5.33051 9.74967 6.09787 9.74967 7.00065V9.16732Z" fill="black" fill-opacity="0.3"/>
</svg>
